<svg xmlns="http://www.w3.org/2000/svg" width="51.323" height="51.323" viewBox="0 0 51.323 51.323">
  <path id="Path_11846" data-name="Path 11846" d="M59.323,33.662a3.676,3.676,0,0,0-3.055-3.6,22.823,22.823,0,0,0-19-19,3.654,3.654,0,0,0-7.21,0,22.823,22.823,0,0,0-19,19,3.654,3.654,0,0,0,0,7.21,22.823,22.823,0,0,0,19,19,3.654,3.654,0,0,0,7.21,0,23.645,23.645,0,0,0,6.11-1.894,7.777,7.777,0,0,0,11-11,24.4,24.4,0,0,0,1.894-6.11,3.676,3.676,0,0,0,3.055-3.6Zm-9.9,7.393a15.678,15.678,0,0,0,1.222-3.727h3.788a22.547,22.547,0,0,1-1.466,4.888,7.181,7.181,0,0,0-3.544-1.161ZM30.24,48.875a15.576,15.576,0,0,1-5.255-2.261v-.55a8.726,8.726,0,0,1,3.971-7.271,8.806,8.806,0,0,0,3.055,1.161L30.24,42.338a.858.858,0,0,0-.122.855l1.527,4.033A2.885,2.885,0,0,0,30.24,48.875Zm-3.849-19h1.772a6.471,6.471,0,0,0,5.5-3.116,6.338,6.338,0,0,0,5.5,3.116h1.772a5.928,5.928,0,0,1,.061,1.039,7.332,7.332,0,1,1-14.664,0C26.33,30.545,26.391,30.24,26.391,29.873Zm.55-1.833a7.279,7.279,0,0,1,5.8-4.4,4.622,4.622,0,0,1-4.582,4.4Zm7.637-4.4a7.279,7.279,0,0,1,5.8,4.4H39.16A4.622,4.622,0,0,1,34.578,23.641ZM42.215,44.6a7.232,7.232,0,0,0-1.1,2.749,16.125,16.125,0,0,1-4.033,1.527,3.674,3.674,0,0,0-1.344-1.711l1.527-4.033a.858.858,0,0,0-.122-.855l-1.772-2.383a8.806,8.806,0,0,0,3.055-1.161A8.7,8.7,0,0,1,42.215,44.6Zm-8.92,1.894-1.344-3.544,1.711-2.261,1.711,2.261-1.344,3.544h-.733Zm4.033,4.155a16.635,16.635,0,0,0,3.727-1.222,8.4,8.4,0,0,0,1.161,3.483,22.547,22.547,0,0,1-4.888,1.466Zm6.415-7.76a10.723,10.723,0,0,0-3.788-5.316,9.165,9.165,0,1,0-12.586,0,10.544,10.544,0,0,0-4.216,7.576,15.685,15.685,0,0,1-4.7-8.065,3.648,3.648,0,0,0,0-6.843A15.7,15.7,0,0,1,30.24,18.448a3.648,3.648,0,0,0,6.843,0A15.608,15.608,0,0,1,48.875,30.24a3.648,3.648,0,0,0,0,6.843,16.125,16.125,0,0,1-1.527,4.033,8.006,8.006,0,0,0-3.6,1.772ZM57.49,33.662a1.8,1.8,0,0,1-1.833,1.833h-5.5a1.833,1.833,0,0,1,0-3.666h5.5a1.8,1.8,0,0,1,1.833,1.833ZM54.435,30H50.708a17.468,17.468,0,0,0-13.381-13.32V12.888A21.048,21.048,0,0,1,54.435,30ZM31.829,11.666a1.833,1.833,0,0,1,3.666,0v5.5a1.833,1.833,0,1,1-3.666,0ZM30,12.888v3.727A17.468,17.468,0,0,0,16.676,30H12.888A21.048,21.048,0,0,1,30,12.888ZM9.833,33.662a1.8,1.8,0,0,1,1.833-1.833h5.5a1.833,1.833,0,0,1,0,3.666h-5.5A1.8,1.8,0,0,1,9.833,33.662Zm3.055,3.666h3.727A17.468,17.468,0,0,0,30,50.647v3.788A21.048,21.048,0,0,1,12.888,37.327Zm22.607,18.33a1.833,1.833,0,1,1-3.666,0v-5.5a1.833,1.833,0,0,1,3.666,0Zm13.32-.916A5.988,5.988,0,1,1,54.8,48.753,6,6,0,0,1,48.814,54.741Z" transform="translate(-8 -8)" fill="#fff"/>
</svg>
