<svg id="Group_463" data-name="Group 463" xmlns="http://www.w3.org/2000/svg" width="94.434" height="80" viewBox="0 0 94.434 80">
  <path id="Path_11877" data-name="Path 11877" d="M92.53,43.983a1.907,1.907,0,0,0,1.9-1.9V38.8a1.907,1.907,0,0,0-1.9-1.9H68.3V32.829h1.08a2.073,2.073,0,0,0,2.072-2.072V26.713a1.475,1.475,0,0,0-.011-.17l-.006-.038a1.168,1.168,0,0,0-.027-.133c0-.012-.005-.023-.009-.035a1.379,1.379,0,0,0-.128-.308L71.254,26c-.023-.038-.048-.075-.073-.111l-.025-.032a1.355,1.355,0,0,0-.231-.232l-.032-.024c-.037-.028-.076-.053-.116-.078l-.017-.012L48.6,12.777V9.268h8.517a1.637,1.637,0,0,0,1.437-2.422l-1.311-2.4,1.224-1.935A1.637,1.637,0,0,0,57.084,0H47.217a1.383,1.383,0,0,0-1.383,1.383V12.777L23.676,25.513a.183.183,0,0,1-.019.013c-.038.023-.076.048-.112.075l-.035.026a1.45,1.45,0,0,0-.122.107l0,0a1.485,1.485,0,0,0-.1.119c-.009.012-.018.024-.027.036a1.175,1.175,0,0,0-.071.106c-.006.011-.014.021-.02.032a1.433,1.433,0,0,0-.127.3c0,.013-.006.027-.01.04-.01.041-.019.084-.025.126,0,.014-.005.03-.006.044a1.439,1.439,0,0,0-.012.168v4.044a2.075,2.075,0,0,0,2.072,2.072h1.08v4.065H1.9A1.907,1.907,0,0,0,0,38.8v3.28a1.907,1.907,0,0,0,1.9,1.9H2.42V72.912H1.9a1.906,1.906,0,0,0-1.9,1.9V78.1A1.907,1.907,0,0,0,1.9,80H92.53a1.907,1.907,0,0,0,1.9-1.9v-3.28a1.906,1.906,0,0,0-1.9-1.9h-.516V43.983ZM48.6,2.767h6.434l-.483.764A1.639,1.639,0,0,0,54.5,5.19L55.214,6.5H48.6ZM47.217,15.173,64.887,25.33H29.547ZM25.748,30.063V28.1H68.686v1.966Zm39.785,2.767V72.912H63.558V32.829ZM57.669,53.866h-20.9a1.383,1.383,0,1,0,0,2.767H38.2v16.28H33.643V32.829H60.791V72.912H56.231V56.632h1.438a1.383,1.383,0,1,0,0-2.767Zm-4.205,2.767v16.28H48.6V56.632Zm-7.63,0v16.28H40.971V56.632Zm-14.958-23.8V72.912H28.9V32.829ZM2.767,39.661H26.134v1.556H13.371a1.383,1.383,0,1,0,0,2.767H26.134V72.912H5.187V43.983H6.978a1.383,1.383,0,1,0,0-2.767H2.767Zm88.9,37.573H2.767V75.679h88.9Zm0-36.017H77.7a1.383,1.383,0,1,0,0,2.767H89.247V72.912H68.3V43.983h2.994a1.383,1.383,0,0,0,0-2.767H68.3V39.661H91.667Zm0,0" transform="translate(0 0)" fill="#b9943c"/>
  <path id="Path_11878" data-name="Path 11878" d="M38.7,260.436v4.589a2.07,2.07,0,0,0,2.068,2.068H53.325a2.07,2.07,0,0,0,2.068-2.068v-4.589a2.07,2.07,0,0,0-2.068-2.068H40.768A2.07,2.07,0,0,0,38.7,260.436Zm2.743.675H52.649v3.238H41.443Zm0,0" transform="translate(-31.621 -210.665)" fill="#b9943c"/>
  <path id="Path_11879" data-name="Path 11879" d="M53.325,328.7H40.767a2.071,2.071,0,0,0-2.068,2.068v4.588a2.07,2.07,0,0,0,2.068,2.068H53.325a2.071,2.071,0,0,0,2.068-2.068v-4.588A2.07,2.07,0,0,0,53.325,328.7Zm-.675,5.981H41.443v-3.238H52.649Zm0,0" transform="translate(-31.621 -267.915)" fill="#b9943c"/>
  <path id="Path_11880" data-name="Path 11880" d="M382.027,260.436v4.589a2.07,2.07,0,0,0,2.068,2.068h12.557a2.07,2.07,0,0,0,2.068-2.068v-4.589a2.07,2.07,0,0,0-2.068-2.068H384.1A2.071,2.071,0,0,0,382.027,260.436Zm2.743.675h11.207v3.238H384.771Zm0,0" transform="translate(-311.365 -210.665)" fill="#b9943c"/>
  <path id="Path_11881" data-name="Path 11881" d="M396.653,328.7H384.1a2.071,2.071,0,0,0-2.068,2.068v4.588a2.071,2.071,0,0,0,2.068,2.068h12.557a2.071,2.071,0,0,0,2.068-2.068v-4.588A2.07,2.07,0,0,0,396.653,328.7Zm-.675,5.981H384.771v-3.238h11.207Zm0,0" transform="translate(-311.365 -267.915)" fill="#b9943c"/>
  <path id="Path_11882" data-name="Path 11882" d="M215.716,200.031H196.962a1.741,1.741,0,0,0-1.739,1.739v6.856a1.741,1.741,0,0,0,1.739,1.739h18.755a1.741,1.741,0,0,0,1.739-1.739V201.77a1.742,1.742,0,0,0-1.74-1.739Zm-1,7.59H197.966v-4.847h16.746Zm0,0" transform="translate(-159.122 -163.091)" fill="#b9943c"/>
</svg>
