<svg id="Group_245" data-name="Group 245" xmlns="http://www.w3.org/2000/svg" width="58.045" height="65.785" viewBox="0 0 58.045 65.785">
  <path id="Path_7848" data-name="Path 7848" d="M737.484,1545.067a15.5,15.5,0,0,0,15.479-15.479v-9.131a8.29,8.29,0,0,0-8.283-8.283H730.288a8.29,8.29,0,0,0-8.283,8.283v9.131A15.5,15.5,0,0,0,737.484,1545.067Zm-7.2-29.022h14.391a4.417,4.417,0,0,1,4.414,4.413v3.326H737.484c-8.341,0-10.688-3.072-11.348-4.761A4.4,4.4,0,0,1,730.288,1516.045Zm-4.414,8.65a19.3,19.3,0,0,0,11.609,2.958h11.609v1.935a11.609,11.609,0,0,1-23.218,0Z" transform="translate(-708.461 -1512.175)" fill="#182e46"/>
  <path id="Path_7849" data-name="Path 7849" d="M747.287,1577.747l-7.563-3.241a1.935,1.935,0,0,0-1.576,3.535l.051.021,7.563,3.241a7.933,7.933,0,0,1,4.814,7.292v14.776h-17.6L731.25,1586.1l1.853-7.413a1.936,1.936,0,0,0-1.877-2.4H719.618a1.936,1.936,0,0,0-1.877,2.4l1.854,7.413-1.718,17.272H700.27V1588.6a7.932,7.932,0,0,1,4.808-7.292l7.563-3.241a1.935,1.935,0,0,0-1.474-3.578l-.051.022-7.558,3.241A11.786,11.786,0,0,0,696.4,1588.6v16.711a1.935,1.935,0,0,0,1.935,1.935h54.176a1.935,1.935,0,0,0,1.935-1.935V1588.6A11.787,11.787,0,0,0,747.287,1577.747Zm-18.538,2.407-.968,3.87h-4.717l-.967-3.87Zm-6.992,23.218,1.548-15.479h4.247l1.548,15.479Z" transform="translate(-696.4 -1541.457)" fill="#182e46"/>
</svg>
