<svg xmlns="http://www.w3.org/2000/svg" width="78.543" height="80.502" viewBox="0 0 78.543 80.502">
  <path id="Path_11893" data-name="Path 11893" d="M37,48.532a15.951,15.951,0,0,0,22.538-1.4c9.379-10.571,1.129-27.447-12.955-26.506-14.1.831-20.248,18.585-9.583,27.9Zm.486-20.875a13.466,13.466,0,0,1,18.977-1.192c12.359,11.622-2.651,30.5-16.735,21.032A13.469,13.469,0,0,1,37.485,27.656Zm45.64,33.469V12.1a1.357,1.357,0,0,0-.3-.8C82.8,11.157,72.9,1.386,72.821,1.261A1.373,1.373,0,0,0,71.927.9H31.369a2.343,2.343,0,0,0-2.337,2.337V26.715a21.16,21.16,0,0,0,.157,20,22.125,22.125,0,0,0,2.2,3.231l-4.533,5.144a2.563,2.563,0,0,0-3.858-.11l-1.945,2.2c-2.807,3.184-8.955,10.147-11.81,13.378a6.234,6.234,0,0,0,9.348,8.25L29.032,66.976v1.662a2.343,2.343,0,0,0,2.337,2.337H61.262a12.275,12.275,0,0,0,12.045,9.8c9.959.125,15.9-11.747,9.818-19.652ZM73.2,5.229l5.615,5.615H73.2ZM31.384,27.656C39.32,13.259,60.917,15.8,65.324,31.5c3.592,12-6.415,24.482-18.946,23.479C33,54.272,24.86,39.294,31.384,27.656Zm-14.7,49.482c-3.372,3.576-8.673-1.208-5.568-4.925l6.571-7.434,5.568,4.909S16.7,77.123,16.689,77.139Zm8.234-9.332L19.355,62.9l1.913-2.164,5.568,4.909Zm3.592-4.046-5.583-4.925,1.882-2.18.376.329c.784.69,4.172,3.686,4.893,4.313l.016-.016.361.282Zm1.333-6.023c-.2-.188-.925-.816-1.114-.988l4.376-4.956c.345.329.737.674,1.114.972ZM61.011,68.45H31.557V64.121l.784-.894a2.572,2.572,0,0,0-.6-3.827l4.548-5.144c16.28,10.257,36.653-4.909,31.462-23.447C63.238,14.749,42.3,10.2,31.557,23V3.441H70.688v7.591a2.343,2.343,0,0,0,2.337,2.337h7.591V58.616A12.319,12.319,0,0,0,61.011,68.45Zm12.28,9.8a9.782,9.782,0,0,1-9.771-9.771c-.031-9.112,11.653-13.253,17.362-6.148,5.16,6.226.5,16.013-7.591,15.919ZM40.34,44.3H54.769a2.466,2.466,0,0,0,1.9-.894,3.148,3.148,0,0,0,.251-3.152,9.875,9.875,0,0,0-4.736-5.819,5.59,5.59,0,1,0-9.285,0,9.924,9.924,0,0,0-4.329,4.736c-.957,2.07-1.176,4.893,1.772,5.129Zm7.215-16.044a3.06,3.06,0,1,1-.91,5.991A3.06,3.06,0,0,1,47.554,28.252Zm-2.572,8.03a5.618,5.618,0,0,0,5.144,0,7.274,7.274,0,0,1,4.564,5.489L40.4,41.8a7.319,7.319,0,0,1,4.58-5.521ZM79.706,66.9,73.2,72.841a1.26,1.26,0,0,1-1.631.063l-3.623-2.886a1.262,1.262,0,0,1,1.568-1.976l2.776,2.211L78,65.047a1.26,1.26,0,0,1,1.71,1.851ZM64.493,10.843H58.737a1.263,1.263,0,0,1,0-2.525h5.756A1.263,1.263,0,0,1,64.493,10.843ZM54.879,9.589a1.258,1.258,0,0,1-1.255,1.255H39.148a1.263,1.263,0,0,1,0-2.525H53.624A1.282,1.282,0,0,1,54.879,9.589Z" transform="translate(-7.432 -0.65)" fill="#b9943c" stroke="#b9943c" stroke-width="0.5"/>
</svg>
