<svg xmlns="http://www.w3.org/2000/svg" width="51.164" height="57.921" viewBox="0 0 51.164 57.921">
  <g id="outline" transform="translate(-39.988 -16)">
    <path id="Path_11857" data-name="Path 11857" d="M128.965,105.931H150.2a.965.965,0,0,0,0-1.931H128.965a.965.965,0,0,0,0,1.931Z" transform="translate(-77.392 -77.381)" fill="#fff"/>
    <path id="Path_11858" data-name="Path 11858" d="M128.965,153.931H150.2a.965.965,0,0,0,0-1.931H128.965a.965.965,0,0,0,0,1.931Z" transform="translate(-77.392 -119.589)" fill="#fff"/>
    <path id="Path_11859" data-name="Path 11859" d="M128.965,201.931H150.2a.965.965,0,0,0,0-1.931H128.965a.965.965,0,0,0,0,1.931Z" transform="translate(-77.392 -161.797)" fill="#fff"/>
    <path id="Path_11860" data-name="Path 11860" d="M128.965,249.931H150.2a.965.965,0,1,0,0-1.931H128.965a.965.965,0,1,0,0,1.931Z" transform="translate(-77.392 -204.005)" fill="#fff"/>
    <path id="Path_11861" data-name="Path 11861" d="M128.965,297.931h7.723a.965.965,0,1,0,0-1.931h-7.723a.965.965,0,1,0,0,1.931Z" transform="translate(-77.392 -246.213)" fill="#fff"/>
    <path id="Path_11862" data-name="Path 11862" d="M89.721,38.808a2.9,2.9,0,0,0-3.963,1.034L83.43,43.814V19.861a.965.965,0,0,0-.965-.965H75.142a37.853,37.853,0,0,0-3.017-2.855A.962.962,0,0,0,71.846,16h-28a.965.965,0,0,0-.965.965v3.018a3.861,3.861,0,0,0,0,7.478v2.175a3.861,3.861,0,0,0,0,7.478v2.175a3.861,3.861,0,0,0,0,7.478v1.21a3.861,3.861,0,0,0,0,7.478v5.914a.965.965,0,0,0,.965.965h.965v2.9a.965.965,0,0,0,.965.965H70.312l-.662,1.129a.958.958,0,0,0-.118.328c0,.006,0,.01,0,.016l0,.016v0l-.772,5.121a.965.965,0,0,0,1.547.906l4.106-3.188c.263-.2.392-.329.371-.5L77.026,66.2h5.439a.965.965,0,0,0,.965-.965V55.27l7.325-12.5a2.9,2.9,0,0,0-1.034-3.963Zm-1.708,1.564a.965.965,0,0,1,1.077,1.422l-.488.833-1.665-.976.488-.833a.959.959,0,0,1,.589-.446ZM73.47,68.447l-1.665-.976L84.5,45.816l1.665.976ZM72.811,19.3l3.462,3.462H72.811ZM85.471,44.15l.488-.833,1.666.976-.488.833ZM81.5,20.827V46.891a.97.97,0,0,0,.018.187L79.569,50.4V23.723a.963.963,0,0,0-.282-.682h0l-2.213-2.213Zm-36.683-2.9H70.881v5.792a.965.965,0,0,0,.965.965h5.792V53.7l-3.931,6.708H44.816V55.457a3.858,3.858,0,0,0,2.774-2.775.966.966,0,0,0-1.87-.481,1.924,1.924,0,0,1-.9,1.188v-6.62a3.858,3.858,0,0,0,2.774-2.775.966.966,0,0,0-1.87-.481,1.924,1.924,0,0,1-.9,1.188V37.116a3.858,3.858,0,0,0,2.774-2.775.966.966,0,0,0-1.87-.481,1.924,1.924,0,0,1-.9,1.188V27.462a3.858,3.858,0,0,0,2.774-2.775.966.966,0,0,0-1.87-.481,1.924,1.924,0,0,1-.9,1.188Zm-2.9,5.792a1.931,1.931,0,0,1,.965-1.669v3.339A1.931,1.931,0,0,1,41.92,23.723Zm0,9.654a1.931,1.931,0,0,1,.965-1.669v3.339A1.931,1.931,0,0,1,41.92,33.376Zm0,9.654a1.931,1.931,0,0,1,.965-1.669V44.7A1.931,1.931,0,0,1,41.92,43.03Zm0,8.688a1.931,1.931,0,0,1,.965-1.669v3.339A1.931,1.931,0,0,1,41.92,51.718Zm4.827,12.55V62.337H72.575l-1.132,1.931Zm24.479,5.1.871.511-1.074.834Zm10.274-5.1H78.157l3.343-5.7Z" fill="#fff"/>
  </g>
</svg>
