<svg xmlns="http://www.w3.org/2000/svg" width="67.487" height="67.485" viewBox="0 0 67.487 67.485">
  <g id="optimization" transform="translate(0.875 0.875)">
    <path id="Path_9530" data-name="Path 9530" d="M87.415,114.831A27.418,27.418,0,1,1,106.8,106.8,27.248,27.248,0,0,1,87.415,114.831Zm0-53.651a26.246,26.246,0,1,0,26.246,26.246A26.275,26.275,0,0,0,87.415,61.179Z" transform="translate(-54.509 -54.587)" fill="#17394f" stroke="#162c5f" stroke-width="1.75"/>
    <path id="Path_9531" data-name="Path 9531" d="M118.532,142.664a24.037,24.037,0,1,1,16.992-7.04A23.88,23.88,0,0,1,118.532,142.664Zm0-46.906A22.864,22.864,0,1,0,141.4,118.623,22.886,22.886,0,0,0,118.532,95.759Z" transform="translate(-85.625 -85.794)" fill="#17394f" stroke="#162c5f" stroke-width="1.75"/>
    <path id="Path_9532" data-name="Path 9532" d="M298.32,307.627a1.544,1.544,0,0,1-1.324-.765l-1.491-2.589a1.505,1.505,0,0,1,0-1.52L297,300.165a1.532,1.532,0,0,1,1.324-.765h2.991a1.544,1.544,0,0,1,1.324.765l1.491,2.589a1.505,1.505,0,0,1,0,1.52l-1.5,2.589a1.532,1.532,0,0,1-1.324.765Zm-1.893-4.119,1.7,2.932h3.393l1.7-2.932-1.7-2.932h-3.4Z" transform="translate(-266.904 -270.68)" fill="#17394f" stroke="#162c5f" stroke-width="1.75"/>
    <path id="Path_9533" data-name="Path 9533" d="M562.288,336.477a.588.588,0,1,1,0-1.177h4.8a.588.588,0,0,1,0,1.177Z" transform="translate(-507.35 -303.06)" fill="#17394f" stroke="#162c5f" stroke-width="1.75"/>
    <path id="Path_9534" data-name="Path 9534" d="M60.688,336.477a.588.588,0,1,1,0-1.177h4.8a.588.588,0,1,1,0,1.177Z" transform="translate(-54.599 -303.06)" fill="#17394f" stroke="#162c5f" stroke-width="1.75"/>
    <path id="Path_9535" data-name="Path 9535" d="M536.046,452.079a.629.629,0,0,1-.294-.078l-4.158-2.4a.581.581,0,0,1-.275-.353.607.607,0,0,1,.059-.451.588.588,0,0,1,.51-.294.628.628,0,0,1,.294.078l4.158,2.4a.58.58,0,0,1,.275.353.606.606,0,0,1-.059.451A.6.6,0,0,1,536.046,452.079Z" transform="translate(-479.931 -405.226)" fill="#17394f" stroke="#162c5f" stroke-width="1.75"/>
    <path id="Path_9536" data-name="Path 9536" d="M101.646,201.279a.629.629,0,0,1-.294-.078l-4.158-2.4a.58.58,0,0,1-.275-.353.607.607,0,0,1,.059-.451.589.589,0,0,1,.51-.294.628.628,0,0,1,.294.078l4.158,2.4a.58.58,0,0,1,.275.353.59.59,0,0,1-.569.745Z" transform="translate(-87.79 -178.886)" fill="#17394f" stroke="#162c5f" stroke-width="1.75"/>
    <path id="Path_9537" data-name="Path 9537" d="M200.691,102.235a.588.588,0,0,1-.51-.294l-2.4-4.158a.6.6,0,0,1-.059-.451.58.58,0,0,1,.275-.353.6.6,0,0,1,.294-.078.61.61,0,0,1,.51.294l2.4,4.158a.6.6,0,0,1,.059.451.58.58,0,0,1-.275.353A.66.66,0,0,1,200.691,102.235Z" transform="translate(-178.808 -87.869)" fill="#17394f" stroke="#162c5f" stroke-width="1.75"/>
    <path id="Path_9538" data-name="Path 9538" d="M335.888,66.072a.59.59,0,0,1-.588-.588v-4.8a.588.588,0,1,1,1.177,0v4.8A.59.59,0,0,1,335.888,66.072Z" transform="translate(-302.982 -54.677)" fill="#17394f" stroke="#162c5f" stroke-width="1.75"/>
    <path id="Path_9539" data-name="Path 9539" d="M449.088,102.235a.628.628,0,0,1-.294-.078.58.58,0,0,1-.275-.353.607.607,0,0,1,.059-.451l2.4-4.158a.588.588,0,0,1,.51-.294.629.629,0,0,1,.294.078.58.58,0,0,1,.275.353.607.607,0,0,1-.059.451l-2.4,4.158A.588.588,0,0,1,449.088,102.235Z" transform="translate(-405.148 -87.869)" fill="#17394f" stroke="#162c5f" stroke-width="1.75"/>
    <path id="Path_9540" data-name="Path 9540" d="M97.562,452.079a.61.61,0,0,1-.51-.294.583.583,0,0,1,.216-.8l4.158-2.4a.6.6,0,0,1,.294-.078.61.61,0,0,1,.51.294.583.583,0,0,1-.216.8L97.856,452A.66.66,0,0,1,97.562,452.079Z" transform="translate(-87.854 -405.226)" fill="#17394f" stroke="#162c5f" stroke-width="1.75"/>
    <path id="Path_9541" data-name="Path 9541" d="M531.988,201.279a.588.588,0,0,1-.51-.294.6.6,0,0,1-.059-.451.58.58,0,0,1,.275-.353l4.158-2.4a.6.6,0,0,1,.294-.078.589.589,0,0,1,.51.294.6.6,0,0,1,.059.451.58.58,0,0,1-.275.353l-4.158,2.4A.661.661,0,0,1,531.988,201.279Z" transform="translate(-480.021 -178.886)" fill="#17394f" stroke="#162c5f" stroke-width="1.75"/>
    <path id="Path_9542" data-name="Path 9542" d="M190.837,185.41a.58.58,0,0,1-.5-.883,16.741,16.741,0,0,0,.049-16.808,16.513,16.513,0,0,0-28.792,0,16.723,16.723,0,0,0,.049,16.8.592.592,0,0,1-.2.8.618.618,0,0,1-.291.078.582.582,0,0,1-.505-.294,17.925,17.925,0,0,1-.058-17.984,17.67,17.67,0,0,1,30.812-.01,17.9,17.9,0,0,1-.049,17.984A.588.588,0,0,1,190.837,185.41Z" transform="translate(-143.078 -143.199)" fill="#17394f" stroke="#162c5f" stroke-width="1.75"/>
    <path id="Path_9543" data-name="Path 9543" d="M352.317,333.126a.714.714,0,0,1-.245-.039l-12.022-3.932a.588.588,0,0,1,.176-1.147h1.265l1.7-2.932-.51-.892a.589.589,0,0,1,.137-.755.6.6,0,0,1,.765.02l9.257,8.3a.776.776,0,0,1,.147.981A.731.731,0,0,1,352.317,333.126Zm-9.855-4.423,6.462,2.118.382-.667-5.07-4.54Z" transform="translate(-306.94 -292.255)" fill="#17394f" stroke="#162c5f" stroke-width="1.75"/>
    <path id="Path_9544" data-name="Path 9544" d="M389.3,36.1a.6.6,0,0,1-.588-.549A32,32,0,0,0,359.139,5.977a.589.589,0,0,1,.039-1.177h.039a33.094,33.094,0,0,1,30.664,30.674.6.6,0,0,1-.147.431.585.585,0,0,1-.4.2Z" transform="translate(-324.156 -4.8)" fill="#17394f" stroke="#162c5f" stroke-width="1.75"/>
    <path id="Path_9545" data-name="Path 9545" d="M36.907,70.625A32.9,32.9,0,0,1,34.594,4.9h.039a.586.586,0,0,1,.039,1.171A31.731,31.731,0,1,0,68.564,39.953a.587.587,0,0,1,.585-.546h.039a.563.563,0,0,1,.4.2.622.622,0,0,1,.146.429A32.9,32.9,0,0,1,36.907,70.625Z" transform="translate(-4 -4.89)" fill="#17394f" stroke="#162c5f" stroke-width="1.75"/>
  </g>
</svg>
