<svg id="Group_440" data-name="Group 440" xmlns="http://www.w3.org/2000/svg" width="83.478" height="80" viewBox="0 0 83.478 80">
  <path id="Path_11863" data-name="Path 11863" d="M245.332,341.332h3.459v24.209h-3.459Zm0,0" transform="translate(-205.322 -285.541)" fill="#b9943c"/>
  <path id="Path_11864" data-name="Path 11864" d="M96,298.668h52.353v3.458H96Zm0,0" transform="translate(-80.438 -249.96)" fill="#b9943c"/>
  <path id="Path_11865" data-name="Path 11865" d="M413.978,70.624a8.646,8.646,0,1,1,8.646-8.646A8.656,8.656,0,0,1,413.978,70.624Zm0-13.833a5.188,5.188,0,1,0,5.188,5.188A5.193,5.193,0,0,0,413.978,56.791Zm0,0" transform="translate(-339.146 -44.686)" fill="#b9943c"/>
  <path id="Path_11866" data-name="Path 11866" d="M307.314,231.478a1.7,1.7,0,0,1-.681-.141,1.727,1.727,0,0,1-.907-2.27l5.188-12.1a1.727,1.727,0,0,1,1.589-1.047h12.1a5.194,5.194,0,0,0,5.188-5.187V188.249a3.462,3.462,0,0,0-3.459-3.458h-1.729c-1.214,0-2.319.8-3.808,2.774-1.67,2.206-6.74,8.431-6.955,8.694a1.732,1.732,0,0,1-1.342.636h-8.646a1.73,1.73,0,0,0-1.729,1.729v3.458a1.729,1.729,0,1,1-3.458,0v-3.458a5.193,5.193,0,0,1,5.188-5.187h7.822c1.363-1.677,5.036-6.208,6.36-7.959,1.461-1.93,3.525-4.145,6.567-4.145h1.729a6.924,6.924,0,0,1,6.917,6.917v22.479a8.656,8.656,0,0,1-8.646,8.646H313.641L308.9,230.43A1.727,1.727,0,0,1,307.314,231.478Zm0,0" transform="translate(-249.773 -151.478)" fill="#b9943c"/>
  <path id="Path_11867" data-name="Path 11867" d="M300.4,329.793a1.732,1.732,0,0,1-1.639-2.278l5.734-17.2a6.9,6.9,0,0,1,6.56-4.728h4.907V300.4a1.729,1.729,0,0,1,3.459,0v6.917a1.728,1.728,0,0,1-1.729,1.729h-6.636a3.449,3.449,0,0,0-3.279,2.362l-5.735,17.205a1.732,1.732,0,0,1-1.641,1.183Zm0,0" transform="translate(-249.882 -249.793)" fill="#b9943c"/>
  <path id="Path_11868" data-name="Path 11868" d="M407.057,266.384a1.729,1.729,0,0,1-1.382-2.765l5.188-6.917a1.728,1.728,0,0,1,2.765,2.073l-5.187,6.917A1.719,1.719,0,0,1,407.057,266.384Zm0,0" transform="translate(-339.144 -214.234)" fill="#b9943c"/>
  <path id="Path_11869" data-name="Path 11869" d="M8.646,70.624a8.646,8.646,0,1,1,8.646-8.646A8.656,8.656,0,0,1,8.646,70.624Zm0-13.833a5.188,5.188,0,1,0,5.187,5.188A5.194,5.194,0,0,0,8.646,56.791Zm0,0" transform="translate(0 -44.686)" fill="#b9943c"/>
  <path id="Path_11870" data-name="Path 11870" d="M25.938,231.478a1.727,1.727,0,0,1-1.589-1.048L19.61,219.374H8.646A8.656,8.656,0,0,1,0,210.728V188.249a6.924,6.924,0,0,1,6.917-6.917H8.646c3.042,0,5.108,2.215,6.566,4.145,1.326,1.752,5,6.282,6.36,7.959H29.4a5.193,5.193,0,0,1,5.188,5.188v3.458a1.729,1.729,0,1,1-3.458,0v-3.458a1.731,1.731,0,0,0-1.729-1.729H20.75a1.726,1.726,0,0,1-1.34-.636c-.215-.263-5.286-6.488-6.955-8.7-1.491-1.969-2.594-2.772-3.81-2.772H6.917a3.462,3.462,0,0,0-3.459,3.458v22.479a5.194,5.194,0,0,0,5.187,5.188h12.1a1.727,1.727,0,0,1,1.589,1.047l5.188,12.1a1.729,1.729,0,0,1-.907,2.27,1.7,1.7,0,0,1-.681.141Zm0,0" transform="translate(0 -151.478)" fill="#b9943c"/>
  <path id="Path_11871" data-name="Path 11871" d="M104.353,329.793a1.732,1.732,0,0,1-1.641-1.183l-5.734-17.2a3.453,3.453,0,0,0-3.28-2.363H87.061a1.729,1.729,0,0,1-1.729-1.729V300.4a1.729,1.729,0,0,1,3.459,0v5.188H93.7a6.907,6.907,0,0,1,6.562,4.728l5.734,17.2A1.728,1.728,0,0,1,104.9,329.7a1.755,1.755,0,0,1-.548.09Zm0,0" transform="translate(-71.393 -249.793)" fill="#b9943c"/>
  <path id="Path_11872" data-name="Path 11872" d="M60.249,266.384a1.73,1.73,0,0,1-1.386-.691l-5.187-6.917a1.729,1.729,0,0,1,2.767-2.073l5.188,6.917a1.729,1.729,0,0,1-1.382,2.765Zm0,0" transform="translate(-44.684 -214.234)" fill="#b9943c"/>
  <path id="Path_11873" data-name="Path 11873" d="M189.4,152.208a1.727,1.727,0,0,1-1.729-1.729v-12.1a6.924,6.924,0,0,0-6.917-6.917H170.375a6.924,6.924,0,0,0-6.917,6.917v5.188a1.729,1.729,0,1,1-3.458,0v-5.187A10.385,10.385,0,0,1,170.375,128H180.75a10.385,10.385,0,0,1,10.375,10.375v12.1a1.727,1.727,0,0,1-1.729,1.729Zm0,0" transform="translate(-133.823 -107.078)" fill="#b9943c"/>
  <path id="Path_11874" data-name="Path 11874" d="M211.314,17.292a8.646,8.646,0,1,1,8.646-8.646A8.656,8.656,0,0,1,211.314,17.292Zm0-13.834A5.187,5.187,0,1,0,216.5,8.646,5.194,5.194,0,0,0,211.314,3.458Zm0,0" transform="translate(-169.575 0)" fill="#b9943c"/>
  <path id="Path_11875" data-name="Path 11875" d="M245.332,170.668h3.459v3.458h-3.459Zm0,0" transform="translate(-205.322 -142.835)" fill="#b9943c"/>
</svg>
