<svg id="Group_244" data-name="Group 244" xmlns="http://www.w3.org/2000/svg" width="71.828" height="71.788" viewBox="0 0 71.828 71.788">
  <g id="Group_120" data-name="Group 120" transform="translate(42.223 31.687)">
    <path id="Path_7850" data-name="Path 7850" d="M936.811,1591.83h-17.06l-.026-9.8a15.981,15.981,0,0,1,4.649-11.266l2.386-2.386a8.583,8.583,0,0,1,9.95-1.58v-5.7a9.377,9.377,0,0,1,9.366-9.365h3.254v27.582Zm-12.865-4.206h11.122l10.055-10.056v-21.544a5.168,5.168,0,0,0-4.207,5.071v9.323l.836.836-.836.836v.038l-7.875,7.838-2.971-2.978,5.732-5.732a4.363,4.363,0,0,0-6.068.1l-2.386,2.386a11.746,11.746,0,0,0-3.417,8.281Z" transform="translate(-919.725 -1551.73)" fill="#182e46"/>
  </g>
  <g id="Group_121" data-name="Group 121" transform="translate(0 31.687)">
    <path id="Path_7851" data-name="Path 7851" d="M871.895,1591.83h-17.06l-12.519-12.519V1551.73h3.253a9.376,9.376,0,0,1,9.365,9.365v5.7a8.584,8.584,0,0,1,9.95,1.58l2.386,2.386a15.98,15.98,0,0,1,4.65,11.266Zm-15.318-4.206H867.7l.015-5.6a11.748,11.748,0,0,0-3.417-8.281l-2.386-2.386a4.363,4.363,0,0,0-6.068-.1l5.732,5.732-2.971,2.978-7.875-7.838v-.038l-.836-.836.836-.836V1561.1a5.168,5.168,0,0,0-4.207-5.071v21.544Z" transform="translate(-842.316 -1551.73)" fill="#182e46"/>
  </g>
  <g id="Group_122" data-name="Group 122" transform="translate(18.825 0)">
    <path id="Path_7852" data-name="Path 7852" d="M893.918,1540.961l-10.836-5a10.8,10.8,0,0,1-6.253-9.775v-27.009h5.689a11.063,11.063,0,0,0,8.984-4.623l.653-.913h3.525l.652.911a11.064,11.064,0,0,0,8.985,4.625h5.689v27.009a10.8,10.8,0,0,1-6.253,9.775Zm-12.883-37.582v22.8a6.581,6.581,0,0,0,3.81,5.956l9.073,4.189,9.073-4.189a6.581,6.581,0,0,0,3.81-5.956v-22.8h-1.483a15.283,15.283,0,0,1-11.4-5.122,15.282,15.282,0,0,1-11.4,5.122Z" transform="translate(-876.829 -1493.637)" fill="#182e46"/>
  </g>
  <g id="Group_123" data-name="Group 123" transform="translate(29.034 14.076)">
    <path id="Path_7853" data-name="Path 7853" d="M900.667,1531.055l-5.121-5.121,2.974-2.974,2.147,2.147,5.664-5.664,2.974,2.974Z" transform="translate(-895.546 -1519.443)" fill="#182e46"/>
  </g>
  <g id="Group_124" data-name="Group 124" transform="translate(30.165 30.566)">
    <rect id="Rectangle_5315" data-name="Rectangle 5315" width="11.497" height="4.206" transform="translate(0)" fill="#182e46"/>
  </g>
</svg>
