<svg xmlns="http://www.w3.org/2000/svg" width="43.456" height="48.428" viewBox="0 0 43.456 48.428">
  <g id="Group_436" data-name="Group 436" transform="translate(-3.294 -0.761)">
    <path id="Path_11855" data-name="Path 11855" d="M45.1,10.4,26.5,1.1a.854.854,0,0,0-.7,0c-3.9,2,9.9-4.9-18.5,9.3a.842.842,0,0,0-.4.7V22H6.6a.73.73,0,0,0-.7.6L4.6,27.5a.7.7,0,0,0,.7.9H10a.864.864,0,0,0,.6-.3.661.661,0,0,0,.1-.6L9.4,22.6a.858.858,0,0,0-.7-.6H8.4V12.3l4.9,2.4v8.8a.764.764,0,0,0,.2.5,17.853,17.853,0,0,0,12.7,5.2A18.282,18.282,0,0,0,38.9,24a.764.764,0,0,0,.2-.5V14.7l6-3a.727.727,0,0,0,0-1.3ZM9,26.8H6.3l.9-3.4h1Zm28.6-3.7a16.491,16.491,0,0,1-22.8,0V15.4L25.9,21a.854.854,0,0,0,.7,0l11.1-5.5v7.6ZM26.2,19.5,10.8,11.8H22.9a3.479,3.479,0,0,0,3.3,1.8c2,0,3.5-1.1,3.5-2.5s-1.5-2.5-3.5-2.5a3.416,3.416,0,0,0-3.3,1.8H10.8L26.1,2.7,43,11Zm-2-8.5c0-.5.9-1,2-1s2,.5,2,1-.9,1-2,1S24.2,11.5,24.2,11Z" fill="#fff" stroke="#fff" stroke-width="0.5"/>
    <path id="Path_11856" data-name="Path 11856" d="M46.5,37.8l-1.9-7.3a.838.838,0,0,0-.8-.6L28.2,32.2H21.9L6.3,30c-.4-.1-.7.2-.8.6L3.6,37.9a.663.663,0,0,0,.2.7.6.6,0,0,0,.6.3h.1l1.4-.2L8,43.2a.67.67,0,0,0,.7.4h.1l8.7-1.5-1.2,3.4a.727.727,0,0,0,1,.9l3.1-1.5L21.9,48a.748.748,0,0,0,1.4-.1l1.5-4.1L27,48.5a.748.748,0,0,0,1.4-.1l1.2-3.2,3.2,1.2a.727.727,0,0,0,.9-1L32.1,42l9.1,1.6h.1a1.012,1.012,0,0,0,.7-.4l2.3-4.6,1.4.2h.1a.864.864,0,0,0,.6-.3,1.483,1.483,0,0,0,.1-.7ZM5.3,37.1l1.5-5.6,14.3,2.1V35Zm3.8,5L7.3,38.4l13.8-1.8V40Zm13.4,3.7-1-2.2a.819.819,0,0,0-1-.4l-2.2,1,.9-2.5,2.7-.5h1.7l.3.6Zm.1-5.9V33.8h4.9v6.1Zm6.7,3.7a.951.951,0,0,0-1,.4l-.8,2.2-2.2-4.6-.1-.3h2.9l2.2.4,1.3,2.7Zm11.6-1.5L28.9,40V36.6l13.8,1.8Zm-12-7V33.7l14.3-2.1,1.5,5.6Z" fill="#fff" stroke="#fff" stroke-width="0.5"/>
  </g>
</svg>
