<svg id="Group_464" data-name="Group 464" xmlns="http://www.w3.org/2000/svg" width="79.998" height="80" viewBox="0 0 79.998 80">
  <g id="Group_443" data-name="Group 443">
    <g id="Group_442" data-name="Group 442">
      <path id="Path_11883" data-name="Path 11883" d="M64.722,23.242a1.563,1.563,0,0,0,1.563-1.562V4.688A4.694,4.694,0,0,0,61.6,0H4.7A4.694,4.694,0,0,0,.007,4.688V75.312A4.694,4.694,0,0,0,4.7,80H61.6a4.694,4.694,0,0,0,4.689-4.688V63.8a1.563,1.563,0,0,0-3.126,0V75.312A1.565,1.565,0,0,1,61.6,76.875H4.7a1.565,1.565,0,0,1-1.563-1.563V4.688A1.565,1.565,0,0,1,4.7,3.125H61.6a1.565,1.565,0,0,1,1.563,1.563V21.68A1.563,1.563,0,0,0,64.722,23.242Z" transform="translate(-0.007)" fill="#b9943c"/>
    </g>
  </g>
  <g id="Group_445" data-name="Group 445" transform="translate(18.772 8.42)">
    <g id="Group_444" data-name="Group 444">
      <path id="Path_11884" data-name="Path 11884" d="M134.352,54a14.338,14.338,0,0,0-9.842,24.772,1.543,1.543,0,0,0,.167.156,14.319,14.319,0,0,0,19.349,0,1.561,1.561,0,0,0,.167-.156A14.338,14.338,0,0,0,134.352,54Zm0,25.572a11.167,11.167,0,0,1-6.782-2.287,7.8,7.8,0,0,1,13.563,0A11.167,11.167,0,0,1,134.352,79.572Zm-2.495-11.851V66.708a2.495,2.495,0,0,1,4.99,0v1.014a2.495,2.495,0,1,1-4.99,0ZM143.387,75a10.818,10.818,0,0,0-4.594-3.851,5.584,5.584,0,0,0,1.173-3.428V66.708a5.613,5.613,0,1,0-11.227,0v1.014a5.584,5.584,0,0,0,1.173,3.428A10.818,10.818,0,0,0,125.318,75a11.227,11.227,0,1,1,18.069,0Z" transform="translate(-120.007 -54)" fill="#b9943c"/>
    </g>
  </g>
  <g id="Group_447" data-name="Group 447" transform="translate(31.573 68.461)">
    <g id="Group_446" data-name="Group 446">
      <path id="Path_11885" data-name="Path 11885" d="M211.986,438h-8.42a1.559,1.559,0,1,0,0,3.119h8.42a1.559,1.559,0,1,0,0-3.119Z" transform="translate(-202.007 -438)" fill="#b9943c"/>
    </g>
  </g>
  <g id="Group_449" data-name="Group 449" transform="translate(17.829 59.692)">
    <g id="Group_448" data-name="Group 448">
      <path id="Path_11886" data-name="Path 11886" d="M137.708,382H115.566a1.559,1.559,0,1,0,0,3.119h22.142a1.559,1.559,0,1,0,0-3.119Z" transform="translate(-114.007 -382)" fill="#b9943c"/>
    </g>
  </g>
  <g id="Group_451" data-name="Group 451" transform="translate(17.829 50.942)">
    <g id="Group_450" data-name="Group 450">
      <path id="Path_11887" data-name="Path 11887" d="M137.708,326H115.566a1.559,1.559,0,1,0,0,3.119h22.142a1.559,1.559,0,1,0,0-3.119Z" transform="translate(-114.007 -326)" fill="#b9943c"/>
    </g>
  </g>
  <g id="Group_453" data-name="Group 453" transform="translate(11.115 42.191)">
    <g id="Group_452" data-name="Group 452">
      <path id="Path_11888" data-name="Path 11888" d="M73.95,270.457a1.558,1.558,0,1,0,.457,1.1A1.571,1.571,0,0,0,73.95,270.457Z" transform="translate(-71.287 -270)" fill="#b9943c"/>
    </g>
  </g>
  <g id="Group_455" data-name="Group 455" transform="translate(11.115 50.942)">
    <g id="Group_454" data-name="Group 454">
      <path id="Path_11889" data-name="Path 11889" d="M73.95,326.457a1.558,1.558,0,1,0,.457,1.1A1.574,1.574,0,0,0,73.95,326.457Z" transform="translate(-71.287 -326)" fill="#b9943c"/>
    </g>
  </g>
  <g id="Group_457" data-name="Group 457" transform="translate(11.115 59.692)">
    <g id="Group_456" data-name="Group 456">
      <path id="Path_11890" data-name="Path 11890" d="M73.95,382.457a1.558,1.558,0,1,0,.457,1.1A1.574,1.574,0,0,0,73.95,382.457Z" transform="translate(-71.287 -382)" fill="#b9943c"/>
    </g>
  </g>
  <g id="Group_459" data-name="Group 459" transform="translate(17.829 42.191)">
    <g id="Group_458" data-name="Group 458">
      <path id="Path_11891" data-name="Path 11891" d="M137.708,270H115.566a1.559,1.559,0,1,0,0,3.119h22.142a1.559,1.559,0,1,0,0-3.119Z" transform="translate(-114.007 -270)" fill="#b9943c"/>
    </g>
  </g>
  <g id="Group_461" data-name="Group 461" transform="translate(46.566 19.605)">
    <g id="Group_460" data-name="Group 460">
      <path id="Path_11892" data-name="Path 11892" d="M327.748,125.555a6.549,6.549,0,0,0-8.946,2.4l-19.622,33.987a1.562,1.562,0,0,0-.2.607L297.6,174.918a1.559,1.559,0,0,0,2.474,1.429l10.024-7.382a1.557,1.557,0,0,0,.426-.476L330.145,134.5A6.556,6.556,0,0,0,327.748,125.555Zm-26.654,46.167.721-6.46,4.513,2.606Zm7.508-6.143-5.942-3.43,15.746-27.274,5.942,3.43Zm18.843-32.636-1.537,2.662-5.942-3.43,1.537-2.662a3.43,3.43,0,0,1,5.942,3.43Z" transform="translate(-297.589 -124.675)" fill="#b9943c"/>
    </g>
  </g>
</svg>
