<svg id="g2536" xmlns="http://www.w3.org/2000/svg" width="70" height="70.072" viewBox="0 0 70 70.072">
  <g id="g2542" transform="translate(15.952 17.934)">
    <g id="path2544">
      <path id="Path_7842" data-name="Path 7842" d="M566.449,1573.043H531.761a2.035,2.035,0,1,1,0-4.07h32.652V1549.46a14.869,14.869,0,0,0-14.755-14.946H516.471a2.035,2.035,0,0,1,0-4.07h33.187a18.943,18.943,0,0,1,18.825,19.016v21.547A2.035,2.035,0,0,1,566.449,1573.043Z" transform="translate(-514.436 -1530.444)" fill="#182e46"/>
    </g>
  </g>
  <g id="g2546" transform="translate(0 17.934)">
    <g id="path2548">
      <path id="Path_7843" data-name="Path 7843" d="M508.373,1573.043H477.495a2.035,2.035,0,0,1-2.035-2.035v-23.09a17.474,17.474,0,1,1,34.948,0v23.09A2.035,2.035,0,0,1,508.373,1573.043Zm-28.843-4.07h26.808v-21.055a13.4,13.4,0,1,0-26.808,0Z" transform="translate(-475.46 -1530.444)" fill="#182e46"/>
    </g>
  </g>
  <g id="g2550" transform="translate(27.49 56.463)">
    <g id="path2552">
      <path id="Path_7844" data-name="Path 7844" d="M551.891,1641.445a7.627,7.627,0,0,1-7.618-7.618v-3.956a2.035,2.035,0,0,1,2.035-2.035h11.166a2.035,2.035,0,0,1,2.035,2.035v3.956A7.627,7.627,0,0,1,551.891,1641.445Zm-3.548-9.539v1.921a3.548,3.548,0,1,0,7.1,0v-1.921Z" transform="translate(-544.273 -1627.836)" fill="#182e46"/>
    </g>
  </g>
  <g id="g2554" transform="translate(47.652 0)">
    <g id="path2556">
      <path id="Path_7845" data-name="Path 7845" d="M596.6,1524.19a2.035,2.035,0,0,1-2.035-2.035v-33.66a2.035,2.035,0,0,1,2.035-2.035h18.252a2.035,2.035,0,0,1,1.779,3.024l-2.145,3.859,2.149,3.9a2.035,2.035,0,0,1-1.782,3.018H598.635v21.9A2.035,2.035,0,0,1,596.6,1524.19Zm2.035-28h12.772l-1.029-1.867a2.035,2.035,0,0,1,0-1.971l1.012-1.82H598.635Z" transform="translate(-594.565 -1486.46)" fill="#182e46"/>
    </g>
  </g>
  <g id="g2558" transform="translate(43.189 33.976)">
    <g id="path2560">
      <path id="Path_7846" data-name="Path 7846" d="M589.982,1584.292a6.374,6.374,0,1,1,6.367-6.374A6.378,6.378,0,0,1,589.982,1584.292Zm0-8.678a2.3,2.3,0,1,0,2.3,2.3A2.3,2.3,0,0,0,589.982,1575.614Z" transform="translate(-583.615 -1571.544)" fill="#182e46"/>
    </g>
  </g>
  <g id="path2562" transform="translate(8.551 39.159)">
    <path id="Path_7847" data-name="Path 7847" d="M512.886,1597.41H499.109a2.035,2.035,0,0,1-2.035-2.035v-8.819a2.035,2.035,0,0,1,2.035-2.035h13.777a2.035,2.035,0,0,1,2.035,2.035v8.819A2.035,2.035,0,0,1,512.886,1597.41Zm-11.742-4.07h9.707v-4.749h-9.707Z" transform="translate(-497.074 -1584.521)" fill="#182e46"/>
  </g>
</svg>
