<svg width="65" height="65" viewBox="0 0 65 65" fill="none" xmlns="http://www.w3.org/2000/svg">
<rect width="65" height="65" rx="10" fill="#DFE4E9"/>
<path d="M36.7682 24.1901C38.142 24.4581 39.4045 25.13 40.3943 26.1198C41.384 27.1095 42.0559 28.3721 42.324 29.7459M36.7682 18.564C39.6224 18.881 42.284 20.1592 44.3159 22.1886C46.3479 24.218 47.6294 26.878 47.9501 29.7318M46.5436 40.9559V45.1755C46.5451 45.5672 46.4649 45.955 46.308 46.3139C46.151 46.6728 45.9209 46.995 45.6322 47.2598C45.3436 47.5246 45.0028 47.7262 44.6317 47.8517C44.2606 47.9772 43.8675 48.0238 43.4773 47.9886C39.1492 47.5183 34.9917 46.0393 31.339 43.6705C27.9405 41.511 25.0593 38.6298 22.8998 35.2314C20.5227 31.562 19.0434 27.3843 18.5817 23.0367C18.5466 22.6478 18.5928 22.2558 18.7175 21.8857C18.8421 21.5156 19.0425 21.1755 19.3058 20.887C19.5691 20.5986 19.8895 20.3681 20.2468 20.2103C20.604 20.0525 20.9902 19.9709 21.3807 19.9705H25.6003C26.2829 19.9638 26.9447 20.2055 27.4622 20.6506C27.9798 21.0957 28.3178 21.7138 28.4134 22.3897C28.5915 23.7401 28.9218 25.066 29.3979 26.3421C29.5872 26.8455 29.6281 27.3926 29.516 27.9186C29.4038 28.4446 29.1432 28.9274 28.765 29.3099L26.9787 31.0962C28.981 34.6175 31.8966 37.5331 35.4179 39.5353L37.2042 37.749C37.5866 37.3709 38.0694 37.1103 38.5954 36.9981C39.1214 36.8859 39.6685 36.9269 40.172 37.1161C41.4481 37.5923 42.774 37.9226 44.1243 38.1007C44.8076 38.1971 45.4316 38.5412 45.8776 39.0677C46.3237 39.5941 46.5607 40.2661 46.5436 40.9559Z" stroke="#364B5D" stroke-width="1.5" stroke-linecap="round" stroke-linejoin="round"/>
</svg>
