<svg width="65" height="66" viewBox="0 0 65 66" fill="none" xmlns="http://www.w3.org/2000/svg">
<rect y="0.828125" width="65" height="65" rx="10" fill="#364B5D"/>
<path d="M36.7682 25.0182C38.142 25.2862 39.4045 25.9581 40.3943 26.9479C41.384 27.9376 42.0559 29.2002 42.324 30.574M36.7682 19.3921C39.6224 19.7092 42.284 20.9873 44.3159 23.0167C46.3479 25.0461 47.6294 27.7061 47.9501 30.5599M46.5436 41.7841V46.0036C46.5451 46.3954 46.4649 46.7831 46.308 47.142C46.151 47.5009 45.9209 47.8231 45.6322 48.0879C45.3436 48.3528 45.0028 48.5544 44.6317 48.6799C44.2606 48.8054 43.8675 48.852 43.4773 48.8167C39.1492 48.3464 34.9917 46.8675 31.339 44.4987C27.9405 42.3392 25.0593 39.4579 22.8998 36.0595C20.5227 32.3901 19.0434 28.2124 18.5817 23.8649C18.5466 23.4759 18.5928 23.0839 18.7175 22.7138C18.8421 22.3437 19.0425 22.0036 19.3058 21.7151C19.5691 21.4267 19.8895 21.1963 20.2468 21.0385C20.604 20.8807 20.9902 20.799 21.3807 20.7986H25.6003C26.2829 20.7919 26.9447 21.0336 27.4622 21.4787C27.9798 21.9238 28.3178 22.5419 28.4134 23.2179C28.5915 24.5682 28.9218 25.8941 29.3979 27.1702C29.5872 27.6736 29.6281 28.2208 29.516 28.7468C29.4038 29.2727 29.1432 29.7556 28.765 30.138L26.9787 31.9243C28.981 35.4456 31.8966 38.3612 35.4179 40.3635L37.2042 38.5772C37.5866 38.199 38.0694 37.9384 38.5954 37.8262C39.1214 37.714 39.6685 37.755 40.172 37.9442C41.4481 38.4204 42.774 38.7507 44.1243 38.9288C44.8076 39.0252 45.4316 39.3693 45.8776 39.8958C46.3237 40.4222 46.5607 41.0943 46.5436 41.7841Z" stroke="white" stroke-width="1.5" stroke-linecap="round" stroke-linejoin="round"/>
</svg>
