<svg width="82" height="82" viewBox="0 0 82 82" fill="none" xmlns="http://www.w3.org/2000/svg">
<circle cx="41" cy="41" r="41" fill="#D20521"/>
<g clip-path="url(#clip0_1075_1639)">
<path d="M48.1603 49.9893C47.276 50.4677 46.3432 50.8491 45.3779 51.1268C45.8578 50.6144 46.2839 50.0535 46.6495 49.4531C46.747 49.2839 46.7753 49.0832 46.7283 48.8934C46.6812 48.7036 46.5626 48.5398 46.3976 48.4367C46.2325 48.3335 46.0341 48.2992 45.8444 48.341C45.6547 48.3828 45.4886 48.4974 45.3814 48.6605C44.4326 50.2015 43.3148 51.1648 42.1732 51.4468V47.676C42.1732 47.4766 42.0946 47.2854 41.9545 47.1444C41.8145 47.0033 41.6246 46.9241 41.4266 46.9241C41.2286 46.9241 41.0387 47.0033 40.8987 47.1444C40.7587 47.2854 40.68 47.4766 40.68 47.676V51.4232C39.8883 51.1732 39.1806 50.7075 38.6353 50.0775C38.5681 50.0056 38.4875 49.9477 38.3981 49.9072C38.3087 49.8667 38.2122 49.8443 38.1142 49.8413C38.0162 49.8383 37.9186 49.8548 37.8269 49.8898C37.7352 49.9248 37.6513 49.9777 37.5799 50.0454C37.5085 50.1131 37.451 50.1942 37.4108 50.2843C37.3706 50.3743 37.3483 50.4715 37.3453 50.5702C37.3424 50.6689 37.3587 50.7672 37.3935 50.8596C37.4283 50.9519 37.4808 51.0364 37.548 51.1083C37.5541 51.115 37.5601 51.1209 37.5665 51.1275C37.3943 51.0777 37.2229 51.0246 37.0524 50.9683C36.9588 50.9355 36.8597 50.9219 36.7609 50.9281C36.662 50.9343 36.5653 50.9603 36.4765 51.0045C36.3877 51.0487 36.3086 51.1103 36.2436 51.1857C36.1787 51.261 36.1293 51.3486 36.0983 51.4433C36.0673 51.5381 36.0553 51.6381 36.0631 51.7376C36.0709 51.8371 36.0983 51.9339 36.1436 52.0226C36.1889 52.1113 36.2513 52.1901 36.3271 52.2543C36.403 52.3185 36.4907 52.3668 36.5853 52.3965C38.5988 53.0621 40.7256 53.3092 42.8367 53.1231C44.9478 52.937 46.9995 52.3214 48.8677 51.3136C49.0421 51.2191 49.1721 51.0588 49.229 50.8678C49.286 50.6767 49.2653 50.4708 49.1715 50.2951C49.0777 50.1195 48.9185 49.9886 48.7289 49.9312C48.5392 49.8738 48.3347 49.8948 48.1603 49.9893Z" fill="white"/>
<path d="M51.5007 48.5429C51.5703 48.6127 51.6529 48.6679 51.7436 48.7054C51.8344 48.743 51.9316 48.7622 52.0298 48.7619C52.1279 48.7616 52.2251 48.7418 52.3157 48.7036C52.4062 48.6655 52.4884 48.6098 52.5575 48.5396C54.0521 47.019 55.2257 45.2094 56.0074 43.2198C56.6118 43.1983 57.188 42.9571 57.6294 42.5407C58.0708 42.1242 58.3475 41.5608 58.4082 40.9548C65.1226 39.7771 66.001 38.4663 66.001 37.4499C66.001 35.9124 63.8423 34.7771 59.2074 33.8731C59.0137 33.8368 58.8136 33.8792 58.6508 33.9909C58.488 34.1026 58.3756 34.2746 58.3381 34.4695C58.3007 34.6643 58.3412 34.8661 58.4509 35.0309C58.5606 35.1958 58.7306 35.3103 58.9237 35.3495C63.8085 36.3013 64.4369 37.289 64.5013 37.4321C64.4005 37.5832 63.5642 38.5279 58.1029 39.4821C57.862 39.049 57.5 38.6968 57.0619 38.4693C57.0835 38.1301 57.098 37.7891 57.098 37.4499C57.1005 35.1022 56.5782 32.784 55.5699 30.6674C57.1161 28.7874 58.5054 26.9864 59.6879 25.3144C61.3461 22.9727 62.5257 20.9946 63.1938 19.438C64.009 17.5392 64.0503 16.2586 63.3207 15.5234C62.3653 14.5615 60.5058 14.9199 57.4902 16.6449C57.0809 16.309 56.5762 16.1126 56.049 16.084C55.5217 16.0555 54.9991 16.1962 54.5564 16.4859C54.1136 16.7756 53.7736 17.1994 53.5852 17.6963C53.3969 18.1931 53.37 18.7373 53.5084 19.2505C52.5202 19.9622 51.4759 20.7524 50.3904 21.6143C50.3126 21.6752 50.2476 21.7509 50.199 21.8372C50.1504 21.9235 50.1193 22.0187 50.1074 22.1171C50.0954 22.2156 50.103 22.3154 50.1295 22.4109C50.1561 22.5065 50.2011 22.5957 50.2621 22.6736C50.3231 22.7515 50.3988 22.8165 50.4848 22.8648C50.5708 22.9132 50.6654 22.9438 50.7633 22.9552C50.8611 22.9665 50.9602 22.9582 51.0549 22.9308C51.1495 22.9034 51.2378 22.8573 51.3147 22.7954C52.3572 21.9675 53.3595 21.2084 54.3088 20.5227C54.718 20.8731 55.2287 21.0811 55.7647 21.1159C56.3008 21.1506 56.8336 21.0102 57.2841 20.7156C57.7346 20.421 58.0787 19.9878 58.2653 19.4805C58.4518 18.9731 58.4709 18.4188 58.3197 17.8997C61.0594 16.3494 62.0962 16.4175 62.2651 16.5869C62.2754 16.5973 63.1652 17.8112 58.4723 24.4414C57.4059 25.9481 56.1708 27.5617 54.8001 29.2453C54.2893 28.4066 53.702 27.6176 53.0458 26.8888C53.007 26.8344 52.9611 26.7855 52.9093 26.7435C51.4473 25.156 49.6752 23.89 47.7043 23.0249C45.7334 22.1599 43.6063 21.7145 41.4564 21.7167C39.3065 21.7189 37.1802 22.1687 35.2111 23.0378C33.242 23.907 31.4725 25.1766 30.0137 26.7672C29.9918 26.7888 29.9712 26.8117 29.9522 26.8358C29.0249 27.8537 28.2352 28.9905 27.6037 30.2168C27.01 29.5805 26.4614 28.9646 25.9579 28.369C26.2506 27.9425 26.4051 27.4352 26.4002 26.9168C26.3954 26.3984 26.2315 25.8941 25.931 25.4732C25.6305 25.0523 25.208 24.7353 24.7216 24.5657C24.2352 24.3961 23.7086 24.3821 23.214 24.5258C22.6299 23.4016 22.6438 22.8566 22.7502 22.719C22.9632 22.4441 24.5115 22.2319 29.0642 24.5211C29.241 24.6075 29.4445 24.6202 29.6306 24.5564C29.8166 24.4926 29.9703 24.3576 30.0581 24.1805C30.1458 24.0034 30.1608 23.7986 30.0996 23.6105C30.0384 23.4224 29.906 23.2661 29.7311 23.1757C25.262 20.9286 22.5933 20.4764 21.5729 21.7941C20.968 22.5746 21.096 23.7436 21.9621 25.3558C21.6132 25.7844 21.4148 26.3171 21.3977 26.871C21.3805 27.4249 21.5456 27.9689 21.8673 28.4185C22.1889 28.8681 22.6491 29.1981 23.1762 29.357C23.7033 29.516 24.2678 29.495 24.7818 29.2974C27.8834 32.9679 32.7315 37.483 38.1679 41.7545C39.1367 42.5157 40.1034 43.2535 41.0678 43.9679C36.9637 47.8823 32.9441 51.3302 29.4454 53.9273C29.0297 53.6075 28.5247 53.4275 28.0018 53.4127C27.4789 53.3979 26.9647 53.5491 26.5318 53.845C26.099 54.1408 25.7695 54.5662 25.5899 55.061C25.4104 55.5559 25.39 56.0951 25.5315 56.6022C22.1769 58.6487 20.9344 58.6127 20.7371 58.4141C20.5962 58.2721 20.4924 57.3999 21.6856 55.096C22.7462 53.0482 24.5775 50.3462 26.9819 47.2824C27.0439 47.2051 27.0901 47.1162 27.1177 47.0207C27.1454 46.9253 27.154 46.8253 27.1431 46.7264C27.1321 46.6276 27.1018 46.532 27.0539 46.445C27.006 46.3581 26.9414 46.2816 26.864 46.22C26.7865 46.1583 26.6977 46.1128 26.6027 46.0859C26.5076 46.0591 26.4083 46.0515 26.3103 46.0636C26.2123 46.0757 26.1177 46.1072 26.0319 46.1564C25.9461 46.2055 25.8708 46.2714 25.8104 46.3501C23.349 49.4865 21.4658 52.2702 20.3621 54.4004C19.0235 56.984 18.8076 58.5974 19.681 59.4773C19.8681 59.6566 20.0896 59.7955 20.3319 59.8856C20.5741 59.9756 20.8322 60.0148 21.0901 60.0009C22.2854 60.0009 24.0078 59.2961 26.3421 57.8663C26.7585 58.216 27.2766 58.4197 27.8181 58.4466C28.3596 58.4736 28.8951 58.3222 29.3437 58.0155C29.7922 57.7089 30.1296 57.2635 30.3046 56.7467C30.4797 56.2299 30.483 55.6698 30.3141 55.1509C33.9224 52.4741 38.0721 48.9096 42.2976 44.8665C46.0652 47.5878 49.6938 49.881 52.8039 51.4877C55.8468 53.0609 58.0985 53.8436 59.6015 53.8436C60.4434 53.8436 61.0504 53.5979 61.4299 53.1078C62.4867 51.7435 61.289 49.1161 57.7701 45.0754C57.6395 44.9255 57.4552 44.8339 57.2576 44.8209C57.06 44.8079 56.8654 44.8744 56.7165 45.0059C56.5677 45.1375 56.4768 45.3232 56.4639 45.5222C56.4509 45.7212 56.517 45.9172 56.6476 46.0672C58.1005 47.7354 59.1839 49.2189 59.7795 50.3576C60.3802 51.505 60.3595 52.045 60.2527 52.1829C60.1458 52.3208 59.631 52.4726 58.3798 52.1652C57.1379 51.86 55.4457 51.1632 53.4856 50.1499C50.5005 48.6068 47.0199 46.4127 43.3951 43.808C44.1292 43.0932 44.8636 42.3663 45.5982 41.6272C48.8557 38.3463 51.8805 35.0545 54.5051 31.9474C55.1421 33.4718 55.5084 35.097 55.5875 36.749H52.028C51.83 36.749 51.6401 36.8282 51.5001 36.9693C51.3601 37.1103 51.2814 37.3015 51.2814 37.5009C51.2814 37.7004 51.3601 37.8917 51.5001 38.0327C51.6401 38.1737 51.83 38.2529 52.028 38.2529H55.3736C54.9162 38.3574 54.4972 38.5891 54.1641 38.9217C53.831 39.2542 53.5973 39.6743 53.4896 40.134C51.8072 40.3249 50.0189 40.4853 48.1667 40.6097C47.9728 40.6217 47.7912 40.7093 47.6604 40.854C47.5297 40.9987 47.4601 41.189 47.4664 41.3846C47.4728 41.5801 47.5546 41.7654 47.6945 41.9012C47.8343 42.0369 48.0213 42.1125 48.2155 42.1117C48.2322 42.1117 48.2491 42.1117 48.266 42.11C50.1201 41.9856 51.9112 41.8262 53.5995 41.6346C53.7912 42.1192 54.127 42.5323 54.561 42.8172C54.0825 43.9938 53.4507 45.1009 52.6822 46.1095C51.7985 45.7199 49.9207 45.0176 48.6589 44.612C48.7251 44.3766 48.7866 44.1326 48.8634 43.7875C48.8987 43.5961 48.8589 43.3984 48.7525 43.236C48.646 43.0736 48.4812 42.959 48.2926 42.9165C48.1041 42.8739 47.9065 42.9067 47.7414 43.0078C47.5763 43.109 47.4566 43.2707 47.4074 43.4589C47.3032 43.9368 47.1738 44.4087 47.0197 44.8727L47.0142 44.8899C47.0124 44.8956 47.0124 44.9013 47.0107 44.9072C47.0091 44.9131 47.006 44.9179 47.0044 44.9238C46.9995 44.9429 46.9988 44.9618 46.9955 44.9812C46.9902 45.0062 46.9861 45.0315 46.9833 45.0569C46.9814 45.0818 46.9833 45.1061 46.9833 45.1305C46.9833 45.1549 46.9833 45.1797 46.9863 45.2041C46.9894 45.2284 46.995 45.2514 47.0004 45.2767C47.0048 45.2999 47.0104 45.3229 47.0171 45.3455C47.025 45.3687 47.034 45.3914 47.0443 45.4136C47.0535 45.4352 47.0624 45.4571 47.0737 45.478C47.0857 45.4987 47.0987 45.5188 47.1127 45.5383C47.1255 45.5585 47.1394 45.5781 47.1543 45.5969C47.1695 45.6154 47.1871 45.6317 47.204 45.6487C47.2206 45.6663 47.2382 45.683 47.2567 45.6987C47.2761 45.7138 47.2963 45.7279 47.3172 45.741C47.3374 45.7545 47.3569 45.7682 47.3785 45.7797C47.4001 45.7913 47.4255 45.8006 47.449 45.8103C47.4668 45.8174 47.4833 45.8273 47.5018 45.8339C47.5086 45.836 47.5154 45.8365 47.522 45.8387C47.5286 45.8408 47.5307 45.8424 47.5354 45.8436C48.4424 46.0856 50.4958 46.8302 51.6618 47.3087C51.6076 47.3657 51.5559 47.4256 51.5005 47.4814C51.3611 47.6224 51.2829 47.8132 51.283 48.0122C51.283 48.2111 51.3613 48.402 51.5007 48.5429ZM55.92 19.6152C55.721 19.6152 55.5264 19.5557 55.3608 19.4443C55.1953 19.3329 55.0663 19.1746 54.9901 18.9894C54.9139 18.8041 54.894 18.6003 54.9328 18.4037C54.9717 18.207 55.0675 18.0264 55.2083 17.8846C55.349 17.7428 55.5284 17.6463 55.7237 17.6072C55.9189 17.568 56.1213 17.5881 56.3052 17.6649C56.4891 17.7416 56.6464 17.8715 56.757 18.0382C56.8676 18.2049 56.9266 18.4009 56.9266 18.6014C56.9263 18.8703 56.8202 19.128 56.6315 19.3181C56.4428 19.5082 56.1869 19.6149 55.92 19.6152ZM27.9372 56.9435C27.738 56.9436 27.5433 56.8842 27.3778 56.7728C27.2122 56.6614 27.0831 56.503 27.0069 56.3177C26.9306 56.1325 26.9106 55.9286 26.9495 55.7319C26.9883 55.5352 27.0842 55.3545 27.225 55.2126C27.3657 55.0708 27.5452 54.9742 27.7405 54.935C27.9358 54.8959 28.1382 54.916 28.3222 54.9927C28.5062 55.0695 28.6634 55.1994 28.774 55.3662C28.8847 55.5329 28.9437 55.729 28.9437 55.9296C28.9436 56.1984 28.8375 56.4562 28.6488 56.6464C28.46 56.8365 28.2041 56.9435 27.9372 56.9438V56.9435ZM35.0612 27.9887C33.9612 27.7638 32.8803 27.4532 31.8281 27.0598C33.458 25.529 35.4225 24.4057 37.563 23.7805C37.0138 24.373 36.5337 25.0267 36.1321 25.7291C35.7169 26.4529 35.3588 27.2083 35.0612 27.9887ZM40.6791 23.4761V28.6164C39.2999 28.5854 37.9241 28.4659 36.56 28.2587C37.6097 25.6824 39.0754 23.9205 40.6791 23.4761ZM42.1722 23.4525C43.7988 23.8529 45.3093 25.6285 46.3863 28.2597C44.9908 28.4712 43.5832 28.5911 42.1722 28.6187V23.4525ZM46.5753 25.3279C46.2313 24.7764 45.8366 24.2587 45.3964 23.7817C47.5332 24.4061 49.4933 25.5301 51.117 27.0622C50.0666 27.4546 48.9875 27.7644 47.8895 27.9889C47.5378 27.0612 47.0977 26.1702 46.5753 25.3279ZM22.8906 26.9439C22.8906 26.7433 22.9496 26.5472 23.0602 26.3804C23.1708 26.2136 23.328 26.0836 23.512 26.0068C23.696 25.9301 23.8984 25.91 24.0937 25.9491C24.289 25.9882 24.4685 26.0848 24.6093 26.2266C24.7501 26.3685 24.846 26.5492 24.8848 26.7459C24.9237 26.9426 24.9037 27.1465 24.8275 27.3318C24.7513 27.5171 24.6222 27.6754 24.4566 27.7868C24.291 27.8982 24.0963 27.9577 23.8972 27.9576C23.6303 27.9573 23.3745 27.8504 23.1858 27.6604C22.9971 27.4703 22.8909 27.2127 22.8906 26.9439ZM41.4743 42.3983C41.8893 42.3917 42.3036 42.3804 42.719 42.3702C42.5336 42.5515 42.3484 42.732 42.1634 42.9116C41.9342 42.7422 41.7045 42.5712 41.4743 42.3983ZM44.5409 40.5626C44.4509 40.6532 44.361 40.7421 44.2711 40.8322C44.243 40.8288 44.2148 40.8271 44.1865 40.827C42.633 40.8817 41.0682 40.9089 39.5279 40.912C39.3804 40.797 39.2329 40.6835 39.0854 40.5674C35.4348 37.724 31.9669 34.6502 28.7025 31.3646C29.2335 30.2358 29.9104 29.1826 30.7156 28.2325C31.9602 28.7493 33.2495 29.1493 34.567 29.4275C34.0505 31.1588 33.7135 32.9393 33.5612 34.7406C33.5437 34.9393 33.6052 35.1368 33.7323 35.2898C33.8594 35.4427 34.0415 35.5385 34.2387 35.5562C34.2613 35.5581 34.2836 35.559 34.3057 35.559C34.4922 35.5588 34.6719 35.4883 34.8093 35.3614C34.9468 35.2344 35.0321 35.0602 35.0485 34.8731C35.1947 33.1201 35.5278 31.388 36.0421 29.7068C37.5767 29.9522 39.1263 30.0906 40.6798 30.121V36.7473H38.0916C37.8936 36.7473 37.7037 36.8266 37.5637 36.9676C37.4237 37.1086 37.345 37.2999 37.345 37.4993C37.345 37.6987 37.4237 37.89 37.5637 38.031C37.7037 38.172 37.8936 38.2512 38.0916 38.2512H40.6798V39.0533C40.6798 39.2527 40.7585 39.444 40.8985 39.585C41.0385 39.726 41.2284 39.8053 41.4264 39.8053C41.6244 39.8053 41.8143 39.726 41.9543 39.585C42.0943 39.444 42.1729 39.2527 42.1729 39.0533V38.2512H44.6623C44.8603 38.2512 45.0502 38.172 45.1902 38.031C45.3302 37.89 45.4089 37.6987 45.4089 37.4993C45.4089 37.2999 45.3302 37.1086 45.1902 36.9676C45.0502 36.8266 44.8603 36.7473 44.6623 36.7473H42.1729V30.1219C43.7587 30.0957 45.3407 29.9571 46.9072 29.7073C47.3106 31.008 47.6007 32.3416 47.7742 33.6931C47.7844 33.7931 47.8145 33.8901 47.8626 33.9783C47.9107 34.0665 47.9759 34.144 48.0543 34.2064C48.1327 34.2687 48.2227 34.3146 48.3191 34.3413C48.4154 34.3679 48.5161 34.3748 48.6151 34.3616C48.7141 34.3484 48.8095 34.3152 48.8956 34.2642C48.9817 34.2131 49.0567 34.1453 49.1163 34.0645C49.1758 33.9837 49.2187 33.8917 49.2423 33.7939C49.2659 33.6962 49.2698 33.5946 49.2538 33.4953C49.0758 32.1174 48.7852 30.7567 48.3848 29.427C49.7001 29.1493 50.9873 28.7503 52.23 28.2351C52.8179 28.9299 53.3383 29.6798 53.7841 30.4746C51.0916 33.6943 47.9468 37.1322 44.5409 40.5626ZM55.92 39.6929C56.1191 39.6929 56.3137 39.7525 56.4792 39.8639C56.6447 39.9753 56.7736 40.1336 56.8498 40.3189C56.9259 40.5041 56.9459 40.708 56.907 40.9046C56.8681 41.1012 56.7722 41.2818 56.6314 41.4236C56.4907 41.5653 56.3113 41.6619 56.1161 41.701C55.9208 41.7401 55.7185 41.72 55.5346 41.6432C55.3507 41.5665 55.1935 41.4365 55.0829 41.2698C54.9723 41.1031 54.9132 40.9071 54.9132 40.7066C54.9135 40.4378 55.0198 40.1801 55.2085 39.9901C55.3973 39.8 55.6531 39.6931 55.92 39.6929Z" fill="white"/>
<path d="M26.3703 41.4576C27.2077 44.6739 29.038 47.539 31.5972 49.6395C31.7507 49.7634 31.9467 49.8212 32.1423 49.8005C32.338 49.7797 32.5177 49.6819 32.6422 49.5285C32.7667 49.375 32.826 49.1783 32.8072 48.981C32.7885 48.7837 32.6931 48.6019 32.542 48.475C32.1857 48.1817 31.8492 47.8707 31.5265 47.5485C32.6272 47.1142 33.7622 46.774 34.9195 46.5315C34.9886 46.7207 35.0569 46.9123 35.1309 47.0958C35.1676 47.1875 35.2218 47.2709 35.2904 47.3414C35.3591 47.412 35.4409 47.4682 35.5311 47.5069C35.6214 47.5456 35.7183 47.566 35.8164 47.567C35.9144 47.568 36.0117 47.5495 36.1027 47.5126C36.1937 47.4757 36.2766 47.4211 36.3466 47.3519C36.4166 47.2828 36.4724 47.2004 36.5109 47.1095C36.5493 47.0186 36.5696 46.921 36.5705 46.8222C36.5715 46.7235 36.5531 46.6254 36.5165 46.5338C36.4801 46.4427 36.446 46.3463 36.4117 46.2533C36.5813 46.2263 36.7497 46.1979 36.9218 46.1736C37.019 46.1599 37.1125 46.1272 37.1971 46.0771C37.2817 46.0271 37.3556 45.9608 37.4147 45.8819C37.4739 45.8031 37.517 45.7133 37.5416 45.6177C37.5663 45.5221 37.572 45.4225 37.5585 45.3247C37.5449 45.2268 37.5124 45.1326 37.4627 45.0474C37.413 44.9623 37.3472 44.8878 37.2689 44.8282C37.1907 44.7687 37.1015 44.7252 37.0066 44.7004C36.9116 44.6755 36.8128 44.6698 36.7157 44.6834C36.4496 44.7208 36.1875 44.7627 35.927 44.8064C35.784 44.3166 35.6532 43.813 35.5395 43.2896C35.4946 43.0975 35.3764 42.931 35.2106 42.8259C35.0448 42.7208 34.8446 42.6855 34.6532 42.7277C34.4618 42.7699 34.2945 42.8862 34.1875 43.0515C34.0805 43.2168 34.0423 43.4178 34.0812 43.6112C34.1918 44.12 34.3195 44.6125 34.4569 45.094C33.0899 45.3872 31.7545 45.8135 30.4695 46.3671C29.3539 44.9741 28.511 43.3805 27.9853 41.671C30.2102 41.9423 32.6801 42.1474 35.2822 42.2716C35.2941 42.2716 35.3056 42.2716 35.3181 42.2716C35.5126 42.2709 35.6992 42.1937 35.8381 42.0566C35.9771 41.9194 36.0573 41.733 36.0619 41.5371C36.0664 41.3412 35.9948 41.1513 35.8624 41.0078C35.73 40.8642 35.5472 40.7784 35.3529 40.7686C32.561 40.6352 29.9279 40.4089 27.5995 40.1063C27.4828 39.493 27.4061 38.8726 27.37 38.2491H30.527C30.725 38.2491 30.9149 38.1699 31.0549 38.0288C31.1949 37.8878 31.2736 37.6966 31.2736 37.4972C31.2736 37.2977 31.1949 37.1064 31.0549 36.9654C30.9149 36.8244 30.725 36.7452 30.527 36.7452H27.366C27.4013 36.0012 27.4945 35.2611 27.6448 34.5318C27.6648 34.4351 27.6658 34.3354 27.6476 34.2383C27.6293 34.1413 27.5923 34.0488 27.5386 33.9662C27.4849 33.8835 27.4156 33.8123 27.3346 33.7567C27.2536 33.701 27.1625 33.662 27.0665 33.6418C26.9705 33.6216 26.8715 33.6207 26.7751 33.639C26.6788 33.6574 26.587 33.6946 26.5049 33.7487C26.4229 33.8028 26.3522 33.8726 26.2969 33.9542C26.2417 34.0358 26.2029 34.1276 26.1829 34.2242C25.7979 36.0875 25.7515 38.0057 26.046 39.8856C24.8964 39.7087 23.8398 39.5124 22.9026 39.2983C18.7531 38.351 18.4941 37.4534 18.4941 37.4461C18.4941 37.4387 18.8198 36.3755 24.0388 35.3535C24.1357 35.3353 24.228 35.298 24.3105 35.2438C24.3931 35.1895 24.4641 35.1193 24.5195 35.0373C24.575 34.9552 24.6137 34.8629 24.6336 34.7656C24.6534 34.6684 24.654 34.5682 24.6352 34.4708C24.6164 34.3733 24.5786 34.2806 24.5241 34.1979C24.4695 34.1153 24.3992 34.0443 24.3173 33.9891C24.2353 33.9339 24.1434 33.8956 24.0467 33.8764C23.95 33.8572 23.8505 33.8576 23.7539 33.8773C19.1469 34.7797 17.0012 35.9136 17.0012 37.4461C17.0012 38.8416 18.7714 39.8972 22.5724 40.7648C23.6893 41.0241 24.9695 41.2547 26.3703 41.4576Z" fill="white"/>
</g>
<defs>
<clipPath id="clip0_1075_1639">
<rect width="49" height="45" fill="white" transform="translate(17 15)"/>
</clipPath>
</defs>
</svg>
