<svg width="82" height="82" viewBox="0 0 82 82" fill="none" xmlns="http://www.w3.org/2000/svg">
<circle cx="41" cy="41" r="41" fill="#385771"/>
<g clip-path="url(#clip0_1075_1645)">
<path d="M59.1631 57.7948C59.156 56.5124 58.7491 55.2652 58.0011 54.2328C57.253 53.2004 56.2022 52.4359 55 52.0494L46.1758 48.8718L46.1724 48.8704L45.4919 48.6255L45.1457 44.53C45.7848 43.7348 46.7891 42.2224 46.944 40.985L47.0444 40.1844C47.119 39.5844 47.3122 39.0059 47.6124 38.4838C48.1362 37.5698 48.4124 36.5308 48.4127 35.4728V31.6177C48.4093 31.4251 48.3316 31.2416 48.1965 31.1066C48.0614 30.9717 47.8796 30.896 47.6903 30.896C47.5009 30.896 47.3191 30.9717 47.184 31.1066C47.0489 31.2416 46.9714 31.4251 46.968 31.6177V35.4728C46.9678 36.2707 46.7596 37.0543 46.3645 37.7435C45.9664 38.4359 45.7103 39.203 45.6115 39.9987L45.5111 40.7993C45.4125 41.5857 44.5878 42.957 43.8804 43.7766C43.8689 43.79 43.8573 43.8036 43.8476 43.8177C43.5531 44.2128 42.5288 45.3794 41.7113 45.5517C41.5362 45.5886 41.3807 45.6902 41.275 45.8369C41.1693 45.9836 41.1208 46.1649 41.139 46.3458C41.1571 46.5268 41.2406 46.6944 41.3733 46.8164C41.5059 46.9383 41.6783 47.0059 41.8571 47.0061C41.9066 47.0059 41.9559 47.0007 42.0044 46.9906C42.6815 46.8069 43.3041 46.4572 43.8176 45.9722L44.0923 49.2223C44.1042 49.3629 44.1556 49.497 44.2405 49.6087C44.3253 49.7203 44.44 49.8048 44.5708 49.8519L44.6467 49.8792L40.1099 54.8302C39.6416 54.2388 38.9186 53.3277 38.1941 52.4156C37.4846 51.5235 36.918 50.8128 36.5092 50.3043C36.3847 50.1499 36.2726 50.011 36.1729 49.8876L36.2853 49.8423C36.41 49.7921 36.5187 49.7074 36.5988 49.5979C36.6789 49.4884 36.7274 49.3583 36.7389 49.2223L37.0177 45.9257C37.564 46.4057 38.2035 46.7635 38.8946 46.9758C39.0766 47.0253 39.2702 47.0005 39.4345 46.9068C39.5987 46.813 39.7205 46.6578 39.7738 46.4741C39.8271 46.2904 39.8078 46.0927 39.7199 45.9233C39.6321 45.7539 39.4826 45.6261 39.3034 45.5672C38.3818 45.255 37.5962 44.6255 37.0821 43.7872C37.0604 43.7477 37.0353 43.7102 37.0069 43.6754C36.3184 42.8281 35.5527 41.5212 35.4604 40.8L35.3386 39.8261C35.2551 39.1589 35.0613 38.5108 34.7654 37.9093L34.647 37.6684C34.4065 37.1765 34.2558 36.6441 34.2027 36.0973C34.331 36.0321 34.4604 35.9651 34.5909 35.8964V36.2215C34.5916 36.7469 34.7971 37.2506 35.1624 37.6221C35.5277 37.9936 36.0229 38.2026 36.5394 38.2032H38.3534C38.8362 38.2027 39.3015 38.0202 39.6596 37.691C40.0178 37.3617 40.2432 36.9091 40.2922 36.4206H40.7592C40.8083 36.9091 41.0336 37.3617 41.3917 37.6909C41.7498 38.0202 42.2152 38.2027 42.698 38.2032H44.5117C45.0282 38.2026 45.5234 37.9936 45.8886 37.6221C46.2539 37.2506 46.4593 36.7469 46.4599 36.2215V35.1282C46.4594 34.7217 46.3005 34.332 46.0179 34.0446C45.7353 33.7571 45.3522 33.5954 44.9525 33.5949H42.2568C41.8874 33.5955 41.5311 33.7339 41.2553 33.9838C40.9794 34.2338 40.8033 34.578 40.7603 34.9512H40.2916C40.2486 34.578 40.0724 34.2338 39.7966 33.9838C39.5207 33.7339 39.1643 33.5955 38.7949 33.5949H38.5535C40.3356 32.4819 41.9885 31.366 43.0811 30.6113L42.8874 32.2704C42.8721 32.4023 42.8922 32.5359 42.9456 32.6571C42.9989 32.7783 43.0835 32.8825 43.1905 32.9587C43.2974 33.0349 43.4227 33.0801 43.5529 33.0897C43.6831 33.0992 43.8134 33.0727 43.93 33.0129C48.4119 30.7122 48.4119 28.8263 48.4117 27.8131V27.7983C48.4117 26.2617 47.5083 24.8909 45.8681 23.9387C44.6408 23.2356 43.2649 22.8439 41.8571 22.7968H39.0985C37.4136 22.7968 34.9417 23.6023 33.0525 25.8631C31.5603 27.649 29.9708 30.9562 30.8721 36.5706C30.889 36.6759 30.9282 36.7762 30.9871 36.8644C31.0459 36.9527 31.1229 37.0269 31.2128 37.0819C31.3027 37.1368 31.4033 37.1712 31.5075 37.1827C31.6118 37.1941 31.7172 37.1823 31.8165 37.1482C32.1346 37.0388 32.4771 36.9026 32.8365 36.746C32.9366 37.2945 33.1113 37.8262 33.3556 38.3257L33.474 38.5666C33.6972 39.0202 33.8433 39.5089 33.9061 40.0121L34.0282 40.9857C34.1695 42.1126 35.0796 43.5519 35.7099 44.3781C35.6996 44.4165 35.6922 44.4558 35.6882 44.4955L35.3373 48.645L26.8742 52.0541C25.675 52.4428 24.6277 53.2077 23.8822 54.2391C23.1366 55.2705 22.7312 56.5154 22.7239 57.7955L22.0059 63.167C21.9801 63.3601 22.0307 63.5557 22.1467 63.7108C22.2626 63.8659 22.4345 63.9678 22.6243 63.9941C22.6569 63.9985 22.6897 64.0007 22.7226 64.0007C22.8973 64.0007 23.0661 63.9362 23.1976 63.8194C23.3292 63.7025 23.4146 63.541 23.4381 63.3649L24.1626 57.9458C24.1669 57.913 24.1692 57.88 24.1691 57.847C24.1665 56.8658 24.4726 55.9095 25.0424 55.1178C25.6123 54.3261 26.4161 53.7406 27.3365 53.4467C27.3526 53.4415 27.3685 53.4359 27.3842 53.4296L34.7608 50.4581C35.326 51.1389 37.8912 54.3701 39.5069 56.4132C39.5719 56.4953 39.6535 56.5622 39.7461 56.6094C39.8387 56.6567 39.9401 56.6831 40.0436 56.687H40.07C40.1692 56.6869 40.2673 56.6659 40.3582 56.6255C40.4491 56.5851 40.5307 56.5262 40.5982 56.4522L46.1315 50.4137L54.5286 53.4375C54.536 53.4404 54.5437 53.4429 54.5517 53.4453C55.4721 53.7392 56.2759 54.3248 56.8457 55.1165C57.4154 55.9081 57.7214 56.8644 57.7188 57.8455C57.7188 57.8786 57.721 57.9116 57.7254 57.9444L58.45 63.3635C58.4735 63.5396 58.5589 63.701 58.6905 63.8179C58.822 63.9348 58.9908 63.9992 59.1655 63.9993C59.1984 63.9993 59.2312 63.9971 59.2638 63.9927C59.4536 63.9663 59.6253 63.8644 59.7413 63.7094C59.8572 63.5543 59.9079 63.3587 59.8822 63.1656L59.1631 57.7948ZM42.195 35.1282C42.195 35.1112 42.2018 35.095 42.2136 35.083C42.2254 35.0711 42.2414 35.0644 42.2581 35.0644H44.9537C44.9619 35.0643 44.9701 35.0659 44.9778 35.0691C44.9854 35.0723 44.9923 35.0771 44.9982 35.083C45.004 35.0889 45.0088 35.096 45.0119 35.1037C45.0151 35.1115 45.0167 35.1198 45.0167 35.1282V36.2215C45.0165 36.3574 44.9634 36.4876 44.8689 36.5837C44.7745 36.6798 44.6464 36.7339 44.5128 36.734H42.6991C42.5655 36.7339 42.4374 36.6798 42.3429 36.5837C42.2485 36.4877 42.1952 36.3574 42.195 36.2215V35.1282ZM38.7961 35.0644C38.8128 35.0644 38.8288 35.0711 38.8405 35.0831C38.8523 35.095 38.8589 35.1113 38.8589 35.1282V36.2215C38.8587 36.3573 38.8056 36.4876 38.7111 36.5836C38.6167 36.6797 38.4888 36.7338 38.3552 36.734H36.5413C36.4077 36.7339 36.2796 36.6798 36.1852 36.5837C36.0907 36.4876 36.0376 36.3574 36.0374 36.2215V35.1282C36.0387 35.1164 36.0433 35.1053 36.0506 35.0961C36.0693 35.0855 36.0879 35.0752 36.1064 35.0644H38.7961ZM32.1755 35.4369C31.8671 32.7451 32.0501 29.333 34.1544 26.8148C35.7262 24.9336 37.8013 24.2662 39.0996 24.2662H41.8582C43.0149 24.3121 44.1444 24.6373 45.1531 25.2149C45.9813 25.6955 46.9682 26.5341 46.9682 27.7973V27.8124C46.9682 28.466 46.9682 29.5055 44.4885 31.0259L44.705 29.1693C44.7215 29.0283 44.6975 28.8855 44.6358 28.7581C44.5742 28.6307 44.4775 28.5242 44.3576 28.4516C44.2377 28.3789 44.0996 28.3431 43.9601 28.3486C43.8206 28.3541 43.6857 28.4005 43.5716 28.4824C43.513 28.5244 39.335 31.5109 35.5104 33.7166C35.4112 33.76 35.3169 33.8142 35.2291 33.8783C34.2395 34.4535 33.22 34.9738 32.1751 35.4369H32.1755Z" fill="white"/>
<path d="M19.9094 30.0363C19.9761 30.105 20.0553 30.1596 20.1427 30.197C20.2301 30.2345 20.324 30.2541 20.4188 30.2547C20.5137 30.2552 20.6077 30.2368 20.6955 30.2005C20.7834 30.1641 20.8633 30.1105 20.9307 30.0427L26.2328 24.7167C26.369 24.5798 26.4463 24.3934 26.4475 24.1985C26.4486 24.0036 26.3736 23.8163 26.239 23.6777L20.9373 18.2184C20.8706 18.1497 20.7912 18.0951 20.7038 18.0576C20.6163 18.0202 20.5225 18.0006 20.4276 18C20.3328 17.9994 20.2387 18.0179 20.1508 18.0543C20.063 18.0907 19.983 18.1443 19.9155 18.2121C19.848 18.28 19.7943 18.3606 19.7575 18.4496C19.7207 18.5385 19.7015 18.6339 19.7009 18.7304C19.7004 18.8269 19.7185 18.9226 19.7542 19.012C19.79 19.1014 19.8428 19.1827 19.9094 19.2513L24.7036 24.188L19.9156 28.9977C19.7794 29.1347 19.7023 29.3209 19.7012 29.5157C19.7 29.7105 19.7749 29.8978 19.9094 30.0363Z" fill="white"/>
<path d="M29.8073 19.7347H32.3054C32.4969 19.7347 32.6806 19.6573 32.8161 19.5195C32.9515 19.3818 33.0276 19.1949 33.0276 19.0001C33.0276 18.8053 32.9515 18.6184 32.8161 18.4807C32.6806 18.3429 32.4969 18.2655 32.3054 18.2655H29.8073C29.6157 18.2655 29.4321 18.3429 29.2966 18.4807C29.1612 18.6184 29.0851 18.8053 29.0851 19.0001C29.0851 19.1949 29.1612 19.3818 29.2966 19.5195C29.4321 19.6573 29.6157 19.7347 29.8073 19.7347Z" fill="white"/>
<path d="M36.5927 19.7347H45.3386C45.5302 19.7347 45.7139 19.6573 45.8494 19.5195C45.9848 19.3818 46.0608 19.1949 46.0608 19.0001C46.0608 18.8053 45.9848 18.6184 45.8494 18.4807C45.7139 18.3429 45.5302 18.2655 45.3386 18.2655H36.5927C36.4011 18.2655 36.2175 18.3429 36.082 18.4807C35.9466 18.6184 35.8705 18.8053 35.8705 19.0001C35.8705 19.1949 35.9466 19.3818 36.082 19.5195C36.2175 19.6573 36.4011 19.7347 36.5927 19.7347Z" fill="white"/>
<path d="M49.8434 19.7347H51.7472C51.9387 19.7347 52.1224 19.6573 52.2578 19.5195C52.3932 19.3818 52.4693 19.1949 52.4693 19.0001C52.4693 18.8053 52.3932 18.6184 52.2578 18.4807C52.1224 18.3429 51.9387 18.2655 51.7472 18.2655H49.8434C49.6519 18.2655 49.4682 18.3429 49.3328 18.4807C49.1973 18.6184 49.1212 18.8053 49.1212 19.0001C49.1212 19.1949 49.1973 19.3818 49.3328 19.5195C49.4682 19.6573 49.6519 19.7347 49.8434 19.7347Z" fill="white"/>
<path d="M55.7826 19.7347H57.6864C57.8779 19.7347 58.0616 19.6573 58.197 19.5195C58.3324 19.3818 58.4085 19.1949 58.4085 19.0001C58.4085 18.8053 58.3324 18.6184 58.197 18.4807C58.0616 18.3429 57.8779 18.2655 57.6864 18.2655H55.7826C55.5911 18.2655 55.4074 18.3429 55.272 18.4807C55.1365 18.6184 55.0604 18.8053 55.0604 19.0001C55.0604 19.1949 55.1365 19.3818 55.272 19.5195C55.4074 19.6573 55.5911 19.7347 55.7826 19.7347Z" fill="white"/>
<path d="M55.1881 24.862H56.7232C56.8192 24.8638 56.9145 24.8461 57.0036 24.8099C57.0928 24.7738 57.1739 24.72 57.2423 24.6516C57.3108 24.5832 57.3653 24.5016 57.4024 24.4116C57.4395 24.3216 57.4586 24.2249 57.4586 24.1273C57.4586 24.0297 57.4395 23.9331 57.4024 23.8431C57.3653 23.7531 57.3108 23.6715 57.2423 23.6031C57.1739 23.5347 57.0928 23.4809 57.0036 23.4447C56.9145 23.4086 56.8192 23.3909 56.7232 23.3926H55.1881C54.9988 23.3961 54.8183 23.475 54.6856 23.6124C54.5529 23.7498 54.4786 23.9347 54.4786 24.1273C54.4786 24.3199 54.5529 24.5049 54.6856 24.6423C54.8183 24.7797 54.9988 24.8586 55.1881 24.862Z" fill="white"/>
<path d="M61.2568 19.7347H63.2778C63.4693 19.7347 63.653 19.6573 63.7885 19.5195C63.9239 19.3818 64 19.1949 64 19.0001C64 18.8053 63.9239 18.6184 63.7885 18.4807C63.653 18.3429 63.4693 18.2655 63.2778 18.2655H61.2568C61.0653 18.2655 60.8815 18.3429 60.7461 18.4807C60.6106 18.6184 60.5345 18.8053 60.5345 19.0001C60.5345 19.1949 60.6106 19.3818 60.7461 19.5195C60.8815 19.6573 61.0653 19.7347 61.2568 19.7347Z" fill="white"/>
<path d="M63.2778 23.3926H59.2179C59.1219 23.3909 59.0266 23.4086 58.9375 23.4447C58.8483 23.4809 58.7671 23.5347 58.6986 23.6031C58.6302 23.6715 58.5758 23.7531 58.5387 23.8431C58.5016 23.9331 58.4825 24.0297 58.4825 24.1273C58.4825 24.2249 58.5016 24.3216 58.5387 24.4116C58.5758 24.5016 58.6302 24.5832 58.6986 24.6516C58.7671 24.72 58.8483 24.7738 58.9375 24.8099C59.0266 24.8461 59.1219 24.8638 59.2179 24.862H63.2778C63.4671 24.8586 63.6475 24.7797 63.7802 24.6423C63.9129 24.5049 63.9874 24.3199 63.9874 24.1273C63.9874 23.9347 63.9129 23.7498 63.7802 23.6124C63.6475 23.475 63.4671 23.3961 63.2778 23.3926Z" fill="white"/>
<path d="M50.2288 23.3926C50.1329 23.3909 50.0376 23.4086 49.9484 23.4447C49.8593 23.4809 49.7782 23.5347 49.7097 23.6031C49.6413 23.6715 49.5868 23.7531 49.5497 23.8431C49.5126 23.9331 49.4935 24.0297 49.4935 24.1273C49.4935 24.2249 49.5126 24.3216 49.5497 24.4116C49.5868 24.5016 49.6413 24.5832 49.7097 24.6516C49.7782 24.72 49.8593 24.7738 49.9484 24.8099C50.0376 24.8461 50.1329 24.8638 50.2288 24.862H52.2491C52.4385 24.8586 52.619 24.7797 52.7517 24.6423C52.8844 24.5049 52.9587 24.3199 52.9587 24.1273C52.9587 23.9347 52.8844 23.7498 52.7517 23.6124C52.619 23.475 52.4385 23.3961 52.2491 23.3926H50.2288Z" fill="white"/>
<path d="M29.8073 24.862H31.7108C31.8068 24.8638 31.9021 24.8461 31.9912 24.8099C32.0804 24.7738 32.1616 24.72 32.23 24.6516C32.2985 24.5832 32.3528 24.5016 32.39 24.4116C32.4271 24.3216 32.4462 24.2249 32.4462 24.1273C32.4462 24.0297 32.4271 23.9331 32.39 23.8431C32.3528 23.7531 32.2985 23.6715 32.23 23.6031C32.1616 23.5347 32.0804 23.4809 31.9912 23.4447C31.9021 23.4086 31.8068 23.3909 31.7108 23.3926H29.8073C29.618 23.3961 29.4376 23.475 29.3049 23.6124C29.1722 23.7498 29.0978 23.9347 29.0978 24.1273C29.0978 24.3199 29.1722 24.5049 29.3049 24.6423C29.4376 24.7797 29.618 24.8586 29.8073 24.862Z" fill="white"/>
<path d="M19.7224 35.9478H22.6736C22.863 35.9444 23.0433 35.8654 23.176 35.728C23.3087 35.5906 23.3831 35.4057 23.3831 35.2131C23.3831 35.0205 23.3087 34.8356 23.176 34.6982C23.0433 34.5608 22.863 34.4818 22.6736 34.4784H19.7224C19.6265 34.4766 19.5312 34.4944 19.442 34.5305C19.3529 34.5666 19.2717 34.6205 19.2032 34.6889C19.1348 34.7573 19.0804 34.8389 19.0433 34.9289C19.0062 35.0189 18.9871 35.1155 18.9871 35.2131C18.9871 35.3107 19.0062 35.4073 19.0433 35.4973C19.0804 35.5873 19.1348 35.6689 19.2032 35.7373C19.2717 35.8057 19.3529 35.8595 19.442 35.8957C19.5312 35.9318 19.6265 35.9496 19.7224 35.9478Z" fill="white"/>
<path d="M24.9064 35.213C24.9064 35.3095 24.925 35.405 24.9613 35.4942C24.9976 35.5833 25.0508 35.6643 25.1179 35.7326C25.1849 35.8008 25.2646 35.8549 25.3523 35.8919C25.4399 35.9288 25.5338 35.9478 25.6286 35.9478H27.2736C27.3696 35.9496 27.4649 35.9318 27.554 35.8957C27.6431 35.8595 27.7244 35.8057 27.7928 35.7373C27.8613 35.6689 27.9156 35.5873 27.9527 35.4973C27.9899 35.4073 28.009 35.3107 28.009 35.2131C28.009 35.1155 27.9899 35.0189 27.9527 34.9289C27.9156 34.8389 27.8613 34.7573 27.7928 34.6889C27.7244 34.6205 27.6431 34.5666 27.554 34.5305C27.4649 34.4944 27.3696 34.4766 27.2736 34.4784H25.6286C25.4371 34.4784 25.2534 34.5558 25.118 34.6935C24.9825 34.8313 24.9064 35.0182 24.9064 35.213Z" fill="white"/>
<path d="M23.6848 45.4688C23.6848 45.2739 23.6087 45.087 23.4732 44.9492C23.3378 44.8114 23.154 44.734 22.9624 44.734H19.7224C19.6265 44.7322 19.5312 44.75 19.442 44.7861C19.3529 44.8222 19.2717 44.8761 19.2032 44.9445C19.1348 45.0129 19.0804 45.0945 19.0433 45.1845C19.0062 45.2745 18.9871 45.3711 18.9871 45.4687C18.9871 45.5663 19.0062 45.6629 19.0433 45.7529C19.0804 45.8429 19.1348 45.9245 19.2032 45.9929C19.2717 46.0613 19.3529 46.1152 19.442 46.1513C19.5312 46.1874 19.6265 46.2052 19.7224 46.2034H22.9624C23.0572 46.2034 23.1512 46.1845 23.2388 46.1476C23.3265 46.1107 23.406 46.0565 23.4731 45.9883C23.5402 45.9201 23.5935 45.8391 23.6298 45.75C23.6661 45.6608 23.6848 45.5653 23.6848 45.4688Z" fill="white"/>
<path d="M25.9176 44.734C25.7282 44.7374 25.5479 44.8163 25.4152 44.9538C25.2825 45.0912 25.2081 45.2761 25.2081 45.4687C25.2081 45.6613 25.2825 45.8462 25.4152 45.9836C25.5479 46.121 25.7282 46.2 25.9176 46.2034H27.5627C27.752 46.2 27.9324 46.121 28.0651 45.9836C28.1978 45.8462 28.2721 45.6613 28.2721 45.4687C28.2721 45.2761 28.1978 45.0912 28.0651 44.9538C27.9324 44.8163 27.752 44.7374 27.5627 44.734H25.9176Z" fill="white"/>
<path d="M56.1233 35.213C56.1233 35.1165 56.1046 35.0209 56.0683 34.9318C56.032 34.8426 55.9788 34.7617 55.9117 34.6935C55.8446 34.6252 55.765 34.5711 55.6774 34.5342C55.5897 34.4973 55.4958 34.4783 55.4009 34.4784H51.2389C51.0495 34.4818 50.8692 34.5607 50.7365 34.6982C50.6038 34.8356 50.5294 35.0205 50.5294 35.2131C50.5294 35.4057 50.6038 35.5906 50.7365 35.728C50.8692 35.8654 51.0495 35.9444 51.2389 35.9478H55.4009C55.5925 35.9478 55.7763 35.8704 55.9118 35.7325C56.0473 35.5947 56.1233 35.4079 56.1233 35.213Z" fill="white"/>
<path d="M54.5713 41.0751H59.11C59.2994 41.0717 59.4799 40.9928 59.6126 40.8554C59.7453 40.7179 59.8196 40.533 59.8196 40.3404C59.8196 40.1478 59.7453 39.9629 59.6126 39.8255C59.4799 39.6881 59.2994 39.6092 59.11 39.6057H54.5713C54.382 39.6092 54.2016 39.6881 54.0689 39.8255C53.9362 39.9629 53.8619 40.1478 53.8619 40.3404C53.8619 40.533 53.9362 40.7179 54.0689 40.8554C54.2016 40.9928 54.382 41.0717 54.5713 41.0751Z" fill="white"/>
<path d="M63.2778 34.4781H58.2255C58.0362 34.4816 57.8558 34.5605 57.7231 34.6979C57.5904 34.8353 57.5161 35.0202 57.5161 35.2128C57.5161 35.4054 57.5904 35.5904 57.7231 35.7278C57.8558 35.8652 58.0362 35.9441 58.2255 35.9475H63.2778C63.4671 35.9441 63.6475 35.8652 63.7802 35.7278C63.9129 35.5904 63.9873 35.4054 63.9873 35.2128C63.9873 35.0202 63.9129 34.8353 63.7802 34.6979C63.6475 34.5605 63.4671 34.4816 63.2778 34.4781Z" fill="white"/>
<path d="M63.2778 39.6062H61.5278C61.3385 39.6096 61.158 39.6885 61.0253 39.826C60.8926 39.9634 60.8182 40.1483 60.8182 40.3409C60.8182 40.5335 60.8926 40.7184 61.0253 40.8558C61.158 40.9932 61.3385 41.0721 61.5278 41.0756H63.2778C63.4672 41.0721 63.6475 40.9932 63.7802 40.8558C63.9129 40.7184 63.9874 40.5335 63.9874 40.3409C63.9874 40.1483 63.9129 39.9634 63.7802 39.826C63.6475 39.6885 63.4672 39.6096 63.2778 39.6062Z" fill="white"/>
<path d="M49.8352 41.0751H51.5853C51.7746 41.0717 51.9551 40.9928 52.0878 40.8554C52.2205 40.7179 52.2948 40.533 52.2948 40.3404C52.2948 40.1478 52.2205 39.9629 52.0878 39.8255C51.9551 39.6881 51.7746 39.6092 51.5853 39.6057H49.8352C49.6459 39.6092 49.4655 39.6881 49.3328 39.8255C49.2001 39.9629 49.1258 40.1478 49.1258 40.3404C49.1258 40.533 49.2001 40.7179 49.3328 40.8554C49.4655 40.9928 49.6459 41.0717 49.8352 41.0751Z" fill="white"/>
<path d="M28.5805 41.0751H30.0787C30.1747 41.0769 30.27 41.0592 30.3591 41.023C30.4483 40.9869 30.5294 40.933 30.5978 40.8646C30.6663 40.7962 30.7208 40.7147 30.7579 40.6247C30.795 40.5346 30.8141 40.438 30.8141 40.3404C30.8141 40.2428 30.795 40.1462 30.7579 40.0562C30.7208 39.9662 30.6663 39.8846 30.5978 39.8162C30.5294 39.7478 30.4483 39.6939 30.3591 39.6578C30.27 39.6217 30.1747 39.604 30.0787 39.6057H28.5805C28.3911 39.6092 28.2108 39.6881 28.0781 39.8255C27.9454 39.9629 27.871 40.1478 27.871 40.3404C27.871 40.533 27.9454 40.7179 28.0781 40.8553C28.2108 40.9928 28.3911 41.0717 28.5805 41.0751Z" fill="white"/>
<path d="M19.7224 41.0751H25.5619C25.7513 41.0717 25.9318 40.9928 26.0645 40.8553C26.1972 40.7179 26.2715 40.533 26.2715 40.3404C26.2715 40.1478 26.1972 39.9629 26.0645 39.8255C25.9318 39.6881 25.7513 39.6092 25.5619 39.6057H19.7224C19.6265 39.604 19.5312 39.6217 19.442 39.6578C19.3529 39.6939 19.2717 39.7478 19.2032 39.8162C19.1348 39.8846 19.0804 39.9662 19.0433 40.0562C19.0062 40.1462 18.9871 40.2428 18.9871 40.3404C18.9871 40.438 19.0062 40.5346 19.0433 40.6247C19.0804 40.7147 19.1348 40.7962 19.2032 40.8646C19.2717 40.933 19.3529 40.9869 19.442 41.023C19.5312 41.0592 19.6265 41.0769 19.7224 41.0751Z" fill="white"/>
</g>
<defs>
<clipPath id="clip0_1075_1645">
<rect width="45" height="46" fill="white" transform="translate(19 18)"/>
</clipPath>
</defs>
</svg>
