<svg width="115" height="115" viewBox="0 0 115 115" fill="none" xmlns="http://www.w3.org/2000/svg">
<rect width="115" height="115" rx="57.5" fill="white"/>
<g clip-path="url(#clip0_1_3167)">
<path d="M78.1667 54.4686C80.3539 43.3901 73.2616 32.6129 62.3257 30.3972C51.3898 28.1815 40.7515 35.3662 38.5643 46.4448C36.3771 57.5233 43.4693 68.3005 54.4052 70.5162C65.3411 72.7319 75.9795 65.5472 78.1667 54.4686Z" fill="#EC2C2A"/>
<path d="M38.1722 64.339C38.1176 64.339 38.0639 64.3254 38.0159 64.2992C37.9678 64.273 37.9269 64.2352 37.8968 64.1892C36.1624 61.5487 34.9479 58.5937 34.32 55.4865C34.3062 55.4012 34.3256 55.3138 34.374 55.2427C34.4225 55.1715 34.4962 55.1221 34.5798 55.1048C34.6634 55.0875 34.7503 55.1036 34.8224 55.1499C34.8945 55.1961 34.9462 55.2688 34.9665 55.3527C35.5781 58.3756 36.7598 61.2506 38.4469 63.8199C38.4953 63.8938 38.5128 63.9841 38.4954 64.0711C38.4781 64.158 38.4274 64.2344 38.3544 64.2835C38.3005 64.32 38.237 64.3393 38.1722 64.339Z" fill="#282828"/>
<path d="M78.4723 64.4668C78.4125 64.4668 78.3537 64.4503 78.3024 64.4191C78.251 64.3878 78.209 64.3431 78.1809 64.2895C78.1527 64.236 78.1395 64.1757 78.1425 64.1151C78.1456 64.0545 78.1649 63.9959 78.1983 63.9456C80.8486 59.9594 82.2606 55.2608 82.2525 50.4547C82.2528 48.9487 82.1155 47.4459 81.8424 45.9656C81.8325 45.9217 81.8315 45.8762 81.8394 45.8319C81.8472 45.7877 81.8638 45.7454 81.8882 45.7078C81.9125 45.6702 81.9441 45.6379 81.9811 45.6129C82.018 45.5879 82.0596 45.5708 82.1032 45.5624C82.1469 45.5541 82.1917 45.5548 82.2351 45.5644C82.2785 45.5741 82.3195 45.5925 82.3557 45.6186C82.3919 45.6446 82.4226 45.6779 82.4458 45.7162C82.469 45.7546 82.4844 45.7973 82.4909 45.8418C82.7719 47.3629 82.9132 48.9072 82.9129 50.4547C82.9211 55.394 81.47 60.2228 78.7464 64.3196C78.7161 64.365 78.6753 64.4021 78.6275 64.4278C78.5797 64.4535 78.5264 64.4668 78.4723 64.4668Z" fill="#282828"/>
<path d="M81.1873 42.5636C81.1191 42.5636 81.0527 42.5423 80.997 42.5025C80.9413 42.4628 80.8991 42.4065 80.8762 42.3415C79.656 38.8884 77.6813 35.7593 75.0996 33.1879C75.0385 33.1255 75.0041 33.0412 75.0039 32.9534C75.0037 32.8655 75.0376 32.781 75.0983 32.7182C75.1591 32.6555 75.2417 32.6195 75.3285 32.618C75.4152 32.6165 75.4991 32.6496 75.5619 32.7102C78.215 35.3528 80.2444 38.5686 81.4983 42.1174C81.5278 42.2007 81.5236 42.2925 81.4864 42.3726C81.4493 42.4527 81.3823 42.5147 81.3002 42.5449C81.2639 42.5576 81.2257 42.5639 81.1873 42.5636Z" fill="#282828"/>
<path d="M43.8214 72.3672C43.8214 73.2018 43.5771 74.0176 43.1194 74.7115C42.6617 75.4054 42.0112 75.9462 41.2501 76.2656C40.489 76.5849 39.6516 76.6685 38.8436 76.5057C38.0356 76.3429 37.2934 75.941 36.7109 75.3509C36.1284 74.7608 35.7317 74.0089 35.571 73.1904C35.4103 72.3719 35.4928 71.5235 35.808 70.7525C36.1233 69.9815 36.6571 69.3225 37.3421 68.8588C38.0271 68.3952 38.8324 68.1477 39.6562 68.1477C40.2032 68.1477 40.7448 68.2568 41.2501 68.4689C41.7555 68.6809 42.2146 68.9918 42.6014 69.3836C42.9882 69.7754 43.295 70.2406 43.5043 70.7525C43.7136 71.2644 43.8214 71.8131 43.8214 72.3672Z" fill="white"/>
<path d="M39.6567 76.9213C38.7676 76.9215 37.8984 76.6545 37.159 76.1542C36.4197 75.6538 35.8434 74.9426 35.503 74.1105C35.1627 73.2784 35.0736 72.3627 35.2469 71.4792C35.4203 70.5958 35.8484 69.7843 36.4771 69.1473C37.1058 68.5104 37.9068 68.0766 38.7788 67.9008C39.6508 67.725 40.5548 67.8152 41.3762 68.1598C42.1977 68.5045 42.8998 69.0882 43.3938 69.8371C43.8878 70.586 44.1515 71.4665 44.1515 72.3673C44.1501 73.5745 43.6761 74.732 42.8335 75.5857C41.9909 76.4394 40.8484 76.9197 39.6567 76.9213ZM39.6567 68.4823C38.8982 68.4821 38.1567 68.7099 37.5259 69.1367C36.8952 69.5635 36.4035 70.1702 36.1132 70.8801C35.8228 71.59 35.7468 72.3711 35.8947 73.1248C36.0426 73.8785 36.4078 74.5708 36.9441 75.1142C37.4804 75.6576 38.1637 76.0276 38.9076 76.1776C39.6516 76.3276 40.4227 76.2507 41.1235 75.9566C41.8243 75.6626 42.4233 75.1647 42.8447 74.5258C43.2661 73.8869 43.4911 73.1357 43.4911 72.3673C43.4902 71.3372 43.086 70.3495 42.3672 69.6209C41.6483 68.8923 40.6736 68.4823 39.6567 68.4809V68.4823Z" fill="#282828"/>
<path d="M46.9828 85.6648H32.3303V81.2097C32.3303 80.3409 32.6708 79.5076 33.277 78.8929C33.8831 78.2782 34.7054 77.9324 35.563 77.9315H43.7521C44.1771 77.9315 44.5979 78.0163 44.9905 78.1811C45.3831 78.3458 45.7398 78.5873 46.0403 78.8917C46.3408 79.1961 46.5792 79.5575 46.7418 79.9552C46.9044 80.353 46.9881 80.7792 46.9881 81.2097L46.9828 85.6648Z" fill="white"/>
<path d="M46.9827 86H32.3302C32.2426 86 32.1586 85.9648 32.0967 85.902C32.0348 85.8393 32 85.7542 32 85.6655V81.2098C32 80.2522 32.3753 79.3338 33.0434 78.6564C33.7114 77.9789 34.6177 77.5979 35.5629 77.597H43.752C44.6978 77.597 45.6049 77.9777 46.2737 78.6552C46.9425 79.3327 47.3182 80.2516 47.3182 81.2098V85.6655C47.3182 85.7099 47.3095 85.7538 47.2926 85.7947C47.2756 85.8357 47.2509 85.8728 47.2196 85.9039C47.1884 85.9351 47.1514 85.9596 47.1107 85.9761C47.07 85.9926 47.0265 86.0007 46.9827 86ZM32.6604 85.331H46.6525V81.2098C46.6525 80.4291 46.3464 79.6803 45.8014 79.1283C45.2565 78.5762 44.5174 78.2661 43.7467 78.2661H35.5576C34.7875 78.267 34.0493 78.5775 33.505 79.1294C32.9608 79.6814 32.6551 80.4296 32.6551 81.2098L32.6604 85.331Z" fill="#282828"/>
<path d="M43.9428 86C43.8552 86 43.7712 85.9647 43.7093 85.902C43.6473 85.8393 43.6125 85.7542 43.6125 85.6654V82.8134C43.6125 82.7247 43.6473 82.6396 43.7093 82.5769C43.7712 82.5141 43.8552 82.4789 43.9428 82.4789C44.0303 82.4789 44.1143 82.5141 44.1762 82.5769C44.2382 82.6396 44.273 82.7247 44.273 82.8134V85.6654C44.273 85.7542 44.2382 85.8393 44.1762 85.902C44.1143 85.9647 44.0303 86 43.9428 86Z" fill="#282828"/>
<path d="M35.37 86C35.2824 86 35.1984 85.9647 35.1365 85.902C35.0746 85.8393 35.0398 85.7542 35.0398 85.6654V82.8134C35.0398 82.7247 35.0746 82.6396 35.1365 82.5769C35.1984 82.5141 35.2824 82.4789 35.37 82.4789C35.4576 82.4789 35.5416 82.5141 35.6035 82.5769C35.6654 82.6396 35.7002 82.7247 35.7002 82.8134V85.6654C35.7002 85.7542 35.6654 85.8393 35.6035 85.902C35.5416 85.9647 35.4576 86 35.37 86Z" fill="#282828"/>
<path d="M76.3439 76.5868C78.6443 76.5868 80.5091 74.6976 80.5091 72.3672C80.5091 70.0369 78.6443 68.1477 76.3439 68.1477C74.0435 68.1477 72.1787 70.0369 72.1787 72.3672C72.1787 74.6976 74.0435 76.5868 76.3439 76.5868Z" fill="white"/>
<path d="M76.3433 76.9213C75.4542 76.9213 74.5851 76.6542 73.8458 76.1538C73.1065 75.6534 72.5303 74.9422 72.1901 74.11C71.8498 73.2779 71.7608 72.3622 71.9343 71.4788C72.1077 70.5954 72.5359 69.784 73.1646 69.1471C73.7933 68.5102 74.5943 68.0765 75.4663 67.9007C76.3383 67.725 77.2422 67.8152 78.0636 68.1599C78.8851 68.5046 79.5871 69.0883 80.0811 69.8372C80.5751 70.5861 80.8387 71.4666 80.8387 72.3673C80.8375 73.5747 80.3635 74.7323 79.5207 75.5861C78.6779 76.4399 77.5352 76.9201 76.3433 76.9213ZM76.3433 68.4823C75.5848 68.4823 74.8434 68.7101 74.2127 69.137C73.582 69.5639 73.0905 70.1707 72.8002 70.8805C72.51 71.5904 72.434 72.3716 72.582 73.1252C72.73 73.8788 73.0952 74.5711 73.6316 75.1144C74.1679 75.6577 74.8512 76.0278 75.5951 76.1777C76.3391 76.3276 77.1101 76.2506 77.8109 75.9566C78.5117 75.6625 79.1106 75.1646 79.532 74.5257C79.9534 73.8868 80.1783 73.1357 80.1783 72.3673C80.1776 71.337 79.7734 70.3491 79.0544 69.6205C78.3354 68.8918 77.3603 68.482 76.3433 68.4809V68.4823Z" fill="#282828"/>
<path d="M83.6698 85.6648H69.0173V81.2097C69.0173 80.3409 69.3578 79.5076 69.964 78.8929C70.5701 78.2782 71.3924 77.9324 72.25 77.9315H80.4391C80.8641 77.9315 81.2849 78.0163 81.6775 78.1811C82.0701 78.3458 82.4268 78.5873 82.7273 78.8917C83.0278 79.1961 83.2662 79.5575 83.4288 79.9552C83.5914 80.353 83.6751 80.7792 83.6751 81.2097L83.6698 85.6648Z" fill="white"/>
<path d="M83.6697 86H69.0172C68.9296 86 68.8457 85.9648 68.7837 85.902C68.7218 85.8393 68.687 85.7542 68.687 85.6655V81.2098C68.687 80.2522 69.0623 79.3338 69.7304 78.6564C70.3984 77.9789 71.3047 77.5979 72.2499 77.597H80.439C81.3848 77.597 82.2919 77.9777 82.9607 78.6552C83.6295 79.3327 84.0052 80.2516 84.0052 81.2098V85.6655C84.0052 85.7099 83.9965 85.7538 83.9796 85.7947C83.9627 85.8357 83.9379 85.8728 83.9066 85.9039C83.8754 85.9351 83.8384 85.9596 83.7977 85.9761C83.757 85.9926 83.7135 86.0007 83.6697 86ZM69.3474 85.331H83.3395V81.2098C83.3395 80.4291 83.0334 79.6803 82.4884 79.1283C81.9435 78.5762 81.2044 78.2661 80.4337 78.2661H72.2446C71.4745 78.267 70.7363 78.5775 70.1921 79.1294C69.6478 79.6814 69.3421 80.4296 69.3421 81.2098L69.3474 85.331Z" fill="#282828"/>
<path d="M80.632 86C80.5444 86 80.4604 85.9647 80.3985 85.902C80.3366 85.8393 80.3018 85.7542 80.3018 85.6654V82.8134C80.3018 82.7247 80.3366 82.6396 80.3985 82.5769C80.4604 82.5141 80.5444 82.4789 80.632 82.4789C80.7195 82.4789 80.8035 82.5141 80.8655 82.5769C80.9274 82.6396 80.9622 82.7247 80.9622 82.8134V85.6654C80.9622 85.7542 80.9274 85.8393 80.8655 85.902C80.8035 85.9647 80.7195 86 80.632 86Z" fill="#282828"/>
<path d="M72.0573 86C71.9697 86 71.8857 85.9647 71.8238 85.902C71.7618 85.8393 71.7271 85.7542 71.7271 85.6654V82.8134C71.7271 82.7247 71.7618 82.6396 71.8238 82.5769C71.8857 82.5141 71.9697 82.4789 72.0573 82.4789C72.1448 82.4789 72.2288 82.5141 72.2907 82.5769C72.3527 82.6396 72.3875 82.7247 72.3875 82.8134V85.6654C72.3875 85.7542 72.3527 85.8393 72.2907 85.902C72.2288 85.9647 72.1448 86 72.0573 86Z" fill="#282828"/>
<path d="M70.0152 44.5225H45.7293C45.1358 44.5225 44.5665 44.7613 44.1467 45.1865C43.727 45.6117 43.4912 46.1884 43.4912 46.7898V58.7566C43.4911 59.0544 43.5489 59.3493 43.6614 59.6245C43.7738 59.8997 43.9387 60.1497 44.1465 60.3603C44.3543 60.5709 44.6011 60.738 44.8727 60.852C45.1443 60.9659 45.4354 61.0246 45.7293 61.0246H45.9763V63.9416L48.6226 61.0246H56.5825L57.8723 63.8566L59.1621 61.0246H67.122L69.7682 63.9416V61.0246H70.0152C70.3092 61.0246 70.6003 60.9659 70.8719 60.852C71.1435 60.738 71.3902 60.5709 71.5981 60.3603C71.8059 60.1497 71.9708 59.8997 72.0832 59.6245C72.1956 59.3493 72.2535 59.0544 72.2534 58.7566V46.7898C72.2534 46.1884 72.0176 45.6117 71.5978 45.1865C71.1781 44.7613 70.6088 44.5225 70.0152 44.5225Z" fill="white"/>
<path d="M69.7681 64.2761C69.7225 64.2761 69.6773 64.2666 69.6355 64.2481C69.5936 64.2295 69.5561 64.2024 69.5251 64.1684L66.9766 61.3585H59.3726L58.172 63.9985C58.1421 64.0523 58.0985 64.0972 58.0458 64.1284C57.9931 64.1596 57.9332 64.176 57.8722 64.176C57.8111 64.176 57.7512 64.1596 57.6985 64.1284C57.6458 64.0972 57.6023 64.0523 57.5723 63.9985L56.3717 61.3605H48.7678L46.2192 64.1704C46.1742 64.22 46.1155 64.2546 46.0507 64.2698C45.9859 64.285 45.918 64.28 45.8561 64.2555C45.7941 64.231 45.7409 64.1881 45.7034 64.1325C45.666 64.0768 45.6459 64.011 45.646 63.9436V61.3598C44.9798 61.3371 44.3483 61.0532 43.8846 60.5679C43.421 60.0827 43.1615 59.434 43.1609 58.7587V46.7898C43.1618 46.1 43.4326 45.4388 43.9141 44.951C44.3956 44.4633 45.0483 44.1889 45.7292 44.188H70.0151C70.696 44.1889 71.3488 44.4633 71.8302 44.951C72.3117 45.4388 72.5826 46.1 72.5835 46.7898V58.7567C72.5828 59.432 72.3233 60.0807 71.8597 60.5659C71.3961 61.0512 70.7646 61.3351 70.0983 61.3578V63.9416C70.0983 64.0303 70.0635 64.1154 70.0016 64.1781C69.9397 64.2409 69.8557 64.2761 69.7681 64.2761ZM59.162 60.6901H67.1219C67.1675 60.6901 67.2127 60.6996 67.2545 60.7182C67.2964 60.7367 67.3339 60.7638 67.3649 60.7978L69.4379 63.0832V61.0246C69.4379 60.9359 69.4727 60.8508 69.5346 60.7881C69.5966 60.7254 69.6806 60.6901 69.7681 60.6901H70.0151C70.5211 60.6896 71.0062 60.4857 71.3639 60.1232C71.7216 59.7607 71.9227 59.2692 71.923 58.7567V46.7898C71.9225 46.2774 71.7213 45.7861 71.3637 45.4237C71.006 45.0613 70.521 44.8575 70.0151 44.857H45.7292C45.2234 44.8575 44.7384 45.0613 44.3807 45.4237C44.023 45.7861 43.8218 46.2774 43.8213 46.7898V58.7567C43.8216 59.2692 44.0227 59.7607 44.3805 60.1232C44.7382 60.4857 45.2233 60.6896 45.7292 60.6901H45.9762C46.0638 60.6901 46.1478 60.7254 46.2097 60.7881C46.2716 60.8508 46.3064 60.9359 46.3064 61.0246V63.0832L48.3801 60.7978C48.4111 60.7638 48.4486 60.7367 48.4905 60.7182C48.5323 60.6996 48.5775 60.6901 48.6231 60.6901H56.5824C56.6456 60.69 56.7074 60.7082 56.7607 60.7426C56.8139 60.7769 56.8564 60.8261 56.8829 60.8841L57.8735 63.0578L58.8641 60.8841C58.8904 60.8265 58.9324 60.7776 58.9852 60.7433C59.0379 60.7089 59.0992 60.6905 59.162 60.6901Z" fill="#282828"/>
<path d="M52.7718 55.4771C52.7719 55.8622 52.6593 56.2387 52.4482 56.5589C52.2371 56.8792 51.9369 57.1288 51.5858 57.2763C51.2346 57.4237 50.8481 57.4623 50.4753 57.3872C50.1024 57.3121 49.7599 57.1267 49.4911 56.8544C49.2223 56.5821 49.0393 56.2351 48.9651 55.8574C48.891 55.4797 48.9291 55.0882 49.0746 54.7324C49.2202 54.3766 49.4666 54.0726 49.7827 53.8587C50.0989 53.6448 50.4705 53.5308 50.8507 53.5309C51.3601 53.5311 51.8487 53.7362 52.2089 54.1011C52.5692 54.4661 52.7716 54.961 52.7718 55.4771Z" fill="#E0E1E2"/>
<path d="M50.8508 57.7584C50.4053 57.7586 49.9699 57.6249 49.5994 57.3742C49.229 57.1236 48.9402 56.7673 48.7697 56.3504C48.5992 55.9335 48.5545 55.4748 48.6414 55.0321C48.7283 54.5895 48.9428 54.183 49.2577 53.8639C49.5727 53.5448 49.9741 53.3275 50.411 53.2395C50.8479 53.1515 51.3007 53.1967 51.7123 53.3695C52.1238 53.5422 52.4755 53.8347 52.7229 54.21C52.9703 54.5853 53.1023 55.0265 53.1021 55.4777C53.1013 56.0823 52.8638 56.6619 52.4418 57.0894C52.0198 57.517 51.4476 57.7575 50.8508 57.7584ZM50.8508 53.8654C50.536 53.8652 50.2282 53.9597 49.9664 54.1368C49.7046 54.3139 49.5005 54.5656 49.3799 54.8602C49.2593 55.1549 49.2277 55.4791 49.2891 55.7919C49.3504 56.1047 49.5019 56.392 49.7245 56.6176C49.947 56.8431 50.2306 56.9968 50.5394 57.059C50.8482 57.1213 51.1682 57.0894 51.4591 56.9674C51.7499 56.8454 51.9985 56.6387 52.1735 56.3736C52.3484 56.1084 52.4417 55.7966 52.4417 55.4777C52.4412 55.0504 52.2734 54.6407 51.9752 54.3384C51.677 54.0362 51.2726 53.8661 50.8508 53.8654Z" fill="#282828"/>
<path d="M68.2386 54.4093C68.2387 54.7944 68.1261 55.1709 67.915 55.4912C67.7039 55.8115 67.4037 56.0611 67.0526 56.2085C66.7014 56.356 66.3149 56.3946 65.9421 56.3195C65.5692 56.2444 65.2267 56.0589 64.9579 55.7866C64.6891 55.5143 64.506 55.1674 64.4319 54.7896C64.3578 54.4119 64.3959 54.0204 64.5414 53.6647C64.687 53.3089 64.9334 53.0048 65.2495 52.791C65.5657 52.5771 65.9373 52.463 66.3175 52.4631C66.8269 52.4633 67.3155 52.6684 67.6757 53.0334C68.036 53.3983 68.2384 53.8932 68.2386 54.4093Z" fill="#E0E1E2"/>
<path d="M66.3176 56.6907C65.8722 56.6908 65.4367 56.5571 65.0663 56.3065C64.6958 56.0559 64.4071 55.6997 64.2366 55.2828C64.066 54.866 64.0213 54.4072 64.1081 53.9646C64.195 53.5221 64.4094 53.1155 64.7243 52.7964C65.0392 52.4772 65.4405 52.2599 65.8774 52.1718C66.3142 52.0837 66.767 52.1289 67.1786 52.3015C67.5901 52.4742 67.9419 52.7666 68.1894 53.1418C68.4368 53.517 68.5689 53.9581 68.5689 54.4093C68.5682 55.014 68.3308 55.5938 67.9088 56.0215C67.4868 56.4491 66.9145 56.6898 66.3176 56.6907ZM66.3176 52.7976C66.0028 52.7975 65.6949 52.892 65.4331 53.0691C65.1713 53.2462 64.9672 53.498 64.8466 53.7926C64.7261 54.0873 64.6945 54.4115 64.7559 54.7244C64.8173 55.0372 64.9689 55.3245 65.1915 55.5501C65.4141 55.7756 65.6978 55.9292 66.0066 55.9914C66.3154 56.0536 66.6355 56.0216 66.9263 55.8995C67.2172 55.7773 67.4657 55.5706 67.6406 55.3053C67.8154 55.0401 67.9087 54.7283 67.9085 54.4093C67.908 53.982 67.7402 53.5724 67.442 53.2703C67.1437 52.9681 66.7394 52.7982 66.3176 52.7976Z" fill="#282828"/>
<path d="M60.2867 49.2412C60.2867 49.6262 60.174 50.0026 59.9628 50.3228C59.7517 50.6429 59.4515 50.8925 59.1003 51.0398C58.7492 51.1872 58.3628 51.2257 57.99 51.1506C57.6172 51.0755 57.2748 50.8901 57.006 50.6178C56.7372 50.3455 56.5542 49.9986 56.48 49.621C56.4059 49.2433 56.4439 48.8519 56.5894 48.4961C56.7349 48.1404 56.9812 47.8363 57.2972 47.6224C57.6133 47.4085 57.9848 47.2943 58.3649 47.2943C58.6173 47.2942 58.8672 47.3445 59.1004 47.4423C59.3336 47.5401 59.5455 47.6835 59.724 47.8643C59.9025 48.0451 60.044 48.2598 60.1406 48.496C60.2371 48.7323 60.2868 48.9855 60.2867 49.2412Z" fill="#E0E1E2"/>
<path d="M58.3656 51.5219C57.9203 51.5219 57.4851 51.3881 57.1148 51.1375C56.7446 50.8869 56.456 50.5307 56.2856 50.1139C56.1152 49.6972 56.0706 49.2386 56.1575 48.7962C56.2444 48.3538 56.4588 47.9474 56.7737 47.6285C57.0885 47.3095 57.4897 47.0923 57.9264 47.0043C58.3631 46.9163 58.8158 46.9614 59.2271 47.1341C59.6385 47.3067 59.9901 47.599 60.2375 47.9741C60.4849 48.3491 60.6169 48.7901 60.6169 49.2412C60.6162 49.8458 60.3788 50.4255 59.9568 50.8531C59.5347 51.2806 58.9625 51.5212 58.3656 51.5219ZM58.3656 47.6295C58.0509 47.6295 57.7434 47.724 57.4817 47.9011C57.2201 48.0782 57.0162 48.3299 56.8958 48.6244C56.7754 48.9189 56.7439 49.2429 56.8052 49.5556C56.8666 49.8682 57.0181 50.1554 57.2406 50.3808C57.4631 50.6062 57.7466 50.7597 58.0552 50.8219C58.3638 50.8841 58.6837 50.8521 58.9744 50.7302C59.2651 50.6082 59.5136 50.4016 59.6884 50.1366C59.8632 49.8715 59.9565 49.5599 59.9565 49.2412C59.956 48.8139 59.7882 48.4042 59.49 48.1021C59.1917 47.8 58.7874 47.63 58.3656 47.6295Z" fill="#282828"/>
<path d="M52.1022 54.3645C52.0329 54.3645 51.9653 54.3425 51.9091 54.3014C51.8529 54.2604 51.8108 54.2024 51.7889 54.1358C51.767 54.0692 51.7663 53.9973 51.787 53.9303C51.8077 53.8633 51.8486 53.8046 51.9041 53.7624L56.6194 50.1209C56.6892 50.07 56.7759 50.0487 56.8609 50.0615C56.946 50.0743 57.0228 50.1203 57.075 50.1896C57.1271 50.2589 57.1505 50.3461 57.1402 50.4326C57.1298 50.5191 57.0866 50.5981 57.0196 50.6528L52.3003 54.2976C52.2431 54.3411 52.1736 54.3645 52.1022 54.3645Z" fill="#282828"/>
<path d="M64.848 53.4981C64.7887 53.4981 64.7304 53.4816 64.6796 53.4506L59.8434 50.5243C59.805 50.5024 59.7713 50.4729 59.7444 50.4375C59.7174 50.4022 59.6977 50.3618 59.6863 50.3186C59.675 50.2755 59.6724 50.2305 59.6785 50.1862C59.6846 50.142 59.6995 50.0995 59.7221 50.0612C59.7447 50.0228 59.7747 49.9895 59.8102 49.9631C59.8458 49.9367 59.8862 49.9177 59.9291 49.9074C59.9719 49.8971 60.0164 49.8955 60.0599 49.9029C60.1034 49.9102 60.145 49.9263 60.1822 49.9502L65.0177 52.8766C65.0797 52.9142 65.1278 52.9713 65.1547 53.0393C65.1815 53.1072 65.1856 53.1822 65.1664 53.2528C65.1471 53.3233 65.1055 53.3855 65.048 53.4298C64.9905 53.4741 64.9203 53.4981 64.848 53.4981Z" fill="#282828"/>
<path d="M62.1649 72.3674C62.1646 73.2018 61.9201 74.0175 61.4623 74.7112C61.0044 75.405 60.3538 75.9456 59.5927 76.2647C58.8316 76.5839 57.9942 76.6673 57.1863 76.5043C56.3784 76.3414 55.6364 75.9394 55.054 75.3492C54.4716 74.759 54.075 74.0072 53.9144 73.1887C53.7538 72.3702 53.8364 71.5219 54.1517 70.751C54.467 69.98 55.0008 69.3211 55.6858 68.8575C56.3707 68.3939 57.1759 68.1465 57.9997 68.1465C58.5468 68.1465 59.0885 68.2557 59.5939 68.4678C60.0994 68.6799 60.5586 68.9909 60.9454 69.3828C61.3322 69.7748 61.639 70.2401 61.8482 70.7522C62.0574 71.2643 62.1651 71.8131 62.1649 72.3674Z" fill="#E0E1E2"/>
<path d="M57.9996 76.9213C57.1105 76.9213 56.2413 76.6542 55.502 76.1538C54.7628 75.6534 54.1866 74.9422 53.8463 74.11C53.5061 73.2779 53.4171 72.3622 53.5905 71.4788C53.764 70.5954 54.1921 69.784 54.8208 69.1471C55.4495 68.5102 56.2505 68.0765 57.1225 67.9007C57.9946 67.725 58.8985 67.8152 59.7199 68.1599C60.5413 68.5046 61.2434 69.0883 61.7374 69.8372C62.2313 70.5861 62.495 71.4666 62.495 72.3673C62.4937 73.5747 62.0197 74.7323 61.1769 75.5861C60.3342 76.4399 59.1914 76.9201 57.9996 76.9213ZM57.9996 68.4823C57.2411 68.4823 56.4996 68.7101 55.8689 69.137C55.2383 69.5639 54.7467 70.1707 54.4565 70.8805C54.1662 71.5904 54.0903 72.3716 54.2382 73.1252C54.3862 73.8788 54.7515 74.5711 55.2878 75.1144C55.8241 75.6577 56.5075 76.0278 57.2514 76.1777C57.9953 76.3276 58.7664 76.2506 59.4672 75.9566C60.1679 75.6625 60.7669 75.1646 61.1882 74.5257C61.6096 73.8868 61.8346 73.1357 61.8346 72.3673C61.8339 71.337 61.4296 70.3491 60.7106 69.6205C59.9916 68.8918 59.0166 68.482 57.9996 68.4809V68.4823Z" fill="#282828"/>
<path d="M65.3263 85.6648H50.6738V81.2097C50.6738 80.3409 51.0143 79.5076 51.6205 78.8929C52.2266 78.2782 53.0489 77.9324 53.9065 77.9315H62.0956C62.9539 77.9315 63.7769 78.2769 64.3838 78.8917C64.9907 79.5065 65.3316 80.3403 65.3316 81.2097L65.3263 85.6648Z" fill="#E0E1E2"/>
<path d="M65.3262 86H50.6737C50.5861 86 50.5021 85.9648 50.4402 85.902C50.3783 85.8393 50.3435 85.7542 50.3435 85.6655V81.2098C50.3435 80.2516 50.7192 79.3327 51.388 78.6552C52.0568 77.9777 52.9639 77.597 53.9097 77.597H62.0955C63.0413 77.597 63.9484 77.9777 64.6172 78.6552C65.286 79.3327 65.6617 80.2516 65.6617 81.2098V85.6655C65.6617 85.7099 65.653 85.7538 65.6361 85.7947C65.6192 85.8357 65.5944 85.8728 65.5631 85.9039C65.5319 85.9351 65.4949 85.9596 65.4542 85.9761C65.4135 85.9926 65.37 86.0007 65.3262 86ZM51.0039 85.331H64.996V81.2098C64.996 80.4291 64.6899 79.6803 64.1449 79.1283C63.6 78.5762 62.8609 78.2661 62.0902 78.2661H53.9071C53.5255 78.2661 53.1476 78.3422 52.7951 78.4901C52.4425 78.6381 52.1222 78.8549 51.8524 79.1283C51.5825 79.4016 51.3685 79.7261 51.2225 80.0833C51.0764 80.4404 51.0013 80.8232 51.0013 81.2098L51.0039 85.331Z" fill="#282828"/>
<path d="M62.2865 86C62.1989 86 62.1149 85.9647 62.053 85.902C61.9911 85.8393 61.9563 85.7542 61.9563 85.6654V82.8134C61.9563 82.7247 61.9911 82.6396 62.053 82.5769C62.1149 82.5141 62.1989 82.4789 62.2865 82.4789C62.3741 82.4789 62.4581 82.5141 62.52 82.5769C62.5819 82.6396 62.6167 82.7247 62.6167 82.8134V85.6654C62.6167 85.7542 62.5819 85.8393 62.52 85.902C62.4581 85.9647 62.3741 86 62.2865 86Z" fill="#282828"/>
<path d="M53.7135 86C53.6259 86 53.5419 85.9647 53.48 85.902C53.4181 85.8393 53.3833 85.7542 53.3833 85.6654V82.8134C53.3833 82.7247 53.4181 82.6396 53.48 82.5769C53.5419 82.5141 53.6259 82.4789 53.7135 82.4789C53.8011 82.4789 53.8851 82.5141 53.947 82.5769C54.0089 82.6396 54.0437 82.7247 54.0437 82.8134V85.6654C54.0437 85.7542 54.0089 85.8393 53.947 85.902C53.8851 85.9647 53.8011 86 53.7135 86Z" fill="#282828"/>
<path d="M58.0386 40.7961H50.121C50.0334 40.7961 49.9494 40.7609 49.8875 40.6981C49.8256 40.6354 49.7908 40.5503 49.7908 40.4616C49.7908 40.3729 49.8256 40.2878 49.8875 40.2251C49.9494 40.1623 50.0334 40.1271 50.121 40.1271H58.0386C58.1262 40.1271 58.2102 40.1623 58.2721 40.2251C58.334 40.2878 58.3688 40.3729 58.3688 40.4616C58.3688 40.5503 58.334 40.6354 58.2721 40.6981C58.2102 40.7609 58.1262 40.7961 58.0386 40.7961Z" fill="#282828"/>
<path d="M61.4544 40.7961H60.0516C59.9641 40.7961 59.8801 40.7609 59.8182 40.6981C59.7562 40.6354 59.7214 40.5503 59.7214 40.4616C59.7214 40.3729 59.7562 40.2878 59.8182 40.2251C59.8801 40.1623 59.9641 40.1271 60.0516 40.1271H61.4544C61.5419 40.1271 61.6259 40.1623 61.6878 40.2251C61.7498 40.2878 61.7846 40.3729 61.7846 40.4616C61.7846 40.5503 61.7498 40.6354 61.6878 40.6981C61.6259 40.7609 61.5419 40.7961 61.4544 40.7961Z" fill="#282828"/>
<path d="M64.7015 40.7961H64.0001C63.9126 40.7961 63.8286 40.7609 63.7666 40.6981C63.7047 40.6354 63.6699 40.5503 63.6699 40.4616C63.6699 40.3729 63.7047 40.2878 63.7666 40.2251C63.8286 40.1623 63.9126 40.1271 64.0001 40.1271H64.7015C64.7891 40.1271 64.873 40.1623 64.935 40.2251C64.9969 40.2878 65.0317 40.3729 65.0317 40.4616C65.0317 40.5503 64.9969 40.6354 64.935 40.6981C64.873 40.7609 64.7891 40.7961 64.7015 40.7961Z" fill="#282828"/>
<path d="M67.6734 40.7961H66.9721C66.8845 40.7961 66.8005 40.7609 66.7386 40.6981C66.6766 40.6354 66.6418 40.5503 66.6418 40.4616C66.6418 40.3729 66.6766 40.2878 66.7386 40.2251C66.8005 40.1623 66.8845 40.1271 66.9721 40.1271H67.6734C67.761 40.1271 67.845 40.1623 67.9069 40.2251C67.9688 40.2878 68.0036 40.3729 68.0036 40.4616C68.0036 40.5503 67.9688 40.6354 67.9069 40.6981C67.845 40.7609 67.761 40.7961 67.6734 40.7961Z" fill="#282828"/>
<path d="M70.6451 40.7961H69.9437C69.8562 40.7961 69.7722 40.7609 69.7102 40.6981C69.6483 40.6354 69.6135 40.5503 69.6135 40.4616C69.6135 40.3729 69.6483 40.2878 69.7102 40.2251C69.7722 40.1623 69.8562 40.1271 69.9437 40.1271H70.6451C70.7327 40.1271 70.8166 40.1623 70.8786 40.2251C70.9405 40.2878 70.9753 40.3729 70.9753 40.4616C70.9753 40.5503 70.9405 40.6354 70.8786 40.6981C70.8166 40.7609 70.7327 40.7961 70.6451 40.7961Z" fill="#282828"/>
</g>
<defs>
<clipPath id="clip0_1_3167">
<rect width="52" height="56" fill="white" transform="translate(32 30)"/>
</clipPath>
</defs>
</svg>
