<svg width="115" height="115" viewBox="0 0 115 115" fill="none" xmlns="http://www.w3.org/2000/svg">
<rect width="115" height="115" rx="57.5" fill="white"/>
<g clip-path="url(#clip0_1_3097)">
<path d="M77.8958 53.4725C79.7837 41.956 71.791 31.1196 60.0436 29.2688C48.2961 27.418 37.2424 35.2536 35.3545 46.77C33.4665 58.2865 41.4593 69.1228 53.2067 70.9737C64.9542 72.8245 76.0078 64.9889 77.8958 53.4725Z" fill="#364B5D"/>
<path d="M71.8179 54.1973C71.952 53.5731 72.0462 52.9412 72.0997 52.3055L69.9374 51.4517C69.9672 50.5527 69.9032 49.6531 69.7465 48.7669L71.8116 47.8199C71.6706 47.1654 71.4849 46.5209 71.2556 45.8908V45.8825L68.9151 45.9661C68.589 45.1999 68.1898 44.4656 67.7229 43.773L69.2173 42.0822C68.7976 41.5099 68.3371 40.9675 67.8392 40.459L65.7389 41.4681C65.1689 40.9452 64.5542 40.4712 63.9014 40.0515L64.5686 37.8999C63.9258 37.525 63.257 37.1949 62.5669 36.9122L61.0662 38.6707C60.3808 38.4304 59.6764 38.2456 58.9602 38.1182L58.6784 35.8775C57.9169 35.7746 57.1486 35.7285 56.3801 35.7394L55.746 37.933C55.0465 37.9771 54.3515 38.0746 53.6675 38.2245L52.4747 36.2823C52.1019 36.3831 51.7306 36.4894 51.365 36.62C50.9993 36.7505 50.635 36.8963 50.2835 37.0455L50.6076 39.2938C49.9816 39.6001 49.3809 39.9537 48.8109 40.3513L46.9036 39.0444C46.3021 39.5128 45.7368 40.0244 45.2127 40.575L46.4344 42.4869C45.9624 43.03 45.5354 43.6093 45.1577 44.2192L42.8622 43.7855C42.5085 44.4323 42.2024 45.1031 41.9463 45.7927L43.8486 47.047C43.6135 47.7763 43.4431 48.5242 43.3392 49.2822L47.7153 59.357L53.8126 63.8252C54.8118 64.0341 55.8321 64.1296 56.8535 64.1097L57.6117 66.251C58.2191 66.2127 58.8237 66.1393 59.4224 66.0313L59.5781 63.7803C60.0827 63.6681 60.5801 63.5268 61.0676 63.3569C61.5553 63.1862 62.0324 62.9876 62.4964 62.7622L64.0578 64.4095C64.5932 64.1223 65.1108 63.8042 65.6078 63.457L64.8159 61.3317C65.6213 60.7144 66.3518 60.0085 66.993 59.2278L69.1011 60.1008C69.4715 59.608 69.8114 59.0939 70.1192 58.5613L68.5036 56.927C68.945 56.0702 69.2906 55.1691 69.5344 54.2395L71.8179 54.1973ZM58.9567 57.4437C57.9975 57.7797 56.9754 57.9079 55.9609 57.8194L49.2026 56.6086L49.6085 49.7857C49.8111 48.5796 50.3354 47.4473 51.1282 46.5039C51.9211 45.5604 52.9543 44.8392 54.1232 44.4135C55.292 43.9877 56.5549 43.8724 57.7838 44.0794C59.0127 44.2865 60.164 44.8083 61.1208 45.5922C62.0777 46.376 62.8061 47.3939 63.2322 48.5427C63.6584 49.6915 63.7671 50.9304 63.5474 52.1337C63.3277 53.3369 62.7873 54.4619 61.9811 55.3944C61.1749 56.3269 60.1315 57.0339 58.9567 57.4437Z" fill="#EBEFF2"/>
<path d="M57.6032 66.5962C57.53 66.5963 57.4585 66.574 57.3988 66.5324C57.339 66.4908 57.294 66.432 57.27 66.3642L56.595 64.4612H56.5852C55.6259 64.461 54.6693 64.3624 53.7309 64.167C53.68 64.1567 53.6319 64.1357 53.59 64.1055L47.4927 59.6373C47.4435 59.6016 47.4047 59.554 47.38 59.4991L43.0039 49.4237C42.9789 49.3667 42.9703 49.3041 42.9792 49.2427C43.0741 48.5506 43.2229 47.8666 43.4245 47.1968L41.7378 46.0861C41.6726 46.043 41.6239 45.9797 41.5997 45.9064C41.5754 45.833 41.5769 45.7538 41.6039 45.6814C41.8655 44.9759 42.1786 44.2899 42.541 43.6286C42.5764 43.5637 42.6321 43.5115 42.7 43.4799C42.7678 43.4482 42.8441 43.4386 42.9179 43.4525L44.9752 43.8413C45.2844 43.3623 45.6233 42.9024 45.9898 42.464L44.9034 40.7642C44.8623 40.6997 44.844 40.6238 44.8514 40.5481C44.8587 40.4724 44.8914 40.4013 44.9443 40.3456C45.4804 39.7823 46.0588 39.2591 46.6747 38.7805C46.7342 38.7337 46.8076 38.7071 46.8838 38.7048C46.96 38.7024 47.035 38.7244 47.0974 38.7673L48.8032 39.936C49.2559 39.6328 49.7264 39.3561 50.2123 39.1072L49.9234 37.1041C49.9127 37.0294 49.9272 36.9533 49.9647 36.8875C50.0023 36.8216 50.0608 36.7696 50.1313 36.7394C50.4906 36.5854 50.8563 36.4382 51.2361 36.3049C51.6158 36.1716 51.9885 36.0625 52.3697 35.9596C52.4439 35.9396 52.5226 35.944 52.594 35.9721C52.6654 36.0001 52.7254 36.0504 52.765 36.115L53.8282 37.8466C54.368 37.7388 54.9138 37.6623 55.4628 37.6173L56.0306 35.6556C56.0514 35.5842 56.0951 35.5212 56.1553 35.4761C56.2154 35.4309 56.2888 35.406 56.3646 35.4049C57.151 35.3921 57.9373 35.4383 58.7165 35.5431C58.7934 35.5535 58.8647 35.5885 58.9192 35.6427C58.9738 35.6969 59.0085 35.7673 59.018 35.8428L59.2717 37.8335C59.8385 37.945 60.3977 38.0915 60.9457 38.2721L62.29 36.6959C62.3382 36.6393 62.4036 36.5993 62.4766 36.5818C62.5496 36.5643 62.6265 36.5701 62.6959 36.5985C63.4002 36.8879 64.0829 37.2253 64.7391 37.6083C64.807 37.6477 64.8594 37.7082 64.888 37.7802C64.9166 37.8522 64.9198 37.9315 64.8969 38.0055L64.3058 39.9125C64.8266 40.2619 65.323 40.6449 65.7917 41.0591L67.6758 40.1543C67.7427 40.1218 67.8183 40.111 67.8919 40.1234C67.9655 40.1358 68.0332 40.1708 68.0851 40.2234C68.5939 40.7429 69.0648 41.2968 69.4943 41.8811C69.5404 41.9442 69.5635 42.0208 69.5597 42.0983C69.556 42.1759 69.5258 42.25 69.4738 42.3086L68.1535 43.804C68.5263 44.3821 68.8544 44.9868 69.1349 45.613L71.2338 45.5384C71.319 45.5367 71.4019 45.5647 71.4679 45.6175C71.5338 45.6703 71.5785 45.7444 71.5939 45.8264C71.8236 46.4537 72.0089 47.0957 72.1484 47.748C72.1649 47.8243 72.1547 47.9039 72.1193 47.9738C72.0838 48.0436 72.0253 48.0997 71.9532 48.1327L70.1298 48.9699C70.2457 49.7146 70.2983 50.4676 70.2869 51.2209L72.2245 51.9848C72.2937 52.0121 72.3523 52.0603 72.3918 52.1224C72.4313 52.1845 72.4497 52.2572 72.4443 52.3302C72.3894 52.9802 72.2927 53.6262 72.1547 54.2642C72.1387 54.3411 72.0965 54.4103 72.0351 54.4605C71.9736 54.5107 71.8965 54.5389 71.8165 54.5405L69.7979 54.5778C69.5755 55.3617 69.2819 56.1245 68.9207 56.8571L70.3637 58.3166C70.4167 58.3703 70.4504 58.4394 70.4599 58.5135C70.4695 58.5876 70.4542 58.6627 70.4165 58.7276C70.1023 59.2724 69.7548 59.798 69.3759 60.3017C69.3288 60.3646 69.2614 60.4101 69.1847 60.4307C69.1079 60.4512 69.0263 60.4457 68.9531 60.415L67.0874 59.6421C66.5256 60.2989 65.9014 60.9019 65.2232 61.4428L65.9277 63.334C65.9542 63.4051 65.9561 63.4827 65.9332 63.5549C65.9103 63.6272 65.8638 63.6901 65.8009 63.7339C65.2935 64.0889 64.7651 64.4141 64.2184 64.7078C64.1497 64.7443 64.0704 64.7573 63.9932 64.7448C63.916 64.7323 63.8453 64.695 63.7922 64.6387L62.3964 63.1765C61.9821 63.3678 61.5693 63.535 61.1662 63.6752C60.7486 63.8213 60.3237 63.9464 59.8931 64.0502L59.7522 66.0478C59.7468 66.1242 59.7156 66.1967 59.6635 66.2538C59.6115 66.311 59.5415 66.3495 59.4647 66.3634C58.8523 66.4742 58.2338 66.5494 57.6124 66.5886L57.6032 66.5962ZM56.8451 63.7643C56.9183 63.7643 56.9896 63.7867 57.0492 63.8283C57.1088 63.8699 57.1537 63.9286 57.1777 63.9964L57.847 65.8834C58.2599 65.8502 58.6735 65.7998 59.0807 65.7342L59.2216 63.7532C59.2268 63.6793 59.2561 63.609 59.3053 63.5527C59.3544 63.4963 59.4206 63.4569 59.4943 63.4403C59.9851 63.3295 60.469 63.1911 60.9436 63.0259C61.4182 62.8587 61.8828 62.6652 62.3351 62.4464C62.4029 62.4136 62.4796 62.403 62.5539 62.4162C62.6282 62.4294 62.6963 62.4656 62.748 62.5196L64.1318 63.9701C64.4883 63.7698 64.8413 63.5557 65.1886 63.3202L64.489 61.4456C64.4634 61.3769 64.4606 61.3021 64.4811 61.2319C64.5017 61.1616 64.5444 61.0996 64.6031 61.0546C65.3872 60.4532 66.0983 59.7656 66.7225 59.0053C66.7705 58.9468 66.8366 58.9053 66.9109 58.887C66.9851 58.8686 67.0634 58.8745 67.1339 58.9037L68.9834 59.6704C69.2286 59.3327 69.4632 58.9797 69.688 58.6088L68.2577 57.1583C68.207 57.1068 68.1738 57.0411 68.1629 56.9703C68.1519 56.8996 68.1636 56.8272 68.1964 56.7632C68.6261 55.9287 68.9627 55.0513 69.2005 54.1461C69.2194 54.0727 69.2624 54.0075 69.3229 53.9605C69.3834 53.9134 69.4579 53.8871 69.5351 53.8857L71.5361 53.8484C71.6242 53.398 71.6911 52.9504 71.7355 52.5208L69.8141 51.7645C69.7471 51.7381 69.6901 51.6921 69.6506 51.6328C69.6112 51.5735 69.5913 51.5037 69.5936 51.433C69.6225 50.5576 69.5604 49.6816 69.4083 48.8186C69.3949 48.7439 69.407 48.667 69.4427 48.5997C69.4783 48.5324 69.5356 48.4785 69.6056 48.4463L71.4149 47.6174C71.3022 47.1429 71.1683 46.6781 71.014 46.2305L68.9341 46.3051C68.8629 46.3057 68.793 46.2858 68.733 46.248C68.6731 46.2102 68.6257 46.1562 68.5966 46.0924C68.2793 45.3462 67.8908 44.6311 67.4362 43.9567C67.3943 43.894 67.3743 43.8197 67.3793 43.7449C67.3843 43.6702 67.4139 43.5991 67.4637 43.5422L68.7742 42.0586C68.46 41.6476 68.1241 41.2529 67.7681 40.8761L65.8897 41.7816C65.8256 41.8122 65.7537 41.823 65.6832 41.8126C65.6128 41.8023 65.5472 41.7712 65.4951 41.7236C64.9394 41.2142 64.3404 40.7521 63.7048 40.3422C63.6417 40.3009 63.594 40.2407 63.5686 40.1706C63.5432 40.1006 63.5416 40.0244 63.5639 39.9533L64.1494 38.0628C63.6696 37.7942 63.1757 37.5504 62.6698 37.3327L61.3375 38.8944C61.2908 38.9481 61.2287 38.9866 61.1593 39.0051C61.0899 39.0236 61.0165 39.0211 60.9485 38.998C60.2808 38.7652 59.5949 38.586 58.8975 38.462C58.8238 38.4488 58.7564 38.4129 58.7049 38.3594C58.6535 38.306 58.6207 38.2379 58.6115 38.165L58.3599 36.1903C57.7905 36.1241 57.2177 36.0897 56.6443 36.0873L56.0807 38.0317C56.0609 38.1004 56.0198 38.1615 55.9631 38.2064C55.9065 38.2513 55.837 38.2779 55.7643 38.2825C55.0831 38.3259 54.4063 38.4211 53.7401 38.567C53.6678 38.5829 53.5923 38.576 53.5243 38.5473C53.4562 38.5187 53.3991 38.4697 53.361 38.4075L52.3042 36.691C52.0266 36.7698 51.7497 36.8547 51.4763 36.9501C51.2029 37.0454 50.9289 37.1531 50.6633 37.263L50.9493 39.2502C50.9598 39.3219 50.947 39.395 50.9127 39.4593C50.8784 39.5235 50.8244 39.5755 50.7584 39.608C50.1484 39.9059 49.5632 40.2502 49.0082 40.6378C48.9485 40.6784 48.8776 40.7002 48.8049 40.7002C48.7323 40.7002 48.6614 40.6784 48.6017 40.6378L46.9107 39.4795C46.4662 39.8358 46.0427 40.2168 45.6425 40.6205L46.7198 42.3066C46.7594 42.3687 46.7779 42.4417 46.7724 42.5148C46.767 42.588 46.7379 42.6575 46.6895 42.7134C46.23 43.2427 45.8142 43.8069 45.4459 44.4008C45.4086 44.4613 45.3533 44.509 45.2874 44.5377C45.2215 44.5663 45.1482 44.5745 45.0774 44.561L43.0384 44.1763C42.7847 44.6589 42.5579 45.1546 42.3592 45.6614L44.0311 46.763C44.0945 46.8044 44.1425 46.8648 44.1679 46.9352C44.1933 47.0055 44.1947 47.082 44.172 47.1533C43.9535 47.834 43.7923 48.5312 43.6901 49.2379L47.988 59.1393L53.9472 63.506C54.8964 63.6956 55.8639 63.7832 56.8324 63.7671L56.8451 63.7643ZM56.5915 58.1909C56.3717 58.1909 56.1504 58.1813 55.9292 58.1619L49.1393 56.9463C49.0547 56.9311 48.9787 56.8861 48.9257 56.8198C48.8726 56.7535 48.8461 56.6705 48.8511 56.5864L49.2569 49.7628C49.4634 48.4941 50.0088 47.3016 50.8377 46.3065C51.6666 45.3114 52.7495 44.5492 53.9763 44.0973C55.203 43.6453 56.53 43.5198 57.8222 43.7335C59.1145 43.9472 60.326 44.4924 61.3337 45.3139C62.3413 46.1353 63.1092 47.2035 63.5593 48.4101C64.0094 49.6167 64.1256 50.9186 63.8962 52.1835C63.6668 53.4484 63.0999 54.6313 62.2531 55.6118C61.4063 56.5923 60.3098 57.3356 59.0751 57.7661C58.2779 58.0484 57.4369 58.1933 56.5894 58.1944L56.5915 58.1909ZM49.5719 56.3219L56.0243 57.4774C56.9779 57.5578 57.938 57.4345 58.8384 57.1162C59.9541 56.7266 60.9449 56.0548 61.7105 55.1688C62.476 54.2829 62.989 53.2143 63.1975 52.0713C63.406 50.9283 63.3026 49.7516 62.8977 48.6605C62.4928 47.5693 61.8008 46.6025 60.8919 45.858C59.9831 45.1135 58.8896 44.6178 57.7223 44.4212C56.555 44.2245 55.3555 44.3338 54.2452 44.7381C53.1349 45.1424 52.1534 45.8272 51.4001 46.7232C50.6469 47.6192 50.1486 48.6946 49.9558 49.8402L49.5719 56.3219Z" fill="#37474F"/>
<path d="M56.486 60.7625C55.8358 60.7629 55.1873 60.7002 54.5498 60.5753C54.4726 60.5607 54.4028 60.5208 54.3518 60.4621L46.591 51.6444C46.5402 51.5864 46.5105 51.5135 46.5064 51.4372C46.4104 49.4819 46.9142 47.5433 47.9527 45.8714C48.9912 44.1994 50.5169 42.8709 52.333 42.0571C54.149 41.2432 56.1721 40.9815 58.1414 41.3056C60.1106 41.6297 61.9356 42.5247 63.3811 43.8753C64.8265 45.2259 65.826 46.97 66.2507 48.8828C66.6753 50.7955 66.5057 52.7891 65.7637 54.6065C65.0216 56.4238 63.7412 57.9815 62.0875 59.0786C60.4338 60.1758 58.4827 60.7621 56.486 60.7618V60.7625ZM54.8049 59.9205C56.1539 60.1645 57.5413 60.1128 58.8676 59.7691C60.1938 59.4253 61.4261 58.7981 62.4759 57.9324C63.5257 57.0667 64.3671 55.984 64.9397 54.7619C65.5122 53.5398 65.8019 52.2086 65.7877 50.8638C65.7736 49.5191 65.456 48.194 64.8579 46.9838C64.2597 45.7735 63.3957 44.708 62.328 43.8637C61.2602 43.0194 60.015 42.4173 58.6818 42.1004C57.3486 41.7835 55.9604 41.7599 54.6167 42.0311C52.4712 42.4773 50.5537 43.6482 49.199 45.3392C47.8443 47.0302 47.1384 49.1339 47.2047 51.2831L54.8049 59.9205Z" fill="#37474F"/>
<path d="M43.8453 79.0319H49.5946C49.3261 70.0685 56.1619 68.8494 56.109 60.6251C56.1081 57.5481 54.8606 54.5975 52.6409 52.422C50.4212 50.2466 47.411 49.0245 44.2723 49.0245H44.18C41.0425 49.0256 38.0339 50.2484 35.8159 52.4238C33.5978 54.5993 32.352 57.5493 32.3524 60.6251C32.2974 68.8494 39.1332 70.0685 38.8647 79.0319H43.8453Z" fill="white"/>
<path d="M49.5946 79.3773H38.8647C38.8175 79.3773 38.7708 79.3681 38.7274 79.3501C38.6839 79.3321 38.6446 79.3057 38.6118 79.2725C38.5789 79.2394 38.5532 79.2 38.5361 79.1569C38.5191 79.1138 38.511 79.0678 38.5124 79.0216C38.6477 74.5167 36.918 71.9763 35.246 69.5236C33.6368 67.1606 31.9733 64.7176 32.0001 60.6223C32.004 57.4559 33.2889 54.4202 35.5729 52.1813C37.8569 49.9423 40.9535 48.6829 44.1835 48.6792H44.2765C47.507 48.6829 50.604 49.9425 52.8883 52.1819C55.1726 54.4213 56.4576 57.4575 56.4613 60.6244C56.4874 64.7176 54.8232 67.1606 53.2132 69.5236C51.5413 71.9784 49.8116 74.5167 49.9468 79.0216C49.9483 79.0678 49.9402 79.1138 49.9231 79.1569C49.9061 79.2 49.8803 79.2394 49.8475 79.2725C49.8146 79.3057 49.7753 79.3321 49.7319 79.3501C49.6884 79.3681 49.6417 79.3773 49.5946 79.3773ZM43.8453 78.6866H49.2352C49.1916 74.1824 50.9382 71.6199 52.6277 69.1395C54.2483 66.7586 55.7814 64.5118 55.7567 60.6265C55.7541 57.642 54.5439 54.7804 52.3916 52.6697C50.2393 50.559 47.3208 49.3715 44.2765 49.3678H44.1835C41.1396 49.3715 38.2216 50.5587 36.0696 52.6691C33.9176 54.7794 32.7074 57.6404 32.7046 60.6244C32.6793 64.5104 34.211 66.7593 35.8322 69.1395C37.5232 71.6206 39.267 74.1817 39.224 78.6866H43.8453Z" fill="#37474F"/>
<path d="M42.744 77.339C42.6556 77.3394 42.5703 77.3071 42.505 77.2486C42.4398 77.1901 42.3993 77.1097 42.3917 77.0234C42.384 76.9363 41.5948 68.2306 39.1549 64.6444C39.1293 64.6066 39.1114 64.5643 39.1024 64.5198C39.0934 64.4753 39.0935 64.4295 39.1025 64.3851C39.1116 64.3406 39.1295 64.2983 39.1552 64.2606C39.181 64.2229 39.214 64.1905 39.2525 64.1654C39.291 64.1402 39.3342 64.1227 39.3796 64.1139C39.4249 64.1051 39.4717 64.1051 39.517 64.114C39.5624 64.1229 39.6056 64.1404 39.644 64.1657C39.6825 64.1909 39.7155 64.2233 39.7411 64.261C42.2811 67.995 43.0618 76.5999 43.0935 76.964C43.0975 77.0092 43.0925 77.0548 43.0785 77.0981C43.0646 77.1414 43.0421 77.1815 43.0124 77.2163C42.9826 77.2511 42.9461 77.2798 42.905 77.3007C42.8639 77.3216 42.819 77.3344 42.7729 77.3384L42.744 77.339Z" fill="#37474F"/>
<path d="M45.7172 77.3389H45.6862C45.64 77.335 45.5952 77.3222 45.5541 77.3013C45.513 77.2804 45.4765 77.2517 45.4467 77.2169C45.4169 77.1822 45.3945 77.1419 45.3805 77.0986C45.3666 77.0553 45.3616 77.0098 45.3656 76.9646C45.3973 76.6006 46.178 67.9957 48.7166 64.2617C48.7684 64.1854 48.849 64.1325 48.9406 64.1146C49.0323 64.0967 49.1274 64.1151 49.2052 64.166C49.2829 64.2168 49.3369 64.2958 49.3552 64.3857C49.3735 64.4755 49.3546 64.5688 49.3028 64.645C46.8635 68.2326 46.0751 76.9397 46.0674 77.024C46.0596 77.1099 46.0194 77.1898 45.9546 77.248C45.8898 77.3063 45.8051 77.3388 45.7172 77.3389Z" fill="#37474F"/>
<path d="M40.9085 65.5595C39.7319 65.5595 38.6757 64.098 38.5545 63.9246C38.5016 63.8491 38.4815 63.756 38.4986 63.6659C38.5157 63.5758 38.5687 63.4961 38.6457 63.4442C38.7228 63.3924 38.8178 63.3727 38.9097 63.3895C39.0016 63.4062 39.0829 63.4581 39.1358 63.5337C39.3943 63.9018 40.2976 64.9476 40.9775 64.8654C41.085 64.8482 41.1879 64.81 41.28 64.7531C41.3721 64.6961 41.4516 64.6215 41.5137 64.5338C41.1789 64.2502 40.8867 63.9216 40.6457 63.5578C39.9784 62.5522 39.7185 61.3262 40.0278 60.643C40.0852 60.5194 40.1683 60.4089 40.2717 60.3184C40.375 60.228 40.4965 60.1595 40.6282 60.1175C40.76 60.0755 40.8992 60.0608 41.0371 60.0743C41.175 60.0879 41.3085 60.1293 41.4291 60.1961C42.4036 60.605 43.3822 62.1136 42.5114 64.1885C42.4895 64.2417 42.4663 64.2928 42.4409 64.3425C42.9805 64.6596 43.5993 64.8239 44.2284 64.817C44.3218 64.817 44.4114 64.8534 44.4775 64.9182C44.5436 64.983 44.5807 65.0708 44.5807 65.1624C44.5807 65.254 44.5436 65.3418 44.4775 65.4066C44.4114 65.4714 44.3218 65.5077 44.2284 65.5077C43.4727 65.5166 42.7293 65.3198 42.0809 64.9393C41.9619 65.1063 41.8086 65.2472 41.6308 65.3528C41.4531 65.4584 41.2548 65.5265 41.0487 65.5526C41.0021 65.5572 40.9553 65.5595 40.9085 65.5595ZM40.9085 60.7736C40.858 60.7708 40.8079 60.7837 40.7654 60.8105C40.7229 60.8373 40.6901 60.8766 40.6717 60.9228C40.6037 61.3169 40.6186 61.7205 40.7156 62.1088C40.8125 62.4971 40.9894 62.8619 41.2354 63.1807C41.4132 63.4498 41.6243 63.6962 41.8639 63.9143C42.5367 62.298 41.8371 61.1196 41.1501 60.8316C41.0741 60.7978 40.992 60.779 40.9085 60.7764V60.7736Z" fill="#37474F"/>
<path d="M47.5506 65.5595C47.5035 65.5596 47.4565 65.5572 47.4097 65.5526C47.2034 65.5265 47.0051 65.4584 46.8272 65.3528C46.6493 65.2472 46.4959 65.1063 46.3768 64.9393C45.7283 65.3198 44.9849 65.5165 44.2292 65.5077C44.1358 65.5077 44.0462 65.4713 43.9801 65.4066C43.9141 65.3418 43.877 65.254 43.877 65.1624C43.877 65.0708 43.9141 64.9829 43.9801 64.9182C44.0462 64.8534 44.1358 64.817 44.2292 64.817C44.8586 64.8237 45.4775 64.6595 46.0174 64.3425C45.9942 64.2928 45.9716 64.2417 45.947 64.1885C45.0761 62.1163 46.0569 60.6057 47.0306 60.1968C47.1512 60.13 47.2847 60.0884 47.4226 60.0748C47.5604 60.0611 47.6997 60.0757 47.8315 60.1176C47.9633 60.1595 48.0848 60.2278 48.1883 60.3181C48.2918 60.4084 48.375 60.5188 48.4327 60.6424C48.742 61.3255 48.4813 62.5508 47.8134 63.5558C47.5724 63.9204 47.2799 64.2497 46.9446 64.5338C47.0067 64.6216 47.0862 64.6962 47.1783 64.7531C47.2704 64.8101 47.3733 64.8483 47.4808 64.8654C48.1635 64.9482 49.064 63.9018 49.3219 63.5343C49.3752 63.46 49.4562 63.4093 49.5474 63.3931C49.6386 63.377 49.7326 63.3967 49.8091 63.448C49.8856 63.4994 49.9383 63.5782 49.9559 63.6674C49.9735 63.7566 49.9546 63.849 49.9031 63.9246C49.7834 64.098 48.7279 65.5595 47.5506 65.5595ZM47.5506 60.7736C47.466 60.7769 47.3829 60.7966 47.3061 60.8316C46.6198 61.1196 45.9202 62.298 46.5917 63.9143C46.8317 63.6956 47.0432 63.4488 47.2215 63.1793C47.4675 62.8606 47.6444 62.496 47.7413 62.1078C47.8382 61.7196 47.8532 61.3161 47.7852 60.9221C47.7665 60.8774 47.7342 60.8395 47.6927 60.8134C47.6513 60.7874 47.6026 60.7744 47.5534 60.7763L47.5506 60.7736Z" fill="#37474F"/>
<path d="M38.0713 77.54V81.3866C38.0713 82.9013 39.2134 84.2289 40.9297 84.9866V85.8403C40.9299 86.0563 41.0175 86.2633 41.1732 86.416C41.329 86.5686 41.5402 86.6545 41.7604 86.6547H46.7002C46.9206 86.6547 47.132 86.5689 47.288 86.4163C47.444 86.2636 47.5319 86.0564 47.5322 85.8403V84.9866C49.2493 84.2269 50.3907 82.9013 50.3907 81.3866V77.54H38.0713Z" fill="#EBEFF2"/>
<path d="M46.6994 87H41.7604C41.4468 86.9996 41.1461 86.8773 40.9243 86.6599C40.7026 86.4425 40.5778 86.1477 40.5774 85.8402V85.2055C38.7829 84.3462 37.719 82.9316 37.719 81.3865V77.5399C37.719 77.4483 37.7561 77.3605 37.8222 77.2957C37.8882 77.2309 37.9778 77.1946 38.0713 77.1946H50.3893C50.4827 77.1946 50.5723 77.2309 50.6384 77.2957C50.7044 77.3605 50.7415 77.4483 50.7415 77.5399V81.3865C50.7415 82.9316 49.6783 84.3462 47.8838 85.2055V85.8402C47.8831 86.1478 47.758 86.4426 47.536 86.66C47.314 86.8773 47.0132 86.9996 46.6994 87ZM38.4236 77.8825V81.3838C38.4236 82.7079 39.4142 83.9359 41.0741 84.6688C41.1361 84.6961 41.1886 84.7403 41.2255 84.7962C41.2624 84.8521 41.282 84.9172 41.282 84.9838V85.8375C41.2822 85.9618 41.3326 86.081 41.4223 86.1689C41.512 86.2568 41.6336 86.3063 41.7604 86.3065H46.6994C46.8266 86.3066 46.9487 86.2574 47.0389 86.1695C47.1291 86.0816 47.1801 85.9622 47.1806 85.8375V84.9838C47.1809 84.9168 47.2011 84.8514 47.2386 84.7955C47.2762 84.7396 47.3294 84.6956 47.392 84.6688C49.0513 83.9359 50.0419 82.7079 50.0419 81.3838V77.8853L38.4236 77.8825Z" fill="#37474F"/>
<path d="M48.1698 80.1453H40.2856C40.1922 80.1453 40.1026 80.1089 40.0365 80.0442C39.9704 79.9794 39.9333 79.8915 39.9333 79.7999C39.9333 79.7084 39.9704 79.6205 40.0365 79.5558C40.1026 79.491 40.1922 79.4546 40.2856 79.4546H48.1698C48.2632 79.4546 48.3528 79.491 48.4189 79.5558C48.4849 79.6205 48.522 79.7084 48.522 79.7999C48.522 79.8915 48.4849 79.9794 48.4189 80.0442C48.3528 80.1089 48.2632 80.1453 48.1698 80.1453Z" fill="#37474F"/>
<path d="M48.1698 82.2037H42.176C42.0826 82.2037 41.993 82.1673 41.9269 82.1025C41.8609 82.0378 41.8237 81.9499 41.8237 81.8583C41.8237 81.7667 41.8609 81.6789 41.9269 81.6141C41.993 81.5494 42.0826 81.5129 42.176 81.5129H48.1698C48.2632 81.5129 48.3528 81.5494 48.4189 81.6141C48.485 81.6789 48.5221 81.7667 48.5221 81.8583C48.5221 81.9499 48.485 82.0378 48.4189 82.1025C48.3528 82.1673 48.2632 82.2037 48.1698 82.2037Z" fill="#37474F"/>
<path d="M38.0713 48.7192C37.9778 48.7192 37.8882 48.6829 37.8222 48.6181C37.7561 48.5533 37.719 48.4655 37.719 48.3739V45.361C37.719 45.2694 37.7561 45.1815 37.8222 45.1168C37.8882 45.052 37.9778 45.0156 38.0713 45.0156C38.1647 45.0156 38.2543 45.052 38.3204 45.1168C38.3864 45.1815 38.4236 45.2694 38.4236 45.361V48.3739C38.4236 48.4655 38.3864 48.5533 38.3204 48.6181C38.2543 48.6829 38.1647 48.7192 38.0713 48.7192Z" fill="#37474F"/>
<path d="M39.6094 47.2121H36.5347C36.4412 47.2121 36.3516 47.1757 36.2856 47.1109C36.2195 47.0462 36.1824 46.9583 36.1824 46.8667C36.1824 46.7751 36.2195 46.6873 36.2856 46.6225C36.3516 46.5577 36.4412 46.5214 36.5347 46.5214H39.6094C39.7028 46.5214 39.7924 46.5577 39.8585 46.6225C39.9246 46.6873 39.9617 46.7751 39.9617 46.8667C39.9617 46.9583 39.9246 47.0462 39.8585 47.1109C39.7924 47.1757 39.7028 47.2121 39.6094 47.2121Z" fill="#37474F"/>
<path d="M82.1103 59.7002C82.0169 59.7002 81.9273 59.6638 81.8612 59.599C81.7952 59.5342 81.7581 59.4464 81.7581 59.3548V56.3412C81.7581 56.2496 81.7952 56.1618 81.8612 56.097C81.9273 56.0323 82.0169 55.9958 82.1103 55.9958C82.2038 55.9958 82.2934 56.0323 82.3594 56.097C82.4255 56.1618 82.4626 56.2496 82.4626 56.3412V59.3548C82.4626 59.4464 82.4255 59.5342 82.3594 59.599C82.2934 59.6638 82.2038 59.7002 82.1103 59.7002Z" fill="#37474F"/>
<path d="M83.6449 58.1938H80.573C80.4796 58.1938 80.3899 58.1574 80.3239 58.0926C80.2578 58.0279 80.2207 57.94 80.2207 57.8484C80.2207 57.7568 80.2578 57.669 80.3239 57.6042C80.3899 57.5395 80.4796 57.5031 80.573 57.5031H83.6449C83.7383 57.5031 83.828 57.5395 83.894 57.6042C83.9601 57.669 83.9972 57.7568 83.9972 57.8484C83.9972 57.94 83.9601 58.0279 83.894 58.0926C83.828 58.1574 83.7383 58.1938 83.6449 58.1938Z" fill="#37474F"/>
<path d="M56.9897 76.0902C56.8963 76.0902 56.8067 76.0538 56.7406 75.989C56.6746 75.9242 56.6375 75.8364 56.6375 75.7448C56.6375 75.6532 56.6746 75.5654 56.7406 75.5006C56.8067 75.4358 56.8963 75.3995 56.9897 75.3995C63.0361 75.4003 68.8828 73.2778 73.4703 69.4165C73.5411 69.3567 73.6333 69.3269 73.7265 69.3337C73.8197 69.3405 73.9064 69.3833 73.9674 69.4528C74.0284 69.5222 74.0588 69.6125 74.0519 69.7039C74.0449 69.7953 74.0012 69.8803 73.9304 69.9401C69.2146 73.9087 63.2048 76.0905 56.9897 76.0902Z" fill="#37474F"/>
<path d="M56.9897 80.4686C56.8963 80.4686 56.8067 80.4322 56.7406 80.3674C56.6746 80.3027 56.6375 80.2148 56.6375 80.1232C56.6375 80.0316 56.6746 79.9438 56.7406 79.879C56.8067 79.8143 56.8963 79.7779 56.9897 79.7779C62.2477 79.7802 67.4125 78.4167 71.9583 75.8263C72.0384 75.7881 72.1302 75.7811 72.2153 75.8066C72.3005 75.8321 72.3726 75.8882 72.4172 75.9637C72.4619 76.0392 72.4757 76.1285 72.4559 76.2136C72.4361 76.2987 72.3842 76.3733 72.3106 76.4224C67.658 79.0743 62.3716 80.4705 56.9897 80.4686Z" fill="#37474F"/>
<path d="M76.6098 73.3474C76.5379 73.3474 76.4677 73.3258 76.4086 73.2855C76.3496 73.2452 76.3045 73.1882 76.2795 73.1221C76.2545 73.056 76.2508 72.984 76.2687 72.9157C76.2867 72.8475 76.3256 72.7862 76.3801 72.7402C78.0475 71.3357 79.5523 69.7558 80.8675 68.0289C80.9235 67.9556 81.007 67.9072 81.0995 67.8942C81.192 67.8813 81.2859 67.9049 81.3607 67.9598C81.4354 68.0148 81.4848 68.0966 81.4981 68.1873C81.5113 68.2779 81.4872 68.37 81.4311 68.4433C80.0856 70.2112 78.5458 71.8287 76.8394 73.2666C76.7752 73.3195 76.6937 73.3481 76.6098 73.3474Z" fill="#37474F"/>
</g>
<defs>
<clipPath id="clip0_1_3097">
<rect width="52" height="58" fill="white" transform="translate(32 29)"/>
</clipPath>
</defs>
</svg>
