<svg width="115" height="115" viewBox="0 0 115 115" fill="none" xmlns="http://www.w3.org/2000/svg">
<rect width="115" height="115" rx="57.5" fill="white"/>
<g clip-path="url(#clip0_1_3125)">
<path d="M63.6198 72.4173C75.98 72.4173 85.9999 62.2505 85.9999 49.709C85.9999 37.1676 75.98 27.0007 63.6198 27.0007C51.2597 27.0007 41.2397 37.1676 41.2397 49.709C41.2397 62.2505 51.2597 72.4173 63.6198 72.4173Z" fill="#EC2C2A"/>
<path d="M37.1996 42.447C37.1659 42.4471 37.1324 42.4423 37.1 42.4329C37.0537 42.4197 37.0105 42.3974 36.9727 42.3672C36.9349 42.3371 36.9033 42.2996 36.8798 42.2571C36.8563 42.2145 36.8412 42.1677 36.8356 42.1192C36.8299 42.0708 36.8337 42.0217 36.8467 41.9747C37.0495 41.2506 37.2808 40.5287 37.537 39.8291C37.5527 39.782 37.5774 39.7385 37.61 39.7013C37.6425 39.6641 37.682 39.6339 37.7262 39.6125C37.7705 39.5911 37.8185 39.579 37.8674 39.5767C37.9164 39.5745 37.9652 39.5823 38.0112 39.5996C38.0571 39.6169 38.0992 39.6434 38.1348 39.6775C38.1705 39.7116 38.199 39.7526 38.2187 39.7981C38.2385 39.8436 38.249 39.8927 38.2497 39.9424C38.2504 39.9921 38.2412 40.0415 38.2228 40.0875C37.9739 40.7686 37.7485 41.4711 37.5516 42.1767C37.5299 42.2545 37.4839 42.323 37.4203 42.3718C37.3568 42.4206 37.2793 42.447 37.1996 42.447ZM38.7264 38.2746C38.673 38.2748 38.6203 38.2629 38.572 38.2397C38.4841 38.1981 38.416 38.1228 38.3828 38.0304C38.3496 37.9379 38.3539 37.8358 38.3948 37.7466C39.4397 35.4692 40.7809 33.3442 42.3825 31.4286C42.4453 31.3534 42.5349 31.3067 42.6317 31.2986C42.7285 31.2905 42.8244 31.3218 42.8985 31.3855C42.9726 31.4492 43.0187 31.5402 43.0266 31.6384C43.0346 31.7366 43.0038 31.8339 42.941 31.9091C41.383 33.7745 40.0783 35.8432 39.0616 38.06C39.0319 38.1247 38.9846 38.1793 38.9251 38.2174C38.8657 38.2554 38.7967 38.2753 38.7264 38.2746ZM44.1465 30.4022C44.0744 30.4022 44.0039 30.3806 43.9439 30.3401C43.8839 30.2996 43.837 30.2421 43.8091 30.1746C43.7812 30.1072 43.7735 30.0329 43.7871 29.9611C43.8006 29.8893 43.8347 29.8231 43.8852 29.7709L43.9584 29.6966C44.4561 29.1916 44.9831 28.697 45.516 28.2306C45.5525 28.1988 45.5948 28.1746 45.6404 28.1594C45.6861 28.1442 45.7343 28.1382 45.7823 28.1419C45.8302 28.1456 45.877 28.1589 45.9199 28.1809C45.9628 28.2029 46.001 28.2333 46.0324 28.2703C46.0637 28.3073 46.0875 28.3502 46.1025 28.3966C46.1175 28.443 46.1234 28.4919 46.1197 28.5405C46.1161 28.5892 46.103 28.6366 46.0813 28.6802C46.0596 28.7237 46.0297 28.7625 45.9932 28.7943C45.472 29.2488 44.9604 29.7293 44.4737 30.2239L44.4085 30.29C44.3744 30.3252 44.3335 30.353 44.2885 30.3718C44.2435 30.3905 44.1952 30.3999 44.1465 30.3992V30.4022Z" fill="#37474F"/>
<path d="M39.8337 64.0852C39.7063 64.0852 39.4413 63.6767 39.374 63.5556C36.5681 58.5139 35.3636 52.7164 35.9251 46.9544C35.9363 46.8572 35.9842 46.7681 36.0586 46.7058C36.1331 46.6435 36.2285 46.6128 36.3247 46.6202C36.3726 46.6248 36.4191 46.6389 36.4616 46.6617C36.5041 46.6845 36.5418 46.7156 36.5724 46.7532C36.6031 46.7908 36.6261 46.8341 36.6403 46.8808C36.6544 46.9274 36.6594 46.9764 36.6548 47.025C36.1068 52.6359 37.2793 58.2816 40.0123 63.191C40.1111 63.3692 40.4515 63.9181 40.2758 64.0191C40.1312 64.0574 39.983 64.0795 39.8337 64.0852Z" fill="#37474F"/>
<path d="M54.4375 79.8397C53.7161 82.199 52.3213 84.2882 50.4296 85.8432C48.5379 87.3982 46.2342 88.349 43.8099 88.5755C41.3856 88.802 38.9496 88.294 36.8098 87.1157C34.6701 85.9373 32.9227 84.1417 31.7888 81.9557C30.6548 79.7698 30.1852 77.2917 30.4393 74.8349C30.6934 72.3782 31.6597 70.053 33.2162 68.1535C34.7726 66.254 36.8493 64.8655 39.1835 64.1636C41.5177 63.4616 44.0046 63.4777 46.3298 64.2099C47.8736 64.696 49.3079 65.4858 50.5509 66.5343C51.7939 67.5829 52.8211 68.8696 53.574 70.3209C54.3269 71.7723 54.7907 73.3599 54.9388 74.9932C55.087 76.6264 54.9167 78.2733 54.4375 79.8397Z" fill="white"/>
<path d="M42.6745 88.9992C40.0054 88.9975 37.4051 88.141 35.244 86.5516C33.0829 84.9623 31.4715 82.7212 30.6394 80.148C29.8074 77.5748 29.7972 74.8008 30.6102 72.2213C31.4233 69.6418 33.0181 67.3886 35.1674 65.7829C37.3167 64.1772 39.9107 63.3009 42.5796 63.279C45.2486 63.2571 47.8562 64.0906 50.0309 65.6608C52.2055 67.231 53.8361 69.4577 54.6902 72.0234C55.5443 74.5892 55.5784 77.363 54.7875 79.9496C53.9894 82.5751 52.3818 84.8714 50.2013 86.5005C48.0207 88.1296 45.3823 89.0055 42.6745 88.9992ZM42.6891 64.019C39.6761 64.0165 36.7734 65.1695 34.5627 67.2468C32.352 69.3241 30.9967 72.1724 30.7683 75.2208C30.5399 78.2693 31.4553 81.2927 33.3311 83.6853C35.2068 86.0778 37.9044 87.6627 40.8832 88.1224C43.862 88.5821 46.9019 87.8826 49.3939 86.1641C51.8859 84.4456 53.6459 81.8351 54.321 78.8556C54.9962 75.8761 54.5367 72.7477 53.0347 70.0974C51.5326 67.4472 49.099 65.4707 46.2215 64.5642C45.0776 64.2041 43.8868 64.0203 42.6891 64.019Z" fill="#37474F"/>
<path d="M51.3538 78.8691C50.8214 80.6095 49.7924 82.1506 48.3968 83.2976C47.0012 84.4445 45.3017 85.1458 43.5133 85.3128C41.7249 85.4797 39.9279 85.1049 38.3495 84.2355C36.7711 83.3662 35.4821 82.0414 34.6457 80.4288C33.8093 78.8162 33.463 76.9882 33.6505 75.1758C33.838 73.3635 34.551 71.6483 35.6992 70.2471C36.8474 68.8459 38.3794 67.8216 40.1013 67.3038C41.8232 66.786 43.6578 66.798 45.3731 67.3382C46.512 67.6968 47.5701 68.2796 48.487 69.0532C49.4039 69.8268 50.1617 70.776 50.7171 71.8468C51.2724 72.9175 51.6145 74.0888 51.7238 75.2937C51.833 76.4985 51.7073 77.7135 51.3538 78.8691Z" fill="#EBEFF2"/>
<path d="M42.6766 85.7233C40.6873 85.7222 38.749 85.0839 37.1382 83.8994C35.5274 82.7149 34.3263 81.0446 33.706 79.1267C33.0858 77.2088 33.078 75.1412 33.684 73.2186C34.2899 71.296 35.4786 69.6166 37.0806 68.4197C38.6825 67.2229 40.6159 66.5697 42.6052 66.5534C44.5945 66.5371 46.5381 67.1584 48.1589 68.3288C49.7797 69.4991 50.995 71.1588 51.6315 73.0712C52.2681 74.9836 52.2934 77.0511 51.7038 78.9789C51.1036 80.9323 49.9042 82.6401 48.2803 83.8533C46.6565 85.0665 44.6932 85.7217 42.6766 85.7233ZM42.6869 67.295C41.0746 67.2941 39.4937 67.747 38.12 68.6033C36.7462 69.4597 35.6335 70.6859 34.9057 72.1457C34.1779 73.6054 33.8634 75.2414 33.9973 76.8717C34.1312 78.502 34.7082 80.0626 35.6641 81.38C36.62 82.6974 37.9173 83.7199 39.4118 84.3337C40.9062 84.9476 42.5393 85.1287 44.1292 84.857C45.719 84.5853 47.2035 83.8714 48.4173 82.7947C49.6312 81.718 50.5269 80.3208 51.0048 78.7584C51.4089 77.4355 51.5012 76.0348 51.2742 74.6691C51.0473 73.3034 50.5075 72.0109 49.6983 70.8956C48.8891 69.7802 47.833 68.8733 46.6152 68.2478C45.3974 67.6223 44.0518 67.2957 42.6869 67.2943V67.295Z" fill="#37474F"/>
<path d="M48.4203 77.9452C48.0681 79.0968 47.3872 80.1167 46.4638 80.8757C45.5404 81.6347 44.4159 82.0988 43.2325 82.2093C42.0491 82.3199 40.86 82.0719 39.8155 81.4967C38.771 80.9215 37.9181 80.0449 37.3646 78.9779C36.8111 77.9109 36.5819 76.7012 36.7059 75.502C36.83 74.3028 37.3017 73.1678 38.0614 72.2406C38.8212 71.3134 39.8349 70.6356 40.9743 70.2929C42.1137 69.9503 43.3277 69.9582 44.4626 70.3156C45.9846 70.7949 47.2565 71.8679 47.9987 73.2987C48.7409 74.7296 48.8926 76.4009 48.4203 77.9452Z" fill="white"/>
<path d="M42.6781 82.6055C41.3357 82.6048 40.0277 82.1741 38.9407 81.3747C37.8537 80.5754 37.0431 79.4483 36.6246 78.154C36.2061 76.8598 36.2009 75.4645 36.6099 74.1671C37.0188 72.8697 37.821 71.7364 38.9021 70.9288C39.9831 70.1212 41.2879 69.6806 42.6303 69.6696C43.9727 69.6587 45.2842 70.0781 46.3779 70.8679C47.4716 71.6578 48.2916 72.7779 48.721 74.0684C49.1505 75.359 49.1674 76.7542 48.7694 78.0551C48.3694 79.3762 47.5614 80.5318 46.4645 81.3512C45.3677 82.1706 44.0402 82.6103 42.6781 82.6055ZM42.6781 70.4106C41.6346 70.412 40.612 70.7069 39.7238 71.2625C38.8356 71.8182 38.1165 72.6128 37.6466 73.5581C37.1767 74.5035 36.9744 75.5625 37.062 76.6175C37.1496 77.6726 37.5238 78.6823 38.143 79.5345C38.7621 80.3867 39.602 81.0481 40.5694 81.4451C41.5367 81.842 42.5936 81.9591 43.6226 81.7833C44.6516 81.6075 45.6123 81.1456 46.3982 80.449C47.184 79.7525 47.7641 78.8485 48.0741 77.8375C48.3355 76.9799 48.3948 76.072 48.2472 75.1869C48.0996 74.3018 47.7491 73.4642 47.2242 72.7417C46.6992 72.0191 46.0143 71.4317 45.2247 71.0268C44.4351 70.622 43.5628 70.4109 42.6781 70.4106Z" fill="#37474F"/>
<path d="M45.8268 77.1283C45.6338 77.7596 45.2605 78.3187 44.7543 78.7348C44.248 79.1509 43.6315 79.4053 42.9828 79.4659C42.334 79.5264 41.6822 79.3905 41.1096 79.0751C40.5371 78.7597 40.0695 78.2791 39.7661 77.6941C39.4628 77.1091 39.3372 76.446 39.4052 75.7886C39.4733 75.1311 39.732 74.509 40.1486 74.0007C40.5652 73.4925 41.121 73.1211 41.7457 72.9333C42.3704 72.7456 43.0359 72.7501 43.6581 72.9462C44.4921 73.2091 45.1892 73.7973 45.5959 74.5816C46.0026 75.3658 46.0856 76.2819 45.8268 77.1283Z" fill="#EBEFF2"/>
<path d="M42.6861 79.8524C41.7903 79.8549 40.9246 79.5244 40.2526 78.9235C39.5805 78.3225 39.1486 77.4927 39.0384 76.5907C38.9281 75.6886 39.1473 74.7769 39.6544 74.0276C40.1615 73.2783 40.9214 72.7434 41.7907 72.5238C42.66 72.3043 43.5784 72.4153 44.3725 72.8359C45.1666 73.2566 45.7814 73.9577 46.1008 74.8069C46.4202 75.6561 46.4221 76.5945 46.1061 77.4451C45.7901 78.2956 45.1781 78.9992 44.3857 79.4231C43.8617 79.7035 43.2785 79.8508 42.6861 79.8524ZM42.6861 73.1683C42.1444 73.1676 41.6131 73.3196 41.1514 73.6071C40.6897 73.8947 40.3156 74.3066 40.0709 74.797C39.8261 75.2874 39.7203 75.8371 39.7651 76.3849C39.81 76.9327 40.0037 77.4571 40.3249 77.8999C40.646 78.3426 41.0819 78.6862 41.584 78.8925C42.0862 79.0989 42.6349 79.1598 43.1691 79.0685C43.7033 78.9772 44.2021 78.7373 44.61 78.3755C45.0179 78.0136 45.3187 77.5441 45.4792 77.0191C45.6151 76.5748 45.6462 76.1043 45.57 75.6456C45.4939 75.1869 45.3126 74.7527 45.0409 74.3781C44.7691 74.0035 44.4145 73.6988 44.0055 73.4887C43.5965 73.2785 43.1446 73.1688 42.6861 73.1683Z" fill="#37474F"/>
<path d="M43.5682 76.4167C43.5082 76.6127 43.3867 76.7835 43.2223 76.9031C43.0579 77.0226 42.8594 77.0843 42.6572 77.0789C42.455 77.0735 42.2601 77.0012 42.1021 76.873C41.9441 76.7448 41.8318 76.5677 41.7821 76.3688C41.7324 76.1698 41.7482 75.9598 41.8269 75.7708C41.9057 75.5817 42.0432 75.424 42.2185 75.3215C42.3938 75.2191 42.5972 75.1775 42.7979 75.2032C42.9986 75.2289 43.1856 75.3204 43.3303 75.4638C43.4525 75.5851 43.5394 75.7382 43.5814 75.9063C43.6233 76.0744 43.6188 76.2511 43.5682 76.4167Z" fill="white"/>
<path d="M42.6803 77.4512C42.5507 77.4511 42.4219 77.4311 42.2982 77.3918C42.0535 77.315 41.8367 77.1663 41.6753 76.9645C41.5139 76.7626 41.4151 76.5167 41.3915 76.2579C41.3679 75.9991 41.4204 75.739 41.5425 75.5105C41.6646 75.282 41.8507 75.0954 42.0774 74.9742C42.3041 74.8531 42.5611 74.8029 42.8158 74.83C43.0706 74.8571 43.3117 74.9603 43.5087 75.1265C43.7057 75.2927 43.8496 75.5144 43.9223 75.7636C43.9951 76.0129 43.9933 76.2784 43.9173 76.5266C43.8351 76.7943 43.6708 77.0284 43.4482 77.1948C43.2257 77.3611 42.9567 77.4509 42.6803 77.4512ZM42.6803 75.567C42.5765 75.5672 42.4747 75.5965 42.3863 75.6517C42.2979 75.7069 42.2263 75.7859 42.1794 75.8798C42.1325 75.9738 42.1122 76.0792 42.1207 76.1841C42.1292 76.2891 42.1662 76.3897 42.2276 76.4746C42.2889 76.5596 42.3723 76.6257 42.4684 76.6655C42.5645 76.7053 42.6696 76.7173 42.772 76.7003C42.8745 76.6832 42.9703 76.6377 43.0488 76.5687C43.1273 76.4998 43.1854 76.4101 43.2168 76.3097C43.2473 76.2091 43.2498 76.1019 43.224 75.9999C43.1981 75.8979 43.145 75.8051 43.0704 75.7319C42.9652 75.6285 42.8246 75.5704 42.6781 75.57L42.6803 75.567Z" fill="#37474F"/>
<path d="M43.6348 76.3692C43.5378 76.3706 43.4441 76.3328 43.3745 76.2641C43.305 76.1955 43.2651 76.1016 43.2637 76.0031C43.2623 75.9046 43.2996 75.8096 43.3673 75.739C43.4349 75.6684 43.5275 75.6279 43.6245 75.6265L48.4189 75.4899C48.4669 75.4886 48.5147 75.4969 48.5596 75.5143C48.6045 75.5317 48.6456 75.558 48.6805 75.5916C48.7154 75.6251 48.7434 75.6653 48.763 75.7099C48.7826 75.7544 48.7934 75.8024 48.7947 75.8512C48.796 75.9 48.7878 75.9485 48.7706 75.9941C48.7534 76.0396 48.7276 76.0813 48.6945 76.1167C48.6614 76.1521 48.6218 76.1806 48.5779 76.2005C48.534 76.2203 48.4867 76.2312 48.4386 76.2326L43.6443 76.3692H43.6348Z" fill="#37474F"/>
<path d="M60.1577 75.498C60.2067 77.3176 52.492 77.81 51.2894 77.8427C50.0868 77.8754 48.4582 76.9782 48.4274 75.8181C48.3967 74.6581 49.977 73.6733 51.1796 73.6406C52.3822 73.6079 60.1101 73.6799 60.1577 75.498Z" fill="#EBEFF2"/>
<path d="M51.2243 78.2148C50.513 78.1978 49.8202 77.9817 49.2224 77.5902C48.9005 77.4166 48.626 77.1648 48.4234 76.8572C48.2209 76.5497 48.0965 76.196 48.0615 75.8278C48.0637 75.564 48.1178 75.3033 48.2206 75.061C48.3234 74.8187 48.4729 74.5996 48.6603 74.4167C49.3276 73.7322 50.2219 73.3238 51.1694 73.2708C52.8316 73.2502 54.4936 73.3293 56.1467 73.5077C59.1081 73.8493 60.501 74.4791 60.5274 75.4892C60.5544 76.4999 59.1982 77.2048 56.2572 77.7075C54.6173 77.9768 52.9631 78.1464 51.3033 78.2155L51.2243 78.2148ZM51.6378 74.0075C51.4343 74.0075 51.2806 74.0075 51.1892 74.012C50.4358 74.0592 49.7255 74.384 49.1917 74.9255C48.9516 75.1564 48.809 75.4725 48.7935 75.8078C48.83 76.0534 48.9239 76.2866 49.0673 76.488C49.2106 76.6894 49.3993 76.8532 49.6177 76.9656C50.1116 77.2944 50.6892 77.4701 51.2799 77.4714C52.9055 77.4016 54.5256 77.2355 56.132 76.9738C58.8505 76.5089 59.8027 75.8939 59.7917 75.5077C59.7815 75.1223 58.7985 74.5601 56.0588 74.2452C54.5903 74.0876 53.1146 74.0083 51.6378 74.0075Z" fill="#37474F"/>
<path d="M74.3239 79.9727L70.8969 75.2247L74.007 70.2673L66.0375 70.4849L62.8887 75.38L62.8865 75.3844L66.2732 80.1926L74.3239 79.9727Z" fill="white"/>
<path d="M66.2732 80.5631C66.215 80.5631 66.1576 80.549 66.1058 80.522C66.054 80.4951 66.0092 80.4559 65.9753 80.4078L62.5886 75.5997C62.5511 75.5464 62.5282 75.484 62.5221 75.4187C62.5161 75.3535 62.5271 75.2878 62.5542 75.2284L65.7309 70.2813C65.7632 70.2312 65.8071 70.1897 65.8587 70.1604C65.9104 70.1312 65.9682 70.1151 66.0273 70.1135L73.9975 69.8959C74.0639 69.894 74.1296 69.9105 74.1875 69.9436C74.2453 69.9767 74.2932 70.0251 74.326 70.0838C74.3588 70.1424 74.3753 70.209 74.3736 70.2763C74.372 70.3437 74.3523 70.4094 74.3166 70.4663L71.3405 75.2076L74.6197 79.7506C74.6601 79.8052 74.6849 79.8702 74.6913 79.9382C74.6977 80.0062 74.6854 80.0747 74.6559 80.1362C74.6264 80.1976 74.5807 80.2496 74.524 80.2864C74.4672 80.3232 74.4015 80.3434 74.3342 80.3447L66.2827 80.5675L66.2732 80.5631ZM63.3293 75.3739L66.4577 79.8159L73.6169 79.6198L70.602 75.4437C70.5585 75.3834 70.534 75.3111 70.5316 75.2364C70.5293 75.1616 70.5492 75.0879 70.5888 75.0249L73.3292 70.6571L66.2396 70.8502L63.3293 75.3739Z" fill="#37474F"/>
<path d="M60.1592 75.9006C60.0622 75.902 59.9686 75.8642 59.899 75.7955C59.8645 75.7615 59.837 75.7209 59.818 75.6762C59.799 75.6314 59.7888 75.5832 59.7881 75.5344C59.7874 75.4857 59.7963 75.4372 59.814 75.3919C59.8318 75.3466 59.8582 75.3053 59.8917 75.2703C59.9594 75.1997 60.0519 75.1593 60.149 75.1579L70.8874 74.8534C70.9834 74.8541 71.0755 74.8917 71.1453 74.9585C71.2151 75.0253 71.2574 75.1164 71.2637 75.2136C71.2651 75.2625 71.257 75.3112 71.2399 75.3569C71.2227 75.4026 71.1968 75.4445 71.1637 75.48C71.1306 75.5155 71.0909 75.5441 71.0469 75.564C71.0029 75.5839 70.9554 75.5948 70.9072 75.5961L60.1695 75.9006H60.1592Z" fill="#37474F"/>
<path d="M78.5216 53.2697C80.4803 44.9307 75.4057 36.5594 67.1872 34.572C58.9686 32.5846 50.7183 37.7336 48.7597 46.0727C46.801 54.4117 51.8756 62.783 60.0941 64.7704C68.3126 66.7578 76.5629 61.6088 78.5216 53.2697Z" fill="white"/>
<path d="M63.6381 65.5617C60.5401 65.5617 57.5117 64.6295 54.9358 62.8831C52.3599 61.1367 50.3523 58.6545 49.1667 55.7504C47.9812 52.8462 47.6709 49.6506 48.2753 46.5676C48.8797 43.4845 50.3716 40.6526 52.5622 38.4299C54.7528 36.2071 57.5438 34.6934 60.5823 34.0802C63.6207 33.4669 66.7702 33.7817 69.6324 34.9846C72.4945 36.1875 74.9409 38.2246 76.662 40.8383C78.3832 43.452 79.3018 46.5248 79.3018 49.6682C79.2974 53.882 77.6457 57.922 74.7091 60.9016C71.7726 63.8812 67.791 65.5571 63.6381 65.5617ZM63.6381 34.5175C60.6849 34.5175 57.798 35.406 55.3425 37.0708C52.8869 38.7356 50.9731 41.1018 49.8429 43.8703C48.7128 46.6387 48.4171 49.685 48.9933 52.624C49.5694 55.5629 50.9915 58.2625 53.0797 60.3814C55.168 62.5003 57.8286 63.9433 60.725 64.5279C63.6215 65.1125 66.6238 64.8124 69.3523 63.6657C72.0807 62.519 74.4127 60.5771 76.0534 58.0855C77.6941 55.594 78.5699 52.6648 78.5699 49.6682C78.5651 45.6516 76.9903 41.8009 74.1911 38.9607C71.3918 36.1206 67.5967 34.5229 63.6381 34.5182V34.5175Z" fill="#37474F"/>
<path d="M63.6383 65.5616C59.8417 65.5616 56.4154 61.8185 54.9076 56.0248C54.8954 55.9776 54.8924 55.9285 54.8988 55.8802C54.9053 55.8318 54.9211 55.7853 54.9453 55.7431C54.9695 55.701 55.0016 55.6641 55.0399 55.6346C55.0781 55.605 55.1217 55.5834 55.1682 55.571C55.2146 55.5586 55.2631 55.5555 55.3107 55.5621C55.3584 55.5687 55.4042 55.5847 55.4458 55.6092C55.4873 55.6338 55.5237 55.6664 55.5528 55.7052C55.5819 55.744 55.6032 55.7882 55.6154 55.8354C57.0347 61.2926 60.1842 64.8219 63.6383 64.8219C68.4823 64.8219 72.4217 58.0256 72.4217 49.6711C72.4217 49.0354 72.3983 48.393 72.3485 47.7602C72.345 47.7114 72.3509 47.6624 72.366 47.616C72.3811 47.5696 72.4051 47.5266 72.4365 47.4896C72.468 47.4525 72.5064 47.4221 72.5494 47.4001C72.5925 47.3782 72.6393 47.365 72.6874 47.3614C72.7354 47.3578 72.7838 47.3638 72.8295 47.3791C72.8753 47.3945 72.9176 47.4188 72.9541 47.4507C72.9906 47.4826 73.0206 47.5215 73.0422 47.5652C73.0639 47.6089 73.0769 47.6565 73.0805 47.7052C73.128 48.3558 73.1536 49.0176 73.1536 49.6711C73.1558 58.4326 68.8864 65.5616 63.6383 65.5616Z" fill="#37474F"/>
<path d="M54.5451 51.8198C54.4522 51.82 54.3627 51.7843 54.2947 51.7201C54.2268 51.6558 54.1855 51.5677 54.1792 51.4737C54.1389 50.8736 54.1184 50.2661 54.1184 49.669C54.1184 40.9053 58.3886 33.7755 63.6338 33.7755C67.4399 33.7755 70.8713 37.5342 72.3732 43.3509C72.3865 43.3984 72.3904 43.4482 72.3845 43.4972C72.3786 43.5462 72.3631 43.5936 72.339 43.6365C72.3149 43.6794 72.2826 43.7169 72.244 43.747C72.2054 43.7771 72.1612 43.799 72.1142 43.8116C72.0671 43.8241 72.018 43.827 71.9698 43.8201C71.9216 43.8131 71.8753 43.7965 71.8335 43.7712C71.7917 43.7459 71.7553 43.7123 71.7265 43.6726C71.6976 43.6328 71.6768 43.5876 71.6654 43.5396C70.2505 38.0593 67.0973 34.5182 63.6338 34.5182C58.789 34.5182 54.8504 41.3152 54.8504 49.669C54.8504 50.2497 54.8701 50.8402 54.9096 51.4232C54.9129 51.4718 54.9067 51.5207 54.8914 51.5669C54.876 51.6132 54.8519 51.6559 54.8203 51.6926C54.7887 51.7294 54.7502 51.7595 54.7072 51.7812C54.6641 51.8029 54.6172 51.8157 54.5693 51.819L54.5451 51.8198Z" fill="#37474F"/>
<path d="M63.6382 65.5617C63.5411 65.5617 63.448 65.5226 63.3794 65.4529C63.3108 65.3833 63.2722 65.2888 63.2722 65.1903V61.6366C63.2722 61.5381 63.3108 61.4437 63.3794 61.374C63.448 61.3044 63.5411 61.2653 63.6382 61.2653C63.7353 61.2653 63.8284 61.3044 63.897 61.374C63.9656 61.4437 64.0042 61.5381 64.0042 61.6366V65.1903C64.0042 65.2888 63.9656 65.3833 63.897 65.4529C63.8284 65.5226 63.7353 65.5617 63.6382 65.5617Z" fill="#37474F"/>
<path d="M63.6382 57.6847C63.5411 57.6847 63.448 57.6456 63.3794 57.576C63.3108 57.5063 63.2722 57.4119 63.2722 57.3134V34.1469C63.2722 34.0484 63.3108 33.9539 63.3794 33.8843C63.448 33.8146 63.5411 33.7755 63.6382 33.7755C63.7353 33.7755 63.8284 33.8146 63.897 33.8843C63.9656 33.9539 64.0042 34.0484 64.0042 34.1469V57.3134C64.0042 57.4119 63.9656 57.5063 63.897 57.576C63.8284 57.6456 63.7353 57.6847 63.6382 57.6847Z" fill="#37474F"/>
<path d="M78.1783 45.9407H74.5435C74.4464 45.9407 74.3533 45.9016 74.2847 45.8319C74.2161 45.7623 74.1775 45.6678 74.1775 45.5693C74.1775 45.4709 74.2161 45.3764 74.2847 45.3068C74.3533 45.2371 74.4464 45.198 74.5435 45.198H78.1783C78.2754 45.198 78.3685 45.2371 78.4371 45.3068C78.5058 45.3764 78.5443 45.4709 78.5443 45.5693C78.5443 45.6678 78.5058 45.7623 78.4371 45.8319C78.3685 45.9016 78.2754 45.9407 78.1783 45.9407Z" fill="#37474F"/>
<path d="M70.2834 45.9407H49.1001C49.003 45.9407 48.9099 45.9016 48.8413 45.8319C48.7727 45.7623 48.7341 45.6678 48.7341 45.5693C48.7341 45.4709 48.7727 45.3764 48.8413 45.3068C48.9099 45.2371 49.003 45.198 49.1001 45.198H70.2834C70.3805 45.198 70.4736 45.2371 70.5422 45.3068C70.6109 45.3764 70.6494 45.4709 70.6494 45.5693C70.6494 45.6678 70.6109 45.7623 70.5422 45.8319C70.4736 45.9016 70.3805 45.9407 70.2834 45.9407Z" fill="#37474F"/>
<path d="M78.1784 54.1392H56.9263C56.8292 54.1392 56.7361 54.1 56.6675 54.0304C56.5988 53.9608 56.5603 53.8663 56.5603 53.7678C56.5603 53.6693 56.5988 53.5749 56.6675 53.5052C56.7361 53.4356 56.8292 53.3965 56.9263 53.3965H78.1784C78.2755 53.3965 78.3686 53.4356 78.4372 53.5052C78.5058 53.5749 78.5444 53.6693 78.5444 53.7678C78.5444 53.8663 78.5058 53.9608 78.4372 54.0304C78.3686 54.1 78.2755 54.1392 78.1784 54.1392Z" fill="#37474F"/>
<path d="M52.6662 54.1392H49.1001C49.003 54.1392 48.9099 54.1 48.8413 54.0304C48.7727 53.9608 48.7341 53.8663 48.7341 53.7678C48.7341 53.6693 48.7727 53.5749 48.8413 53.5052C48.9099 53.4356 49.003 53.3965 49.1001 53.3965H52.6662C52.7632 53.3965 52.8563 53.4356 52.925 53.5052C52.9936 53.5749 53.0321 53.6693 53.0321 53.7678C53.0321 53.8663 52.9936 53.9608 52.925 54.0304C52.8563 54.1 52.7632 54.1392 52.6662 54.1392Z" fill="#37474F"/>
<path d="M74.5444 45.5693C74.5445 45.9969 74.4197 46.415 74.1856 46.7706C73.9516 47.1262 73.6189 47.4035 73.2296 47.5672C72.8402 47.731 72.4118 47.7739 71.9984 47.6905C71.585 47.6072 71.2053 47.4014 70.9073 47.099C70.6092 46.7967 70.4062 46.4115 70.324 45.9921C70.2417 45.5727 70.2838 45.138 70.4451 44.7429C70.6063 44.3478 70.8794 44.0101 71.2298 43.7725C71.5802 43.5349 71.9922 43.4081 72.4137 43.4081C72.6934 43.408 72.9705 43.4638 73.229 43.5724C73.4875 43.6809 73.7224 43.8401 73.9202 44.0408C74.1181 44.2415 74.2751 44.4798 74.3822 44.7421C74.4892 45.0043 74.5444 45.2854 74.5444 45.5693Z" fill="#EBEFF2"/>
<path d="M72.4134 48.0996C71.9198 48.0996 71.4372 47.9511 71.0267 47.6728C70.6163 47.3946 70.2964 46.999 70.1075 46.5363C69.9186 46.0735 69.8691 45.5643 69.9654 45.073C70.0618 44.5818 70.2995 44.1305 70.6485 43.7763C70.9976 43.4221 71.4423 43.1809 71.9265 43.0832C72.4106 42.9855 72.9125 43.0356 73.3686 43.2273C73.8247 43.419 74.2145 43.7436 74.4888 44.1601C74.763 44.5766 74.9094 45.0662 74.9094 45.5671C74.9086 46.2385 74.6454 46.8822 74.1775 47.357C73.7095 47.8318 73.0752 48.0989 72.4134 48.0996ZM72.4134 43.7772C72.0646 43.7772 71.7235 43.8822 71.4334 44.0789C71.1433 44.2755 70.9172 44.5551 70.7837 44.8821C70.6502 45.2092 70.6153 45.5691 70.6833 45.9163C70.7514 46.2635 70.9194 46.5824 71.1661 46.8327C71.4128 47.083 71.7271 47.2535 72.0693 47.3226C72.4115 47.3916 72.7661 47.3562 73.0885 47.2207C73.4108 47.0852 73.6863 46.8558 73.8802 46.5615C74.074 46.2672 74.1774 45.9211 74.1774 45.5671C74.1763 45.093 73.99 44.6386 73.6594 44.3036C73.3287 43.9685 72.8807 43.78 72.4134 43.7795V43.7772Z" fill="#37474F"/>
<path d="M54.7955 55.9297C55.9719 55.9297 56.9255 54.9621 56.9255 53.7685C56.9255 52.5749 55.9719 51.6073 54.7955 51.6073C53.6191 51.6073 52.6655 52.5749 52.6655 53.7685C52.6655 54.9621 53.6191 55.9297 54.7955 55.9297Z" fill="#EBEFF2"/>
<path d="M54.7962 56.3003C54.3026 56.3003 53.82 56.1518 53.4096 55.8735C52.9991 55.5952 52.6792 55.1997 52.4903 54.737C52.3014 54.2742 52.2519 53.765 52.3482 53.2737C52.4446 52.7824 52.6823 52.3312 53.0314 51.977C53.3804 51.6228 53.8252 51.3816 54.3093 51.2839C54.7935 51.1862 55.2954 51.2363 55.7514 51.428C56.2075 51.6197 56.5973 51.9443 56.8716 52.3608C57.1458 52.7772 57.2922 53.2669 57.2922 53.7678C57.2914 54.4392 57.0282 55.0829 56.5603 55.5577C56.0924 56.0325 55.458 56.2996 54.7962 56.3003ZM54.7962 51.9779C54.4474 51.9779 54.1063 52.0829 53.8162 52.2796C53.5261 52.4762 53.3001 52.7558 53.1666 53.0828C53.033 53.4099 52.9981 53.7698 53.0662 54.117C53.1342 54.4642 53.3022 54.7831 53.5489 55.0334C53.7956 55.2837 54.1099 55.4542 54.4521 55.5233C54.7943 55.5923 55.149 55.5569 55.4713 55.4214C55.7936 55.2859 56.0691 55.0565 56.263 54.7622C56.4568 54.4678 56.5603 54.1218 56.5603 53.7678C56.5597 53.2933 56.3736 52.8384 56.0429 52.5028C55.7122 52.1673 55.2639 51.9785 54.7962 51.9779Z" fill="#37474F"/>
<path d="M63.6375 61.6365C64.8139 61.6365 65.7675 60.6689 65.7675 59.4753C65.7675 58.2817 64.8139 57.3141 63.6375 57.3141C62.4612 57.3141 61.5076 58.2817 61.5076 59.4753C61.5076 60.6689 62.4612 61.6365 63.6375 61.6365Z" fill="#EBEFF2"/>
<path d="M63.6383 62.0079C63.1446 62.0079 62.6621 61.8593 62.2516 61.581C61.8412 61.3028 61.5212 60.9072 61.3323 60.4445C61.1434 59.9817 61.094 59.4725 61.1903 58.9812C61.2866 58.49 61.5243 58.0387 61.8734 57.6845C62.2224 57.3303 62.6672 57.0891 63.1513 56.9914C63.6355 56.8937 64.1374 56.9438 64.5934 57.1355C65.0495 57.3272 65.4393 57.6518 65.7136 58.0683C65.9879 58.4848 66.1342 58.9744 66.1342 59.4753C66.1334 60.1467 65.8703 60.7904 65.4024 61.2652C64.9344 61.74 64.3 62.0071 63.6383 62.0079ZM63.6383 57.6854C63.2894 57.6854 62.9484 57.7904 62.6583 57.9871C62.3682 58.1838 62.1421 58.4633 62.0086 58.7903C61.875 59.1174 61.8401 59.4773 61.9082 59.8245C61.9762 60.1717 62.1443 60.4906 62.391 60.7409C62.6377 60.9913 62.952 61.1617 63.2942 61.2308C63.6363 61.2998 63.991 61.2644 64.3133 61.1289C64.6357 60.9935 64.9112 60.764 65.105 60.4697C65.2988 60.1754 65.4023 59.8293 65.4023 59.4753C65.4017 59.0008 65.2157 58.5459 64.885 58.2103C64.5543 57.8748 64.106 57.686 63.6383 57.6854Z" fill="#37474F"/>
</g>
<defs>
<clipPath id="clip0_1_3125">
<rect width="56" height="62" fill="white" transform="translate(30 27)"/>
</clipPath>
</defs>
</svg>
