<svg width="115" height="115" viewBox="0 0 115 115" fill="none" xmlns="http://www.w3.org/2000/svg">
<rect width="115" height="115" rx="57.5" fill="white"/>
<g clip-path="url(#clip0_1_3211)">
<path d="M73.1848 53.1029C75.0449 41.7605 67.17 31.088 55.5957 29.2652C44.0213 27.4424 33.1305 35.1594 31.2704 46.5018C29.4103 57.8441 37.2852 68.5166 48.8596 70.3395C60.4339 72.1623 71.3247 64.4452 73.1848 53.1029Z" fill="#364B5D"/>
<path d="M50.1429 33.4034H34.9846V52.9606H50.1429V33.4034Z" fill="#EBEFF2"/>
<path d="M50.1435 53.3006H34.9853C34.8932 53.3006 34.8049 53.2648 34.7398 53.201C34.6747 53.1372 34.6382 53.0507 34.6382 52.9605V33.4034C34.6382 33.3132 34.6747 33.2266 34.7398 33.1628C34.8049 33.0991 34.8932 33.0632 34.9853 33.0632H50.1435C50.2356 33.0632 50.3238 33.0991 50.3889 33.1628C50.454 33.2266 50.4906 33.3132 50.4906 33.4034V52.9605C50.4906 53.0507 50.454 53.1372 50.3889 53.201C50.3238 53.2648 50.2356 53.3006 50.1435 53.3006ZM35.3324 52.6203H49.7964V33.7435H35.3324V52.6203Z" fill="#37474F"/>
<path d="M52.3921 35.4442H37.2339V55.0014H52.3921V35.4442Z" fill="white"/>
<path d="M52.3928 55.3415H37.2338C37.1418 55.3415 37.0535 55.3057 36.9884 55.2419C36.9233 55.1781 36.8867 55.0916 36.8867 55.0014V35.4443C36.8867 35.3541 36.9233 35.2675 36.9884 35.2037C37.0535 35.1399 37.1418 35.1041 37.2338 35.1041H52.3928C52.4848 35.1041 52.5731 35.1399 52.6382 35.2037C52.7033 35.2675 52.7399 35.3541 52.7399 35.4443V55.0014C52.7399 55.0916 52.7033 55.1781 52.6382 55.2419C52.5731 55.3057 52.4848 55.3415 52.3928 55.3415ZM37.5809 54.6612H52.0457V35.7844H37.5809V54.6612Z" fill="#37474F"/>
<path d="M82.4203 56.751H50.2025C48.9695 56.751 47.97 57.7305 47.97 58.9387V78.9932C47.97 80.2014 48.9695 81.1809 50.2025 81.1809H82.4203C83.6533 81.1809 84.6528 80.2014 84.6528 78.9932V58.9387C84.6528 57.7305 83.6533 56.751 82.4203 56.751Z" fill="white"/>
<path d="M82.4205 81.5205H50.2026C49.5187 81.5198 48.863 81.2532 48.3794 80.7792C47.8958 80.3053 47.6238 79.6628 47.623 78.9926V58.9382C47.6238 58.268 47.8958 57.6254 48.3794 57.1515C48.863 56.6775 49.5187 56.411 50.2026 56.4103H82.4205C83.1045 56.4108 83.7604 56.6773 84.2442 57.1512C84.7279 57.6251 85 58.2678 85.0008 58.9382V78.9926C85 79.6629 84.7279 80.3056 84.2442 80.7795C83.7604 81.2534 83.1045 81.5199 82.4205 81.5205ZM50.2026 57.0906C49.7028 57.0913 49.2237 57.2861 48.8703 57.6325C48.5169 57.9788 48.318 58.4484 48.3172 58.9382V78.9926C48.318 79.4824 48.5169 79.9519 48.8703 80.2982C49.2237 80.6446 49.7028 80.8395 50.2026 80.8402H82.4205C82.9204 80.8397 83.3997 80.6448 83.7533 80.2985C84.1069 79.9521 84.3059 79.4825 84.3066 78.9926V58.9382C84.3059 58.4483 84.1069 57.9786 83.7533 57.6322C83.3997 57.2859 82.9204 57.0911 82.4205 57.0906H50.2026Z" fill="#37474F"/>
<path d="M84.6537 78.119H47.9701C47.8781 78.119 47.7898 78.0831 47.7247 78.0193C47.6596 77.9556 47.623 77.8691 47.623 77.7789C47.623 77.6886 47.6596 77.6021 47.7247 77.5383C47.7898 77.4745 47.8781 77.4387 47.9701 77.4387H84.6537C84.7457 77.4387 84.834 77.4745 84.8991 77.5383C84.9642 77.6021 85.0008 77.6886 85.0008 77.7789C85.0008 77.8691 84.9642 77.9556 84.8991 78.0193C84.834 78.0831 84.7457 78.119 84.6537 78.119Z" fill="#37474F"/>
<path d="M47.9701 78.7688C47.9412 79.3784 48.1598 79.9744 48.5782 80.4265C48.9966 80.8785 49.5806 81.1498 50.2026 81.181H82.4204C83.0424 81.1498 83.6264 80.8785 84.0448 80.4265C84.4632 79.9744 84.6818 79.3784 84.6529 78.7688V77.432H47.9701V78.7688Z" fill="#EBEFF2"/>
<path d="M82.4203 81.5204H50.2025C49.4889 81.4879 48.8174 81.1803 48.3342 80.6648C47.8511 80.1493 47.5953 79.4675 47.6229 78.768V77.4319C47.6229 77.3417 47.6595 77.2552 47.7245 77.1914C47.7896 77.1276 47.8779 77.0918 47.97 77.0918H84.6535C84.7455 77.0918 84.8338 77.1276 84.8989 77.1914C84.964 77.2552 85.0006 77.3417 85.0006 77.4319V78.7687C85.0279 79.4682 84.772 80.1498 84.2887 80.6653C83.8054 81.1807 83.1338 81.488 82.4203 81.5204ZM48.317 77.7714V78.768C48.2893 79.2871 48.4718 79.796 48.8249 80.184C49.1779 80.5721 49.673 80.8078 50.2025 80.8401H82.4203C82.9499 80.808 83.4451 80.5723 83.7983 80.1843C84.1515 79.7963 84.3341 79.2872 84.3064 78.768V77.7721L48.317 77.7714Z" fill="#37474F"/>
<path d="M66.6083 79.8197H66.0148C65.9228 79.8197 65.8345 79.7838 65.7694 79.72C65.7043 79.6562 65.6677 79.5698 65.6677 79.4795C65.6677 79.3893 65.7043 79.3028 65.7694 79.239C65.8345 79.1752 65.9228 79.1394 66.0148 79.1394H66.6083C66.7004 79.1394 66.7887 79.1752 66.8538 79.239C66.9189 79.3028 66.9554 79.3893 66.9554 79.4795C66.9554 79.5698 66.9189 79.6562 66.8538 79.72C66.7887 79.7838 66.7004 79.8197 66.6083 79.8197Z" fill="#37474F"/>
<path d="M75.316 51.3966C75.8552 53.0845 75.8716 54.8911 75.363 56.5881C74.8544 58.2851 73.8437 59.7961 72.4587 60.9302C71.0737 62.0642 69.3767 62.7703 67.5821 62.9592C65.7876 63.1481 63.9763 62.8112 62.3772 61.9912C60.778 61.1713 59.4629 59.905 58.5982 58.3525C57.7335 56.8001 57.358 55.0313 57.5191 53.2697C57.6803 51.5081 58.3709 49.8329 59.5036 48.456C60.6364 47.079 62.1603 46.0622 63.8828 45.534C66.1923 44.8259 68.6942 45.0457 70.8383 46.1451C72.9824 47.2445 74.5931 49.1335 75.316 51.3966Z" fill="#EBEFF2"/>
<path d="M66.6131 63.3504C64.2239 63.3525 61.922 62.47 60.1684 60.8797C58.4148 59.2894 57.3389 57.1087 57.1562 54.7742C56.9735 52.4396 57.6974 50.1236 59.183 48.2899C60.6686 46.4561 62.8063 45.24 65.168 44.885C67.5296 44.53 69.941 45.0623 71.9192 46.3754C73.8973 47.6885 75.2964 49.6853 75.8361 51.9662C76.3758 54.2471 76.0165 56.6436 74.8299 58.6758C73.6433 60.7081 71.7172 62.2261 69.4371 62.9259C68.523 63.2063 67.5709 63.3494 66.6131 63.3504ZM66.6027 45.4647C64.7529 45.4653 62.9505 46.0386 61.4529 47.1025C59.9552 48.1665 58.8387 49.6669 58.2628 51.3896C57.6869 53.1122 57.681 54.9691 58.2458 56.6953C58.8107 58.4215 59.9176 59.9287 61.4085 61.0019C62.8993 62.075 64.6979 62.6593 66.5477 62.6713C68.3975 62.6833 70.204 62.1224 71.7092 61.0687C73.2144 60.0149 74.3415 58.5222 74.9296 56.8035C75.5178 55.0848 75.5369 53.228 74.9843 51.498C74.4235 49.7498 73.3085 48.2223 71.8012 47.1375C70.2938 46.0527 68.4728 45.4672 66.6027 45.4661V45.4647Z" fill="#37474F"/>
<path d="M75.366 51.5885L66.6082 54.2749L72.6386 60.7742C73.9349 59.6539 74.8796 58.1956 75.3625 56.5692C75.8454 54.9429 75.8467 53.2155 75.366 51.5885Z" fill="white"/>
<path d="M72.6385 61.1123C72.5901 61.1123 72.5423 61.1023 72.4981 61.0831C72.4538 61.0639 72.4142 61.0359 72.3817 61.0008L66.3513 54.5014C66.3121 54.4593 66.2845 54.4081 66.2708 54.3527C66.2571 54.2973 66.2578 54.2395 66.2728 54.1844C66.288 54.1292 66.3171 54.0786 66.3575 54.0373C66.3979 53.9961 66.4483 53.9655 66.504 53.9484L75.2618 51.2627C75.306 51.2492 75.3524 51.2444 75.3984 51.2487C75.4444 51.2531 75.4891 51.2663 75.5298 51.2878C75.5706 51.3089 75.6066 51.3379 75.6357 51.3729C75.6648 51.408 75.6864 51.4485 75.6992 51.4919C76.193 53.1809 76.1892 54.9724 75.6882 56.6594C75.1873 58.3464 74.2097 59.8602 72.8683 61.0259C72.805 61.0812 72.7233 61.112 72.6385 61.1123ZM67.2301 54.4388L72.6607 60.2892C73.7742 59.2421 74.5877 57.927 75.0199 56.4752C75.4522 55.0235 75.4879 53.4859 75.1237 52.0164L67.2301 54.4388Z" fill="#37474F"/>
<path d="M75.3648 51.5809C75.3467 51.5197 75.3356 51.4578 75.3162 51.3966C74.6476 49.3003 73.2116 47.5204 71.2844 46.3993L66.5896 54.2727L75.3648 51.5809Z" fill="white"/>
<path d="M66.5875 54.6129C66.5265 54.6128 66.4666 54.5969 66.4138 54.5669C66.361 54.5369 66.3172 54.4938 66.2869 54.4419C66.2566 54.39 66.2407 54.3312 66.241 54.2714C66.2412 54.2116 66.2575 54.1529 66.2883 54.1013L70.9824 46.2278C71.0055 46.1891 71.0362 46.1551 71.0728 46.128C71.1094 46.101 71.1511 46.0813 71.1955 46.0701C71.2399 46.0589 71.2862 46.0564 71.3316 46.0628C71.3769 46.0692 71.4206 46.0844 71.4599 46.1074C73.4603 47.2722 74.9516 49.1195 75.648 51.2952C75.6612 51.3367 75.6702 51.3754 75.6799 51.4142L75.6973 51.4823C75.7229 51.5678 75.7133 51.6597 75.6704 51.7384C75.6276 51.817 75.5549 51.876 75.4682 51.9027L66.6916 54.5945C66.658 54.6057 66.6229 54.6118 66.5875 54.6129ZM71.4016 46.8734L67.3393 53.685L74.9385 51.3544C74.3114 49.5113 73.0644 47.9315 71.4016 46.8734Z" fill="#37474F"/>
<path d="M80.1955 74.7177H52.4579C52.3659 74.7177 52.2776 74.6819 52.2125 74.6181C52.1474 74.5543 52.1108 74.4678 52.1108 74.3776C52.1108 74.2874 52.1474 74.2009 52.2125 74.1371C52.2776 74.0733 52.3659 74.0375 52.4579 74.0375H80.1955C80.2875 74.0375 80.3758 74.0733 80.4409 74.1371C80.506 74.2009 80.5426 74.2874 80.5426 74.3776C80.5426 74.4678 80.506 74.5543 80.4409 74.6181C80.3758 74.6819 80.2875 74.7177 80.1955 74.7177Z" fill="#37474F"/>
<path d="M80.1949 63.0116H76.4373V72.7898H80.1949V63.0116Z" fill="#EBEFF2"/>
<path d="M80.1955 73.1299H76.4372C76.3451 73.1299 76.2569 73.094 76.1918 73.0303C76.1267 72.9665 76.0901 72.88 76.0901 72.7898V63.0115C76.0901 62.9213 76.1267 62.8348 76.1918 62.771C76.2569 62.7072 76.3451 62.6714 76.4372 62.6714H80.1955C80.2876 62.6714 80.3759 62.7072 80.4409 62.771C80.506 62.8348 80.5426 62.9213 80.5426 63.0115V72.7898C80.5426 72.88 80.506 72.9665 80.4409 73.0303C80.3759 73.094 80.2876 73.1299 80.1955 73.1299ZM76.7843 72.4496H79.8484V63.3517H76.7843V72.4496Z" fill="#37474F"/>
<path d="M74.2 73.13H70.4423C70.3503 73.13 70.262 73.0941 70.1969 73.0304C70.1318 72.9666 70.0952 72.8801 70.0952 72.7899V64.8538C70.0952 64.7636 70.1318 64.6771 70.1969 64.6133C70.262 64.5495 70.3503 64.5137 70.4423 64.5137H74.2C74.292 64.5137 74.3803 64.5495 74.4454 64.6133C74.5104 64.6771 74.547 64.7636 74.547 64.8538V72.7932C74.5461 72.8829 74.5092 72.9685 74.4442 73.0316C74.3792 73.0946 74.2914 73.13 74.2 73.13ZM70.7894 72.4497H73.8529V65.1939H70.7894V72.4497Z" fill="#37474F"/>
<path d="M56.2156 73.13H52.4579C52.3659 73.13 52.2776 73.0941 52.2125 73.0303C52.1474 72.9665 52.1108 72.88 52.1108 72.7898V68.966C52.1108 68.8758 52.1474 68.7893 52.2125 68.7255C52.2776 68.6617 52.3659 68.6259 52.4579 68.6259H56.2156C56.3076 68.6259 56.3959 68.6617 56.461 68.7255C56.5261 68.7893 56.5627 68.8758 56.5627 68.966V72.7898C56.5627 72.88 56.5261 72.9665 56.461 73.0303C56.3959 73.0941 56.3076 73.13 56.2156 73.13ZM52.805 72.4497H55.8685V69.3061H52.805V72.4497Z" fill="#37474F"/>
<path d="M68.2048 73.13H64.4472C64.3551 73.13 64.2668 73.0941 64.2017 73.0303C64.1367 72.9665 64.1001 72.88 64.1001 72.7898V69.3708C64.1001 69.2806 64.1367 69.194 64.2017 69.1302C64.2668 69.0665 64.3551 69.0306 64.4472 69.0306H68.2048C68.2969 69.0306 68.3851 69.0665 68.4502 69.1302C68.5153 69.194 68.5519 69.2806 68.5519 69.3708V72.7898C68.5519 72.88 68.5153 72.9665 68.4502 73.0303C68.3851 73.0941 68.2969 73.13 68.2048 73.13ZM64.7943 72.4497H67.8577V69.7109H64.7943V72.4497Z" fill="#37474F"/>
<path d="M62.2107 73.1299H58.453C58.361 73.1299 58.2727 73.0941 58.2076 73.0303C58.1426 72.9665 58.106 72.88 58.106 72.7898V67.2347C58.106 67.1445 58.1426 67.0579 58.2076 66.9941C58.2727 66.9304 58.361 66.8945 58.453 66.8945H62.2107C62.3027 66.8945 62.391 66.9304 62.4561 66.9941C62.5212 67.0579 62.5578 67.1445 62.5578 67.2347V72.7931C62.5569 72.8828 62.5199 72.9684 62.4549 73.0315C62.3899 73.0945 62.3021 73.1299 62.2107 73.1299ZM58.8001 72.4496H61.8636V67.5748H58.8001V72.4496Z" fill="#37474F"/>
<path d="M70.6303 86H61.3976C61.3056 86 61.2173 85.9642 61.1522 85.9004C61.0871 85.8366 61.0505 85.75 61.0505 85.6598C61.0505 85.5696 61.0871 85.4831 61.1522 85.4194C61.2173 85.3556 61.3056 85.3197 61.3976 85.3197H70.6303C70.7223 85.3197 70.8106 85.3556 70.8757 85.4194C70.9408 85.4831 70.9774 85.5696 70.9774 85.6598C70.9774 85.75 70.9408 85.8366 70.8757 85.9004C70.8106 85.9642 70.7223 86 70.6303 86Z" fill="#37474F"/>
<path d="M68.8582 85.6598H63.1714L63.8093 81.1809H68.2209L68.8582 85.6598Z" fill="#EBEFF2"/>
<path d="M68.8589 86H63.1714C63.1218 85.9999 63.0727 85.9895 63.0276 85.9693C62.9824 85.9491 62.9422 85.9197 62.9097 85.883C62.8768 85.8461 62.8525 85.8027 62.8384 85.7557C62.8243 85.7087 62.8206 85.6593 62.8278 85.6109L63.4657 81.132C63.4774 81.0501 63.519 80.9752 63.5829 80.9213C63.6468 80.8673 63.7285 80.838 63.8128 80.8388H68.2244C68.3087 80.838 68.3904 80.8673 68.4543 80.9213C68.5182 80.9752 68.5598 81.0501 68.5715 81.132L69.2094 85.6109C69.2166 85.6593 69.2129 85.7087 69.1988 85.7557C69.1846 85.8027 69.1604 85.8461 69.1275 85.883C69.0942 85.9205 69.0529 85.9505 69.0065 85.9707C68.96 85.991 68.9096 86.0009 68.8589 86ZM63.5706 85.3197H68.4604L67.9189 81.5211H64.112L63.5706 85.3197Z" fill="#37474F"/>
<path d="M49.0529 41.5544H40.5734C40.4814 41.5544 40.3931 41.5186 40.328 41.4548C40.2629 41.391 40.2263 41.3045 40.2263 41.2143C40.2263 41.1241 40.2629 41.0375 40.328 40.9738C40.3931 40.91 40.4814 40.8741 40.5734 40.8741H49.0529C49.1449 40.8741 49.2332 40.91 49.2983 40.9738C49.3634 41.0375 49.4 41.1241 49.4 41.2143C49.4 41.3045 49.3634 41.391 49.2983 41.4548C49.2332 41.5186 49.1449 41.5544 49.0529 41.5544Z" fill="#37474F"/>
<path d="M49.0529 44.9558H40.5734C40.4814 44.9558 40.3931 44.9199 40.328 44.8561C40.2629 44.7923 40.2263 44.7059 40.2263 44.6156C40.2263 44.5254 40.2629 44.4389 40.328 44.3751C40.3931 44.3113 40.4814 44.2755 40.5734 44.2755H49.0529C49.1449 44.2755 49.2332 44.3113 49.2983 44.3751C49.3634 44.4389 49.4 44.5254 49.4 44.6156C49.4 44.7059 49.3634 44.7923 49.2983 44.8561C49.2332 44.9199 49.1449 44.9558 49.0529 44.9558Z" fill="#37474F"/>
<path d="M49.0529 48.3572H40.5734C40.4814 48.3572 40.3931 48.3213 40.328 48.2575C40.2629 48.1937 40.2263 48.1072 40.2263 48.017C40.2263 47.9268 40.2629 47.8403 40.328 47.7765C40.3931 47.7127 40.4814 47.6769 40.5734 47.6769H49.0529C49.1449 47.6769 49.2332 47.7127 49.2983 47.7765C49.3634 47.8403 49.4 47.9268 49.4 48.017C49.4 48.1072 49.3634 48.1937 49.2983 48.2575C49.2332 48.3213 49.1449 48.3572 49.0529 48.3572Z" fill="#37474F"/>
<path d="M64.0556 40.615C63.9635 40.615 63.8753 40.5791 63.8102 40.5154C63.7451 40.4516 63.7085 40.365 63.7085 40.2748V37.3068C63.7085 37.2166 63.7451 37.1301 63.8102 37.0663C63.8753 37.0025 63.9635 36.9667 64.0556 36.9667C64.1476 36.9667 64.2359 37.0025 64.301 37.0663C64.3661 37.1301 64.4027 37.2166 64.4027 37.3068V40.2748C64.4027 40.365 64.3661 40.4516 64.301 40.5154C64.2359 40.5791 64.1476 40.615 64.0556 40.615Z" fill="#37474F"/>
<path d="M65.5697 39.1313H62.5409C62.4489 39.1313 62.3606 39.0955 62.2955 39.0317C62.2304 38.9679 62.1938 38.8814 62.1938 38.7912C62.1938 38.701 62.2304 38.6144 62.2955 38.5507C62.3606 38.4869 62.4489 38.451 62.5409 38.451H65.5697C65.6617 38.451 65.75 38.4869 65.8151 38.5507C65.8802 38.6144 65.9167 38.701 65.9167 38.7912C65.9167 38.8814 65.8802 38.9679 65.8151 39.0317C65.75 39.0955 65.6617 39.1313 65.5697 39.1313Z" fill="#37474F"/>
<path d="M40.5734 62.5959C40.4814 62.5959 40.3931 62.5601 40.328 62.4963C40.2629 62.4325 40.2263 62.346 40.2263 62.2558V59.2878C40.2263 59.1976 40.2629 59.111 40.328 59.0472C40.3931 58.9835 40.4814 58.9476 40.5734 58.9476C40.6655 58.9476 40.7537 58.9835 40.8188 59.0472C40.8839 59.111 40.9205 59.1976 40.9205 59.2878V62.2558C40.9205 62.346 40.8839 62.4325 40.8188 62.4963C40.7537 62.5601 40.6655 62.5959 40.5734 62.5959Z" fill="#37474F"/>
<path d="M42.0875 61.1123H39.0595C38.9674 61.1123 38.8792 61.0764 38.8141 61.0126C38.749 60.9488 38.7124 60.8624 38.7124 60.7721C38.7124 60.6819 38.749 60.5954 38.8141 60.5316C38.8792 60.4678 38.9674 60.432 39.0595 60.432H42.0875C42.1796 60.432 42.2679 60.4678 42.333 60.5316C42.3981 60.5954 42.4346 60.6819 42.4346 60.7721C42.4346 60.8624 42.3981 60.9488 42.333 61.0126C42.2679 61.0764 42.1796 61.1123 42.0875 61.1123Z" fill="#37474F"/>
<path d="M37.2338 72.9061C37.1418 72.9061 37.0535 72.8703 36.9884 72.8065C36.9233 72.7427 36.8867 72.6562 36.8867 72.566V69.5979C36.8867 69.5077 36.9233 69.4212 36.9884 69.3574C37.0535 69.2936 37.1418 69.2578 37.2338 69.2578C37.3259 69.2578 37.4142 69.2936 37.4793 69.3574C37.5444 69.4212 37.5809 69.5077 37.5809 69.5979V72.566C37.5809 72.6562 37.5444 72.7427 37.4793 72.8065C37.4142 72.8703 37.3259 72.9061 37.2338 72.9061Z" fill="#37474F"/>
<path d="M38.7484 71.4217H35.7197C35.6276 71.4217 35.5393 71.3859 35.4742 71.3221C35.4091 71.2583 35.3726 71.1718 35.3726 71.0816C35.3726 70.9914 35.4091 70.9049 35.4742 70.8411C35.5393 70.7773 35.6276 70.7415 35.7197 70.7415H38.7484C38.8404 70.7415 38.9287 70.7773 38.9938 70.8411C39.0589 70.9049 39.0955 70.9914 39.0955 71.0816C39.0955 71.1718 39.0589 71.2583 38.9938 71.3221C38.9287 71.3859 38.8404 71.4217 38.7484 71.4217Z" fill="#37474F"/>
</g>
<defs>
<clipPath id="clip0_1_3211">
<rect width="54" height="57" fill="white" transform="translate(31 29)"/>
</clipPath>
</defs>
</svg>
