<svg width="79" height="88" viewBox="0 0 79 88" fill="none" xmlns="http://www.w3.org/2000/svg">
<g clip-path="url(#clip0_771_1025)">
<path d="M77.7717 46.4902H75.2749C74.9408 38.2963 71.9021 30.4554 66.6485 24.2314C61.3949 18.0074 54.2325 13.7629 46.3159 12.1822V1.32867C46.3145 1.0844 46.2471 0.845218 46.121 0.637304C45.9949 0.42939 45.8149 0.26076 45.6008 0.149877C45.3835 0.0398101 45.1408 -0.00772816 44.8989 0.0124137C44.657 0.0325555 44.4252 0.119609 44.2285 0.264141L39.5433 3.73009L34.8502 0.256597C34.655 0.111605 34.4242 0.0243178 34.1832 0.00438868C33.9422 -0.0155404 33.7006 0.0326654 33.4849 0.143675C33.2692 0.254684 33.0879 0.42417 32.9611 0.633387C32.8343 0.842604 32.7669 1.0834 32.7663 1.32914V12.1545C24.8525 13.7514 17.6958 18.0042 12.4445 24.2305C7.19308 30.4569 4.15147 38.2958 3.80764 46.4896C2.68307 46.5996 -0.0157026 45.9395 6.88294e-05 47.8256C0.0158403 49.7116 2.70596 49.0515 3.80764 49.1579C4.21515 58.2994 7.97061 66.9557 14.3363 73.4264C20.702 79.897 29.2178 83.7144 38.2111 84.1286C38.3156 85.2717 37.6663 88.0186 39.5253 87.999C41.3844 87.9793 40.7314 85.2485 40.8361 84.1286C49.8306 83.7166 58.3482 79.8999 64.715 73.4286C71.0817 66.9573 74.8371 58.2994 75.2431 49.1567H77.7399C78.0767 49.1433 78.3956 48.999 78.6306 48.7535C78.8657 48.508 78.999 48.18 79.003 47.8375C79.007 47.4949 78.8813 47.1638 78.652 46.9128C78.4227 46.6617 78.1072 46.5097 77.7708 46.4884L77.7717 46.4902ZM72.6537 46.4902H63.2329C62.8909 40.5696 60.4238 34.9823 56.2993 30.7874C52.1748 26.5925 46.6795 24.0815 40.8551 23.7305V17.2393L44.4578 14.571C52.0616 15.7615 59.0253 19.5916 64.1654 25.4104C69.3055 31.2293 72.3049 38.6778 72.6537 46.4901V46.4902ZM39.5445 57.2722C37.163 57.3258 34.8526 56.4461 33.0916 54.8155C31.3307 53.1849 30.2543 50.9282 30.0854 48.513C29.9165 46.0978 30.6679 43.709 32.1842 41.8416C33.7004 39.9741 35.8653 38.771 38.2302 38.4816V44.6076L36.9353 43.2951C35.7756 42.0534 33.8428 43.9747 35.0834 45.1776C35.2417 45.299 38.9489 49.2247 39.0417 49.0597C39.2817 49.1582 39.545 49.1828 39.7986 49.1304C40.0523 49.078 40.2852 48.9509 40.4684 48.765L44.0054 45.1777C44.2287 44.9227 44.3475 44.5905 44.3374 44.2493C44.3273 43.908 44.1891 43.5837 43.9511 43.3428C43.7131 43.1019 43.3935 42.9627 43.0577 42.9539C42.722 42.945 42.3956 43.0672 42.1457 43.2953L40.8543 44.6036V38.4819C43.2188 38.7715 45.3832 39.9744 46.8993 41.8414C48.4153 43.7084 49.1669 46.0966 48.9985 48.5114C48.8301 50.9262 47.7544 53.1827 45.9944 54.8136C44.2343 56.4445 41.9246 57.3249 39.5436 57.2725L39.5445 57.2722ZM38.2302 35.79C35.5432 36.099 33.0389 37.3256 31.1267 39.2693C29.2146 41.2129 28.0079 43.7586 27.7039 46.4899H18.4729C18.8111 41.2758 21.001 36.3641 24.6353 32.6684C28.2695 28.9727 33.1006 26.7447 38.2299 26.3987L38.2302 35.79ZM27.7039 49.1496C28.0084 51.8811 29.2153 54.4268 31.1273 56.3709C33.0392 58.315 35.5433 59.5426 38.2304 59.853V69.233C33.1074 68.8762 28.2846 66.6469 24.6528 62.957C21.021 59.267 18.8257 54.3656 18.4723 49.1584L27.7039 49.1496ZM40.8467 59.853C43.5342 59.5428 46.0388 58.3154 47.9513 56.3713C49.8639 54.4272 51.0714 51.8814 51.3765 49.1496H60.6044C60.2533 54.3585 58.0591 59.2622 54.4273 62.9542C50.7954 66.6463 45.9715 68.8771 40.8471 69.2343L40.8467 59.853ZM51.3765 46.4934C51.0711 43.762 49.8635 41.2167 47.9509 39.2731C46.0383 37.3296 43.5339 36.1029 40.8467 35.7933V26.3987C45.977 26.7427 50.8093 28.9702 54.4441 32.6663C58.079 36.3624 60.2685 41.2753 60.6051 46.4902L51.3765 46.4934ZM35.3923 3.95391L38.7668 6.46064C39.9264 7.48225 41.9365 5.04609 43.6918 3.95391V11.8321L39.5436 14.9086L35.3923 11.8321V3.95391ZM16.0986 23.9933C21.1055 18.9044 27.5913 15.5894 34.596 14.5391L38.2296 17.2349V23.7299C32.4053 24.0813 26.9101 26.5923 22.7856 30.7871C18.661 34.982 16.1936 40.5691 15.851 46.4896H6.43451C6.74539 38.0195 10.1979 29.9827 16.0984 23.9936L16.0986 23.9933ZM16.0986 71.6619C10.197 65.6704 6.7445 57.6307 6.43467 49.1581H15.8512C16.2064 55.0733 18.6781 60.6522 22.8003 64.843C26.9225 69.0338 32.4104 71.5472 38.2296 71.9093V81.4858C29.8972 81.1686 21.9911 77.6594 16.0986 71.6626V71.6619ZM62.9893 71.6619C57.0944 77.6581 49.1872 81.1672 40.8535 81.4852V71.9087C46.6734 71.5484 52.1623 69.0357 56.285 64.8447C60.4076 60.6536 62.8789 55.0739 63.2328 49.1581H72.6533C72.3395 57.6298 68.8875 65.6681 62.9893 71.6619Z" fill="white"/>
</g>
<defs>
<clipPath id="clip0_771_1025">
<rect width="79" height="88" fill="white"/>
</clipPath>
</defs>
</svg>
