<svg width="67" height="64" viewBox="0 0 67 64" fill="none" xmlns="http://www.w3.org/2000/svg">
<g clip-path="url(#clip0_771_1023)">
<path fill-rule="evenodd" clip-rule="evenodd" d="M47.7077 0.00285054C47.5734 0.0107673 47.4414 0.0418143 47.3178 0.0946039L38.7458 3.82044C38.6034 3.87874 38.4743 3.9647 38.3658 4.07325C38.2574 4.1818 38.1719 4.31077 38.1144 4.45258C38.0569 4.59439 38.0285 4.74619 38.0308 4.89905C38.0332 5.05191 38.0664 5.20275 38.1283 5.34273C38.1902 5.4827 38.2797 5.60898 38.3914 5.71415C38.5032 5.81933 38.635 5.90127 38.7791 5.95517C38.9232 6.00907 39.0767 6.03384 39.2305 6.02803C39.3844 6.02222 39.5356 5.98594 39.6751 5.92133L45.1177 3.56196C30.291 38.7965 0.986193 43.063 0.986193 43.063C0.836219 43.0853 0.692121 43.1366 0.562128 43.2141C0.432136 43.2916 0.318794 43.3938 0.228573 43.5148C0.138353 43.6358 0.0730208 43.7732 0.0363077 43.9193C-0.000405452 44.0654 -0.00778088 44.2172 0.0146026 44.3661C0.0369861 44.515 0.0886904 44.658 0.166763 44.7871C0.244835 44.9161 0.347747 45.0287 0.469623 45.1182C0.591498 45.2078 0.72995 45.2727 0.877074 45.3091C1.0242 45.3456 1.17711 45.3529 1.32709 45.3307C1.32709 45.3307 32.137 40.5837 47.34 4.23831L48.8361 10.4501C48.9085 10.7442 49.0952 10.9979 49.3554 11.1556C49.6156 11.3133 49.9282 11.3623 50.2247 11.2919C50.5213 11.2214 50.7776 11.0372 50.9377 10.7796C51.0978 10.522 51.1486 10.2119 51.079 9.91718L48.9036 0.882764C48.8408 0.619579 48.6863 0.386894 48.4674 0.225779C48.2486 0.064664 47.9795 -0.0145229 47.7076 0.00219502L47.7077 0.00285054ZM51.3246 16.563C51.1721 16.5623 51.021 16.5917 50.8799 16.6493C50.7389 16.7069 50.6108 16.7917 50.503 16.8988C50.3951 17.0059 50.3097 17.1331 50.2517 17.2731C50.1936 17.4131 50.1641 17.5631 50.1647 17.7145V61.7152H46.3792V31.7271C46.3785 31.4241 46.257 31.1337 46.0413 30.9193C45.8256 30.7049 45.5333 30.5839 45.2281 30.5828H36.9655C36.8137 30.5822 36.6631 30.6113 36.5226 30.6685C36.3821 30.7257 36.2543 30.8098 36.1466 30.9161C36.0388 31.0224 35.9533 31.1487 35.8948 31.2879C35.8363 31.427 35.806 31.5763 35.8057 31.7271V61.7152H32.0177V45.747C32.0169 45.444 31.8954 45.1536 31.6798 44.9392C31.4641 44.7248 31.1717 44.6038 30.8665 44.6027H22.604C22.4521 44.6021 22.3016 44.6312 22.1611 44.6884C22.0205 44.7456 21.8927 44.8297 21.785 44.936C21.6773 45.0423 21.5917 45.1686 21.5332 45.3078C21.4747 45.4469 21.4444 45.5962 21.4441 45.747V61.7152H17.6581V52.9761C17.6568 52.6732 17.5348 52.383 17.3189 52.169C17.1029 51.955 16.8105 51.8345 16.5054 51.8337H8.24229C8.09062 51.8332 7.94032 51.8623 7.79997 51.9194C7.65962 51.9765 7.53198 52.0605 7.42432 52.1665C7.31667 52.2726 7.23111 52.3987 7.17254 52.5376C7.11397 52.6765 7.08353 52.8255 7.08296 52.9761V61.7152H1.97468C1.66945 61.7152 1.37672 61.8356 1.16089 62.0498C0.945053 62.2641 0.823799 62.5547 0.823799 62.8578C0.823799 63.1608 0.945053 63.4514 1.16089 63.6657C1.37672 63.88 1.66945 64.0004 1.97468 64.0004H65.8496C66.1548 64.0004 66.4476 63.88 66.6634 63.6657C66.8792 63.4514 67.0005 63.1608 67.0005 62.8578C67.0005 62.5547 66.8792 62.2641 66.6634 62.0498C66.4476 61.8356 66.1548 61.7152 65.8496 61.7152H60.7408V17.715C60.742 17.4109 60.6214 17.1187 60.4057 16.9027C60.1899 16.6868 59.8965 16.5648 59.5902 16.5635L51.3246 16.563ZM52.4752 18.8568H58.4296V61.7135H52.4752V18.8568ZM38.1159 32.8784H44.0685V61.7152H38.1159V32.8784ZM23.7539 46.8979H29.706V61.7135H23.7539V46.8979ZM9.39331 54.1265H15.3454V61.7136H9.39331V54.1265Z" fill="white"/>
</g>
<defs>
<clipPath id="clip0_771_1023">
<rect width="67" height="64" fill="white"/>
</clipPath>
</defs>
</svg>
