<svg width="82" height="82" viewBox="0 0 82 82" fill="none" xmlns="http://www.w3.org/2000/svg">
<circle cx="41" cy="41" r="41" fill="#385771"/>
<g clip-path="url(#clip0_1075_1633)">
<path d="M68.4039 49.138C67.891 48.3821 67.102 47.8601 66.2082 47.6853C65.3144 47.5106 64.3881 47.6973 63.6306 48.2049L57.5108 51.8773C57.4039 51.9416 57.3124 52.0288 57.2428 52.1327C57.1732 52.2365 57.1273 52.3545 57.1082 52.4782C57.0392 52.9916 57.0574 53.513 57.1619 54.0202L53.998 55.7243C53.9881 55.7297 53.9801 55.7372 53.9712 55.7432C53.2481 55.4329 52.4373 55.3977 51.6903 55.6444C50.9433 55.891 50.3112 56.4025 49.9123 57.0832L40.025 54.1747C40.0419 54.1578 40.0569 54.1389 40.0735 54.1208C40.0778 54.1208 40.0819 54.1208 40.0862 54.1208H45.0652C45.0939 54.1193 45.1225 54.1164 45.1508 54.1119C45.3132 54.3753 45.4986 54.6237 45.7048 54.854C45.7097 54.8594 45.7156 54.863 45.7207 54.8684C45.7469 54.8953 45.7747 54.9204 45.8042 54.9436C45.8203 54.9571 45.8356 54.9706 45.8525 54.9838C45.8852 55.0057 45.9195 55.0253 45.955 55.0423C45.9709 55.0504 45.9853 55.0609 46.0014 55.0679C46.0503 55.0888 46.101 55.1049 46.1528 55.1162C46.1566 55.1162 46.1603 55.1189 46.1641 55.1197C46.221 55.1315 46.2789 55.1375 46.337 55.1375H51.5338C52.4125 55.1366 53.2549 54.7855 53.8764 54.1613C54.4977 53.537 54.8473 52.6906 54.8484 51.8078C54.8484 50.5263 53.9374 48.6194 51.4282 48.6194H46.4296C46.1616 48.6418 45.9091 48.755 45.7137 48.9405C45.3935 49.2976 45.1309 49.7027 44.9353 50.1412H40.4638C40.1722 49.6758 39.7681 49.2921 39.289 49.026C38.81 48.7599 38.2717 48.62 37.7244 48.6194H33.1613L26.2671 48.6601C26.1274 48.6609 25.9901 48.6963 25.8673 48.7632C25.7446 48.8301 25.6401 48.9264 25.5633 49.0436L24.2521 51.0435L22.5463 50.05L23.0627 48.097C23.101 47.9527 23.1009 47.8007 23.0623 47.6564C23.0237 47.5122 22.948 47.3806 22.8429 47.275L17.3198 41.7259C17.1596 41.5704 16.9451 41.4844 16.7225 41.4864C16.4999 41.4883 16.2869 41.578 16.1295 41.7362C15.972 41.8944 15.8828 42.1084 15.8809 42.3321C15.879 42.5558 15.9647 42.7713 16.1194 42.9321L21.2968 48.1337L19.4086 55.2737L15.3574 52.2409C15.1766 52.1104 14.952 52.0565 14.7321 52.0908C14.5121 52.125 14.3143 52.2447 14.1814 52.4241C14.0484 52.6034 13.9907 52.828 14.021 53.0496C14.0512 53.2712 14.1669 53.472 14.343 53.6087L19.3997 57.3939C19.5109 57.4772 19.6408 57.5317 19.7779 57.5529C19.915 57.5741 20.0552 57.5611 20.1861 57.5152C20.3171 57.4694 20.4349 57.392 20.5292 57.2897C20.6235 57.1875 20.6914 57.0637 20.727 56.929L20.7778 56.7372L24.5224 58.9176L24.3289 59.1096C24.2218 59.216 24.1448 59.3491 24.1058 59.4953C24.0668 59.6414 24.0673 59.7954 24.1071 59.9413C24.1469 60.0872 24.2246 60.2199 24.3323 60.3257C24.44 60.4314 24.5738 60.5065 24.72 60.5432L27.6889 61.2891C27.878 61.3296 28.0699 61.355 28.263 61.3649C28.2802 61.3649 28.2971 61.3665 28.3143 61.3665H28.3175L50.6764 61.2805C51.3149 61.7971 52.1251 62.0503 52.9426 61.9887C53.7601 61.9272 54.5237 61.5555 55.0784 60.9491C55.1063 60.9396 55.1336 60.9286 55.1603 60.9162L67.4303 53.9922C67.4512 53.9806 67.4719 53.9676 67.4918 53.9542C68.2472 53.4361 68.7675 52.6382 68.9384 51.7354C69.1094 50.8327 68.9172 49.8986 68.4039 49.138ZM53.1507 51.8097C53.1501 52.2404 52.9795 52.6533 52.6763 52.9578C52.3732 53.2623 51.9622 53.4335 51.5335 53.4339H46.7401C46.4054 52.9838 46.228 52.4352 46.2354 51.8734C46.2428 51.3115 46.4345 50.7678 46.7809 50.3267H51.4269C53.1311 50.3267 53.1507 51.749 53.1507 51.8097ZM44.5284 51.8488C44.5223 52.0385 44.5299 52.2283 44.5509 52.417H40.9198C40.9505 52.2397 40.9665 52.0602 40.9676 51.8803C40.9676 51.8698 40.9676 51.8593 40.9676 51.8488H44.5284ZM39.2702 51.8803C39.2702 52.1876 39.1795 52.488 39.0096 52.7435C38.8396 52.999 38.5981 53.1981 38.3155 53.3157C38.0329 53.4333 37.722 53.464 37.4221 53.4041C37.1221 53.3441 36.8466 53.1961 36.6303 52.9788C36.4141 52.7615 36.2668 52.4846 36.2072 52.1832C36.1476 51.8818 36.1782 51.5695 36.2953 51.2856C36.4123 51.0017 36.6106 50.7591 36.8649 50.5884C37.1193 50.4177 37.4183 50.3266 37.7241 50.3267C38.134 50.3272 38.5271 50.491 38.8169 50.7823C39.1067 51.0736 39.2697 51.4684 39.2702 51.8803ZM25.1846 53.5604L26.0105 54.8594L21.9056 52.4693L22.0935 51.7601L25.1846 53.5604ZM21.2281 55.031L21.4539 54.1774L26.3967 57.0555L25.7716 57.6757L21.2281 55.031ZM28.0995 59.6365L26.5935 59.259L28.697 57.1684C28.8351 57.0312 28.9221 56.8506 28.9437 56.6567C28.9652 56.4628 28.92 56.2674 28.8154 56.103L25.9359 51.5758L26.7296 50.3655L33.1645 50.3275H34.873C34.6317 50.7739 34.4977 51.2708 34.4816 51.7785C34.4656 52.2862 34.5679 52.7907 34.7805 53.2516C34.993 53.7125 35.3099 54.117 35.7058 54.433C36.1017 54.7489 36.5656 54.9675 37.0605 55.0712C37.0882 55.0843 37.1167 55.096 37.1457 55.1059L49.4565 58.7274C49.4565 58.7323 49.4565 58.7369 49.4565 58.7417C49.4575 59.0256 49.4957 59.3082 49.5701 59.5821L28.3384 59.663C28.2539 59.6565 28.1364 59.6443 28.0998 59.6365H28.0995ZM52.6995 60.2946C52.3936 60.2946 52.0947 60.2034 51.8404 60.0327C51.5861 59.862 51.3879 59.6194 51.2708 59.3355C51.1538 59.0516 51.1232 58.7392 51.1828 58.4379C51.2425 58.1365 51.3898 57.8596 51.606 57.6423C51.8223 57.4251 52.0978 57.2771 52.3978 57.2172C52.6977 57.1572 53.0087 57.188 53.2912 57.3056C53.5738 57.4232 53.8153 57.6223 53.9852 57.8778C54.1551 58.1333 54.2458 58.4337 54.2458 58.7409C54.2454 59.153 54.0822 59.5479 53.7922 59.8392C53.5022 60.1305 53.109 60.2943 52.699 60.2946H52.6995ZM55.9325 58.5252C55.8959 57.9483 55.7064 57.3918 55.3836 56.9133L57.7744 55.6256C58.0579 56.103 58.4224 56.5268 58.8513 56.878L55.9325 58.5252ZM66.5617 52.5267L60.5063 55.9438C59.9852 55.6775 59.5472 55.2721 59.2405 54.7721C58.9338 54.2721 58.7701 53.6968 58.7675 53.1095L64.5199 49.6576C64.5341 49.649 64.5484 49.6401 64.5621 49.6307C64.9445 49.3712 65.4133 49.2736 65.8669 49.359C66.3204 49.4444 66.7222 49.7059 66.9852 50.0868C67.2482 50.4678 67.3513 50.9375 67.272 51.3943C67.1928 51.851 66.9376 52.258 66.5617 52.527V52.5267Z" fill="white"/>
<path d="M29.9323 46.9163C30.077 46.916 30.2192 46.8786 30.3455 46.8077C30.4717 46.7367 30.5778 46.6345 30.6537 46.5107C30.7296 46.387 30.7728 46.2458 30.7791 46.1006C30.7855 45.9554 30.7548 45.8109 30.69 45.6809C29.5378 43.3807 28.9413 40.8399 28.9491 38.2648C28.9548 34.3913 30.3097 30.642 32.7789 27.6672C35.248 24.6924 38.6757 22.6798 42.4672 21.9783C42.4227 22.1133 42.4127 22.2573 42.4383 22.3971L42.8336 24.4766L41.5369 26.085C41.462 26.1778 41.4074 26.2855 41.3765 26.4009C41.3457 26.5163 41.3394 26.6369 41.3579 26.7549C41.3765 26.873 41.4195 26.9858 41.4843 27.086C41.549 27.1863 41.634 27.2717 41.7337 27.3368L44.0096 28.8225C44.1941 28.9431 44.418 28.9869 44.6341 28.9447L47.0518 28.4722C47.1856 28.4462 47.3113 28.388 47.4179 28.3026L48.819 27.1839C49.3724 27.6811 49.8976 28.2089 50.3922 28.7651C50.2612 29.4662 49.777 31.5881 49.3003 33.5923L46.195 35.5092L41.8155 35.7123C41.6685 35.719 41.5258 35.7641 41.4014 35.843L38.2803 37.8228L38.1192 36.0968C38.1003 35.8937 38.0095 35.7041 37.8633 35.5625C37.7171 35.4209 37.5253 35.3366 37.3225 35.325L33.9367 35.1306C33.7284 35.1185 33.523 35.1839 33.3596 35.3144C33.1962 35.4448 33.0864 35.6311 33.051 35.8377L32.4814 39.1757L31.6311 41.7377C31.5815 41.8874 31.5741 42.048 31.6099 42.2016C31.6457 42.3553 31.7231 42.4959 31.8337 42.608L35.8366 46.6642C35.9951 46.8248 36.2106 46.9156 36.4357 46.9165C36.6608 46.9175 36.8771 46.8285 37.0369 46.6693C37.1968 46.51 37.2872 46.2935 37.2881 46.0674C37.2891 45.8412 37.2006 45.6239 37.0421 45.4633L33.4067 41.7795L34.1123 39.6531C34.1257 39.612 34.1362 39.57 34.1437 39.5274L34.596 36.8762L36.4964 36.9841L36.7186 39.3642C36.7322 39.5094 36.7826 39.6486 36.865 39.7686C36.9474 39.8885 37.0589 39.9853 37.1891 40.0497C37.3193 40.114 37.4637 40.1438 37.6086 40.1361C37.7534 40.1284 37.8939 40.0835 38.0166 40.0058L42.1172 37.4048L46.4924 37.2017C46.6359 37.1952 46.7754 37.1521 46.8977 37.0766L50.4885 34.8598C50.68 34.7417 50.817 34.5521 50.8694 34.3326C51.6999 30.8583 52.1213 28.9317 52.1213 28.6068C52.1213 28.2627 52.1213 27.8344 49.4176 25.4278C49.2681 25.2949 49.0769 25.2192 48.8774 25.2139C48.6779 25.2085 48.483 25.2739 48.3267 25.3987L46.5246 26.8377L44.6473 27.2044L43.4497 26.4224L44.4012 25.242C44.479 25.1456 44.5349 25.0333 44.565 24.9129C44.5951 24.7926 44.5988 24.6671 44.5756 24.5452L44.1062 22.0768C44.0854 21.9681 44.0437 21.8646 43.9835 21.772C44.461 21.73 44.9434 21.7043 45.433 21.7043C47.7999 21.7041 50.1389 22.2171 52.2904 23.2085C54.4418 24.1998 56.3549 25.6461 57.8989 27.4485L56.242 30.7782C56.1883 30.8865 56.1582 31.005 56.1535 31.1259C56.1489 31.2468 56.1699 31.3673 56.2151 31.4794L56.8779 33.1279L55.6751 34.4634C55.5735 34.5763 55.5038 34.7145 55.4733 34.8637C55.4427 35.0128 55.4524 35.1674 55.5015 35.3115L56.0351 36.8781C56.0796 37.0091 56.1553 37.1272 56.2554 37.2222C56.3556 37.3173 56.4773 37.3864 56.61 37.4237L61.8978 38.9069C61.8586 40.0052 61.7109 41.0969 61.4568 42.1659C61.1218 43.2829 60.505 45.0305 60.1684 45.463C60.0371 45.6415 59.9802 45.8644 60.0099 46.0844C60.0396 46.3043 60.1535 46.504 60.3273 46.6409C60.5012 46.7779 60.7214 46.8413 60.941 46.8177C61.1607 46.7942 61.3626 46.6855 61.5038 46.5148C62.1616 45.6723 62.9411 43.1333 63.0906 42.633C63.0949 42.6185 63.0989 42.6039 63.1024 42.5891C63.7107 40.0799 63.7825 37.4698 63.3132 34.9307C62.8438 32.3917 61.844 29.9814 60.3796 27.8591C58.9152 25.7367 57.0194 23.9504 54.8176 22.6181C52.6157 21.2857 50.1577 20.4376 47.6056 20.1296C45.0536 19.8217 42.4656 20.0609 40.0123 20.8315C37.559 21.6021 35.2963 22.8866 33.3733 24.6002C31.4503 26.3138 29.9108 28.4175 28.8564 30.7727C27.802 33.1279 27.2566 35.681 27.2562 38.2634C27.2479 41.104 27.9062 43.9066 29.1775 46.4439C29.2475 46.585 29.3551 46.704 29.4884 46.7874C29.6216 46.8708 29.7753 46.9154 29.9323 46.9163ZM57.2668 35.2368L58.4905 33.8779C58.5974 33.7591 58.669 33.6126 58.6969 33.4549C58.7248 33.2973 58.7079 33.1349 58.6483 32.9864L57.9298 31.1992L59.0496 28.9493C60.6998 31.3743 61.6737 34.199 61.8704 37.13L57.4952 35.9032L57.2668 35.2368Z" fill="white"/>
<path d="M54.5526 44.7614C54.6614 44.7859 54.7738 44.7886 54.8837 44.7695C54.9935 44.7503 55.0985 44.7096 55.1926 44.6496C55.2868 44.5896 55.3682 44.5117 55.4323 44.42C55.4965 44.3284 55.542 44.225 55.5664 44.1157L55.9231 42.5174C55.9553 42.3731 55.9495 42.223 55.9065 42.0816C55.8635 41.9402 55.7847 41.8125 55.6778 41.711L52.7024 38.8872C52.5801 38.7711 52.4262 38.694 52.2603 38.666C52.0943 38.6379 51.9239 38.6601 51.7705 38.7297L50.1586 39.4606C50.0262 39.5204 49.9114 39.6135 49.8251 39.7308C49.7388 39.8481 49.684 39.9857 49.6658 40.1304L49.534 41.1733L43.7846 40.4581C43.5702 40.4314 43.3537 40.4877 43.1792 40.6156C43.0047 40.7436 42.8852 40.9335 42.8451 41.1468L42.4369 43.3313C42.4102 43.4744 42.4204 43.6219 42.4665 43.76C42.5127 43.898 42.5932 44.0219 42.7005 44.1198L45.4405 46.6205C45.6071 46.7726 45.827 46.8519 46.0519 46.841C46.2767 46.8302 46.4881 46.73 46.6394 46.5625C46.7908 46.3951 46.8697 46.1741 46.8589 45.9482C46.8481 45.7223 46.7484 45.51 46.5817 45.3579L44.1928 43.1775L44.3665 42.2482L50.1643 42.9696C50.3872 42.9971 50.6119 42.9348 50.7892 42.7963C50.9666 42.6579 51.0822 42.4545 51.1107 42.2307L51.2892 40.8178L51.9495 40.5185L54.1601 42.6169L53.9092 43.742C53.8847 43.8514 53.8819 43.9645 53.901 44.075C53.9201 44.1854 53.9607 44.291 54.0205 44.3857C54.0802 44.4804 54.158 44.5623 54.2493 44.6268C54.3406 44.6912 54.4437 44.737 54.5526 44.7614Z" fill="white"/>
</g>
<defs>
<clipPath id="clip0_1075_1633">
<rect width="55" height="42" fill="white" transform="translate(14 20)"/>
</clipPath>
</defs>
</svg>
