<svg width="195" height="63" viewBox="0 0 195 63" fill="none" xmlns="http://www.w3.org/2000/svg">
<g clip-path="url(#clip0_1051_1983)">
<path d="M27.2489 31.3903V31.3761L18.8821 26.0172L16.7532 33.6205L27.2489 31.3903Z" fill="#D80621"/>
<path d="M16.7532 33.6205L18.8822 26.0172L11.4275 17.938L16.7532 33.6205Z" fill="#BC0221"/>
<path d="M27.2489 23.7949L18.8821 26.0172L27.2489 31.3761V23.7949Z" fill="#BC0221"/>
<path d="M1.03296 20.5549L3.65785 30.0002L9.32766 22.2622L1.03296 20.5549Z" fill="#D80621"/>
<path d="M23.7334 44.2987L26.363 48.3213H27.2488V42.1775L23.7334 44.2987Z" fill="#D80621"/>
<path d="M27.2489 31.3903L16.7532 33.6205L19.9763 38.5513L27.2489 31.4032V31.3903Z" fill="#D80621"/>
<path d="M27.249 31.4032L19.9763 38.5513L23.7336 44.2987L27.249 42.1775V31.4032Z" fill="#AF0026"/>
<path d="M27.267 31.3867L27.2489 31.3905V31.404L27.267 31.3867Z" fill="#FF0000"/>
<path d="M27.2489 31.3761V31.391L27.267 31.3872L27.2489 31.3761Z" fill="#FF0000"/>
<path d="M16.7533 33.6205L11.4275 17.938L9.32788 22.2622L16.7533 33.6205Z" fill="#D80621"/>
<path d="M25.7386 57.4664L25.3916 62.7738H27.249V61.7497V58.4656L25.7386 57.4664Z" fill="#AF0026"/>
<path d="M27.249 51.2214L26.1913 50.5473L25.9045 54.9299L27.249 54.1114V51.2214Z" fill="#AF0026"/>
<path d="M27.2489 54.1115L25.9044 54.9299L25.7385 57.4664L27.2489 58.4656V54.1115Z" fill="#D80621"/>
<path d="M27.249 49.8613V49.6764L26.3631 48.3213H26.3368L26.1913 50.5473L27.249 51.2214V49.8613Z" fill="#D80621"/>
<path d="M16.7533 33.6205L9.32788 22.2622L11.45 33.3901L16.7533 33.6205Z" fill="#BC0221"/>
<path d="M0 32.8931L13.6247 44.7939L5.77587 33.1437L0 32.8931Z" fill="#D80621"/>
<path d="M5.77588 33.1437L13.6247 44.7939L11.4499 33.3901L5.77588 33.1437Z" fill="#BC0221"/>
<path d="M23.7335 44.2987L19.9868 46.5592L26.3367 48.3213H26.363L23.7335 44.2987Z" fill="#BC0221"/>
<path d="M16.7532 33.6205L11.45 33.3901L13.6247 44.7939L16.7532 33.6205Z" fill="#D80621"/>
<path d="M3.65797 30.0002L0 32.893L5.77587 33.1436L3.65797 30.0002Z" fill="#BC0221"/>
<path d="M11.4499 33.3901L9.32777 22.2622L3.65796 30.0002L5.77586 33.1436L11.4499 33.3901Z" fill="#AF0026"/>
<path d="M13.6248 44.7939L12.1624 51.2803L19.987 46.5592L13.6248 44.7939Z" fill="#BC0221"/>
<path d="M12.1624 51.2803L26.3369 48.3213L19.987 46.5592L12.1624 51.2803Z" fill="#D80621"/>
<path d="M16.7532 33.6205L13.6248 44.7939L19.9764 38.5512L16.7532 33.6205Z" fill="#BC0221"/>
<path d="M23.7336 44.2987L19.9763 38.5513L13.6248 44.7939L19.987 46.5592L23.7336 44.2987Z" fill="#D80621"/>
<path d="M15.5225 8.03735L18.8822 26.0172L21.2971 11.2235L15.5225 8.03735Z" fill="#D80621"/>
<path d="M21.297 11.2236L18.8821 26.0172L27.2489 23.7949L21.297 11.2236Z" fill="#AF0026"/>
<path d="M21.2969 11.2235L27.2488 23.7948V0L21.2969 11.2235Z" fill="#D80621"/>
<path d="M26.363 48.3213L27.2489 49.6764V48.3213H26.363Z" fill="#BC0221"/>
<path d="M16.9387 33.7246L16.9368 33.7254L16.9372 33.7267L16.9391 33.7259L16.9387 33.7246Z" fill="black"/>
<path d="M16.9377 33.7244L16.9397 33.7296L16.9416 33.7251L16.9377 33.7244Z" fill="black"/>
<path d="M16.9404 33.7249L16.939 33.7285L16.9535 33.7254L16.9404 33.7249Z" fill="black"/>
<path d="M27.4484 31.3867V31.3871H27.4488L27.4493 31.3876L27.4497 31.3881H27.4502V31.3886H27.4506V31.3891H27.4511V31.3895L27.4515 31.39H27.452L27.4524 31.3905V31.391L27.4533 31.3915L27.4642 31.4021L27.4646 31.4026H27.4651L27.4655 31.4035H27.466V31.404H27.4664V31.3905L27.4484 31.3867Z" fill="black"/>
<path d="M27.4664 31.3761L27.4484 31.3872L27.4664 31.391V31.3761Z" fill="black"/>
<path d="M28.0355 62.3866H27.8234V61.0071H28.0355V62.3866ZM28.0355 59.6276H27.8234V58.2481H28.0355V59.6276ZM28.0355 56.8686H27.8234V55.4891H28.0355V56.8686ZM28.0355 54.1096H27.8234V52.7301H28.0355V54.1096ZM28.0355 51.3506H27.8234V49.9711H28.0355V51.3506ZM28.0355 48.5916H27.8234V47.2122H28.0355V48.5916ZM28.0355 45.8327H27.8234V44.4532H28.0355V45.8327ZM28.0355 43.0737H27.8234V41.6942H28.0355V43.0737ZM28.0355 40.3147H27.8234V38.9352H28.0355V40.3147ZM28.0355 37.5557H27.8234V36.1762H28.0355V37.5557ZM28.0355 34.7967H27.8234V33.4172H28.0355V34.7967ZM28.0355 32.0378H27.8234V30.6583H28.0355V32.0378ZM28.0355 29.2788H27.8234V27.8993H28.0355V29.2788ZM28.0355 26.5198H27.8234V25.1403H28.0355V26.5198ZM28.0355 23.7608H27.8234V22.3813H28.0355V23.7608ZM28.0355 21.0018H27.8234V19.6223H28.0355V21.0018ZM28.0355 18.2428H27.8234V16.8633H28.0355V18.2428ZM28.0355 15.4839H27.8234V14.1044H28.0355V15.4839ZM28.0355 12.7249H27.8234V11.3454H28.0355V12.7249ZM28.0355 9.96589H27.8234V8.5864H28.0355V9.96589ZM28.0355 7.20691H27.8234V5.82741H28.0355V7.20691ZM28.0355 4.44792H27.8234V3.06843H28.0355V4.44792ZM28.0355 1.68894H27.8234V0.309448H28.0355V1.68894Z" fill="black"/>
<path d="M29.8132 62.7701H28.5404V63H29.8132V62.7701Z" fill="#364B5D"/>
<path d="M29.6192 62.9269L29.5344 61.5506L29.7465 61.5354L29.8313 62.9117L29.6192 62.9269ZM29.4495 60.1739L29.3647 58.7976L29.5768 58.7824L29.6616 60.1587L29.4495 60.1739ZM29.2798 57.4209L29.195 56.0446L29.4071 56.0294L29.4919 57.4057L29.2798 57.4209ZM29.1101 54.6683L29.0253 53.2916L29.2374 53.2764L29.3222 54.6527L29.1101 54.6683ZM28.9404 51.9153L28.8556 50.539L29.0677 50.5234L29.1525 51.9001L28.9404 51.9153ZM28.7707 49.1623L28.7283 48.4629L28.9404 48.4473L28.9828 49.1471L28.7707 49.1623Z" fill="#364B5D"/>
<path d="M29.4263 57.4702L28.3243 58.1605L28.4305 58.3595L29.5325 57.6693L29.4263 57.4702Z" fill="#364B5D"/>
<path d="M28.1153 54.2823L28.0225 54.4896L29.1675 55.0919L29.2603 54.8846L28.1153 54.2823Z" fill="#364B5D"/>
<path d="M28.8467 50.4751L27.9398 51.2546L28.0716 51.4347L28.9785 50.6553L28.8467 50.4751Z" fill="#364B5D"/>
<path d="M28.1199 49.3945L27.9659 49.2363L28.6842 48.4169L28.8382 48.5747L28.1199 49.3945Z" fill="black"/>
<path d="M42.8999 51.4771L41.6488 51.2237L41.6874 50.9979L42.939 51.2513L42.8999 51.4771ZM40.3968 50.9713L39.1457 50.7179L39.1847 50.4921L40.4358 50.745L40.3968 50.9713ZM37.8937 50.4655L36.6425 50.2116L36.6815 49.9859L37.9327 50.2392L37.8937 50.4655ZM35.3905 49.9596L34.1394 49.7063L34.1784 49.4805L35.4296 49.7339L35.3905 49.9596ZM32.8874 49.4538L31.6367 49.2005L31.6757 48.9747L32.9264 49.2281L32.8874 49.4538ZM30.3843 48.948L29.1327 48.6946L29.1717 48.4689L30.4229 48.7222L30.3843 48.948Z" fill="#364B5D"/>
<path d="M42.7968 51.4707L42.5529 50.2986L42.7603 50.248L43.0039 51.4206L42.7968 51.4707ZM42.2737 48.9522L41.9945 47.6067L42.2016 47.5561L42.4812 48.9021L42.2737 48.9522ZM41.715 46.2608L41.4358 44.9149L41.6428 44.8647L41.922 46.2107L41.715 46.2608Z" fill="#364B5D"/>
<path d="M42.3089 44.3608L42.1757 44.1819L43.1646 43.3133L43.2978 43.4921L42.3089 44.3608ZM44.2864 42.6235L44.1531 42.4446L45.1421 41.576L45.2753 41.7549L44.2864 42.6235ZM46.2642 40.8863L46.131 40.7079L47.12 39.8392L47.2532 40.0177L46.2642 40.8863ZM48.2421 39.1495L48.1085 38.9706L49.0975 38.102L49.2311 38.2809L48.2421 39.1495ZM50.22 37.4123L50.0864 37.2334L51.0749 36.3648L51.2086 36.5436L50.22 37.4123ZM52.1975 35.675L52.0639 35.4966L53.0528 34.628L53.1865 34.8069L52.1975 35.675ZM54.175 33.9382L54.0414 33.7594L55.0307 32.8907L55.1639 33.0696L54.175 33.9382Z" fill="#364B5D"/>
<path d="M54.5378 32.6774L53.5115 31.8621L53.6362 31.6782L54.6629 32.4935L54.5378 32.6774ZM52.4844 31.0468L51.4576 30.232L51.5828 30.0481L52.6095 30.8629L52.4844 31.0468Z" fill="#364B5D"/>
<path d="M51.671 29.9897L51.4669 29.9253L51.8237 28.6006L52.0274 28.6649L51.671 29.9897ZM52.3842 27.3406L52.1805 27.2767L52.5373 25.9524L52.741 26.0168L52.3842 27.3406ZM53.0978 24.6925L52.8937 24.6285L53.2501 23.3042L53.4541 23.3681L53.0978 24.6925ZM53.811 22.0438L53.6069 21.9799L53.9637 20.6552L54.1673 20.72L53.811 22.0438Z" fill="#364B5D"/>
<path d="M45.7933 22.4669L45.7534 22.2411L47.0041 21.9845L47.0436 22.2107L45.7933 22.4669ZM48.2964 21.9541L48.2566 21.7284L49.5069 21.4718L49.5467 21.6976L48.2964 21.9541ZM50.7996 21.441L50.7597 21.2152L52.0104 20.9591L52.0499 21.1849L50.7996 21.441ZM53.3027 20.9283L53.2628 20.7025L54.1538 20.5186L54.1932 20.7448L53.3027 20.9283Z" fill="#364B5D"/>
<path d="M45.3725 21.7776L44.7785 20.5581L44.9656 20.451L45.5596 21.6705L45.3725 21.7776ZM44.1845 19.3405L43.5906 18.121L43.7777 18.0134L44.3716 19.2334L44.1845 19.3405Z" fill="#364B5D"/>
<path d="M36.2713 26.2324L36.1211 26.0696L37.0226 25.0957L37.1728 25.2589L36.2713 26.2324ZM38.0744 24.285L37.9242 24.1218L38.8258 23.1483L38.9759 23.3111L38.0744 24.285ZM39.8775 22.3376L39.7273 22.1744L40.6289 21.2005L40.779 21.3632L39.8775 22.3376ZM41.6802 20.3898L41.53 20.2265L42.4315 19.2531L42.5817 19.4159L41.6802 20.3898ZM43.4833 18.4419L43.3331 18.2792L43.6067 17.9839L43.7565 18.1467L43.4833 18.4419Z" fill="#364B5D"/>
<path d="M36.3773 25.7661L36.1694 25.7201L36.424 24.3691L36.6319 24.4151L36.3773 25.7661ZM36.889 23.0637L36.6811 23.0177L36.9356 21.6663L37.1435 21.7123L36.889 23.0637ZM37.3981 20.3608L37.1902 20.3148L37.4448 18.9634L37.6526 19.0094L37.3981 20.3608ZM37.9098 17.6584L37.7019 17.6124L37.9564 16.261L38.1647 16.3069L37.9098 17.6584ZM38.4214 14.9555L38.2135 14.9095L38.4681 13.5585L38.6764 13.6045L38.4214 14.9555ZM38.9331 12.2526L38.7252 12.2066L38.9797 10.8552L39.1881 10.9012L38.9331 12.2526ZM39.4447 9.5502L39.2368 9.50421L39.4914 8.15277L39.6997 8.19876L39.4447 9.5502Z" fill="#364B5D"/>
<path d="M33.8988 11.3941L33.8059 11.1877L34.9514 10.5835L35.0439 10.7899L33.8988 11.3941ZM36.1877 10.1862L36.0948 9.9797L37.2403 9.37595L37.3332 9.5824L36.1877 10.1862ZM38.4762 8.97865L38.3832 8.77218L39.5287 8.16797L39.6212 8.37444L38.4762 8.97865Z" fill="#364B5D"/>
<path d="M33.5344 10.9279L32.8929 9.73597L33.0762 9.62008L33.7172 10.812L33.5344 10.9279ZM32.2514 8.54408L31.6099 7.35266L31.7932 7.23679L32.4347 8.42867L32.2514 8.54408ZM30.9689 6.16125L30.3278 4.96983L30.5111 4.85394L31.1517 6.04537L30.9689 6.16125ZM29.6863 3.77794L29.0453 2.58652L29.2281 2.47065L29.8696 3.66206L29.6863 3.77794ZM28.4038 1.3951L27.7623 0.203225L27.9456 0.0873413L28.5867 1.27923L28.4038 1.3951Z" fill="#364B5D"/>
<path d="M28.0614 23.7995L27.8726 23.6951L28.4525 22.4669L28.6413 22.5717L28.0614 23.7995ZM29.2217 21.344L29.0325 21.2391L29.6129 20.0114L29.8021 20.1162L29.2217 21.344ZM30.3821 18.888L30.1933 18.7836L30.7732 17.5559L30.962 17.6603L30.3821 18.888ZM31.542 16.4325L31.3532 16.3277L31.9332 15.0999L32.1224 15.2043L31.542 16.4325ZM32.7028 13.9766L32.5135 13.8722L33.0939 12.644L33.2827 12.7488L32.7028 13.9766ZM33.8627 11.5211L33.6739 11.4162L33.7587 11.2383L33.9475 11.3431L33.8627 11.5211Z" fill="#364B5D"/>
<path d="M36.1694 26.2623L34.9391 25.9114L34.9929 25.6889L36.2233 26.0397L36.1694 26.2623ZM33.7087 25.5601L32.4784 25.2093L32.5322 24.9867L33.7626 25.3376L33.7087 25.5601ZM31.248 24.8584L30.0176 24.5071L30.0715 24.2846L31.3019 24.6359L31.248 24.8584ZM28.7873 24.1563L27.8866 23.8992L27.9405 23.6771L28.8412 23.9337L28.7873 24.1563Z" fill="#364B5D"/>
<path d="M41.4378 44.9241L41.062 43.6062L41.2647 43.5386L41.6406 44.8565L41.4378 44.9241ZM40.6861 42.2883L40.3102 40.9704L40.5134 40.9024L40.8893 42.2203L40.6861 42.2883ZM39.933 39.653L39.5571 38.3352L39.7599 38.2676L40.1358 39.5854L39.933 39.653ZM39.1812 37.0168L38.807 35.6985L39.0102 35.6309L39.3861 36.9488L39.1812 37.0168ZM38.4298 34.3811L38.054 33.0632L38.2567 32.9951L38.6326 34.3135L38.4298 34.3811ZM37.678 31.7453L37.3022 30.427L37.5054 30.3594L37.8813 31.6773L37.678 31.7453ZM36.9267 29.1091L36.5508 27.7912L36.7536 27.7237L37.1295 29.0415L36.9267 29.1091ZM36.1749 26.4734L36.093 26.186L36.2958 26.1179L36.3781 26.4053L36.1749 26.4734Z" fill="#364B5D"/>
<path d="M38.488 33.8665L38.2894 33.787L38.7285 32.4926L38.9275 32.5716L38.488 33.8665ZM39.3666 31.2772L39.1676 31.1977L39.6068 29.9028L39.8057 29.9823L39.3666 31.2772ZM40.2448 28.6874L40.0459 28.6079L40.485 27.3135L40.684 27.393L40.2448 28.6874ZM41.1231 26.0981L40.9245 26.0186L41.3636 24.7237L41.5622 24.8033L41.1231 26.0981ZM42.0017 23.5084L41.8027 23.4293L42.2418 22.1344L42.4408 22.2139L42.0017 23.5084ZM42.8799 20.9191L42.6809 20.8395L43.12 19.5446L43.319 19.6242L42.8799 20.9191ZM43.7581 18.3293L43.5596 18.2502L43.6075 18.1077L43.8065 18.1868L43.7581 18.3293Z" fill="#364B5D"/>
<path d="M38.4757 33.8923L38.3018 33.7612L38.4477 33.5341L38.6216 33.6651L38.4757 33.8923ZM39.348 32.5321L39.174 32.4011L39.9004 31.2685L40.0747 31.3995L39.348 32.5321ZM40.8011 30.267L40.6267 30.1359L41.353 29.0029L41.527 29.134L40.8011 30.267ZM42.2533 28.0014L42.0794 27.8703L42.8061 26.7373L42.9801 26.8688L42.2533 28.0014ZM43.7064 25.7358L43.5325 25.6048L44.2588 24.4722L44.4327 24.6032L43.7064 25.7358ZM45.1595 23.4702L44.9855 23.3392L45.7119 22.2066L45.8858 22.3377L45.1595 23.4702Z" fill="#364B5D"/>
<path d="M51.3604 30.2371L50.5781 29.1491L50.7478 29.0075L51.5302 30.0959L51.3604 30.2371ZM49.7962 28.0607L49.0143 26.9723L49.1815 26.8311L49.9634 27.9191L49.7962 28.0607ZM48.232 25.8839L47.4496 24.7959L47.6172 24.6543L48.3995 25.7427L48.232 25.8839ZM46.6677 23.7075L45.8854 22.6191L46.0525 22.4779L46.8349 23.5659L46.6677 23.7075Z" fill="#364B5D"/>
<path d="M41.7005 44.7668L41.5308 44.6288L42.2834 43.516L42.4531 43.654L41.7005 44.7668ZM43.2053 42.5421L43.0356 42.4042L43.7887 41.2914L43.9584 41.4293L43.2053 42.5421ZM44.7102 40.3165L44.5405 40.1786L45.2927 39.0663L45.4624 39.2042L44.7102 40.3165ZM46.215 38.0914L46.0453 37.9535L46.798 36.8411L46.9677 36.9791L46.215 38.0914ZM47.7203 35.8663L47.5506 35.7283L48.3028 34.6156L48.4725 34.7535L47.7203 35.8663ZM49.2251 33.6412L49.0554 33.5032L49.8081 32.3909L49.9778 32.5288L49.2251 33.6412ZM50.7304 31.4161L50.5607 31.2781L51.3129 30.1658L51.4826 30.3037L50.7304 31.4161Z" fill="#364B5D"/>
<path d="M38.3939 33.9415L38.3837 33.7116L39.6564 33.6472L39.6666 33.8771L38.3939 33.9415ZM40.9365 33.8127L40.9263 33.5828L42.199 33.5184L42.2088 33.7483L40.9365 33.8127ZM43.4795 33.684L43.4697 33.454L44.7425 33.3897L44.7522 33.6196L43.4795 33.684ZM46.0221 33.5552L46.0123 33.3253L47.2851 33.2609L47.2948 33.4908L46.0221 33.5552ZM48.5646 33.4265L48.5549 33.1965L49.8276 33.1322L49.8374 33.3621L48.5646 33.4265ZM51.1077 33.2977L51.0975 33.0678L52.3702 33.003L52.3804 33.2329L51.1077 33.2977ZM53.6507 33.1685L53.6405 32.9386L54.9133 32.8742L54.9234 33.1041L53.6507 33.1685Z" fill="#364B5D"/>
<path d="M41.6055 44.7084L41.3976 44.6624L41.656 43.3114L41.8638 43.3574L41.6055 44.7084ZM42.1222 42.0069L41.9143 41.9609L42.1727 40.6099L42.3806 40.6559L42.1222 42.0069ZM42.6394 39.3054L42.4311 39.2594L42.6895 37.9084L42.8973 37.9544L42.6394 39.3054ZM43.1557 36.6039L42.9478 36.5579L43.2062 35.2069L43.4145 35.2529L43.1557 36.6039ZM43.6729 33.9024L43.465 33.8564L43.723 32.5054L43.9308 32.5514L43.6729 33.9024ZM44.1896 31.2009L43.9818 31.1549L44.2401 29.8039L44.448 29.8499L44.1896 31.2009ZM44.7064 28.4994L44.4981 28.4534L44.7569 27.1029L44.9648 27.1489L44.7064 28.4994ZM45.2231 25.7979L45.0153 25.7519L45.2736 24.4014L45.4815 24.4474L45.2231 25.7979ZM45.7399 23.0964L45.532 23.0504L45.6695 22.3317L45.8774 22.3777L45.7399 23.0964Z" fill="#364B5D"/>
<path d="M41.468 44.9755L41.0438 44.5617L41.1863 44.3911L41.6106 44.8049L41.468 44.9755ZM40.1002 43.637L39.1558 42.7127L39.2984 42.5421L40.2428 43.4664L40.1002 43.637ZM38.211 41.788L37.2666 40.8633L37.4087 40.6927L38.3535 41.6174L38.211 41.788ZM36.3218 39.9386L35.3773 39.0143L35.5199 38.8437L36.4643 39.768L36.3218 39.9386ZM34.4329 38.0896L33.4881 37.1653L33.6307 36.9947L34.5755 37.919L34.4329 38.0896ZM32.5437 36.2406L31.5989 35.3159L31.7414 35.1453L32.6863 36.07L32.5437 36.2406ZM30.6545 34.3912L29.7097 33.4669L29.8522 33.2963L30.7966 34.2206L30.6545 34.3912ZM28.7648 32.5422L27.8204 31.6179L27.963 31.4473L28.9074 32.3716L28.7648 32.5422Z" fill="#364B5D"/>
<path d="M28.5425 31.394L28.4305 31.1986L29.512 30.4716L29.624 30.6665L28.5425 31.394ZM30.7063 29.9396L30.5943 29.7441L31.6757 29.0167L31.7873 29.2121L30.7063 29.9396ZM32.87 28.4851L32.7584 28.2897L33.8394 27.5622L33.9514 27.7577L32.87 28.4851ZM35.0337 27.0307L34.9217 26.8352L36.0032 26.1078L36.1152 26.3032L35.0337 27.0307Z" fill="#364B5D"/>
<path d="M28.7716 48.6859L28.5994 48.5521L29.3406 47.4306L29.5128 47.5644L28.7716 48.6859ZM30.254 46.4429L30.0817 46.3091L30.8225 45.1875L30.9947 45.3213L30.254 46.4429ZM31.7359 44.1998L31.5637 44.066L32.3049 42.9445L32.4771 43.0783L31.7359 44.1998ZM33.2183 41.9567L33.046 41.8229L33.7872 40.7014L33.9599 40.8352L33.2183 41.9567ZM34.7006 39.7137L34.528 39.5799L35.2692 38.4574L35.4418 38.5912L34.7006 39.7137ZM36.183 37.4706L36.0108 37.3368L36.7519 36.2153L36.9242 36.3491L36.183 37.4706ZM37.6654 35.2276L37.4931 35.0938L38.2339 33.9727L38.4061 34.1065L37.6654 35.2276Z" fill="#364B5D"/>
<path d="M42.8681 51.4647L41.7536 50.7988L41.8562 50.5979L42.9708 51.2637L42.8681 51.4647ZM40.6386 50.1312L39.5241 49.4653L39.6268 49.2639L40.7413 49.9298L40.6386 50.1312ZM38.4091 48.7977L37.2946 48.1318L37.3973 47.9304L38.5118 48.5963L38.4091 48.7977ZM36.1801 47.4642L35.0651 46.7983L35.1678 46.5974L36.2827 47.2632L36.1801 47.4642ZM33.9506 46.1307L32.8361 45.4648L32.9387 45.2634L34.0532 45.9292L33.9506 46.1307ZM31.7211 44.7971L30.6066 44.1313L30.7092 43.9299L31.8238 44.5957L31.7211 44.7971ZM29.4916 43.4636L28.3771 42.7978L28.4802 42.5969L29.5943 43.2627L29.4916 43.4636Z" fill="#364B5D"/>
<path d="M27.9557 48.6482L27.9027 48.4257L29.1352 48.0817L29.1882 48.3043L27.9557 48.6482ZM30.4211 47.9585L30.3681 47.7355L31.5984 47.3915L31.6515 47.6145L30.4211 47.9585ZM32.8861 47.2687L32.833 47.0457L34.0659 46.7017L34.119 46.9243L32.8861 47.2687ZM35.3514 46.579L35.2984 46.3564L36.5288 46.0125L36.5818 46.235L35.3514 46.579ZM37.816 45.8892L37.7629 45.6667L38.9958 45.3227L39.0489 45.5453L37.816 45.8892ZM40.2813 45.1995L40.2283 44.9769L41.4587 44.6325L41.5117 44.8555L40.2813 45.1995Z" fill="#364B5D"/>
<path d="M35.9526 26.226L35.743 24.8654L35.9526 24.8277L36.1622 26.1883L35.9526 26.226ZM35.533 23.5047L35.3209 22.1441L35.533 22.1064L35.7426 23.467L35.533 23.5047ZM35.113 20.7834L34.9034 19.4228L35.113 19.3851L35.3226 20.7457L35.113 20.7834ZM34.6943 18.0622L34.4822 16.7015L34.6909 16.6638L34.903 18.024L34.6943 18.0622ZM34.2743 15.3409L34.0647 13.9803L34.2738 13.9425L34.4834 15.3032L34.2743 15.3409ZM33.8547 12.6196L33.6464 11.27L33.8559 11.2323L34.0638 12.5819L33.8547 12.6196Z" fill="#364B5D"/>
<path d="M33.7515 12.2057C34.2387 12.2057 34.6336 11.7777 34.6336 11.2498C34.6336 10.7218 34.2387 10.2938 33.7515 10.2938C33.2644 10.2938 32.8695 10.7218 32.8695 11.2498C32.8695 11.7777 33.2644 12.2057 33.7515 12.2057Z" fill="#364B5D"/>
<path d="M36.1521 26.9567C36.6392 26.9567 37.0341 26.5286 37.0341 26.0007C37.0341 25.4727 36.6392 25.0447 36.1521 25.0447C35.6649 25.0447 35.27 25.4727 35.27 26.0007C35.27 26.5286 35.6649 26.9567 36.1521 26.9567Z" fill="#364B5D"/>
<path d="M28.9943 49.3564C29.4815 49.3564 29.8764 48.9284 29.8764 48.4004C29.8764 47.8724 29.4815 47.4444 28.9943 47.4444C28.5072 47.4444 28.1123 47.8724 28.1123 48.4004C28.1123 48.9284 28.5072 49.3564 28.9943 49.3564Z" fill="#364B5D"/>
<path d="M43.5808 19.0489C43.9637 19.0489 44.2741 18.7125 44.2741 18.2976C44.2741 17.8826 43.9637 17.5462 43.5808 17.5462C43.1979 17.5462 42.8876 17.8826 42.8876 18.2976C42.8876 18.7125 43.1979 19.0489 43.5808 19.0489Z" fill="#364B5D"/>
<path d="M39.611 8.75698C39.865 8.75698 40.0709 8.53382 40.0709 8.25853C40.0709 7.98324 39.865 7.76007 39.611 7.76007C39.357 7.76007 39.1511 7.98324 39.1511 8.25853C39.1511 8.53382 39.357 8.75698 39.611 8.75698Z" fill="#364B5D"/>
<path d="M28.0428 24.4096C28.2968 24.4096 28.5027 24.1865 28.5027 23.9112C28.5027 23.6359 28.2968 23.4127 28.0428 23.4127C27.7888 23.4127 27.5829 23.6359 27.5829 23.9112C27.5829 24.1865 27.7888 24.4096 28.0428 24.4096Z" fill="#364B5D"/>
<path d="M46.0003 23.3511C46.4875 23.3511 46.8824 22.9231 46.8824 22.3951C46.8824 21.8672 46.4875 21.4391 46.0003 21.4391C45.5132 21.4391 45.1183 21.8672 45.1183 22.3951C45.1183 22.9231 45.5132 23.3511 46.0003 23.3511Z" fill="#364B5D"/>
<path d="M38.4706 34.2909C38.7176 34.2909 38.9178 34.0739 38.9178 33.8063C38.9178 33.5386 38.7176 33.3216 38.4706 33.3216C38.2236 33.3216 38.0234 33.5386 38.0234 33.8063C38.0234 34.0739 38.2236 34.2909 38.4706 34.2909Z" fill="#364B5D"/>
<path d="M41.5898 45.2179C41.9586 45.2179 42.2576 44.8938 42.2576 44.4941C42.2576 44.0944 41.9586 43.7703 41.5898 43.7703C41.221 43.7703 40.922 44.0944 40.922 44.4941C40.922 44.8938 41.221 45.2179 41.5898 45.2179Z" fill="#364B5D"/>
<path d="M54.6701 33.581C55.0389 33.581 55.3379 33.2569 55.3379 32.8572C55.3379 32.4575 55.0389 32.1334 54.6701 32.1334C54.3013 32.1334 54.0023 32.4575 54.0023 32.8572C54.0023 33.2569 54.3013 33.581 54.6701 33.581Z" fill="#364B5D"/>
<path d="M51.419 30.6307C51.7878 30.6307 52.0868 30.3067 52.0868 29.9069C52.0868 29.5072 51.7878 29.1832 51.419 29.1832C51.0502 29.1832 50.7512 29.5072 50.7512 29.9069C50.7512 30.3067 51.0502 30.6307 51.419 30.6307Z" fill="#364B5D"/>
<path d="M35.2382 39.3174C35.607 39.3174 35.906 38.9933 35.906 38.5936C35.906 38.1939 35.607 37.8698 35.2382 37.8698C34.8694 37.8698 34.5704 38.1939 34.5704 38.5936C34.5704 38.9933 34.8694 39.3174 35.2382 39.3174Z" fill="#364B5D"/>
<path d="M43.9338 34.0725C44.3026 34.0725 44.6016 33.7485 44.6016 33.3488C44.6016 32.949 44.3026 32.625 43.9338 32.625C43.565 32.625 43.266 32.949 43.266 33.3488C43.266 33.7485 43.565 34.0725 43.9338 34.0725Z" fill="#364B5D"/>
<path d="M35.0871 47.2807C35.3795 47.2807 35.6166 47.0237 35.6166 46.7068C35.6166 46.3899 35.3795 46.1329 35.0871 46.1329C34.7947 46.1329 34.5576 46.3899 34.5576 46.7068C34.5576 47.0237 34.7947 47.2807 35.0871 47.2807Z" fill="#364B5D"/>
<path d="M42.7994 51.6647C43.0707 51.6647 43.2907 51.4263 43.2907 51.1322C43.2907 50.8381 43.0707 50.5997 42.7994 50.5997C42.5281 50.5997 42.3081 50.8381 42.3081 51.1322C42.3081 51.4263 42.5281 51.6647 42.7994 51.6647Z" fill="#364B5D"/>
<path d="M53.9141 21.1177C54.1681 21.1177 54.374 20.8945 54.374 20.6192C54.374 20.344 54.1681 20.1208 53.9141 20.1208C53.6601 20.1208 53.4542 20.344 53.4542 20.6192C53.4542 20.8945 53.6601 21.1177 53.9141 21.1177Z" fill="#364B5D"/>
<path d="M63.8613 13.5089H76.9625C86.3972 13.5089 92.865 18.7758 92.865 26.8656C92.865 34.9554 86.3972 40.2228 76.9625 40.2228H63.8613V13.5089ZM76.6316 35.1467C82.3591 35.1467 86.1074 31.9789 86.1074 26.8652C86.1074 21.7514 82.3591 18.585 76.6316 18.585H70.5358V35.1467H76.6316Z" fill="#364B5D"/>
<path d="M103.742 18.5468H94.5145V13.5089H119.646V18.5468H110.417V40.2228H103.742V18.5468Z" fill="#364B5D"/>
<path d="M121.17 37.9333L122.488 35.796C124.219 37.0555 127.144 38.0492 130.193 38.0492C134.313 38.0492 136.002 36.7511 136.002 34.7669C136.002 29.5386 121.953 33.6605 121.953 25.7225C121.953 22.4402 125.002 19.998 130.524 19.998C133.324 19.998 136.374 20.7232 138.186 21.8682L136.909 24.0436C134.96 22.864 132.755 22.2709 130.524 22.3257C126.609 22.3257 124.881 23.7383 124.881 25.6462C124.881 31.0653 138.929 26.9797 138.929 34.6906C138.929 38.1637 135.634 40.415 129.989 40.415C126.403 40.4136 122.942 39.345 121.17 37.9333Z" fill="#364B5D"/>
<path d="M152.647 30.1478L147.538 34.4983V40.2227H144.613V11.9064H147.538V31.1002L160.475 20.1475H164.099L154.83 28.3527L164.965 40.2209H161.38L152.647 30.1478Z" fill="#364B5D"/>
<path d="M168.674 13.8147C168.674 12.7837 169.621 11.9064 170.816 11.9064C172.011 11.9064 172.958 12.7456 172.958 13.7765C172.958 14.8828 172.052 15.7607 170.816 15.7607C169.621 15.7607 168.674 14.8829 168.674 13.8147ZM169.333 20.1493H172.26V40.2227H169.333V20.1493Z" fill="#364B5D"/>
<path d="M180.702 11.9064H183.63V40.2227H180.702V11.9064Z" fill="#364B5D"/>
<path d="M192.075 11.9064H195V40.2227H192.075V11.9064Z" fill="#364B5D"/>
<path d="M63.5037 47.3451H65.8553C67.703 47.3451 68.9478 48.6032 68.9478 50.4025C68.9478 52.2018 67.703 53.4599 65.8553 53.4599H63.5045L63.5037 47.3451ZM65.8214 52.9008C67.3555 52.9008 68.3449 51.8703 68.3449 50.4025C68.3449 48.9347 67.3555 47.9042 65.8214 47.9042H64.1159V52.9008H65.8214Z" fill="#808080"/>
<path d="M70.8383 47.415C70.8422 47.2957 70.8896 47.1828 70.9699 47.1011C71.0502 47.0194 71.157 46.9754 71.2672 46.9786C71.3213 46.9761 71.3753 46.9852 71.4261 47.0054C71.4769 47.0256 71.5236 47.0564 71.5634 47.0961C71.6032 47.1358 71.6355 47.1836 71.6582 47.2369C71.681 47.2901 71.6939 47.3476 71.6961 47.4062C71.6924 47.5261 71.646 47.6397 71.5668 47.7235C71.4876 47.8072 71.3817 47.8546 71.271 47.8557C71.1604 47.8569 71.0536 47.8116 70.973 47.7295C70.8924 47.6474 70.8441 47.5347 70.8383 47.415ZM70.9706 48.8653H71.5561V53.4599H70.9706V48.8653Z" fill="#808080"/>
<path d="M77.9815 48.8652V52.9007C77.9815 54.4821 77.2475 55.1999 75.8126 55.1999C75.0828 55.232 74.3662 54.9809 73.7919 54.4917L74.0889 54.0204C74.5715 54.4425 75.1766 54.6654 75.7965 54.6495C76.8932 54.6495 77.3964 54.1165 77.3964 52.9807V52.3958C77.2056 52.6854 76.9509 52.9186 76.6556 53.0742C76.3603 53.2298 76.0337 53.3028 75.7057 53.2865C75.4259 53.304 75.1458 53.2593 74.8824 53.1552C74.6191 53.0512 74.3782 52.8899 74.1744 52.6814C73.9706 52.4728 73.8082 52.2214 73.6973 51.9424C73.5863 51.6635 73.5291 51.3629 73.5291 51.0591C73.5291 50.7553 73.5863 50.4547 73.6973 50.1758C73.8082 49.8968 73.9706 49.6454 74.1744 49.4368C74.3782 49.2283 74.6191 49.067 74.8824 48.963C75.1458 48.8589 75.4259 48.8142 75.7057 48.8317C76.0399 48.8142 76.3727 48.8893 76.6728 49.0497C76.9729 49.2101 77.2304 49.4506 77.421 49.7486V48.8666L77.9815 48.8652ZM77.4125 51.049C77.4311 50.6921 77.3505 50.3374 77.1811 50.0307C77.0117 49.724 76.7614 49.4795 76.4624 49.3287C76.1634 49.1778 75.8295 49.1277 75.5039 49.1847C75.1784 49.2417 74.8761 49.4033 74.6362 49.6485C74.3962 49.8937 74.2296 50.2113 74.158 50.5602C74.0864 50.9091 74.1129 51.2733 74.2343 51.6057C74.3556 51.938 74.5662 52.2233 74.8387 52.4245C75.1113 52.6258 75.4332 52.7339 75.763 52.7347C75.9757 52.7519 76.1894 52.7209 76.3905 52.6437C76.5915 52.5664 76.7754 52.4446 76.9306 52.286C77.0858 52.1274 77.2089 51.9355 77.2918 51.7225C77.3748 51.5095 77.4159 51.2801 77.4125 51.049Z" fill="#808080"/>
<path d="M80.2683 47.4149C80.2723 47.2957 80.3195 47.183 80.3998 47.1013C80.48 47.0195 80.5868 46.9755 80.6968 46.9786C80.7509 46.976 80.8049 46.9851 80.8558 47.0052C80.9066 47.0254 80.9533 47.0562 80.9932 47.0959C81.033 47.1356 81.0652 47.1835 81.088 47.2367C81.1107 47.29 81.1236 47.3476 81.1257 47.4062C81.1234 47.5271 81.0778 47.6422 80.9985 47.7272C80.9192 47.8122 80.8125 47.8603 80.7009 47.8615C80.5894 47.8626 80.4819 47.8166 80.4011 47.7333C80.3203 47.6499 80.2727 47.5357 80.2683 47.4149ZM80.4003 48.8652H80.9858V53.4599H80.4003V48.8652Z" fill="#808080"/>
<path d="M85.6797 53.1803C85.4184 53.4002 85.0944 53.5141 84.7637 53.5022C84.5952 53.5246 84.4242 53.5059 84.2633 53.4472C84.1023 53.3886 83.9556 53.2917 83.8337 53.1635C83.7119 53.0353 83.6182 52.8791 83.5594 52.7065C83.5006 52.5339 83.4782 52.3492 83.4939 52.166V49.3881H82.7184V48.8639H83.4939V47.861H84.0794V48.8653H85.3989V49.3895H84.0794V52.1324C84.0657 52.2439 84.0754 52.3572 84.1079 52.464C84.1404 52.5708 84.1948 52.6683 84.267 52.749C84.3393 52.8297 84.4274 52.8916 84.5249 52.9301C84.6224 52.9686 84.7267 52.9826 84.8299 52.9711C85.0635 52.9779 85.2915 52.8941 85.4731 52.7348L85.6797 53.1803Z" fill="#808080"/>
<path d="M90.7942 50.6122V53.4599H90.2333V52.7439C90.0684 53.0021 89.8434 53.2083 89.5812 53.3417C89.319 53.4752 89.0289 53.531 88.7403 53.5036C87.759 53.5036 87.157 52.9619 87.157 52.1673C87.157 51.4596 87.5859 50.8655 88.8311 50.8655H90.2079V50.586C90.2079 49.7996 89.7874 49.372 88.9775 49.372C88.453 49.3639 87.9426 49.5554 87.535 49.9132L87.2707 49.4506C87.7767 49.0322 88.3993 48.8133 89.0356 48.8303C90.1591 48.8303 90.7942 49.4244 90.7942 50.6122ZM90.2083 52.0795V51.3286H88.8477C88.0063 51.3286 87.734 51.6781 87.734 52.1498C87.734 52.6828 88.1383 53.0148 88.8311 53.0148C89.1221 53.0352 89.4117 52.9559 89.6588 52.7881C89.9059 52.6202 90.0984 52.3723 90.2083 52.0795Z" fill="#808080"/>
<path d="M93.1628 46.9786H93.7483V53.4599H93.1628V46.9786Z" fill="#808080"/>
<path d="M100.34 47.9042H98.3112V47.3451H102.978V47.9042H100.949V53.4599H100.339L100.34 47.9042Z" fill="#808080"/>
<path d="M106.676 48.8303V49.4327C106.626 49.4327 106.577 49.4244 106.535 49.4244C105.628 49.4244 105.076 50.0355 105.076 51.1189V53.4599H104.49V48.8652H105.051V49.7647C105.205 49.4511 105.442 49.1946 105.732 49.0281C106.021 48.8616 106.35 48.7927 106.676 48.8303Z" fill="#808080"/>
<path d="M111.774 50.6122V53.4599H111.213V52.7439C111.049 53.002 110.824 53.2082 110.562 53.3416C110.299 53.475 110.009 53.5309 109.721 53.5036C108.739 53.5036 108.137 52.9619 108.137 52.1673C108.137 51.4596 108.566 50.8655 109.811 50.8655H111.189V50.586C111.189 49.7996 110.768 49.372 109.958 49.372C109.434 49.3639 108.924 49.5554 108.516 49.9132L108.252 49.4506C108.758 49.0322 109.38 48.8133 110.017 48.8303C111.139 48.8303 111.774 49.4244 111.774 50.6122ZM111.189 52.0795V51.3286H109.828C108.986 51.3286 108.715 51.6781 108.715 52.1498C108.715 52.6828 109.119 53.0148 109.811 53.0148C110.102 53.0354 110.392 52.9561 110.639 52.7883C110.887 52.6204 111.079 52.3724 111.189 52.0795Z" fill="#808080"/>
<path d="M118.135 50.7957V53.4599H117.549V50.8568C117.549 49.8875 117.071 49.3895 116.246 49.3895C116.041 49.3708 115.835 49.401 115.642 49.478C115.449 49.555 115.274 49.6769 115.129 49.8351C114.985 49.9934 114.874 50.1841 114.805 50.3938C114.735 50.6035 114.709 50.8272 114.728 51.049V53.4599H114.143V48.8653H114.704V49.7128C114.883 49.4214 115.13 49.1864 115.419 49.0315C115.709 48.8765 116.031 48.8072 116.353 48.8304C117.409 48.8304 118.135 49.4764 118.135 50.7957Z" fill="#808080"/>
<path d="M119.902 52.9361L120.166 52.4464C120.618 52.7871 121.157 52.9672 121.708 52.9619C122.533 52.9619 122.871 52.6653 122.871 52.2105C122.871 51.015 120.059 51.9576 120.059 50.1413C120.059 49.3899 120.669 48.8308 121.774 48.8308C122.312 48.8212 122.842 48.9691 123.308 49.2589L123.054 49.7569C122.674 49.4896 122.228 49.3525 121.775 49.3632C120.992 49.3632 120.646 49.6851 120.646 50.1233C120.646 51.3649 123.458 50.4291 123.458 52.1926C123.458 52.9881 122.798 53.5031 121.668 53.5031C121.039 53.5237 120.42 53.325 119.902 52.9361Z" fill="#808080"/>
<path d="M125.982 48.3236V48.8653H127.318V49.3895H125.998V53.4599H125.413V49.3895H124.637V48.8653H125.413V48.2978C125.401 48.1104 125.427 47.9223 125.489 47.7469C125.551 47.5716 125.649 47.4132 125.774 47.2832C125.899 47.1532 126.049 47.0546 126.213 46.9944C126.377 46.9343 126.552 46.9142 126.724 46.9354C127.034 46.9247 127.339 47.0259 127.59 47.2232L127.392 47.6863C127.208 47.5325 126.981 47.4524 126.748 47.4596C126.642 47.447 126.535 47.4609 126.434 47.5004C126.334 47.5399 126.243 47.6038 126.169 47.6873C126.095 47.7708 126.04 47.8715 126.007 47.9818C125.975 48.0921 125.966 48.2091 125.982 48.3236Z" fill="#808080"/>
<path d="M128.375 51.1626C128.365 50.6879 128.487 50.2209 128.724 49.8213C128.96 49.4216 129.301 49.1074 129.703 48.9186C130.105 48.7297 130.55 48.6749 130.981 48.7611C131.411 48.8472 131.809 49.0704 132.122 49.4023C132.436 49.7342 132.651 50.1596 132.74 50.6245C132.829 51.0893 132.789 51.5725 132.624 52.0124C132.459 52.4523 132.177 52.8291 131.814 53.0947C131.451 53.3602 131.023 53.5026 130.585 53.5036C130.295 53.5187 130.006 53.4689 129.735 53.3573C129.464 53.2457 129.217 53.0747 129.009 52.855C128.802 52.6354 128.638 52.3717 128.529 52.0805C128.42 51.7893 128.367 51.4768 128.375 51.1626ZM132.193 51.1626C132.185 50.8188 132.084 50.4852 131.902 50.2035C131.72 49.9219 131.465 49.7048 131.169 49.5793C130.874 49.4539 130.551 49.4257 130.241 49.4984C129.931 49.571 129.647 49.7412 129.426 49.9877C129.205 50.2342 129.055 50.546 128.997 50.884C128.938 51.222 128.973 51.5712 129.097 51.8879C129.221 52.2045 129.428 52.4746 129.693 52.6642C129.957 52.8538 130.268 52.9544 130.585 52.9536C130.802 52.9609 131.018 52.9191 131.219 52.831C131.42 52.7429 131.602 52.6104 131.753 52.442C131.904 52.2735 132.021 52.0727 132.097 51.8525C132.173 51.6322 132.206 51.3973 132.193 51.1626Z" fill="#808080"/>
<path d="M136.946 48.8303V49.4327C136.896 49.4327 136.847 49.4244 136.805 49.4244C135.898 49.4244 135.346 50.0356 135.346 51.1189V53.4599H134.76V48.8653H135.321V49.7647C135.475 49.4512 135.712 49.1947 136.001 49.0282C136.291 48.8617 136.62 48.7928 136.946 48.8303Z" fill="#808080"/>
<path d="M145.937 50.7956V53.4599H145.351V50.8568C145.351 49.8875 144.889 49.3895 144.106 49.3895C143.215 49.3895 142.655 50.0011 142.655 51.049V53.4599H142.069V50.8568C142.069 49.8875 141.607 49.3895 140.816 49.3895C139.933 49.3895 139.364 50.0011 139.364 51.049V53.4599H138.778V48.8653H139.337V49.7035C139.507 49.4179 139.744 49.1864 140.024 49.0328C140.303 48.8793 140.616 48.8092 140.929 48.8299C141.247 48.8018 141.564 48.8796 141.84 49.0529C142.116 49.2261 142.336 49.4865 142.472 49.7992C142.651 49.4858 142.905 49.2305 143.207 49.06C143.508 48.8895 143.847 48.81 144.187 48.8299C145.244 48.8303 145.937 49.4764 145.937 50.7956Z" fill="#808080"/>
<path d="M151.581 50.6122V53.4599H151.02V52.7439C150.856 53.002 150.631 53.2082 150.369 53.3416C150.106 53.475 149.816 53.5309 149.528 53.5036C148.546 53.5036 147.944 52.9619 147.944 52.1673C147.944 51.4596 148.373 50.8655 149.619 50.8655H150.996V50.586C150.996 49.7996 150.575 49.372 149.765 49.372C149.241 49.3641 148.731 49.5556 148.323 49.9132L148.059 49.4506C148.565 49.0322 149.187 48.8133 149.824 48.8303C150.947 48.8303 151.581 49.4244 151.581 50.6122ZM150.996 52.0795V51.3286H149.635C148.793 51.3286 148.522 51.6781 148.522 52.1498C148.522 52.6828 148.926 53.0148 149.619 53.0148C149.91 53.0353 150.199 52.956 150.447 52.7881C150.694 52.6202 150.886 52.3723 150.996 52.0795Z" fill="#808080"/>
<path d="M156.235 53.1803C155.973 53.4002 155.65 53.5141 155.319 53.5022C155.151 53.5247 154.979 53.506 154.818 53.4474C154.658 53.3888 154.511 53.2919 154.389 53.1637C154.267 53.0355 154.173 52.8793 154.115 52.7066C154.056 52.534 154.033 52.3492 154.049 52.166V49.3881H153.274V48.8639H154.049V47.861H154.635V48.8653H155.954V49.3895H154.635V52.1324C154.621 52.2438 154.631 52.3571 154.663 52.4639C154.696 52.5707 154.75 52.6681 154.822 52.7488C154.894 52.8295 154.983 52.8914 155.08 52.9299C155.177 52.9684 155.282 52.9825 155.385 52.9711C155.618 52.9779 155.847 52.8941 156.028 52.7348L156.235 53.1803Z" fill="#808080"/>
<path d="M157.943 47.4149C157.947 47.2957 157.994 47.183 158.074 47.1013C158.155 47.0195 158.261 46.9755 158.371 46.9786C158.426 46.976 158.48 46.9851 158.53 47.0052C158.581 47.0254 158.628 47.0562 158.668 47.0959C158.708 47.1356 158.74 47.1835 158.763 47.2367C158.785 47.29 158.798 47.3476 158.8 47.4062C158.798 47.5271 158.752 47.6422 158.673 47.7272C158.594 47.8122 158.487 47.8603 158.376 47.8615C158.264 47.8626 158.157 47.8166 158.076 47.7333C157.995 47.6499 157.947 47.5357 157.943 47.4149ZM158.075 48.8652H158.66V53.4599H158.075V48.8652Z" fill="#808080"/>
<path d="M160.635 51.1626C160.626 50.6879 160.747 50.2209 160.984 49.8213C161.22 49.4216 161.561 49.1074 161.963 48.9186C162.365 48.7297 162.81 48.6749 163.241 48.7611C163.672 48.8472 164.069 49.0704 164.382 49.4023C164.696 49.7342 164.911 50.1596 165 50.6245C165.09 51.0893 165.049 51.5725 164.885 52.0124C164.72 52.4523 164.438 52.8291 164.074 53.0947C163.711 53.3602 163.283 53.5026 162.845 53.5036C162.556 53.5187 162.266 53.4689 161.995 53.3573C161.724 53.2457 161.477 53.0747 161.27 52.855C161.062 52.6354 160.899 52.3717 160.79 52.0805C160.68 51.7893 160.628 51.4768 160.635 51.1626ZM164.453 51.1626C164.445 50.8188 164.344 50.4852 164.162 50.2035C163.98 49.9219 163.725 49.7048 163.43 49.5793C163.134 49.4539 162.811 49.4257 162.501 49.4984C162.191 49.571 161.907 49.7412 161.686 49.9877C161.465 50.2342 161.316 50.546 161.257 50.884C161.199 51.222 161.233 51.5712 161.357 51.8879C161.481 52.2045 161.688 52.4746 161.953 52.6642C162.218 52.8538 162.528 52.9544 162.845 52.9536C163.062 52.9609 163.278 52.9191 163.479 52.831C163.68 52.7429 163.862 52.6104 164.013 52.442C164.164 52.2735 164.282 52.0727 164.357 51.8525C164.433 51.6322 164.466 51.3973 164.453 51.1626Z" fill="#808080"/>
<path d="M171.01 50.7957V53.4599H170.425V50.8568C170.425 49.8875 169.946 49.3895 169.121 49.3895C168.917 49.3708 168.71 49.401 168.518 49.478C168.325 49.555 168.15 49.6769 168.005 49.8351C167.86 49.9934 167.749 50.1841 167.68 50.3938C167.611 50.6035 167.585 50.8272 167.604 51.049V53.4599H167.018V48.8653H167.579V49.7128C167.758 49.4214 168.005 49.1864 168.295 49.0315C168.584 48.8765 168.906 48.8072 169.229 48.8304C170.285 48.8304 171.01 49.4764 171.01 50.7957Z" fill="#808080"/>
<path d="M175.888 52.7173L176.126 52.2197C176.657 52.7094 177.334 52.9732 178.031 52.9619C179.112 52.9619 179.582 52.4814 179.582 51.879C179.582 50.2015 176.028 51.2325 176.028 48.9701C176.028 48.0702 176.687 47.2927 178.155 47.2927C178.787 47.2848 179.408 47.4727 179.945 47.8343L179.739 48.3498C179.265 48.0252 178.716 47.8501 178.155 47.844C177.1 47.844 176.628 48.3415 176.628 48.9536C176.628 50.6306 180.183 49.6176 180.183 51.845C180.183 52.7449 179.504 53.5137 178.03 53.5137C177.25 53.5429 176.487 53.2594 175.888 52.7173Z" fill="#808080"/>
<path d="M183.774 51.1538L182.751 52.1498V53.4599H182.165V46.9786H182.751V51.3723L185.341 48.8653H186.066L184.211 50.7432L186.239 53.4599H185.522L183.774 51.1538Z" fill="#808080"/>
<path d="M187.703 47.4149C187.707 47.2957 187.754 47.1829 187.834 47.1012C187.915 47.0195 188.022 46.9755 188.132 46.9786C188.186 46.976 188.24 46.9851 188.291 47.0052C188.341 47.0254 188.388 47.0562 188.428 47.0959C188.468 47.1356 188.5 47.1835 188.523 47.2367C188.546 47.29 188.558 47.3476 188.561 47.4062C188.557 47.5261 188.511 47.6397 188.431 47.7234C188.352 47.8072 188.246 47.8546 188.136 47.8557C188.025 47.8568 187.918 47.8116 187.838 47.7295C187.757 47.6474 187.709 47.5347 187.703 47.4149ZM187.835 48.8652H188.421V53.4599H187.835V48.8652Z" fill="#808080"/>
<path d="M190.828 46.9786H191.413V53.4599H190.828V46.9786Z" fill="#808080"/>
<path d="M193.823 46.9786H194.409V53.4599H193.823V46.9786Z" fill="#808080"/>
</g>
<defs>
<clipPath id="clip0_1051_1983">
<rect width="195" height="63" fill="white"/>
</clipPath>
</defs>
</svg>
