<svg width="158" height="48" viewBox="0 0 158 48" fill="none" xmlns="http://www.w3.org/2000/svg">
<g clip-path="url(#clip0_1_954)">
<path d="M22.0989 23.778V23.7679L15.3132 19.7686L13.5868 25.4408L22.0989 23.778Z" fill="#D80621"/>
<path d="M13.5868 25.4407L15.3132 19.7684L9.26697 13.7402L13.5868 25.4407Z" fill="#BC0221"/>
<path d="M22.0989 18.1108L15.3132 19.7685L22.0989 23.7678V18.1108Z" fill="#BC0221"/>
<path d="M0.838974 15.6929L2.96574 22.7406L7.56352 16.9666L0.838974 15.6929Z" fill="#D80621"/>
<path d="M19.248 33.4087L21.3798 36.4088H22.0989V31.8247L19.248 33.4087Z" fill="#D80621"/>
<path d="M22.0989 23.7778L13.5868 25.4406L16.2006 29.1196L22.0989 23.788V23.7778Z" fill="#D80621"/>
<path d="M22.0989 23.7881L16.2006 29.1196L19.248 33.4088L22.0989 31.8248V23.7881Z" fill="#AF0026"/>
<path d="M22.1117 23.7754L22.0989 23.7779V23.7881L22.1117 23.7754Z" fill="#FF0000"/>
<path d="M22.0989 23.7681V23.779L22.1124 23.7762L22.0989 23.7681Z" fill="#FF0000"/>
<path d="M13.5868 25.4407L9.26697 13.7402L7.56352 16.9666L13.5868 25.4407Z" fill="#D80621"/>
<path d="M20.8749 43.2305L20.5918 47.1916H22.0989V46.4263V43.978L20.8749 43.2305Z" fill="#AF0026"/>
<path d="M22.0989 38.5727L21.2421 38.0693L21.0075 41.3389L22.0989 40.7288V38.5727Z" fill="#AF0026"/>
<path d="M22.0989 40.7285L21.0075 41.3387L20.8749 43.2303L22.0989 43.9778V40.7285Z" fill="#D80621"/>
<path d="M22.0989 37.5584V37.4185L21.3798 36.4092H21.3594L21.2421 38.0694L22.0989 38.5728V37.5584Z" fill="#D80621"/>
<path d="M13.5868 25.4408L7.56352 16.9668L9.28482 25.2705L13.5868 25.4408Z" fill="#BC0221"/>
<path d="M0 24.8994L11.0495 33.7777L4.68448 25.085L0 24.8994Z" fill="#D80621"/>
<path d="M4.68449 25.085L11.0495 33.7776L9.28482 25.2706L4.68449 25.085Z" fill="#BC0221"/>
<path d="M19.248 33.4087L16.2083 35.0943L21.3594 36.4088H21.3798L19.248 33.4087Z" fill="#BC0221"/>
<path d="M13.5868 25.4409L9.28482 25.2705L11.0495 33.7776L13.5868 25.4409Z" fill="#D80621"/>
<path d="M2.96574 22.7407L0 24.8993L4.68448 25.0849L2.96574 22.7407Z" fill="#BC0221"/>
<path d="M9.28482 25.2705L7.56352 16.9668L2.96574 22.7407L4.68449 25.0849L9.28482 25.2705Z" fill="#AF0026"/>
<path d="M11.0495 33.7773L9.86369 38.6157L16.2083 35.0943L11.0495 33.7773Z" fill="#BC0221"/>
<path d="M9.86369 38.616L21.3594 36.4092L16.2083 35.0947L9.86369 38.616Z" fill="#D80621"/>
<path d="M13.5868 25.4409L11.0495 33.7777L16.2006 29.1199L13.5868 25.4409Z" fill="#BC0221"/>
<path d="M19.248 33.4088L16.2006 29.1196L11.0495 33.7774L16.2083 35.0944L19.248 33.4088Z" fill="#D80621"/>
<path d="M12.5897 6.35449L15.3132 19.7685L17.2716 8.7317L12.5897 6.35449Z" fill="#D80621"/>
<path d="M17.2716 8.73193L15.3132 19.7688L22.0989 18.1111L17.2716 8.73193Z" fill="#AF0026"/>
<path d="M17.2716 8.73171L22.0989 18.1109V0.359375L17.2716 8.73171Z" fill="#D80621"/>
<path d="M21.3798 36.4092L22.0989 37.4185V36.4092H21.3798Z" fill="#BC0221"/>
<path d="M13.7372 25.5195V25.5234L13.7411 25.5195H13.7372Z" fill="white"/>
<path d="M13.7401 25.5195L13.7372 25.5224L13.7486 25.5195H13.7401Z" fill="white"/>
<path d="M22.2596 23.7754H22.2621V23.7779H22.2647L22.2723 23.7856H22.2749V23.7881V23.7779L22.2596 23.7754Z" fill="white"/>
<path d="M22.2757 23.7681L22.2596 23.7762L22.2757 23.779V23.7681Z" fill="white"/>
<path d="M22.7365 46.8941H22.5656V45.8771H22.7365V46.8941ZM22.7365 44.8347H22.5656V43.805H22.7365V44.8347ZM22.7365 42.7778H22.5656V41.7481H22.7365V42.7778ZM22.7365 40.7184H22.5656V39.6887H22.7365V40.7184ZM22.7365 38.6616H22.5656V37.6395H22.7365V38.6616ZM22.7365 36.6022H22.5656V35.5801H22.7365V36.6022ZM22.7365 34.5428H22.5656V33.5258H22.7365V34.5428ZM22.7365 32.4859H22.5656V31.4562H22.7365V32.4859ZM22.7365 30.4265H22.5656V29.4096H22.7365V30.4265ZM22.7365 28.3697H22.5656V27.3527H22.7365V28.3697ZM22.7365 26.3103H22.5656V25.2933H22.7365V26.3103ZM22.7365 24.2534H22.5656V23.2365H22.7365V24.2534ZM22.7365 22.194H22.5656V21.1771H22.7365V22.194ZM22.7365 20.1346H22.5656V19.1177H22.7365V20.1346ZM22.7365 18.0778H22.5656V17.0608H22.7365V18.0778ZM22.7365 16.0184H22.5656V15.0014H22.7365V16.0184ZM22.7365 13.9615H22.5656V12.9446H22.7365V13.9615ZM22.7365 11.9021H22.5656V10.8852H22.7365V11.9021ZM22.7365 9.84529H22.5656V8.82322H22.7365V9.84529ZM22.7365 7.78589H22.5656V6.76382H22.7365V7.78589ZM22.7365 5.72904H22.5656V4.70697H22.7365V5.72904ZM22.7365 3.66964H22.5656V2.6552H22.7365V3.66964ZM22.7365 1.61025H22.5656V0.593262H22.7365V1.61025Z" fill="white"/>
<path d="M24.1798 47.189H23.147V47.3593H24.1798V47.189Z" fill="white"/>
<path d="M24.0217 47.3034L23.9528 46.2864L24.1237 46.2737L24.1925 47.2907L24.0217 47.3034ZM23.884 45.2516L23.8151 44.2346L23.9885 44.2219L24.0548 45.2389L23.884 45.2516ZM23.7488 43.1973L23.68 42.1803H23.8508L23.9197 43.1973H23.7488ZM23.6111 41.143L23.5423 40.126H23.7131L23.782 41.143H23.6111ZM23.4734 39.0887L23.4046 38.0717H23.5754L23.6443 39.0887H23.4734ZM23.3357 37.0369L23.3026 36.5132H23.4734L23.5066 37.0344L23.3357 37.0369Z" fill="white"/>
<path d="M23.8646 43.2378L22.9703 43.7529L23.0558 43.9004L23.95 43.3853L23.8646 43.2378Z" fill="white"/>
<path d="M22.8016 40.8572L22.7259 41.0127L23.655 41.4623L23.7308 41.3068L22.8016 40.8572Z" fill="white"/>
<path d="M23.3952 38.0118L22.66 38.5933L22.7662 38.7267L23.5014 38.1453L23.3952 38.0118Z" fill="white"/>
<path d="M22.8053 37.2097L22.6804 37.0902L23.2618 36.48L23.3893 36.5969L22.8053 37.2097Z" fill="white"/>
<path d="M34.7932 38.7584L33.7732 38.5677L33.8038 38.3999L34.8238 38.588L34.7932 38.7584ZM32.7531 38.3796L31.7331 38.1914L31.7637 38.0211L32.7837 38.2118L32.7531 38.3796ZM30.7131 38.0007L29.6931 37.8126L29.7262 37.6448L30.7462 37.8329L30.7131 38.0007ZM28.673 37.6219L27.653 37.4338L27.6861 37.266L28.7062 37.4541L28.673 37.6219ZM26.633 37.2456L25.6129 37.0549L25.6435 36.8871L26.6636 37.0778L26.633 37.2456ZM24.5929 36.8668L23.5729 36.6786L23.6035 36.5083L24.6235 36.699L24.5929 36.8668Z" fill="white"/>
<path d="M34.709 38.7584L34.5101 37.8838L34.6784 37.8456L34.8774 38.7202L34.709 38.7584ZM34.2857 36.8795L34.0588 35.8625L34.2271 35.8244L34.4515 36.8413L34.2857 36.8795ZM33.8318 34.8709L33.6049 33.854L33.7732 33.8184L34.0001 34.8201L33.8318 34.8709Z" fill="white"/>
<path d="M34.3138 33.4519L34.2067 33.3197L35.0074 32.6713L35.1171 32.8061L34.3138 33.4519ZM35.9178 32.1578L35.8107 32.023L36.6114 31.3747L36.7211 31.5094L35.9178 32.1578ZM37.5218 30.8611L37.4147 30.7289L38.2154 30.0806L38.3251 30.2128L37.5218 30.8611ZM39.1258 29.5644L39.0187 29.4322L39.8194 28.7839L39.929 28.9187L39.1258 29.5644ZM40.7298 28.2703L40.6227 28.1356L41.4234 27.4873L41.533 27.622L40.7298 28.2703ZM42.3338 26.9737L42.2267 26.8415L43.0274 26.1931L43.137 26.3253L42.3338 26.9737ZM43.9378 25.677L43.8307 25.5448L44.6314 24.8965L44.741 25.0287L43.9378 25.677Z" fill="white"/>
<path d="M44.231 24.7367L43.3971 24.1291L43.4991 23.9918L44.333 24.5994L44.231 24.7367ZM42.5658 23.5214L41.7319 22.9138L41.834 22.7739L42.6678 23.3816L42.5658 23.5214Z" fill="white"/>
<path d="M41.9054 22.7407L41.7396 22.6924L42.0252 21.6957L42.191 21.744L41.9054 22.7407ZM42.4842 20.7626L42.3185 20.7169L42.6092 19.7278L42.7724 19.7762L42.4842 20.7626ZM43.0631 18.7871L42.8973 18.7388L43.1855 17.7523L43.3512 17.8007L43.0631 18.7871ZM43.642 16.8116L43.4762 16.7633L43.7644 15.7769L43.9301 15.8252L43.642 16.8116Z" fill="white"/>
<path d="M37.1393 17.1192L37.1061 16.9514L38.1262 16.7607L38.1593 16.9285L37.1393 17.1192ZM39.1666 16.7379L39.136 16.5701L40.156 16.3768L40.1892 16.5472L39.1666 16.7379ZM41.2066 16.3539L41.1735 16.1861L42.1935 15.9955L42.2241 16.1633L41.2066 16.3539ZM43.234 15.9726L43.2033 15.8048L43.9225 15.6675L43.9556 15.8353L43.234 15.9726Z" fill="white"/>
<path d="M36.7976 16.6058L36.3156 15.6956L36.4661 15.6168L36.9506 16.527L36.7976 16.6058ZM35.8336 14.7854L35.3517 13.8752L35.5021 13.7964L35.9841 14.7066L35.8336 14.7854Z" fill="white"/>
<path d="M29.4176 19.9286L29.2952 19.8066L30.0399 19.082L30.1597 19.2015L29.4176 19.9286ZM30.8788 18.4769L30.7564 18.3549L31.4883 17.6277L31.6107 17.7498L30.8788 18.4769ZM32.3349 17.0226L32.2151 16.9006L32.9444 16.176L33.0668 16.2955L32.3349 17.0226ZM33.7987 15.5709L33.6763 15.4488L34.4081 14.7217L34.528 14.8437L33.7987 15.5709ZM35.2599 14.1166L35.14 13.9945L35.3619 13.7759L35.4843 13.8979L35.2599 14.1166Z" fill="white"/>
<path d="M29.5018 19.5831L29.3335 19.5475L29.5401 18.5305L29.7109 18.5636L29.5018 19.5831ZM29.9175 17.5669L29.7492 17.5314L29.9557 16.5144L30.124 16.55L29.9175 17.5669ZM30.3331 15.5508L30.1623 15.5152L30.3714 14.4982L30.5397 14.5338L30.3331 15.5508ZM30.7462 13.5346L30.5779 13.499L30.787 12.482L30.9553 12.5176L30.7462 13.5346ZM31.1619 11.5159L30.9936 11.4828L31.2002 10.4658L31.3685 10.5014L31.1619 11.5159ZM31.5699 9.4997L31.4016 9.46665L31.6082 8.44967L31.7765 8.48526L31.5699 9.4997ZM31.9932 7.48607L31.8224 7.45302L32.0315 6.43604L32.1998 6.47163L31.9932 7.48607Z" fill="white"/>
<path d="M27.4898 8.85879L27.4158 8.70624L28.3441 8.24859L28.4206 8.40368L27.4898 8.85879ZM29.3462 7.95875L29.2697 7.80366L30.198 7.35365L30.2745 7.50874L29.3462 7.95875ZM31.2027 7.05618L31.1262 6.90363L32.0544 6.45361L32.1309 6.60616L31.2027 7.05618Z" fill="white"/>
<path d="M27.1965 8.50292L26.6865 7.6156L26.8344 7.52916L27.3444 8.41648L27.1965 8.50292ZM26.1561 6.7232L25.6461 5.83333L25.794 5.74689L26.304 6.63675L26.1561 6.7232ZM25.1157 4.94347L24.6057 4.05361L24.7561 3.96716L25.2661 4.85703L25.1157 4.94347ZM24.0752 3.16375L23.5652 2.27643L23.7157 2.18998L24.2257 3.0773L24.0752 3.16375ZM23.0348 1.38402L22.5248 0.494159L22.6753 0.407715L23.1853 1.29758L23.0348 1.38402Z" fill="white"/>
<path d="M22.7594 18.1135L22.6064 18.0372L23.0756 17.1194L23.2286 17.1982L22.7594 18.1135ZM23.7004 16.2829L23.5448 16.2041L24.0166 15.2888L24.1696 15.3651L23.7004 16.2829ZM24.6414 14.4498L24.4884 14.371L24.9576 13.4557L25.1106 13.5345L24.6414 14.4498ZM25.5823 12.6192L25.4268 12.5404L25.8985 11.6251L26.0515 11.7014L25.5823 12.6192ZM26.5233 10.7912L26.3703 10.7124L26.8395 9.79711L26.9925 9.87593L26.5233 10.7912ZM27.4643 8.9581L27.3113 8.88182L27.3776 8.74707L27.5306 8.82589L27.4643 8.9581Z" fill="white"/>
<path d="M29.3335 19.9438L28.3364 19.6895L28.3798 19.5243L29.3768 19.7785L29.3335 19.9438ZM27.3368 19.4353L26.3397 19.181L26.3831 19.0158L27.3801 19.27L27.3368 19.4353ZM25.3401 18.9115L24.343 18.6573L24.3864 18.492L25.3834 18.7463L25.3401 18.9115ZM23.3434 18.3878L22.6141 18.1971L22.6574 18.0293L23.3893 18.2225L23.3434 18.3878Z" fill="white"/>
<path d="M33.61 33.8741L33.304 32.8902L33.4697 32.8394L33.7732 33.8233L33.61 33.8741ZM33.0005 31.9063L32.6945 30.9249L32.8602 30.874L33.1637 31.8554L33.0005 31.9063ZM32.391 29.941L32.085 28.957L32.2508 28.9062L32.5542 29.8901L32.391 29.941ZM31.7816 27.9731L31.4756 26.9917L31.6413 26.9408L31.9448 27.9248L31.7816 27.9731ZM31.1721 26.0078L30.8661 25.0238L31.0318 24.973L31.3353 25.9569L31.1721 26.0078ZM30.5499 24.0399L30.2439 23.0585L30.4096 23.0077L30.7131 23.9916L30.5499 24.0399ZM29.9404 22.0746L29.6344 21.0906L29.8002 21.0398L30.1036 22.0237L29.9404 22.0746ZM29.3284 20.1092L29.2748 19.8931L29.4406 19.8423L29.5069 20.0584L29.3284 20.1092Z" fill="white"/>
<path d="M31.2155 25.624L31.0522 25.5656L31.4093 24.5994L31.5699 24.6579L31.2155 25.624ZM31.9269 23.6918L31.7663 23.6333L32.1207 22.6671L32.2839 22.7256L31.9269 23.6918ZM32.6384 21.762L32.4777 21.701L32.8347 20.7349L32.9954 20.7959L32.6384 21.762ZM33.3524 19.8298L33.1892 19.7687L33.5462 18.8026L33.7069 18.8636L33.3524 19.8298ZM34.0639 17.8975L33.9032 17.839L34.2577 16.8729L34.4209 16.9313L34.0639 17.8975ZM34.7754 15.9652L34.6147 15.9067L34.9717 14.9406L35.1324 14.9991L34.7754 15.9652ZM35.4894 14.0329L35.3262 13.9745L35.367 13.8677L35.5276 13.9262L35.4894 14.0329Z" fill="white"/>
<path d="M31.2052 25.6444L31.0599 25.5376L31.1797 25.3698L31.32 25.4664L31.2052 25.6444ZM31.9116 24.6274L31.7714 24.5282L32.3604 23.6841L32.5007 23.7808L31.9116 24.6274ZM33.0999 22.9392L32.9597 22.84L33.5488 21.9959L33.689 22.0951L33.0999 22.9392ZM34.2781 21.2485L34.1378 21.1518L34.7269 20.3052L34.8671 20.4044L34.2781 21.2485ZM35.4562 19.5577L35.316 19.4611L35.905 18.617L36.0453 18.7136L35.4562 19.5577ZM36.6344 17.8695L36.4941 17.7704L37.0832 16.9263L37.2234 17.0229L36.6344 17.8695Z" fill="white"/>
<path d="M41.6529 22.9161L41.0205 22.1051L41.1556 21.9983L41.7906 22.8119L41.6529 22.9161ZM40.3779 21.2941L39.7429 20.4805L39.8781 20.3762L40.513 21.1873L40.3779 21.2941ZM39.1028 19.6694L38.4704 18.8584L38.6056 18.7516L39.2405 19.5626L39.1028 19.6694ZM37.8278 18.0448L37.1928 17.2337L37.328 17.127L37.9629 17.9405L37.8278 18.0448Z" fill="white"/>
<path d="M33.8191 33.7572L33.6814 33.6555L34.2908 32.8241L34.4285 32.9258L33.8191 33.7572ZM35.0406 32.0969L34.9003 31.9952L35.5123 31.1638L35.65 31.2655L35.0406 32.0969ZM36.2595 30.4367L36.1218 30.335L36.7313 29.5062L36.8715 29.6053L36.2595 30.4367ZM37.481 28.7765L37.3433 28.6748L37.9527 27.8459L38.0904 27.9476L37.481 28.7765ZM38.7025 27.1162L38.5622 27.0145L39.1742 26.1857L39.3119 26.2874L38.7025 27.1162ZM39.9214 25.456L39.7837 25.3543L40.3932 24.5204L40.5334 24.6221L39.9214 25.456ZM41.1429 23.7958L41.0052 23.6941L41.6146 22.8652L41.7523 22.9669L41.1429 23.7958Z" fill="white"/>
<path d="M31.1389 25.6796V25.5092L32.159 25.4609V25.6313L31.1389 25.6796ZM33.1994 25.583V25.4126L34.2194 25.3643V25.5372L33.1994 25.583ZM35.2624 25.4889V25.316L36.2824 25.2677V25.4406L35.2624 25.4889ZM37.3254 25.3923V25.2219L38.3582 25.1736V25.344L37.3254 25.3923ZM39.3859 25.2957V25.1253L40.4059 25.077V25.2474L39.3859 25.2957ZM41.4489 25.1991V25.0287L42.4689 24.9804V25.1507L41.4489 25.1991ZM43.5119 25.1024V24.9321L44.5319 24.8838V25.0567L43.5119 25.1024Z" fill="white"/>
<path d="M33.7426 33.7139L33.5743 33.6784L33.7834 32.6614L33.9517 32.6944L33.7426 33.7139ZM34.1608 31.6978L33.9925 31.6622L34.2016 30.6452L34.3724 30.6808L34.1608 31.6978ZM34.5815 29.6816L34.4132 29.6485L34.6223 28.6316L34.7907 28.6672L34.5815 29.6816ZM34.9998 27.668L34.8314 27.6324L35.0406 26.6154L35.2089 26.651L34.9998 27.668ZM35.4205 25.6518L35.2497 25.6162L35.4588 24.5992L35.6296 24.6323L35.4205 25.6518ZM35.8387 23.6356L35.6704 23.6L35.8795 22.583L36.0478 22.6186L35.8387 23.6356ZM36.2569 21.6194L36.0886 21.5864L36.2977 20.5694L36.466 20.605L36.2569 21.6194ZM36.6701 19.6058L36.4992 19.5702L36.7109 18.5532L36.8792 18.5863L36.6701 19.6058ZM37.0883 17.5896L36.9251 17.554L37.0373 17.0176L37.2056 17.0532L37.0883 17.5896Z" fill="white"/>
<path d="M33.6304 33.912L33.2887 33.6019L33.4034 33.4747L33.7477 33.7849L33.6304 33.912ZM32.5211 32.9103L31.7561 32.2213L31.8708 32.0942L32.6358 32.7832L32.5211 32.9103ZM30.991 31.5323L30.226 30.8407L30.3408 30.7136L31.1058 31.4052L30.991 31.5323ZM29.461 30.1517L28.696 29.4627L28.8133 29.3356L29.5783 30.0246L29.461 30.1517ZM27.931 28.7712L27.1659 28.0822L27.2832 27.955L28.0483 28.6441L27.931 28.7712ZM26.4009 27.3932L25.6359 26.7042L25.7506 26.5745L26.5157 27.266L26.4009 27.3932ZM24.8709 26.0126L24.1058 25.3236L24.2206 25.1965L24.9856 25.8855L24.8709 26.0126ZM23.3408 24.6346L22.5758 23.943L22.6906 23.8159L23.4556 24.5075L23.3408 24.6346Z" fill="white"/>
<path d="M23.1547 23.7808L23.0629 23.6333L23.9401 23.0918L24.0293 23.2367L23.1547 23.7808ZM24.9091 22.6951L24.8173 22.5502L25.6945 22.0061L25.7838 22.1536L24.9091 22.6951ZM26.661 21.6095L26.5718 21.4646L27.449 20.9205L27.5382 21.068L26.661 21.6095ZM28.4155 20.5239L28.3262 20.3789L29.2034 19.8374L29.2927 19.9823L28.4155 20.5239Z" fill="white"/>
<path d="M23.3332 36.681L23.1955 36.5793L23.7947 35.7428L23.935 35.8445L23.3332 36.681ZM24.5368 35.0055L24.3965 34.9064L24.9984 34.0699L25.1386 34.169L24.5368 35.0055ZM25.7379 33.3326L25.5976 33.2334L26.1995 32.3969L26.3397 32.4961L25.7379 33.3326ZM26.9415 31.6596L26.8013 31.5605L27.4031 30.724L27.5408 30.8232L26.9415 31.6596ZM28.1426 29.9867L28.0024 29.8875L28.6042 29.0511L28.7444 29.1502L28.1426 29.9867ZM29.3437 28.3137L29.206 28.2146L29.8053 27.3756L29.9455 27.4773L29.3437 28.3137ZM30.5473 26.6408L30.4071 26.5391L31.0089 25.7026L31.1491 25.8043L30.5473 26.6408Z" fill="white"/>
<path d="M34.7677 38.7585L33.865 38.25L33.9491 38.1L34.8519 38.5957L34.7677 38.7585ZM32.9572 37.7644L32.0544 37.2686L32.1386 37.1186L33.0413 37.6143L32.9572 37.7644ZM31.1492 36.7728L30.2464 36.2643L30.3306 36.1143L31.2333 36.6101L31.1492 36.7728ZM29.3437 35.7787L28.4384 35.2702L28.5226 35.1202L29.4253 35.6287L29.3437 35.7787ZM27.5357 34.7846L26.6304 34.2761L26.7146 34.1261L27.6173 34.6346L27.5357 34.7846ZM25.7251 33.7905L24.8224 33.2947L24.9066 33.1447L25.8093 33.6405L25.7251 33.7905ZM23.9197 32.7913L23.017 32.2955L23.1011 32.1455L24.0038 32.6413L23.9197 32.7913Z" fill="white"/>
<path d="M22.6727 36.6529L22.6293 36.4851L23.629 36.2308L23.6723 36.3986L22.6727 36.6529ZM24.672 36.1444L24.6286 35.9766L25.6282 35.7223L25.6716 35.8901L24.672 36.1444ZM26.6712 35.6359L26.6279 35.4681L27.6275 35.2139L27.6708 35.3817L26.6712 35.6359ZM28.6705 35.1274L28.6271 34.9622L29.6268 34.7079L29.6701 34.8732L28.6705 35.1274ZM30.6697 34.6189L30.6264 34.4537L31.626 34.1994L31.6694 34.3647L30.6697 34.6189ZM32.669 34.1104L32.6256 33.9452L33.6253 33.6909L33.6686 33.8562L32.669 34.1104Z" fill="white"/>
<path d="M29.1575 19.9238L28.9892 18.9068L29.1575 18.8788L29.3284 19.8958L29.1575 19.9238ZM28.8184 17.8898L28.6475 16.8728L28.8184 16.8449L28.9867 17.8619L28.8184 17.8898ZM28.4767 15.8559L28.3084 14.8389L28.4767 14.8109L28.6475 15.8279L28.4767 15.8559ZM28.1375 13.8219L27.9667 12.8049L28.1375 12.7769L28.3058 13.7939L28.1375 13.8219ZM27.7958 11.7879L27.6275 10.7709L27.7958 10.743L27.9667 11.7599L27.7958 11.7879ZM27.4566 9.75394L27.2883 8.73695L27.4566 8.70898L27.6249 9.72597L27.4566 9.75394Z" fill="white"/>
<path d="M27.3725 9.46646C27.7682 9.46646 28.0891 9.1466 28.0891 8.75203C28.0891 8.35746 27.7682 8.0376 27.3725 8.0376C26.9767 8.0376 26.6559 8.35746 26.6559 8.75203C26.6559 9.1466 26.9767 9.46646 27.3725 9.46646Z" fill="white"/>
<path d="M29.3182 20.4704C29.7139 20.4704 30.0348 20.1505 30.0348 19.7559C30.0348 19.3614 29.7139 19.0415 29.3182 19.0415C28.9224 19.0415 28.6016 19.3614 28.6016 19.7559C28.6016 20.1505 28.9224 20.4704 29.3182 20.4704Z" fill="white"/>
<path d="M23.5142 37.1818C23.91 37.1818 24.2308 36.8619 24.2308 36.4674C24.2308 36.0728 23.91 35.7529 23.5142 35.7529C23.1185 35.7529 22.7977 36.0728 22.7977 36.4674C22.7977 36.8619 23.1185 37.1818 23.5142 37.1818Z" fill="white"/>
<path d="M35.344 14.5694C35.6539 14.5694 35.905 14.3189 35.905 14.01C35.905 13.7011 35.6539 13.4507 35.344 13.4507C35.0342 13.4507 34.783 13.7011 34.783 14.01C34.783 14.3189 35.0342 14.5694 35.344 14.5694Z" fill="white"/>
<path d="M32.1258 6.89084C32.3314 6.89084 32.4981 6.72465 32.4981 6.51964C32.4981 6.31463 32.3314 6.14844 32.1258 6.14844C31.9202 6.14844 31.7535 6.31463 31.7535 6.51964C31.7535 6.72465 31.9202 6.89084 32.1258 6.89084Z" fill="white"/>
<path d="M22.7416 18.5686C22.9472 18.5686 23.1139 18.4024 23.1139 18.1974C23.1139 17.9924 22.9472 17.8262 22.7416 17.8262C22.5359 17.8262 22.3692 17.9924 22.3692 18.1974C22.3692 18.4024 22.5359 18.5686 22.7416 18.5686Z" fill="white"/>
<path d="M37.3076 17.7804C37.7033 17.7804 38.0241 17.4606 38.0241 17.066C38.0241 16.6714 37.7033 16.3516 37.3076 16.3516C36.9118 16.3516 36.591 16.6714 36.591 17.066C36.591 17.4606 36.9118 17.7804 37.3076 17.7804Z" fill="white"/>
<path d="M31.2001 25.9418C31.4001 25.9418 31.5623 25.7801 31.5623 25.5808C31.5623 25.3814 31.4001 25.2197 31.2001 25.2197C31.0002 25.2197 30.838 25.3814 30.838 25.5808C30.838 25.7801 31.0002 25.9418 31.2001 25.9418Z" fill="white"/>
<path d="M33.7298 34.0927C34.0284 34.0927 34.2704 33.8513 34.2704 33.5536C34.2704 33.256 34.0284 33.0146 33.7298 33.0146C33.4313 33.0146 33.1892 33.256 33.1892 33.5536C33.1892 33.8513 33.4313 34.0927 33.7298 34.0927Z" fill="white"/>
<path d="M44.3381 25.41C44.6367 25.41 44.8787 25.1687 44.8787 24.871C44.8787 24.5734 44.6367 24.332 44.3381 24.332C44.0396 24.332 43.7975 24.5734 43.7975 24.871C43.7975 25.1687 44.0396 25.41 44.3381 25.41Z" fill="white"/>
<path d="M41.7014 23.2108C41.9999 23.2108 42.242 22.9695 42.242 22.6718C42.242 22.3741 41.9999 22.1328 41.7014 22.1328C41.4028 22.1328 41.1607 22.3741 41.1607 22.6718C41.1607 22.9695 41.4028 23.2108 41.7014 23.2108Z" fill="white"/>
<path d="M28.5787 29.6918C28.8772 29.6918 29.1193 29.4505 29.1193 29.1528C29.1193 28.8551 28.8772 28.6138 28.5787 28.6138C28.2801 28.6138 28.0381 28.8551 28.0381 29.1528C28.0381 29.4505 28.2801 29.6918 28.5787 29.6918Z" fill="white"/>
<path d="M35.6296 25.7792C35.9282 25.7792 36.1702 25.5379 36.1702 25.2402C36.1702 24.9425 35.9282 24.7012 35.6296 24.7012C35.331 24.7012 35.089 24.9425 35.089 25.2402C35.089 25.5379 35.331 25.7792 35.6296 25.7792Z" fill="white"/>
<path d="M28.4563 35.6311C28.6929 35.6311 28.8847 35.4399 28.8847 35.204C28.8847 34.9681 28.6929 34.7769 28.4563 34.7769C28.2197 34.7769 28.0279 34.9681 28.0279 35.204C28.0279 35.4399 28.2197 35.6311 28.4563 35.6311Z" fill="white"/>
<path d="M34.7116 38.9031C34.9313 38.9031 35.1094 38.7255 35.1094 38.5065C35.1094 38.2874 34.9313 38.1099 34.7116 38.1099C34.4919 38.1099 34.3138 38.2874 34.3138 38.5065C34.3138 38.7255 34.4919 38.9031 34.7116 38.9031Z" fill="white"/>
<path d="M43.7236 16.1125C43.9292 16.1125 44.0959 15.9463 44.0959 15.7413C44.0959 15.5363 43.9292 15.3701 43.7236 15.3701C43.5179 15.3701 43.3512 15.5363 43.3512 15.7413C43.3512 15.9463 43.5179 16.1125 43.7236 16.1125Z" fill="white"/>
<path d="M51.4605 10.4375H60.8141C67.5514 10.4375 72.1696 14.3656 72.1696 20.4014C72.1696 26.4372 67.5514 30.3679 60.8141 30.3679H51.4605V10.4375ZM60.5795 26.5796C64.6597 26.5796 67.3449 24.2151 67.3449 20.4014C67.3449 16.5877 64.6699 14.2232 60.5795 14.2232H56.2266V26.5796H60.5795Z" fill="white"/>
<path d="M79.9346 14.1953H73.3452V10.4375H91.2901V14.1953H84.7007V30.3679H79.9346V14.1953Z" fill="white"/>
<path d="M100.965 28.4025L102.584 24.927C104.595 26.2691 106.958 26.9923 109.378 27.0067C112.203 27.0067 113.351 26.0965 113.351 24.871C113.351 21.1412 101.378 23.7041 101.378 16.3029C101.378 12.9138 104.201 10.0942 110.048 10.0942C112.637 10.0942 115.284 10.6943 117.189 11.874L115.722 15.3673C113.983 14.3747 112.02 13.836 110.015 13.8012C107.192 13.8012 106.103 14.8181 106.103 16.0894C106.103 19.7607 118.076 17.2284 118.076 24.5456C118.076 27.8762 115.223 30.7238 109.339 30.7238C106.083 30.7085 102.788 29.7678 100.965 28.4025Z" fill="white"/>
<path d="M127.764 22.85L124.115 26.0968V30.3681H122.026V9.24023H124.115V23.5619L133.351 15.3905H135.942L129.312 21.5127L136.559 30.3681H134.009L127.764 22.85Z" fill="white"/>
<path d="M139.206 10.6639C139.221 10.2734 139.391 9.90476 139.677 9.63812C139.964 9.37148 140.344 9.22845 140.736 9.24014C140.934 9.22574 141.133 9.25223 141.321 9.31796C141.508 9.38368 141.68 9.48724 141.826 9.62216C141.971 9.75708 142.087 9.92046 142.167 10.1021C142.246 10.2838 142.287 10.4798 142.287 10.6779C142.287 10.876 142.246 11.0721 142.167 11.2537C142.087 11.4354 141.971 11.5987 141.826 11.7337C141.68 11.8686 141.508 11.9721 141.321 12.0379C141.133 12.1036 140.934 12.1301 140.736 12.1157C140.54 12.1211 140.344 12.0878 140.161 12.0176C139.978 11.9475 139.81 11.8419 139.668 11.707C139.526 11.5721 139.412 11.4105 139.333 11.2315C139.253 11.0525 139.21 10.8596 139.206 10.6639ZM139.675 15.3904H141.764V30.368H139.675V15.3904Z" fill="white"/>
<path d="M147.795 9.24023H149.893V30.3681H147.805L147.795 9.24023Z" fill="white"/>
<path d="M155.911 9.24023H158V30.3681H155.911V9.24023Z" fill="white"/>
<path d="M51.4783 35.6792H53.322C54.773 35.6792 55.7497 36.6174 55.7497 37.9674C55.7497 39.3175 54.773 40.2556 53.322 40.2556H51.4783V35.6792ZM53.2965 39.826C54.5002 39.826 55.2779 39.0632 55.2779 37.9598C55.2779 36.8564 54.5002 36.0962 53.2965 36.0962H51.9705V39.826H53.2965Z" fill="white"/>
<path d="M57.2313 35.7328C57.232 35.6894 57.2412 35.6466 57.2585 35.6067C57.2758 35.5669 57.3007 35.5308 57.332 35.5006C57.3632 35.4704 57.4002 35.4466 57.4406 35.4306C57.4811 35.4146 57.5244 35.4067 57.5679 35.4074C57.611 35.406 57.6539 35.4132 57.6942 35.4285C57.7345 35.4437 57.7713 35.4668 57.8026 35.4964C57.8339 35.5259 57.859 35.5613 57.8765 35.6006C57.894 35.6399 57.9035 35.6822 57.9045 35.7252C57.9045 35.8142 57.8691 35.8996 57.8059 35.9625C57.7428 36.0254 57.6572 36.0608 57.5679 36.0608C57.4786 36.0608 57.393 36.0254 57.3299 35.9625C57.2668 35.8996 57.2313 35.8142 57.2313 35.7252V35.7328ZM57.3359 36.8134H57.7949V40.2432H57.3257L57.3359 36.8134Z" fill="white"/>
<path d="M62.8363 36.8132V39.8261C62.8363 41.0032 62.26 41.5397 61.1355 41.5397C60.5597 41.5622 59.9956 41.3741 59.5493 41.0108L59.7814 40.66C60.1562 40.9722 60.6318 41.1384 61.1202 41.1278C61.9821 41.1278 62.3773 40.7312 62.3773 39.8845V39.4472C62.2307 39.6613 62.0317 39.8345 61.7993 39.9506C61.5668 40.0667 61.3085 40.1219 61.0488 40.1108C60.8244 40.1196 60.6006 40.0831 60.3908 40.0035C60.1809 39.924 59.9894 39.803 59.8276 39.6478C59.6657 39.4927 59.537 39.3066 59.4491 39.1006C59.3611 38.8947 59.3158 38.6731 59.3158 38.4493C59.3158 38.2255 59.3611 38.004 59.4491 37.798C59.537 37.5921 59.6657 37.4059 59.8276 37.2508C59.9894 37.0956 60.1809 36.9747 60.3908 36.8951C60.6006 36.8156 60.8244 36.7791 61.0488 36.7878C61.3138 36.7754 61.5775 36.8319 61.814 36.9518C62.0505 37.0717 62.2517 37.2509 62.3977 37.4717V36.8132H62.8363ZM62.3901 38.443C62.3936 38.1874 62.3209 37.9365 62.1811 37.7223C62.0413 37.508 61.8408 37.3401 61.605 37.2397C61.3693 37.1393 61.1089 37.1111 60.857 37.1586C60.6051 37.2061 60.3731 37.3272 60.1904 37.5065C60.0077 37.6858 59.8826 37.9152 59.8309 38.1655C59.7793 38.4159 59.8035 38.6759 59.9004 38.9125C59.9973 39.1491 60.1626 39.3517 60.3752 39.4944C60.5879 39.6372 60.8383 39.7137 61.0947 39.7142C61.2657 39.7243 61.4369 39.6985 61.5973 39.6385C61.7577 39.5785 61.9037 39.4855 62.0258 39.3657C62.1479 39.2459 62.2435 39.1018 62.3062 38.9429C62.369 38.7839 62.3975 38.6136 62.3901 38.443Z" fill="white"/>
<path d="M64.6291 35.7328C64.6297 35.6894 64.639 35.6466 64.6562 35.6067C64.6735 35.5669 64.6985 35.5308 64.7297 35.5006C64.761 35.4704 64.7979 35.4466 64.8384 35.4306C64.8789 35.4146 64.9221 35.4067 64.9657 35.4074C65.0087 35.406 65.0517 35.4132 65.092 35.4285C65.1322 35.4437 65.1691 35.4668 65.2004 35.4964C65.2317 35.5259 65.2568 35.5613 65.2743 35.6006C65.2918 35.6399 65.3013 35.6822 65.3023 35.7252C65.3023 35.8142 65.2668 35.8996 65.2037 35.9625C65.1406 36.0254 65.0549 36.0608 64.9657 36.0608C64.8764 36.0608 64.7908 36.0254 64.7276 35.9625C64.6645 35.8996 64.6291 35.8142 64.6291 35.7252V35.7328ZM64.7311 36.8134H65.1926V40.2432H64.7209L64.7311 36.8134Z" fill="white"/>
<path d="M68.8749 40.0293C68.6717 40.1923 68.4165 40.2771 68.1558 40.2683C68.0211 40.2828 67.8848 40.267 67.757 40.222C67.6293 40.177 67.5133 40.104 67.4176 40.0084C67.3219 39.9127 67.2489 39.7969 67.2041 39.6694C67.1593 39.5419 67.1438 39.406 67.1587 39.2717V37.1996H66.5518V36.808H67.1587V36.0605H67.6177V36.808H68.6556V37.1996H67.6177V39.2463C67.6054 39.3281 67.6119 39.4117 67.6368 39.4907C67.6616 39.5698 67.7041 39.6421 67.7611 39.7023C67.8181 39.7626 67.888 39.8091 67.9657 39.8385C68.0433 39.8678 68.1267 39.8792 68.2094 39.8717C68.3953 39.8784 68.5771 39.8158 68.7194 39.6963L68.8749 40.0293Z" fill="white"/>
<path d="M72.8811 38.1174V40.2429H72.4476V39.7064C72.3213 39.8974 72.1457 40.0509 71.9392 40.1507C71.7328 40.2504 71.5031 40.2928 71.2745 40.2734C70.5095 40.2734 70.0327 39.8691 70.0327 39.2767C70.0327 38.7504 70.3693 38.3055 71.3459 38.3055H72.4272V38.097C72.4272 37.5123 72.0982 37.1919 71.4632 37.1919C71.0494 37.187 70.6476 37.3305 70.331 37.5962L70.1219 37.2504C70.5163 36.94 71.0068 36.7763 71.5091 36.7877C72.3889 36.7877 72.8811 37.2326 72.8811 38.1174ZM72.4195 39.2132V38.6513H71.351C70.6906 38.6513 70.4789 38.9055 70.4789 39.264C70.4789 39.6632 70.7951 39.9098 71.3383 39.9098C71.5707 39.925 71.8018 39.8656 71.9978 39.7402C72.1937 39.6148 72.3442 39.4301 72.4272 39.2132H72.4195Z" fill="white"/>
<path d="M74.7452 35.4072H75.2042V40.2379H74.7452V35.4072Z" fill="white"/>
<path d="M80.3758 36.0962H78.782V35.6792H82.4464V36.0962H80.8552V40.2429H80.3758V36.0962Z" fill="white"/>
<path d="M85.3459 36.7876V37.2325C85.3076 37.2325 85.2694 37.2325 85.2362 37.2325C84.5247 37.2325 84.0912 37.6902 84.0912 38.5038V40.2504H83.6297V36.813H84.0708V37.4868C84.285 37.0291 84.7185 36.7876 85.3459 36.7876Z" fill="white"/>
<path d="M89.3469 38.1174V40.2429H88.9058V39.7065C88.7797 39.897 88.6045 40.0503 88.3985 40.15C88.1926 40.2498 87.9635 40.2924 87.7353 40.2734C86.9703 40.2734 86.4908 39.8692 86.4908 39.2768C86.4908 38.7505 86.8275 38.3056 87.8067 38.3056H88.8854V38.0971C88.8854 37.5123 88.5564 37.192 87.9214 37.192C87.5076 37.1871 87.1058 37.3305 86.7892 37.5962L86.5827 37.2504C86.9758 36.9396 87.4657 36.7759 87.9673 36.7877C88.8471 36.7877 89.3469 37.2326 89.3469 38.1174ZM88.8854 39.2132V38.6513H87.8194C87.159 38.6513 86.9448 38.9056 86.9448 39.2641C86.9448 39.6632 87.261 39.9099 87.8067 39.9099C88.0375 39.9237 88.2667 39.8635 88.4608 39.7381C88.6548 39.6128 88.8036 39.4289 88.8854 39.2132Z" fill="white"/>
<path d="M94.3349 38.2498V40.238H93.8758V38.3006C93.8758 37.576 93.501 37.2048 92.8558 37.2048C92.1239 37.2048 91.6649 37.6625 91.6649 38.443V40.2431H91.2059V36.8133H91.6445V37.4464C91.7817 37.2312 91.9742 37.0566 92.2021 36.9408C92.4299 36.825 92.6847 36.7722 92.94 36.7879C93.7662 36.7879 94.3349 37.2709 94.3349 38.2498Z" fill="white"/>
<path d="M95.7195 39.8515L95.9261 39.4854C96.2786 39.7387 96.7029 39.8732 97.1374 39.8693C97.7851 39.8693 98.0503 39.6481 98.0503 39.31C98.0503 38.4176 95.8419 39.1218 95.8419 37.7667C95.8419 37.2048 96.3214 36.7879 97.1884 36.7879C97.6124 36.7815 98.0299 36.8924 98.3946 37.1082L98.1931 37.4794C97.8966 37.2803 97.5458 37.1774 97.1884 37.1845C96.5738 37.1845 96.3035 37.426 96.3035 37.7515C96.3035 38.6769 98.5093 37.9803 98.5093 39.2973C98.5093 39.8897 97.9993 40.2736 97.1068 40.2736C96.6104 40.2885 96.123 40.1402 95.7195 39.8515Z" fill="white"/>
<path d="M100.491 36.409V36.8133H101.539V37.2048H100.503V40.2558H100.044V37.2048H99.435V36.8133H100.044V36.3912C100.032 36.2546 100.05 36.1171 100.097 35.9882C100.144 35.8594 100.219 35.7423 100.316 35.6454C100.414 35.5484 100.531 35.4739 100.66 35.4271C100.79 35.3802 100.928 35.3622 101.065 35.3742C101.309 35.3665 101.549 35.4418 101.745 35.5878L101.59 35.9336C101.445 35.8194 101.264 35.76 101.08 35.7658C100.697 35.7658 100.491 35.987 100.491 36.409Z" fill="white"/>
<path d="M102.368 38.5268C102.372 38.1864 102.477 37.8547 102.669 37.5736C102.862 37.2924 103.133 37.0743 103.45 36.9467C103.766 36.8191 104.114 36.7876 104.448 36.8563C104.783 36.925 105.089 37.0907 105.33 37.3327C105.57 37.5747 105.733 37.8821 105.798 38.2162C105.864 38.5503 105.829 38.8963 105.697 39.2106C105.566 39.5249 105.345 39.7935 105.061 39.9826C104.777 40.1718 104.443 40.2729 104.102 40.2735C103.87 40.2807 103.64 40.2402 103.425 40.1548C103.211 40.0693 103.016 39.9406 102.853 39.7767C102.69 39.6128 102.563 39.4172 102.48 39.2022C102.396 38.9871 102.358 38.7572 102.368 38.5268ZM105.364 38.5268C105.351 38.2781 105.265 38.0386 105.117 37.8382C104.968 37.6378 104.764 37.4852 104.53 37.3994C104.295 37.3137 104.04 37.2985 103.797 37.3558C103.554 37.4131 103.333 37.5404 103.162 37.7217C102.991 37.9031 102.877 38.1307 102.834 38.3761C102.792 38.6215 102.822 38.874 102.922 39.1022C103.022 39.3304 103.188 39.5243 103.397 39.6598C103.607 39.7952 103.852 39.8663 104.102 39.8641C104.275 39.8667 104.447 39.8333 104.606 39.766C104.766 39.6986 104.91 39.5989 105.029 39.473C105.147 39.3472 105.239 39.1981 105.296 39.0351C105.354 38.8722 105.377 38.6991 105.364 38.5268Z" fill="white"/>
<path d="M109.092 36.7876V37.2325C109.054 37.2325 109.013 37.2325 108.982 37.2325C108.268 37.2325 107.835 37.6902 107.835 38.5038V40.2504H107.376V36.813H107.817V37.4868C108.029 37.0291 108.465 36.7876 109.092 36.7876Z" fill="white"/>
<path d="M116.148 38.2496V40.2378H115.687V38.3004C115.687 37.5758 115.325 37.2046 114.71 37.2046C114.011 37.2046 113.57 37.6623 113.57 38.4428V40.2429H113.111V38.3004C113.111 37.5758 112.749 37.2046 112.127 37.2046C111.436 37.2046 110.987 37.6623 110.987 38.4428V40.2429H110.528V36.8131H110.969V37.4385C111.099 37.2277 111.284 37.0558 111.504 36.9412C111.724 36.8266 111.971 36.7735 112.219 36.7877C112.47 36.7686 112.722 36.8281 112.939 36.958C113.155 37.0878 113.326 37.2815 113.427 37.5123C113.564 37.2802 113.762 37.0899 114 36.9622C114.238 36.8345 114.506 36.7741 114.776 36.7877C115.602 36.7877 116.148 37.2707 116.148 38.2496Z" fill="white"/>
<path d="M120.567 38.1173V40.2428H120.134V39.7064C120.008 39.8974 119.832 40.0508 119.626 40.1506C119.419 40.2504 119.19 40.2928 118.961 40.2733C118.196 40.2733 117.719 39.8691 117.719 39.2767C117.719 38.7504 118.056 38.3055 119.032 38.3055H120.114V38.097C120.114 37.5122 119.782 37.1919 119.15 37.1919C118.736 37.187 118.334 37.3304 118.017 37.5961L117.808 37.2504C118.202 36.9403 118.691 36.7767 119.193 36.7876C120.075 36.7876 120.567 37.2326 120.567 38.1173ZM120.108 39.2131V38.6513H119.037C118.377 38.6513 118.163 38.9055 118.163 39.264C118.163 39.6632 118.482 39.9098 119.025 39.9098C119.257 39.925 119.488 39.8656 119.684 39.7402C119.88 39.6148 120.031 39.4301 120.114 39.2131H120.108Z" fill="white"/>
<path d="M124.224 40.0293C124.021 40.1919 123.766 40.2767 123.505 40.2683C123.37 40.2828 123.234 40.267 123.106 40.222C122.979 40.177 122.863 40.104 122.767 40.0084C122.671 39.9127 122.598 39.7969 122.553 39.6694C122.509 39.5419 122.493 39.406 122.508 39.2717V37.1996H121.899V36.808H122.508V36.0605H122.967V36.808H124.002V37.1996H122.967V39.2463C122.955 39.3279 122.961 39.4113 122.986 39.4901C123.011 39.5689 123.053 39.6411 123.11 39.7013C123.166 39.7614 123.236 39.808 123.313 39.8376C123.391 39.8671 123.474 39.8788 123.556 39.8717C123.742 39.8769 123.923 39.8146 124.066 39.6963L124.224 40.0293Z" fill="white"/>
<path d="M125.563 35.7328C125.564 35.6894 125.573 35.6466 125.59 35.6067C125.608 35.5669 125.632 35.5308 125.664 35.5006C125.695 35.4704 125.732 35.4466 125.772 35.4306C125.813 35.4146 125.856 35.4067 125.9 35.4074C125.943 35.406 125.986 35.4132 126.026 35.4285C126.066 35.4437 126.103 35.4668 126.134 35.4964C126.166 35.5259 126.191 35.5613 126.208 35.6006C126.226 35.6399 126.235 35.6822 126.236 35.7252C126.236 35.7693 126.228 35.8129 126.211 35.8536C126.194 35.8943 126.169 35.9313 126.138 35.9625C126.106 35.9937 126.069 36.0184 126.028 36.0353C125.988 36.0521 125.944 36.0608 125.9 36.0608C125.855 36.0608 125.812 36.0521 125.771 36.0353C125.73 36.0184 125.693 35.9937 125.662 35.9625C125.63 35.9313 125.606 35.8943 125.589 35.8536C125.572 35.8129 125.563 35.7693 125.563 35.7252V35.7328ZM125.665 36.8134H126.127V40.2432H125.668L125.665 36.8134Z" fill="white"/>
<path d="M127.672 38.5268C127.676 38.1864 127.781 37.8547 127.973 37.5736C128.166 37.2924 128.438 37.0743 128.754 36.9467C129.071 36.8191 129.418 36.7876 129.753 36.8563C130.087 36.925 130.394 37.0907 130.634 37.3327C130.874 37.5747 131.037 37.8821 131.103 38.2162C131.168 38.5503 131.133 38.8963 131.002 39.2106C130.871 39.5249 130.649 39.7935 130.365 39.9826C130.081 40.1718 129.747 40.2729 129.406 40.2735C129.175 40.2807 128.945 40.2402 128.73 40.1548C128.515 40.0693 128.32 39.9406 128.157 39.7767C127.995 39.6128 127.868 39.4172 127.784 39.2022C127.701 38.9871 127.662 38.7572 127.672 38.5268ZM130.668 38.5268C130.655 38.2786 130.57 38.0396 130.422 37.8394C130.274 37.6393 130.071 37.4867 129.837 37.4005C129.603 37.3143 129.349 37.2984 129.106 37.3547C128.864 37.4109 128.643 37.5369 128.471 37.7171C128.299 37.8972 128.184 38.1236 128.14 38.3682C128.096 38.6128 128.125 38.865 128.223 39.0934C128.321 39.3219 128.484 39.5167 128.692 39.6536C128.9 39.7906 129.144 39.8638 129.393 39.8641C130.133 39.8641 130.668 39.3302 130.668 38.5268Z" fill="white"/>
<path d="M135.814 38.2498V40.238H135.358V38.3006C135.358 37.576 134.983 37.2048 134.338 37.2048C133.606 37.2048 133.147 37.6625 133.147 38.443V40.2431H132.688V36.8133H133.127V37.4464C133.264 37.2312 133.456 37.0566 133.684 36.9408C133.912 36.825 134.167 36.7722 134.422 36.7879C135.246 36.7879 135.814 37.2709 135.814 38.2498Z" fill="white"/>
<path d="M137.199 39.8516L137.406 39.4854C137.758 39.7387 138.182 39.8732 138.617 39.8693C139.265 39.8693 139.53 39.6482 139.53 39.31C139.53 38.4176 137.321 39.1219 137.321 37.7667C137.321 37.2049 137.801 36.7879 138.668 36.7879C139.091 36.7812 139.508 36.8921 139.872 37.1082L139.673 37.4794C139.376 37.2807 139.025 37.1777 138.668 37.1845C138.053 37.1845 137.78 37.426 137.78 37.7515C137.78 38.6769 139.989 37.9803 139.989 39.2973C139.989 39.8897 139.479 40.2736 138.584 40.2736C138.088 40.2886 137.601 40.1402 137.199 39.8516Z" fill="white"/>
<path d="M143.411 39.6889L143.6 39.3177C144.013 39.6801 144.546 39.8767 145.097 39.8694C145.943 39.8694 146.313 39.5109 146.313 39.0634C146.313 37.8125 143.523 38.5803 143.523 36.8922C143.523 36.2209 144.033 35.6413 145.194 35.6413C145.691 35.636 146.178 35.7765 146.596 36.0455L146.435 36.4294C146.066 36.1876 145.635 36.0562 145.194 36.0506C144.365 36.0506 143.995 36.4218 143.995 36.8794C143.995 38.1303 146.785 37.3752 146.785 39.0354C146.785 39.7067 146.254 40.2813 145.097 40.2813C144.48 40.3021 143.878 40.0906 143.411 39.6889Z" fill="white"/>
<path d="M149.6 38.5219L148.797 39.2669V40.2457H148.338V35.415H148.797V38.6923L150.837 36.821H151.408L149.949 38.2219L151.543 40.2559H150.98L149.6 38.5219Z" fill="white"/>
<path d="M152.681 35.7328C152.681 35.6893 152.69 35.6465 152.708 35.6066C152.725 35.5668 152.75 35.5307 152.781 35.5005C152.812 35.4703 152.849 35.4465 152.89 35.4305C152.93 35.4145 152.974 35.4066 153.017 35.4073C153.104 35.4053 153.188 35.4375 153.251 35.4971C153.314 35.5566 153.351 35.6386 153.354 35.7251C153.354 35.8141 153.318 35.8995 153.255 35.9624C153.192 36.0254 153.106 36.0607 153.017 36.0607C152.928 36.0607 152.842 36.0254 152.779 35.9624C152.716 35.8995 152.681 35.8141 152.681 35.7251V35.7328ZM152.783 36.8133H153.244V40.2431H152.783V36.8133Z" fill="white"/>
<path d="M155.134 35.4072H155.593V40.2379H155.134V35.4072Z" fill="white"/>
<path d="M157.482 35.4072H157.941V40.2379H157.482V35.4072Z" fill="white"/>
</g>
<defs>
<clipPath id="clip0_1_954">
<rect width="158" height="47" fill="white" transform="translate(0 0.359375)"/>
</clipPath>
</defs>
</svg>
