<svg width="104" height="105" viewBox="0 0 104 105" fill="none" xmlns="http://www.w3.org/2000/svg">
<circle cx="52" cy="52.3594" r="49" fill="#364B5D" stroke="#F7F8F9" stroke-width="6"/>
<g clip-path="url(#clip0_1_554)">
<path d="M35.668 66.3786C35.4829 66.3786 35.3054 66.305 35.1746 66.1739C35.0437 66.0429 34.9702 65.8652 34.9702 65.6799V60.4431H31.5879V65.6799C31.5879 65.8652 31.5144 66.0429 31.3835 66.1739C31.2526 66.305 31.0751 66.3786 30.8901 66.3786C30.705 66.3786 30.5275 66.305 30.3966 66.1739C30.2657 66.0429 30.1922 65.8652 30.1922 65.6799V59.749C30.1922 59.5637 30.2657 59.386 30.3966 59.2549C30.5275 59.1239 30.705 59.0503 30.8901 59.0503H35.668C35.8531 59.0503 36.0306 59.1239 36.1615 59.2549C36.2924 59.386 36.3659 59.5637 36.3659 59.749V65.6845C36.3646 65.869 36.2906 66.0456 36.1599 66.1756C36.0291 66.3056 35.8523 66.3786 35.668 66.3786Z" fill="white"/>
<path d="M61.8962 60.4319H29.3966C29.2116 60.4319 29.0341 60.3583 28.9032 60.2273C28.7723 60.0962 28.6988 59.9185 28.6988 59.7332V57.3035C28.6988 57.1182 28.7723 56.9404 28.9032 56.8094C29.0341 56.6783 29.2116 56.6047 29.3966 56.6047H61.8962C62.0813 56.6047 62.2588 56.6783 62.3896 56.8094C62.5205 56.9404 62.594 57.1182 62.594 57.3035V59.7332C62.594 59.9185 62.5205 60.0962 62.3896 60.2273C62.2588 60.3583 62.0813 60.4319 61.8962 60.4319ZM30.0945 59.0345H61.1983V58.0022H30.0945V59.0345Z" fill="white"/>
<path d="M44.4814 66.3786C44.2963 66.3786 44.1189 66.305 43.988 66.1739C43.8571 66.0429 43.7836 65.8652 43.7836 65.6799V60.4431H40.4013V65.6799C40.4013 65.8652 40.3278 66.0429 40.1969 66.1739C40.066 66.305 39.8886 66.3786 39.7035 66.3786C39.5184 66.3786 39.3409 66.305 39.21 66.1739C39.0791 66.0429 39.0056 65.8652 39.0056 65.6799V59.749C39.0056 59.5637 39.0791 59.386 39.21 59.2549C39.3409 59.1239 39.5184 59.0503 39.7035 59.0503H44.4814C44.6665 59.0503 44.844 59.1239 44.9749 59.2549C45.1058 59.386 45.1793 59.5637 45.1793 59.749V65.6845C45.1781 65.869 45.104 66.0456 44.9733 66.1756C44.8425 66.3056 44.6657 66.3786 44.4814 66.3786Z" fill="white"/>
<path d="M59.7337 66.3786C59.5486 66.3786 59.3711 66.305 59.2403 66.1739C59.1094 66.0429 59.0359 65.8652 59.0359 65.6799V60.4431H55.6527V65.6799C55.6527 65.8652 55.5792 66.0429 55.4483 66.1739C55.3174 66.305 55.1399 66.3786 54.9548 66.3786C54.7697 66.3786 54.5922 66.305 54.4614 66.1739C54.3305 66.0429 54.257 65.8652 54.257 65.6799V59.749C54.257 59.5637 54.3305 59.386 54.4614 59.2549C54.5922 59.1239 54.7697 59.0503 54.9548 59.0503H59.7337C59.9188 59.0503 60.0963 59.1239 60.2272 59.2549C60.358 59.386 60.4316 59.5637 60.4316 59.749V65.6845C60.4304 65.869 60.3563 66.0456 60.2255 66.1756C60.0948 66.3056 59.918 66.3786 59.7337 66.3786V66.3786Z" fill="white"/>
<path d="M52.9376 58.0022H37.0637C36.8786 58.0022 36.7011 57.9286 36.5702 57.7975C36.4394 57.6665 36.3658 57.4888 36.3658 57.3035V49.7739C36.3658 49.5886 36.4394 49.4109 36.5702 49.2798C36.7011 49.1488 36.8786 49.0752 37.0637 49.0752H52.9376C53.1226 49.0752 53.3001 49.1488 53.431 49.2798C53.5619 49.4109 53.6354 49.5886 53.6354 49.7739V57.3035C53.6354 57.4888 53.5619 57.6665 53.431 57.7975C53.3001 57.9286 53.1226 58.0022 52.9376 58.0022ZM37.7616 56.6047H52.2397V50.4727H37.7616V56.6047Z" fill="white"/>
<path d="M56.747 58.0022C56.5619 58.0022 56.3844 57.9286 56.2535 57.7976C56.1226 57.6665 56.0491 57.4888 56.0491 57.3035V48.1082H44.2107V49.7739C44.2107 49.9593 44.1372 50.137 44.0063 50.268C43.8754 50.399 43.6979 50.4727 43.5129 50.4727C43.3278 50.4727 43.1503 50.399 43.0194 50.268C42.8885 50.137 42.815 49.9593 42.815 49.7739V47.4094C42.815 47.2241 42.8885 47.0464 43.0194 46.9153C43.1503 46.7843 43.3278 46.7107 43.5129 46.7107H56.747C56.932 46.7107 57.1095 46.7843 57.2404 46.9153C57.3713 47.0464 57.4448 47.2241 57.4448 47.4094V57.3035C57.4448 57.4888 57.3713 57.6665 57.2404 57.7976C57.1095 57.9286 56.932 58.0022 56.747 58.0022Z" fill="white"/>
<path d="M39.1703 54.3231C38.9852 54.3231 38.8077 54.2495 38.6769 54.1185C38.546 53.9874 38.4725 53.8097 38.4725 53.6244V53.0188C38.4725 52.8335 38.546 52.6558 38.6769 52.5247C38.8077 52.3937 38.9852 52.3201 39.1703 52.3201C39.3554 52.3201 39.5329 52.3937 39.6638 52.5247C39.7947 52.6558 39.8682 52.8335 39.8682 53.0188V53.6244C39.8682 53.8097 39.7947 53.9874 39.6638 54.1185C39.5329 54.2495 39.3554 54.3231 39.1703 54.3231Z" fill="white"/>
<path d="M40.9093 54.3231C40.7243 54.3231 40.5468 54.2495 40.4159 54.1185C40.285 53.9874 40.2115 53.8097 40.2115 53.6244V53.0188C40.2115 52.8335 40.285 52.6558 40.4159 52.5247C40.5468 52.3937 40.7243 52.3201 40.9093 52.3201C41.0944 52.3201 41.2719 52.3937 41.4028 52.5247C41.5337 52.6558 41.6072 52.8335 41.6072 53.0188V53.6244C41.6072 53.8097 41.5337 53.9874 41.4028 54.1185C41.2719 54.2495 41.0944 54.3231 40.9093 54.3231Z" fill="white"/>
<path d="M33.7931 46.4405C33.608 46.4405 33.4306 46.3669 33.2997 46.2359C33.1688 46.1048 33.0953 45.9271 33.0953 45.7418V45.1362C33.0953 44.9509 33.1688 44.7732 33.2997 44.6421C33.4306 44.5111 33.608 44.4375 33.7931 44.4375C33.9782 44.4375 34.1557 44.5111 34.2866 44.6421C34.4175 44.7732 34.491 44.9509 34.491 45.1362V45.7418C34.491 45.9271 34.4175 46.1048 34.2866 46.2359C34.1557 46.3669 33.9782 46.4405 33.7931 46.4405Z" fill="white"/>
<path d="M35.5275 46.4405C35.3424 46.4405 35.1649 46.3669 35.0341 46.2359C34.9032 46.1048 34.8297 45.9271 34.8297 45.7418V45.1362C34.8297 44.9509 34.9032 44.7732 35.0341 44.6421C35.1649 44.5111 35.3424 44.4375 35.5275 44.4375C35.7126 44.4375 35.8901 44.5111 36.021 44.6421C36.1519 44.7732 36.2254 44.9509 36.2254 45.1362V45.7418C36.2254 45.9271 36.1519 46.1048 36.021 46.2359C35.8901 46.3669 35.7126 46.4405 35.5275 46.4405Z" fill="white"/>
<path d="M42.6391 54.3231C42.4541 54.3231 42.2765 54.2495 42.1457 54.1185C42.0148 53.9874 41.9413 53.8097 41.9413 53.6244V53.0188C41.9413 52.8335 42.0148 52.6558 42.1457 52.5247C42.2765 52.3937 42.4541 52.3201 42.6391 52.3201C42.8242 52.3201 43.0017 52.3937 43.1326 52.5247C43.2635 52.6558 43.337 52.8335 43.337 53.0188V53.6244C43.337 53.8097 43.2635 53.9874 43.1326 54.1185C43.0017 54.2495 42.8242 54.3231 42.6391 54.3231Z" fill="white"/>
<path d="M72.6459 66.3786C72.4608 66.3786 72.2833 66.305 72.1524 66.1739C72.0216 66.0429 71.9481 65.8652 71.9481 65.6799V34.9431H68.5639L57.2326 45.9365C57.0978 46.0522 56.924 46.1121 56.7466 46.104C56.5692 46.0958 56.4016 46.0203 56.2779 45.8927C56.1541 45.7652 56.0836 45.5952 56.0807 45.4174C56.0778 45.2396 56.1427 45.0674 56.2622 44.9359L67.8 33.7422C67.9301 33.6156 68.1043 33.5447 68.2857 33.5447H72.6496C72.8347 33.5447 73.0122 33.6183 73.1431 33.7493C73.274 33.8804 73.3475 34.0581 73.3475 34.2434V65.6789C73.3476 65.7711 73.3295 65.8623 73.2943 65.9475C73.259 66.0326 73.2073 66.1099 73.1421 66.1749C73.0769 66.24 72.9995 66.2914 72.9143 66.3264C72.8292 66.3613 72.738 66.3791 72.6459 66.3786Z" fill="white"/>
<path d="M59.7337 58.0022C59.5487 58.0022 59.3711 57.9286 59.2403 57.7976C59.1094 57.6666 59.0359 57.4888 59.0359 57.3035V49.7181C59.0357 49.5821 59.0751 49.449 59.1494 49.3352L69.2608 33.8624C69.311 33.7856 69.3758 33.7194 69.4515 33.6676C69.5272 33.6159 69.6124 33.5796 69.7021 33.5607C69.7918 33.5419 69.8844 33.541 69.9745 33.558C70.0645 33.575 70.1504 33.6096 70.2271 33.6598C70.3039 33.71 70.37 33.7749 70.4217 33.8507C70.4734 33.9265 70.5097 34.0118 70.5284 34.1016C70.5472 34.1914 70.5482 34.2841 70.5312 34.3743C70.5142 34.4645 70.4797 34.5505 70.4295 34.6273L60.4316 49.9268V57.3035C60.4316 57.4888 60.3581 57.6666 60.2272 57.7976C60.0963 57.9286 59.9188 58.0022 59.7337 58.0022Z" fill="white"/>
<path d="M62.5205 46.1518C62.4853 46.1517 62.4501 46.1489 62.4153 46.1434L57.414 45.3804C57.3235 45.3666 57.2366 45.3351 57.1582 45.2877C57.0798 45.2403 57.0115 45.1779 56.9572 45.1041C56.9029 45.0302 56.8636 44.9464 56.8417 44.8574C56.8197 44.7683 56.8155 44.6759 56.8293 44.5852C56.843 44.4945 56.8744 44.4075 56.9218 44.329C56.9691 44.2505 57.0315 44.1821 57.1052 44.1277C57.179 44.0734 57.2627 44.0341 57.3516 44.0121C57.4405 43.9901 57.5329 43.9859 57.6234 43.9997L61.8226 44.6397V39.8352C61.8226 39.6499 61.8962 39.4722 62.027 39.3411C62.1579 39.2101 62.3354 39.1365 62.5205 39.1365H65.4198V36.3416C65.4198 36.1562 65.4934 35.9785 65.6242 35.8475C65.7551 35.7164 65.9326 35.6428 66.1177 35.6428C66.3028 35.6428 66.4803 35.7164 66.6112 35.8475C66.742 35.9785 66.8155 36.1562 66.8155 36.3416V39.8324C66.8157 39.9242 66.7977 40.0151 66.7627 40.1C66.7276 40.1848 66.6763 40.2619 66.6114 40.3268C66.5466 40.3917 66.4696 40.4431 66.3849 40.4782C66.3002 40.5133 66.2094 40.5313 66.1177 40.5312H63.2183V45.4502C63.2185 45.542 63.2005 45.6329 63.1655 45.7178C63.1305 45.8026 63.079 45.8797 63.0142 45.9446C62.9494 46.0095 62.8724 46.061 62.7877 46.096C62.703 46.1311 62.6122 46.1491 62.5205 46.149V46.1518Z" fill="white"/>
<path d="M35.668 62.8142H30.8901C30.705 62.8142 30.5275 62.7406 30.3966 62.6096C30.2657 62.4785 30.1922 62.3008 30.1922 62.1155C30.1922 61.9302 30.2657 61.7524 30.3966 61.6214C30.5275 61.4904 30.705 61.4167 30.8901 61.4167H35.668C35.8531 61.4167 36.0306 61.4904 36.1615 61.6214C36.2924 61.7524 36.3659 61.9302 36.3659 62.1155C36.3659 62.3008 36.2924 62.4785 36.1615 62.6096C36.0306 62.7406 35.8531 62.8142 35.668 62.8142Z" fill="white"/>
<path d="M44.4814 62.8142H39.6997C39.5147 62.8142 39.3372 62.7406 39.2063 62.6096C39.0754 62.4785 39.0019 62.3008 39.0019 62.1155C39.0019 61.9302 39.0754 61.7524 39.2063 61.6214C39.3372 61.4904 39.5147 61.4167 39.6997 61.4167H44.4777C44.6628 61.4167 44.8403 61.4904 44.9712 61.6214C45.1021 61.7524 45.1756 61.9302 45.1756 62.1155C45.1756 62.3008 45.1021 62.4785 44.9712 62.6096C44.8403 62.7406 44.6628 62.8142 44.4777 62.8142H44.4814Z" fill="white"/>
<path d="M59.7338 62.8142H54.9595C54.7744 62.8142 54.5969 62.7406 54.4661 62.6096C54.3352 62.4785 54.2617 62.3008 54.2617 62.1155C54.2617 61.9302 54.3352 61.7524 54.4661 61.6214C54.5969 61.4904 54.7744 61.4167 54.9595 61.4167H59.7384C59.9235 61.4167 60.101 61.4904 60.2319 61.6214C60.3627 61.7524 60.4363 61.9302 60.4363 62.1155C60.4363 62.3008 60.3627 62.4785 60.2319 62.6096C60.101 62.7406 59.9235 62.8142 59.7384 62.8142H59.7338Z" fill="white"/>
<path d="M39.1713 50.4726C39.1489 50.4726 39.1275 50.4726 39.1061 50.4726C39.0148 50.4641 38.9261 50.4378 38.845 50.395C38.7639 50.3523 38.692 50.2939 38.6334 50.2233C38.5748 50.1527 38.5307 50.0712 38.5035 49.9836C38.4764 49.8959 38.4668 49.8037 38.4753 49.7123L39.6598 36.8305C39.6756 36.6569 39.7556 36.4956 39.8843 36.3782C40.0129 36.2608 40.1808 36.1958 40.3548 36.196H43.6943C43.8671 36.1961 44.0337 36.2603 44.162 36.3763C44.2902 36.4923 44.3709 36.6518 44.3884 36.824L45.4045 46.8708C45.4231 47.0553 45.3678 47.2396 45.2507 47.3832C45.1336 47.5268 44.9644 47.618 44.7801 47.6366C44.5959 47.6553 44.4118 47.5999 44.2684 47.4827C44.125 47.3654 44.0339 47.1959 44.0153 47.0115L43.0634 37.5935H40.9912L39.8654 49.8353C39.85 50.0091 39.7703 50.1709 39.6419 50.2888C39.5134 50.4068 39.3455 50.4723 39.1713 50.4726V50.4726Z" fill="white"/>
<path d="M43.7799 35.1732C43.6525 35.1738 43.5275 35.1393 43.4183 35.0736C43.3092 35.0079 43.2202 34.9134 43.1611 34.8005L41.9933 32.5581L40.7921 34.807C40.7489 34.888 40.6902 34.9596 40.6194 35.0178C40.5485 35.076 40.4669 35.1197 40.3792 35.1464C40.2915 35.173 40.1995 35.1821 40.1083 35.1731C40.0171 35.1641 39.9285 35.1372 39.8477 35.094C39.7668 35.0507 39.6953 34.992 39.6372 34.921C39.579 34.8501 39.5354 34.7684 39.5088 34.6806C39.4822 34.5928 39.4731 34.5006 39.4821 34.4093C39.491 34.318 39.5179 34.2293 39.5611 34.1484L41.3857 30.732C41.4448 30.6199 41.5333 30.526 41.6417 30.4603C41.75 30.3947 41.8741 30.3598 42.0008 30.3594V30.3594C42.1274 30.3598 42.2516 30.3947 42.3599 30.4603C42.4683 30.526 42.5567 30.6199 42.6158 30.732L44.3949 34.1484C44.4372 34.2297 44.4632 34.3186 44.4712 34.41C44.4792 34.5014 44.4691 34.5935 44.4415 34.6809C44.414 34.7684 44.3694 34.8496 44.3105 34.9198C44.2516 34.9901 44.1794 35.048 44.0981 35.0903C44.0002 35.1432 43.8911 35.1717 43.7799 35.1732V35.1732Z" fill="white"/>
<path d="M46.9742 37.5963H37.2657C37.0806 37.5963 36.9031 37.5227 36.7722 37.3917C36.6413 37.2606 36.5678 37.0829 36.5678 36.8976V34.738C36.5678 34.5527 36.6413 34.375 36.7722 34.244C36.9031 34.1129 37.0806 34.0393 37.2657 34.0393H46.9742C47.1593 34.0393 47.3368 34.1129 47.4677 34.244C47.5985 34.375 47.672 34.5527 47.672 34.738V36.8976C47.672 36.9893 47.654 37.0802 47.6189 37.165C47.5839 37.2498 47.5325 37.3268 47.4677 37.3917C47.4029 37.4566 47.3259 37.508 47.2413 37.5431C47.1566 37.5783 47.0658 37.5963 46.9742 37.5963V37.5963ZM37.9635 36.1989H46.2763V35.433H37.9635V36.1989Z" fill="white"/>
<path d="M39.4299 50.4727C39.3022 50.4725 39.177 50.4373 39.068 50.3709C38.9589 50.3045 38.8701 50.2093 38.8113 50.0958C38.7524 49.9824 38.7258 49.8549 38.7343 49.7274C38.7429 49.5998 38.7862 49.477 38.8595 49.3724L43.3751 42.9366L39.6383 37.2825C39.5854 37.206 39.5483 37.1197 39.5291 37.0287C39.5099 36.9376 39.5091 36.8437 39.5267 36.7523C39.5443 36.6609 39.5799 36.574 39.6315 36.4966C39.6831 36.4192 39.7496 36.353 39.8271 36.3016C39.9046 36.2503 39.9916 36.215 40.0829 36.1978C40.1743 36.1806 40.2681 36.1819 40.3589 36.2015C40.4498 36.2211 40.5358 36.2586 40.6119 36.3119C40.6881 36.3653 40.7528 36.4333 40.8024 36.512L44.8034 42.563C44.881 42.68 44.9216 42.8178 44.9198 42.9582C44.9179 43.0987 44.8738 43.2353 44.7932 43.3503L40.0031 50.1755C39.9386 50.2677 39.8528 50.3429 39.753 50.3946C39.6532 50.4464 39.5423 50.4732 39.4299 50.4727V50.4727Z" fill="white"/>
<path d="M43.5147 48.7669C43.4024 48.767 43.2918 48.7401 43.1922 48.6884C43.0926 48.6366 43.0069 48.5616 42.9424 48.4697L39.3499 43.3456C39.2692 43.2307 39.2251 43.094 39.2233 42.9536C39.2214 42.8131 39.262 42.6754 39.3396 42.5584L43.3406 36.5074C43.3902 36.4286 43.4549 36.3606 43.5311 36.3073C43.6072 36.254 43.6933 36.2164 43.7841 36.1968C43.8749 36.1772 43.9688 36.176 44.0601 36.1932C44.1514 36.2104 44.2384 36.2457 44.3159 36.297C44.3934 36.3483 44.4599 36.4146 44.5115 36.492C44.5631 36.5694 44.5987 36.6563 44.6163 36.7477C44.6339 36.839 44.6331 36.933 44.6139 37.024C44.5947 37.1151 44.5576 37.2014 44.5047 37.2778L40.7679 42.932L44.0869 47.6619C44.1603 47.7666 44.2036 47.8893 44.2121 48.0169C44.2206 48.1444 44.194 48.2719 44.1352 48.3854C44.0763 48.4988 43.9876 48.594 43.8785 48.6604C43.7694 48.7269 43.6442 48.7621 43.5165 48.7622L43.5147 48.7669Z" fill="white"/>
<path d="M31.3655 58.0022C31.1804 58.0022 31.0029 57.9286 30.8721 57.7976C30.7412 57.6665 30.6677 57.4888 30.6677 57.3035V42.4829C30.6677 42.2976 30.7412 42.1199 30.8721 41.9888C31.0029 41.8578 31.1804 41.7842 31.3655 41.7842H37.9412C38.1263 41.7842 38.3038 41.8578 38.4346 41.9888C38.5655 42.1199 38.639 42.2976 38.639 42.4829C38.639 42.6682 38.5655 42.8459 38.4346 42.977C38.3038 43.108 38.1263 43.1816 37.9412 43.1816H32.0634V57.3035C32.0634 57.4888 31.9899 57.6665 31.859 57.7976C31.7281 57.9286 31.5506 58.0022 31.3655 58.0022Z" fill="white"/>
<path d="M74.3022 66.3787H68.0392C67.8541 66.3787 67.6766 66.305 67.5457 66.174C67.4148 66.043 67.3413 65.8652 67.3413 65.6799C67.3413 65.4946 67.4148 65.3169 67.5457 65.1859C67.6766 65.0548 67.8541 64.9812 68.0392 64.9812H74.3022C74.4872 64.9812 74.6648 65.0548 74.7956 65.1859C74.9265 65.3169 75 65.4946 75 65.6799C75 65.8652 74.9265 66.043 74.7956 66.174C74.6648 66.305 74.4872 66.3787 74.3022 66.3787Z" fill="white"/>
<path d="M64.6969 66.3787H51.6228C51.4378 66.3787 51.2603 66.305 51.1294 66.174C50.9985 66.043 50.925 65.8652 50.925 65.6799C50.925 65.4946 50.9985 65.3169 51.1294 65.1859C51.2603 65.0548 51.4378 64.9812 51.6228 64.9812H64.6969C64.882 64.9812 65.0595 65.0548 65.1904 65.1859C65.3212 65.3169 65.3948 65.4946 65.3948 65.6799C65.3948 65.8652 65.3212 66.043 65.1904 66.174C65.0595 66.305 64.882 66.3787 64.6969 66.3787V66.3787Z" fill="white"/>
<path d="M47.9149 66.3787H34.5477C34.3626 66.3787 34.1851 66.305 34.0543 66.174C33.9234 66.043 33.8499 65.8652 33.8499 65.6799C33.8499 65.4946 33.9234 65.3169 34.0543 65.1859C34.1851 65.0548 34.3626 64.9812 34.5477 64.9812H47.9149C48.1 64.9812 48.2775 65.0548 48.4083 65.1859C48.5392 65.3169 48.6127 65.4946 48.6127 65.6799C48.6127 65.8652 48.5392 66.043 48.4083 66.174C48.2775 66.305 48.1 66.3787 47.9149 66.3787Z" fill="white"/>
<path d="M32.0987 66.3787H28.6979C28.5128 66.3787 28.3353 66.305 28.2044 66.174C28.0735 66.043 28 65.8652 28 65.6799C28 65.4946 28.0735 65.3169 28.2044 65.1859C28.3353 65.0548 28.5128 64.9812 28.6979 64.9812H32.0987C32.2838 64.9812 32.4613 65.0548 32.5922 65.1859C32.7231 65.3169 32.7966 65.4946 32.7966 65.6799C32.7966 65.8652 32.7231 66.043 32.5922 66.174C32.4613 66.305 32.2838 66.3787 32.0987 66.3787V66.3787Z" fill="white"/>
<path d="M48.4406 69.9431H41.5551C41.37 69.9431 41.1925 69.8695 41.0616 69.7385C40.9308 69.6074 40.8572 69.4297 40.8572 69.2444C40.8572 69.0591 40.9308 68.8813 41.0616 68.7503C41.1925 68.6193 41.37 68.5457 41.5551 68.5457H48.4406C48.6257 68.5457 48.8032 68.6193 48.9341 68.7503C49.0649 68.8813 49.1384 69.0591 49.1384 69.2444C49.1384 69.4297 49.0649 69.6074 48.9341 69.7385C48.8032 69.8695 48.6257 69.9431 48.4406 69.9431Z" fill="white"/>
<path d="M62.3744 69.9431H55.4889C55.3038 69.9431 55.1264 69.8695 54.9955 69.7385C54.8646 69.6074 54.7911 69.4297 54.7911 69.2444C54.7911 69.0591 54.8646 68.8813 54.9955 68.7503C55.1264 68.6193 55.3038 68.5457 55.4889 68.5457H62.3744C62.5595 68.5457 62.737 68.6193 62.8679 68.7503C62.9988 68.8813 63.0723 69.0591 63.0723 69.2444C63.0723 69.4297 62.9988 69.6074 62.8679 69.7385C62.737 69.8695 62.5595 69.9431 62.3744 69.9431V69.9431Z" fill="white"/>
<path d="M68.603 69.9431H65.1947C65.0096 69.9431 64.8321 69.8695 64.7012 69.7385C64.5704 69.6074 64.4968 69.4297 64.4968 69.2444C64.4968 69.0591 64.5704 68.8813 64.7012 68.7503C64.8321 68.6193 65.0096 68.5457 65.1947 68.5457H68.6021C68.7872 68.5457 68.9647 68.6193 69.0955 68.7503C69.2264 68.8813 69.2999 69.0591 69.2999 69.2444C69.2999 69.4297 69.2264 69.6074 69.0955 69.7385C68.9647 69.8695 68.7872 69.9431 68.6021 69.9431H68.603Z" fill="white"/>
<path d="M34.5477 69.9431H34.1383C33.9533 69.9431 33.7758 69.8695 33.6449 69.7385C33.514 69.6074 33.4405 69.4297 33.4405 69.2444C33.4405 69.0591 33.514 68.8813 33.6449 68.7503C33.7758 68.6193 33.9533 68.5457 34.1383 68.5457H34.5477C34.7328 68.5457 34.9103 68.6193 35.0412 68.7503C35.1721 68.8813 35.2456 69.0591 35.2456 69.2444C35.2456 69.4297 35.1721 69.6074 35.0412 69.7385C34.9103 69.8695 34.7328 69.9431 34.5477 69.9431Z" fill="white"/>
<path d="M39.2625 69.9431H37.0451C36.8601 69.9431 36.6826 69.8695 36.5517 69.7385C36.4208 69.6074 36.3473 69.4297 36.3473 69.2444C36.3473 69.0591 36.4208 68.8813 36.5517 68.7503C36.6826 68.6193 36.8601 68.5457 37.0451 68.5457H39.2625C39.4475 68.5457 39.625 68.6193 39.7559 68.7503C39.8868 68.8813 39.9603 69.0591 39.9603 69.2444C39.9603 69.4297 39.8868 69.6074 39.7559 69.7385C39.625 69.8695 39.4475 69.9431 39.2625 69.9431Z" fill="white"/>
<path d="M59.2629 73.3604H52.3774C52.1923 73.3604 52.0148 73.2867 51.884 73.1557C51.7531 73.0247 51.6796 72.8469 51.6796 72.6616C51.6796 72.4763 51.7531 72.2986 51.884 72.1676C52.0148 72.0365 52.1923 71.9629 52.3774 71.9629H59.2629C59.448 71.9629 59.6255 72.0365 59.7564 72.1676C59.8872 72.2986 59.9608 72.4763 59.9608 72.6616C59.9608 72.8469 59.8872 73.0247 59.7564 73.1557C59.6255 73.2867 59.448 73.3604 59.2629 73.3604Z" fill="white"/>
<path d="M39.7872 73.3604H39.3778C39.1927 73.3604 39.0152 73.2867 38.8843 73.1557C38.7535 73.0247 38.6799 72.8469 38.6799 72.6616C38.6799 72.4763 38.7535 72.2986 38.8843 72.1676C39.0152 72.0365 39.1927 71.9629 39.3778 71.9629H39.7872C39.9723 71.9629 40.1498 72.0365 40.2807 72.1676C40.4115 72.2986 40.485 72.4763 40.485 72.6616C40.485 72.8469 40.4115 73.0247 40.2807 73.1557C40.1498 73.2867 39.9723 73.3604 39.7872 73.3604Z" fill="white"/>
<path d="M50.0847 73.3604H42.2846C42.0995 73.3604 41.922 73.2867 41.7911 73.1557C41.6603 73.0247 41.5867 72.8469 41.5867 72.6616C41.5867 72.4763 41.6603 72.2986 41.7911 72.1676C41.922 72.0365 42.0995 71.9629 42.2846 71.9629H50.0847C50.2698 71.9629 50.4473 72.0365 50.5782 72.1676C50.7091 72.2986 50.7826 72.4763 50.7826 72.6616C50.7826 72.8469 50.7091 73.0247 50.5782 73.1557C50.4473 73.2867 50.2698 73.3604 50.0847 73.3604Z" fill="white"/>
</g>
<defs>
<clipPath id="clip0_1_554">
<rect width="47" height="43" fill="white" transform="translate(28 30.3594)"/>
</clipPath>
</defs>
</svg>
