<svg width="104" height="105" viewBox="0 0 104 105" fill="none" xmlns="http://www.w3.org/2000/svg">
<circle cx="52" cy="52.5781" r="49" fill="#364B5D" stroke="#F7F8F9" stroke-width="6"/>
<g clip-path="url(#clip0_1132_4231)">
<path d="M35.668 66.5974C35.4829 66.5974 35.3054 66.5237 35.1745 66.3927C35.0436 66.2617 34.9701 66.0839 34.9701 65.8986V60.6618H31.5878V65.8986C31.5878 66.0839 31.5143 66.2617 31.3834 66.3927C31.2526 66.5237 31.0751 66.5974 30.89 66.5974C30.7049 66.5974 30.5274 66.5237 30.3965 66.3927C30.2656 66.2617 30.1921 66.0839 30.1921 65.8986V59.9678C30.1921 59.7825 30.2656 59.6047 30.3965 59.4737C30.5274 59.3427 30.7049 59.269 30.89 59.269H35.668C35.853 59.269 36.0306 59.3427 36.1614 59.4737C36.2923 59.6047 36.3658 59.7825 36.3658 59.9678V65.9033C36.3646 66.0878 36.2905 66.2643 36.1598 66.3943C36.029 66.5244 35.8522 66.5974 35.668 66.5974Z" fill="white"/>
<path d="M61.8961 60.6506H29.3966C29.2115 60.6506 29.034 60.577 28.9031 60.446C28.7723 60.3149 28.6987 60.1372 28.6987 59.9519V57.5222C28.6987 57.3368 28.7723 57.1591 28.9031 57.0281C29.034 56.897 29.2115 56.8234 29.3966 56.8234H61.8961C62.0812 56.8234 62.2587 56.897 62.3896 57.0281C62.5204 57.1591 62.594 57.3368 62.594 57.5222V59.9519C62.594 60.1372 62.5204 60.3149 62.3896 60.446C62.2587 60.577 62.0812 60.6506 61.8961 60.6506ZM30.0944 59.2531H61.1983V58.2209H30.0944V59.2531Z" fill="white"/>
<path d="M44.4814 66.5974C44.2963 66.5974 44.1189 66.5237 43.988 66.3927C43.8571 66.2617 43.7836 66.0839 43.7836 65.8986V60.6618H40.4013V65.8986C40.4013 66.0839 40.3278 66.2617 40.1969 66.3927C40.066 66.5237 39.8886 66.5974 39.7035 66.5974C39.5184 66.5974 39.3409 66.5237 39.21 66.3927C39.0791 66.2617 39.0056 66.0839 39.0056 65.8986V59.9678C39.0056 59.7825 39.0791 59.6047 39.21 59.4737C39.3409 59.3427 39.5184 59.269 39.7035 59.269H44.4814C44.6665 59.269 44.844 59.3427 44.9749 59.4737C45.1058 59.6047 45.1793 59.7825 45.1793 59.9678V65.9033C45.1781 66.0878 45.104 66.2643 44.9733 66.3943C44.8425 66.5244 44.6657 66.5974 44.4814 66.5974Z" fill="white"/>
<path d="M59.7337 66.5974C59.5486 66.5974 59.3711 66.5237 59.2403 66.3927C59.1094 66.2617 59.0359 66.0839 59.0359 65.8986V60.6618H55.6527V65.8986C55.6527 66.0839 55.5792 66.2617 55.4483 66.3927C55.3174 66.5237 55.1399 66.5974 54.9548 66.5974C54.7697 66.5974 54.5922 66.5237 54.4614 66.3927C54.3305 66.2617 54.257 66.0839 54.257 65.8986V59.9678C54.257 59.7825 54.3305 59.6047 54.4614 59.4737C54.5922 59.3427 54.7697 59.269 54.9548 59.269H59.7337C59.9188 59.269 60.0963 59.3427 60.2272 59.4737C60.358 59.6047 60.4316 59.7825 60.4316 59.9678V65.9033C60.4304 66.0878 60.3563 66.2643 60.2255 66.3943C60.0948 66.5244 59.918 66.5974 59.7337 66.5974V66.5974Z" fill="white"/>
<path d="M52.9376 58.2209H37.0637C36.8786 58.2209 36.7011 58.1473 36.5702 58.0163C36.4394 57.8853 36.3658 57.7075 36.3658 57.5222V49.9927C36.3658 49.8074 36.4394 49.6296 36.5702 49.4986C36.7011 49.3676 36.8786 49.2939 37.0637 49.2939H52.9376C53.1226 49.2939 53.3001 49.3676 53.431 49.4986C53.5619 49.6296 53.6354 49.8074 53.6354 49.9927V57.5222C53.6354 57.7075 53.5619 57.8853 53.431 58.0163C53.3001 58.1473 53.1226 58.2209 52.9376 58.2209ZM37.7616 56.8235H52.2397V50.6914H37.7616V56.8235Z" fill="white"/>
<path d="M56.7469 58.2209C56.5618 58.2209 56.3843 58.1473 56.2534 58.0162C56.1226 57.8852 56.049 57.7075 56.049 57.5222V48.3268H44.2106V49.9926C44.2106 50.1779 44.1371 50.3557 44.0062 50.4867C43.8754 50.6177 43.6979 50.6914 43.5128 50.6914C43.3277 50.6914 43.1502 50.6177 43.0193 50.4867C42.8885 50.3557 42.8149 50.1779 42.8149 49.9926V47.6281C42.8149 47.4428 42.8885 47.2651 43.0193 47.134C43.1502 47.003 43.3277 46.9294 43.5128 46.9294H56.7469C56.932 46.9294 57.1095 47.003 57.2403 47.134C57.3712 47.2651 57.4447 47.4428 57.4447 47.6281V57.5222C57.4447 57.7075 57.3712 57.8852 57.2403 58.0162C57.1095 58.1473 56.932 58.2209 56.7469 58.2209Z" fill="white"/>
<path d="M39.1703 54.5419C38.9852 54.5419 38.8077 54.4682 38.6768 54.3372C38.5459 54.2062 38.4724 54.0284 38.4724 53.8431V53.2376C38.4724 53.0522 38.5459 52.8745 38.6768 52.7435C38.8077 52.6124 38.9852 52.5388 39.1703 52.5388C39.3553 52.5388 39.5328 52.6124 39.6637 52.7435C39.7946 52.8745 39.8681 53.0522 39.8681 53.2376V53.8431C39.8681 54.0284 39.7946 54.2062 39.6637 54.3372C39.5328 54.4682 39.3553 54.5419 39.1703 54.5419Z" fill="white"/>
<path d="M40.9094 54.5419C40.7243 54.5419 40.5468 54.4682 40.416 54.3372C40.2851 54.2062 40.2115 54.0284 40.2115 53.8431V53.2376C40.2115 53.0522 40.2851 52.8745 40.416 52.7435C40.5468 52.6124 40.7243 52.5388 40.9094 52.5388C41.0945 52.5388 41.272 52.6124 41.4029 52.7435C41.5337 52.8745 41.6073 53.0522 41.6073 53.2376V53.8431C41.6073 54.0284 41.5337 54.2062 41.4029 54.3372C41.272 54.4682 41.0945 54.5419 40.9094 54.5419Z" fill="white"/>
<path d="M33.7931 46.6592C33.608 46.6592 33.4305 46.5856 33.2996 46.4546C33.1687 46.3235 33.0952 46.1458 33.0952 45.9605V45.3549C33.0952 45.1696 33.1687 44.9919 33.2996 44.8608C33.4305 44.7298 33.608 44.6562 33.7931 44.6562C33.9782 44.6562 34.1556 44.7298 34.2865 44.8608C34.4174 44.9919 34.4909 45.1696 34.4909 45.3549V45.9605C34.4909 46.1458 34.4174 46.3235 34.2865 46.4546C34.1556 46.5856 33.9782 46.6592 33.7931 46.6592Z" fill="white"/>
<path d="M35.5276 46.6592C35.3425 46.6592 35.165 46.5856 35.0341 46.4546C34.9032 46.3235 34.8297 46.1458 34.8297 45.9605V45.3549C34.8297 45.1696 34.9032 44.9919 35.0341 44.8608C35.165 44.7298 35.3425 44.6562 35.5276 44.6562C35.7126 44.6562 35.8902 44.7298 36.021 44.8608C36.1519 44.9919 36.2254 45.1696 36.2254 45.3549V45.9605C36.2254 46.1458 36.1519 46.3235 36.021 46.4546C35.8902 46.5856 35.7126 46.6592 35.5276 46.6592Z" fill="white"/>
<path d="M42.6391 54.5419C42.4541 54.5419 42.2765 54.4682 42.1457 54.3372C42.0148 54.2062 41.9413 54.0284 41.9413 53.8431V53.2376C41.9413 53.0522 42.0148 52.8745 42.1457 52.7435C42.2765 52.6124 42.4541 52.5388 42.6391 52.5388C42.8242 52.5388 43.0017 52.6124 43.1326 52.7435C43.2635 52.8745 43.337 53.0522 43.337 53.2376V53.8431C43.337 54.0284 43.2635 54.2062 43.1326 54.3372C43.0017 54.4682 42.8242 54.5419 42.6391 54.5419Z" fill="white"/>
<path d="M72.6459 66.5973C72.4608 66.5973 72.2833 66.5237 72.1524 66.3927C72.0215 66.2616 71.948 66.0839 71.948 65.8986V35.1618H68.5639L57.2326 46.1552C57.0977 46.2709 56.9239 46.3308 56.7465 46.3227C56.5691 46.3146 56.4015 46.239 56.2778 46.1115C56.1541 45.9839 56.0836 45.814 56.0807 45.6362C56.0777 45.4584 56.1426 45.2862 56.2621 45.1546L67.8 33.9609C67.93 33.8343 68.1042 33.7635 68.2857 33.7634H72.6496C72.8347 33.7634 73.0122 33.837 73.143 33.9681C73.2739 34.0991 73.3474 34.2768 73.3474 34.4622V65.8977C73.3476 65.9898 73.3295 66.0811 73.2942 66.1662C73.259 66.2513 73.2073 66.3287 73.1421 66.3937C73.0768 66.4587 72.9994 66.5102 72.9143 66.5451C72.8291 66.5801 72.7379 66.5978 72.6459 66.5973Z" fill="white"/>
<path d="M59.7337 58.2209C59.5487 58.2209 59.3711 58.1473 59.2403 58.0163C59.1094 57.8852 59.0359 57.7075 59.0359 57.5222V49.9368C59.0357 49.8008 59.0751 49.6677 59.1494 49.5539L69.2608 34.0811C69.311 34.0043 69.3758 33.9381 69.4515 33.8863C69.5272 33.8346 69.6124 33.7982 69.7021 33.7794C69.7918 33.7606 69.8844 33.7597 69.9745 33.7767C70.0645 33.7937 70.1504 33.8283 70.2271 33.8785C70.3039 33.9287 70.37 33.9936 70.4217 34.0694C70.4734 34.1452 70.5097 34.2304 70.5284 34.3203C70.5472 34.4101 70.5482 34.5028 70.5312 34.593C70.5142 34.6832 70.4797 34.7692 70.4295 34.846L60.4316 50.1454V57.5222C60.4316 57.7075 60.3581 57.8852 60.2272 58.0163C60.0963 58.1473 59.9188 58.2209 59.7337 58.2209Z" fill="white"/>
<path d="M62.5205 46.3704C62.4853 46.3703 62.4502 46.3675 62.4154 46.362L57.4141 45.599C57.3236 45.5852 57.2366 45.5537 57.1582 45.5063C57.0798 45.4589 57.0115 45.3965 56.9572 45.3227C56.9029 45.2488 56.8637 45.165 56.8417 45.076C56.8198 44.987 56.8156 44.8945 56.8293 44.8038C56.8431 44.7132 56.8745 44.6261 56.9219 44.5476C56.9692 44.4691 57.0315 44.4007 57.1053 44.3464C57.179 44.292 57.2627 44.2527 57.3517 44.2307C57.4406 44.2088 57.5329 44.2045 57.6235 44.2183L61.8227 44.8583V40.0538C61.8227 39.8685 61.8962 39.6908 62.0271 39.5598C62.158 39.4287 62.3355 39.3551 62.5205 39.3551H65.4199V36.5602C65.4199 36.3749 65.4934 36.1971 65.6243 36.0661C65.7552 35.9351 65.9327 35.8615 66.1177 35.8615C66.3028 35.8615 66.4803 35.9351 66.6112 36.0661C66.7421 36.1971 66.8156 36.3749 66.8156 36.5602V40.051C66.8157 40.1428 66.7978 40.2338 66.7627 40.3186C66.7277 40.4034 66.6763 40.4805 66.6115 40.5454C66.5467 40.6103 66.4697 40.6618 66.385 40.6968C66.3002 40.7319 66.2094 40.7499 66.1177 40.7498H63.2184V45.6689C63.2185 45.7607 63.2006 45.8516 63.1655 45.9364C63.1305 46.0212 63.0791 46.0983 63.0143 46.1632C62.9494 46.2281 62.8725 46.2796 62.7877 46.3147C62.703 46.3497 62.6122 46.3677 62.5205 46.3676V46.3704Z" fill="white"/>
<path d="M35.668 63.0328H30.89C30.7049 63.0328 30.5274 62.9592 30.3965 62.8282C30.2656 62.6971 30.1921 62.5194 30.1921 62.3341C30.1921 62.1488 30.2656 61.9711 30.3965 61.84C30.5274 61.709 30.7049 61.6354 30.89 61.6354H35.668C35.853 61.6354 36.0306 61.709 36.1614 61.84C36.2923 61.9711 36.3658 62.1488 36.3658 62.3341C36.3658 62.5194 36.2923 62.6971 36.1614 62.8282C36.0306 62.9592 35.853 63.0328 35.668 63.0328Z" fill="white"/>
<path d="M44.4815 63.0328H39.6998C39.5147 63.0328 39.3372 62.9592 39.2064 62.8282C39.0755 62.6971 39.002 62.5194 39.002 62.3341C39.002 62.1488 39.0755 61.9711 39.2064 61.84C39.3372 61.709 39.5147 61.6354 39.6998 61.6354H44.4778C44.6629 61.6354 44.8404 61.709 44.9712 61.84C45.1021 61.9711 45.1756 62.1488 45.1756 62.3341C45.1756 62.5194 45.1021 62.6971 44.9712 62.8282C44.8404 62.9592 44.6629 63.0328 44.4778 63.0328H44.4815Z" fill="white"/>
<path d="M59.7337 63.0328H54.9595C54.7744 63.0328 54.5969 62.9592 54.466 62.8282C54.3351 62.6971 54.2616 62.5194 54.2616 62.3341C54.2616 62.1488 54.3351 61.9711 54.466 61.84C54.5969 61.709 54.7744 61.6354 54.9595 61.6354H59.7384C59.9234 61.6354 60.1009 61.709 60.2318 61.84C60.3627 61.9711 60.4362 62.1488 60.4362 62.3341C60.4362 62.5194 60.3627 62.6971 60.2318 62.8282C60.1009 62.9592 59.9234 63.0328 59.7384 63.0328H59.7337Z" fill="white"/>
<path d="M39.1713 50.6914C39.1489 50.6914 39.1275 50.6914 39.1061 50.6914C39.0148 50.6829 38.9261 50.6566 38.845 50.6138C38.7639 50.5711 38.692 50.5127 38.6334 50.4421C38.5748 50.3715 38.5307 50.2901 38.5035 50.2024C38.4764 50.1147 38.4668 50.0225 38.4753 49.9311L39.6598 37.0493C39.6756 36.8757 39.7556 36.7144 39.8843 36.597C40.0129 36.4796 40.1808 36.4146 40.3548 36.4149H43.6943C43.8671 36.4149 44.0337 36.4791 44.162 36.5951C44.2902 36.7111 44.3709 36.8706 44.3884 37.0428L45.4045 47.0896C45.4231 47.2741 45.3678 47.4584 45.2507 47.602C45.1336 47.7456 44.9644 47.8368 44.7801 47.8554C44.5959 47.8741 44.4118 47.8187 44.2684 47.7015C44.125 47.5842 44.0339 47.4148 44.0153 47.2303L43.0634 37.8123H40.9912L39.8654 50.0541C39.85 50.2279 39.7703 50.3897 39.6419 50.5076C39.5134 50.6256 39.3455 50.6911 39.1713 50.6914V50.6914Z" fill="white"/>
<path d="M43.7799 35.3919C43.6526 35.3925 43.5275 35.3581 43.4184 35.2924C43.3093 35.2266 43.2203 35.1322 43.1611 35.0193L41.9934 32.7768L40.7922 35.0258C40.749 35.1067 40.6903 35.1783 40.6194 35.2366C40.5486 35.2948 40.467 35.3385 40.3793 35.3651C40.2916 35.3918 40.1995 35.4008 40.1083 35.3919C40.0171 35.3829 39.9286 35.356 39.8477 35.3127C39.7669 35.2695 39.6954 35.2107 39.6372 35.1398C39.5791 35.0689 39.5354 34.9872 39.5088 34.8994C39.4822 34.8116 39.4731 34.7194 39.4821 34.628C39.4911 34.5367 39.518 34.4481 39.5611 34.3671L41.3858 30.9508C41.4449 30.8386 41.5334 30.7447 41.6417 30.6791C41.7501 30.6134 41.8742 30.5785 42.0008 30.5781V30.5781C42.1275 30.5785 42.2516 30.6134 42.36 30.6791C42.4683 30.7447 42.5568 30.8386 42.6159 30.9508L44.3949 34.3671C44.4373 34.4485 44.4632 34.5374 44.4712 34.6288C44.4792 34.7201 44.4692 34.8122 44.4416 34.8997C44.414 34.9872 44.3695 35.0684 44.3106 35.1386C44.2516 35.2088 44.1794 35.2667 44.0981 35.309C44.0003 35.362 43.8911 35.3904 43.7799 35.3919V35.3919Z" fill="white"/>
<path d="M46.9741 37.8151H37.2656C37.0805 37.8151 36.903 37.7415 36.7721 37.6105C36.6413 37.4794 36.5677 37.3017 36.5677 37.1164V34.9569C36.5677 34.7715 36.6413 34.5938 36.7721 34.4628C36.903 34.3317 37.0805 34.2581 37.2656 34.2581H46.9741C47.1592 34.2581 47.3367 34.3317 47.4676 34.4628C47.5985 34.5938 47.672 34.7715 47.672 34.9569V37.1164C47.672 37.2082 47.6539 37.299 47.6189 37.3838C47.5838 37.4686 47.5324 37.5456 47.4676 37.6105C47.4028 37.6754 47.3259 37.7268 47.2412 37.7619C47.1565 37.7971 47.0658 37.8151 46.9741 37.8151V37.8151ZM37.9635 36.4177H46.2763V35.6519H37.9635V36.4177Z" fill="white"/>
<path d="M39.4299 50.6914C39.3022 50.6912 39.177 50.656 39.068 50.5896C38.9589 50.5231 38.8701 50.428 38.8113 50.3145C38.7524 50.2011 38.7258 50.0736 38.7343 49.9461C38.7429 49.8185 38.7862 49.6957 38.8595 49.5911L43.3751 43.1553L39.6383 37.5012C39.5854 37.4247 39.5483 37.3384 39.5291 37.2473C39.5099 37.1563 39.5091 37.0624 39.5267 36.971C39.5443 36.8796 39.5799 36.7927 39.6315 36.7153C39.6831 36.6379 39.7496 36.5716 39.8271 36.5203C39.9046 36.469 39.9916 36.4337 40.0829 36.4165C40.1743 36.3993 40.2681 36.4006 40.3589 36.4202C40.4498 36.4397 40.5358 36.4773 40.6119 36.5306C40.6881 36.584 40.7528 36.652 40.8024 36.7307L44.8034 42.7817C44.881 42.8987 44.9216 43.0365 44.9198 43.1769C44.9179 43.3174 44.8738 43.454 44.7932 43.5689L40.0031 50.3942C39.9386 50.4864 39.8528 50.5616 39.753 50.6133C39.6532 50.6651 39.5423 50.6919 39.4299 50.6914V50.6914Z" fill="white"/>
<path d="M43.5147 48.9855C43.4025 48.9857 43.2919 48.9588 43.1923 48.9071C43.0927 48.8553 43.007 48.7803 42.9425 48.6884L39.3499 43.5643C39.2693 43.4494 39.2252 43.3127 39.2233 43.1723C39.2215 43.0318 39.2621 42.8941 39.3397 42.7771L43.3407 36.7261C43.3903 36.6473 43.455 36.5793 43.5311 36.526C43.6073 36.4727 43.6933 36.4351 43.7842 36.4155C43.875 36.3959 43.9688 36.3947 44.0601 36.4119C44.1515 36.4291 44.2384 36.4644 44.316 36.5157C44.3935 36.567 44.46 36.6333 44.5116 36.7107C44.5632 36.7881 44.5988 36.875 44.6164 36.9664C44.6339 37.0577 44.6331 37.1517 44.614 37.2427C44.5948 37.3337 44.5577 37.42 44.5047 37.4965L40.768 43.1507L44.087 47.8806C44.1603 47.9852 44.2036 48.108 44.2121 48.2356C44.2207 48.3631 44.194 48.4906 44.1352 48.604C44.0764 48.7175 43.9876 48.8127 43.8785 48.8791C43.7695 48.9455 43.6443 48.9807 43.5166 48.9809L43.5147 48.9855Z" fill="white"/>
<path d="M31.3655 58.2209C31.1804 58.2209 31.0029 58.1473 30.872 58.0163C30.7411 57.8852 30.6676 57.7075 30.6676 57.5222V42.7016C30.6676 42.5163 30.7411 42.3386 30.872 42.2075C31.0029 42.0765 31.1804 42.0029 31.3655 42.0029H37.9411C38.1262 42.0029 38.3037 42.0765 38.4346 42.2075C38.5654 42.3386 38.639 42.5163 38.639 42.7016C38.639 42.8869 38.5654 43.0646 38.4346 43.1957C38.3037 43.3267 38.1262 43.4003 37.9411 43.4003H32.0633V57.5222C32.0633 57.7075 31.9898 57.8852 31.8589 58.0163C31.7281 58.1473 31.5505 58.2209 31.3655 58.2209Z" fill="white"/>
<path d="M74.3022 66.5973H68.0392C67.8541 66.5973 67.6766 66.5237 67.5457 66.3926C67.4148 66.2616 67.3413 66.0839 67.3413 65.8986C67.3413 65.7132 67.4148 65.5355 67.5457 65.4045C67.6766 65.2734 67.8541 65.1998 68.0392 65.1998H74.3022C74.4872 65.1998 74.6648 65.2734 74.7956 65.4045C74.9265 65.5355 75 65.7132 75 65.8986C75 66.0839 74.9265 66.2616 74.7956 66.3926C74.6648 66.5237 74.4872 66.5973 74.3022 66.5973Z" fill="white"/>
<path d="M64.6968 66.5973H51.6228C51.4377 66.5973 51.2602 66.5237 51.1293 66.3926C50.9985 66.2616 50.9249 66.0839 50.9249 65.8986C50.9249 65.7132 50.9985 65.5355 51.1293 65.4045C51.2602 65.2734 51.4377 65.1998 51.6228 65.1998H64.6968C64.8819 65.1998 65.0594 65.2734 65.1903 65.4045C65.3212 65.5355 65.3947 65.7132 65.3947 65.8986C65.3947 66.0839 65.3212 66.2616 65.1903 66.3926C65.0594 66.5237 64.8819 66.5973 64.6968 66.5973V66.5973Z" fill="white"/>
<path d="M47.9149 66.5973H34.5477C34.3626 66.5973 34.1851 66.5237 34.0543 66.3926C33.9234 66.2616 33.8499 66.0839 33.8499 65.8986C33.8499 65.7132 33.9234 65.5355 34.0543 65.4045C34.1851 65.2734 34.3626 65.1998 34.5477 65.1998H47.9149C48.1 65.1998 48.2775 65.2734 48.4083 65.4045C48.5392 65.5355 48.6127 65.7132 48.6127 65.8986C48.6127 66.0839 48.5392 66.2616 48.4083 66.3926C48.2775 66.5237 48.1 66.5973 47.9149 66.5973Z" fill="white"/>
<path d="M32.0987 66.5973H28.6979C28.5128 66.5973 28.3353 66.5237 28.2044 66.3926C28.0735 66.2616 28 66.0839 28 65.8986C28 65.7132 28.0735 65.5355 28.2044 65.4045C28.3353 65.2734 28.5128 65.1998 28.6979 65.1998H32.0987C32.2838 65.1998 32.4613 65.2734 32.5922 65.4045C32.7231 65.5355 32.7966 65.7132 32.7966 65.8986C32.7966 66.0839 32.7231 66.2616 32.5922 66.3926C32.4613 66.5237 32.2838 66.5973 32.0987 66.5973V66.5973Z" fill="white"/>
<path d="M48.4406 70.1618H41.5552C41.3701 70.1618 41.1926 70.0882 41.0617 69.9571C40.9308 69.8261 40.8573 69.6484 40.8573 69.4631C40.8573 69.2778 40.9308 69.1 41.0617 68.969C41.1926 68.838 41.3701 68.7643 41.5552 68.7643H48.4406C48.6257 68.7643 48.8032 68.838 48.9341 68.969C49.065 69.1 49.1385 69.2778 49.1385 69.4631C49.1385 69.6484 49.065 69.8261 48.9341 69.9571C48.8032 70.0882 48.6257 70.1618 48.4406 70.1618Z" fill="white"/>
<path d="M62.3744 70.1618H55.4889C55.3038 70.1618 55.1263 70.0882 54.9954 69.9571C54.8645 69.8261 54.791 69.6484 54.791 69.4631C54.791 69.2778 54.8645 69.1 54.9954 68.969C55.1263 68.838 55.3038 68.7643 55.4889 68.7643H62.3744C62.5594 68.7643 62.737 68.838 62.8678 68.969C62.9987 69.1 63.0722 69.2778 63.0722 69.4631C63.0722 69.6484 62.9987 69.8261 62.8678 69.9571C62.737 70.0882 62.5594 70.1618 62.3744 70.1618V70.1618Z" fill="white"/>
<path d="M68.603 70.1618H65.1947C65.0096 70.1618 64.8321 70.0882 64.7012 69.9571C64.5704 69.8261 64.4968 69.6484 64.4968 69.4631C64.4968 69.2778 64.5704 69.1 64.7012 68.969C64.8321 68.838 65.0096 68.7643 65.1947 68.7643H68.6021C68.7872 68.7643 68.9647 68.838 69.0955 68.969C69.2264 69.1 69.2999 69.2778 69.2999 69.4631C69.2999 69.6484 69.2264 69.8261 69.0955 69.9571C68.9647 70.0882 68.7872 70.1618 68.6021 70.1618H68.603Z" fill="white"/>
<path d="M34.5477 70.1618H34.1383C33.9532 70.1618 33.7757 70.0882 33.6448 69.9571C33.514 69.8261 33.4404 69.6484 33.4404 69.4631C33.4404 69.2778 33.514 69.1 33.6448 68.969C33.7757 68.838 33.9532 68.7643 34.1383 68.7643H34.5477C34.7328 68.7643 34.9103 68.838 35.0412 68.969C35.172 69.1 35.2455 69.2778 35.2455 69.4631C35.2455 69.6484 35.172 69.8261 35.0412 69.9571C34.9103 70.0882 34.7328 70.1618 34.5477 70.1618Z" fill="white"/>
<path d="M39.2625 70.1618H37.0451C36.8601 70.1618 36.6826 70.0882 36.5517 69.9571C36.4208 69.8261 36.3473 69.6484 36.3473 69.4631C36.3473 69.2778 36.4208 69.1 36.5517 68.969C36.6826 68.838 36.8601 68.7643 37.0451 68.7643H39.2625C39.4475 68.7643 39.625 68.838 39.7559 68.969C39.8868 69.1 39.9603 69.2778 39.9603 69.4631C39.9603 69.6484 39.8868 69.8261 39.7559 69.9571C39.625 70.0882 39.4475 70.1618 39.2625 70.1618Z" fill="white"/>
<path d="M59.2629 73.579H52.3774C52.1923 73.579 52.0148 73.5054 51.884 73.3744C51.7531 73.2434 51.6796 73.0656 51.6796 72.8803C51.6796 72.695 51.7531 72.5173 51.884 72.3862C52.0148 72.2552 52.1923 72.1816 52.3774 72.1816H59.2629C59.448 72.1816 59.6255 72.2552 59.7564 72.3862C59.8872 72.5173 59.9608 72.695 59.9608 72.8803C59.9608 73.0656 59.8872 73.2434 59.7564 73.3744C59.6255 73.5054 59.448 73.579 59.2629 73.579Z" fill="white"/>
<path d="M39.7872 73.579H39.3778C39.1927 73.579 39.0152 73.5054 38.8843 73.3744C38.7535 73.2434 38.6799 73.0656 38.6799 72.8803C38.6799 72.695 38.7535 72.5173 38.8843 72.3862C39.0152 72.2552 39.1927 72.1816 39.3778 72.1816H39.7872C39.9723 72.1816 40.1498 72.2552 40.2807 72.3862C40.4115 72.5173 40.485 72.695 40.485 72.8803C40.485 73.0656 40.4115 73.2434 40.2807 73.3744C40.1498 73.5054 39.9723 73.579 39.7872 73.579Z" fill="white"/>
<path d="M50.0848 73.579H42.2846C42.0996 73.579 41.9221 73.5054 41.7912 73.3744C41.6603 73.2434 41.5868 73.0656 41.5868 72.8803C41.5868 72.695 41.6603 72.5173 41.7912 72.3862C41.9221 72.2552 42.0996 72.1816 42.2846 72.1816H50.0848C50.2699 72.1816 50.4474 72.2552 50.5782 72.3862C50.7091 72.5173 50.7827 72.695 50.7827 72.8803C50.7827 73.0656 50.7091 73.2434 50.5782 73.3744C50.4474 73.5054 50.2699 73.579 50.0848 73.579Z" fill="white"/>
</g>
<defs>
<clipPath id="clip0_1132_4231">
<rect width="47" height="43" fill="white" transform="translate(28 30.5781)"/>
</clipPath>
</defs>
</svg>
