<svg width="104" height="105" viewBox="0 0 104 105" fill="none" xmlns="http://www.w3.org/2000/svg">
<circle cx="52" cy="52.5781" r="49" fill="#D80621" stroke="#F7F8F9" stroke-width="6"/>
<g clip-path="url(#clip0_1132_4194)">
<path d="M33.4936 70.3269C33.3775 70.3271 33.263 70.2994 33.1596 70.2462C33.0563 70.193 32.9671 70.1157 32.8996 70.0209C31.4005 67.932 30.5968 65.4213 30.6032 62.8468C30.6032 62.6524 30.6801 62.4659 30.8171 62.3283C30.9541 62.1908 31.1399 62.1136 31.3336 62.1136C31.5273 62.1136 31.7131 62.1908 31.8501 62.3283C31.987 62.4659 32.064 62.6524 32.064 62.8468C32.0584 65.1142 32.766 67.3254 34.0857 69.1654C34.1638 69.275 34.2104 69.404 34.2203 69.5383C34.2302 69.6727 34.2031 69.8072 34.142 69.9271C34.0809 70.0471 33.988 70.1478 33.8737 70.2183C33.7593 70.2888 33.6278 70.3264 33.4936 70.3269V70.3269Z" fill="white"/>
<path d="M42.87 75.1604C39.6742 75.1673 36.6034 73.9151 34.3175 71.6731C34.2476 71.6062 34.1915 71.5261 34.1527 71.4374C34.1138 71.3486 34.0928 71.253 34.091 71.1561C34.0891 71.0591 34.1064 70.9628 34.1419 70.8726C34.1774 70.7825 34.2304 70.7003 34.2977 70.6308C34.3651 70.5613 34.4455 70.5059 34.5343 70.4678C34.6231 70.4297 34.7186 70.4097 34.8152 70.4089C34.9117 70.4081 35.0075 70.4265 35.0969 70.4631C35.1864 70.4997 35.2677 70.5538 35.3362 70.6221C37.346 72.5848 40.0371 73.6863 42.841 73.6938C45.6448 73.7012 48.3418 72.6142 50.3619 70.6622C50.431 70.5954 50.5125 70.5429 50.6018 70.5077C50.691 70.4724 50.7863 70.4552 50.8822 70.457C50.9782 70.4588 51.0728 70.4795 51.1607 70.518C51.2486 70.5564 51.3281 70.6119 51.3947 70.6813C51.4613 70.7506 51.5136 70.8324 51.5487 70.922C51.5837 71.0116 51.6009 71.1073 51.5991 71.2036C51.5973 71.2999 51.5767 71.3949 51.5384 71.4831C51.5001 71.5714 51.4448 71.6512 51.3757 71.7181C49.0939 73.9317 46.0431 75.1663 42.87 75.1604V75.1604Z" fill="white"/>
<path d="M52.222 70.3591C52.0874 70.3593 51.9554 70.3221 51.8406 70.2516C51.7258 70.1811 51.6326 70.0801 51.5715 69.9598C51.5103 69.8395 51.4834 69.7045 51.4939 69.5699C51.5044 69.4352 51.5518 69.306 51.6308 69.1967C52.9661 67.3495 53.6822 65.1242 53.6759 62.8419C53.6759 62.6475 53.7529 62.461 53.8899 62.3235C54.0268 62.186 54.2126 62.1087 54.4063 62.1087C54.6001 62.1087 54.7858 62.186 54.9228 62.3235C55.0598 62.461 55.1367 62.6475 55.1367 62.8419C55.1441 65.4335 54.3311 67.9604 52.8151 70.058C52.747 70.1518 52.6578 70.228 52.5547 70.2803C52.4515 70.3327 52.3375 70.3597 52.222 70.3591V70.3591Z" fill="white"/>
<path d="M54.2164 61.4859C54.0455 61.4855 53.8802 61.4251 53.7491 61.3151C53.618 61.2051 53.5294 61.0525 53.4987 60.8837C53.0397 58.3992 51.7315 56.1534 49.7997 54.5336C47.8679 52.9137 45.4336 52.0214 42.9166 52.0105C40.3996 51.9996 37.9577 52.8709 36.012 54.4739C34.0664 56.077 32.7389 58.3114 32.2587 60.7918C32.2223 60.9829 32.1117 61.1517 31.9514 61.2609C31.791 61.3702 31.594 61.4111 31.4036 61.3745C31.2133 61.3379 31.0452 61.227 30.9363 61.066C30.8275 60.905 30.7868 60.7072 30.8232 60.5161C31.3675 57.6996 32.8741 55.1621 35.083 53.3415C37.2918 51.521 40.0644 50.5315 42.9223 50.5439C45.7802 50.5563 48.5442 51.5698 50.7373 53.4095C52.9304 55.2491 54.4151 57.7996 54.9351 60.6207C54.9701 60.8117 54.9283 61.0087 54.8187 61.1687C54.7092 61.3287 54.5409 61.4386 54.3508 61.4742C54.3065 61.4822 54.2615 61.4861 54.2164 61.4859V61.4859Z" fill="white"/>
<path d="M55.0754 63.5801H30.6694C30.4756 63.5801 30.2899 63.5028 30.1529 63.3653C30.0159 63.2278 29.939 63.0413 29.939 62.8468C29.939 62.6524 30.0159 62.4659 30.1529 62.3283C30.2899 62.1908 30.4756 62.1136 30.6694 62.1136H55.0803C55.274 62.1136 55.4597 62.1908 55.5967 62.3283C55.7337 62.4659 55.8107 62.6524 55.8107 62.8468C55.8107 63.0413 55.7337 63.2278 55.5967 63.3653C55.4597 63.5028 55.274 63.5801 55.0803 63.5801H55.0754Z" fill="white"/>
<path d="M30.2885 77.5781C30.1514 77.578 30.017 77.5392 29.9008 77.466C29.7846 77.3928 29.6913 77.2882 29.6315 77.1643C29.5718 77.0403 29.548 76.902 29.5629 76.7651C29.5779 76.6282 29.6309 76.4983 29.7159 76.3902L35.1959 69.4166C35.3177 69.2699 35.4919 69.1767 35.6811 69.157C35.8704 69.1372 36.0599 69.1923 36.2093 69.3107C36.3587 69.4291 36.4562 69.6013 36.481 69.7907C36.5058 69.9801 36.4559 70.1718 36.3421 70.3249L30.8641 77.2985C30.7957 77.386 30.7083 77.4567 30.6086 77.5052C30.5088 77.5536 30.3994 77.5786 30.2885 77.5781V77.5781Z" fill="white"/>
<path d="M55.3705 77.5781C55.26 77.5783 55.1509 77.5532 55.0515 77.5048C54.9522 77.4563 54.8651 77.3858 54.7969 77.2985L49.3169 70.3249C49.2575 70.2493 49.2135 70.1627 49.1875 70.07C49.1614 69.9773 49.1538 69.8804 49.1651 69.7847C49.1763 69.6891 49.2063 69.5966 49.2531 69.5126C49.3 69.4286 49.3629 69.3546 49.4382 69.295C49.5135 69.2353 49.5998 69.1912 49.6921 69.165C49.7845 69.1389 49.881 69.1312 49.9763 69.1425C50.0716 69.1538 50.1637 69.1838 50.2474 69.2309C50.3311 69.2779 50.4048 69.3411 50.4642 69.4167L55.9441 76.3903C56.0292 76.4984 56.0822 76.6284 56.0971 76.7654C56.112 76.9024 56.0881 77.0408 56.0283 77.1648C55.9684 77.2887 55.8749 77.3933 55.7586 77.4664C55.6422 77.5395 55.5077 77.5782 55.3705 77.5781V77.5781Z" fill="white"/>
<path d="M76.2696 77.5781H28.7304C28.5367 77.5781 28.3509 77.5009 28.2139 77.3633C28.077 77.2258 28 77.0393 28 76.8449C28 76.6504 28.077 76.4639 28.2139 76.3264C28.3509 76.1889 28.5367 76.1116 28.7304 76.1116H76.2696C76.4633 76.1116 76.6491 76.1889 76.7861 76.3264C76.923 76.4639 77 76.6504 77 76.8449C77 77.0393 76.923 77.2258 76.7861 77.3633C76.6491 77.5009 76.4633 77.5781 76.2696 77.5781Z" fill="white"/>
<path d="M33.8655 52.7457C33.6718 52.7457 33.486 52.6685 33.3491 52.531C33.2121 52.3935 33.1351 52.207 33.1351 52.0125V44.0182C33.1351 43.8237 33.2121 43.6372 33.3491 43.4997C33.486 43.3622 33.6718 43.285 33.8655 43.285H38.8926C39.0863 43.285 39.2721 43.3622 39.4091 43.4997C39.5461 43.6372 39.623 43.8237 39.623 44.0182V49.4178C39.623 49.6123 39.5461 49.7988 39.4091 49.9363C39.2721 50.0738 39.0863 50.151 38.8926 50.151C38.6989 50.151 38.5131 50.0738 38.3762 49.9363C38.2392 49.7988 38.1622 49.6123 38.1622 49.4178V44.7515H34.5959V52.0125C34.5959 52.207 34.519 52.3935 34.382 52.531C34.245 52.6685 34.0592 52.7457 33.8655 52.7457Z" fill="white"/>
<path d="M58.7771 56.7424C58.5834 56.7424 58.3976 56.6651 58.2606 56.5276C58.1236 56.3901 58.0467 56.2036 58.0467 56.0091V48.9202H39.0563C38.8626 48.9202 38.6768 48.8429 38.5399 48.7054C38.4029 48.5679 38.3259 48.3814 38.3259 48.1869C38.3259 47.9924 38.4029 47.8059 38.5399 47.6684C38.6768 47.5309 38.8626 47.4537 39.0563 47.4537H58.7819C58.9757 47.4537 59.1615 47.5309 59.2984 47.6684C59.4354 47.8059 59.5123 47.9924 59.5123 48.1869V56.0081C59.5125 56.1049 59.4935 56.2008 59.4566 56.2902C59.4196 56.3796 59.3654 56.4607 59.2971 56.529C59.2287 56.5972 59.1476 56.6512 59.0583 56.6879C58.9691 56.7245 58.8735 56.743 58.7771 56.7424V56.7424Z" fill="white"/>
<path d="M66.2583 68.6492C66.085 68.649 65.9176 68.587 65.7856 68.4744C65.6536 68.3618 65.5657 68.2058 65.5376 68.0343L63.6873 56.7424H56.0911C55.8974 56.7424 55.7116 56.6651 55.5746 56.5276C55.4377 56.3901 55.3607 56.2036 55.3607 56.0091C55.3607 55.8147 55.4377 55.6281 55.5746 55.4906C55.7116 55.3531 55.8974 55.2759 56.0911 55.2759H64.3027C64.4761 55.2757 64.6437 55.3375 64.7758 55.4502C64.9078 55.5629 64.9956 55.7191 65.0234 55.8908L66.9711 67.7967C66.9869 67.8917 66.9838 67.9889 66.962 68.0827C66.9403 68.1765 66.9003 68.2651 66.8444 68.3434C66.7885 68.4217 66.7177 68.4881 66.6362 68.5389C66.5547 68.5897 66.464 68.6239 66.3693 68.6394C66.3325 68.6452 66.2954 68.6484 66.2583 68.6492V68.6492Z" fill="white"/>
<path d="M72.5631 68.6492C72.3964 68.649 72.2349 68.5916 72.1052 68.4865C71.9755 68.3814 71.8856 68.2349 71.8502 68.0714L70.0271 59.6949H65.0897C64.8959 59.6949 64.7102 59.6176 64.5732 59.4801C64.4362 59.3426 64.3593 59.1561 64.3593 58.9616C64.3593 58.7672 64.4362 58.5807 64.5732 58.4432C64.7102 58.3056 64.8959 58.2284 65.0897 58.2284H70.6154C70.782 58.2283 70.9437 58.2855 71.0736 58.3904C71.2034 58.4954 71.2936 58.6417 71.3292 58.8052L73.2769 67.7644C73.318 67.9544 73.2824 68.1529 73.1777 68.3164C73.0731 68.4799 72.9081 68.5951 72.7189 68.6365C72.6676 68.6464 72.6153 68.6507 72.5631 68.6492Z" fill="white"/>
<path d="M74.4378 77.5351C74.2441 77.5351 74.0583 77.4579 73.9213 77.3204C73.7843 77.1829 73.7074 76.9964 73.7074 76.8019V68.746H56.0989C55.9052 68.746 55.7194 68.6688 55.5825 68.5313C55.4455 68.3938 55.3685 68.2072 55.3685 68.0128C55.3685 67.8183 55.4455 67.6318 55.5825 67.4943C55.7194 67.3568 55.9052 67.2795 56.0989 67.2795H74.4378C74.6315 67.2795 74.8173 67.3568 74.9543 67.4943C75.0912 67.6318 75.1682 67.8183 75.1682 68.0128V76.8038C75.1676 76.998 75.0905 77.184 74.9536 77.3211C74.8166 77.4582 74.6311 77.5351 74.4378 77.5351V77.5351Z" fill="white"/>
<path d="M56.763 48.4636C56.5835 48.4635 56.4103 48.3971 56.2765 48.277C56.1427 48.1569 56.0576 47.9916 56.0375 47.8125L55.3081 41.2485H53.5074L52.8315 47.8066C52.8216 47.9024 52.793 47.9953 52.7474 48.08C52.7017 48.1646 52.6399 48.2395 52.5654 48.3001C52.4909 48.3608 52.4053 48.4062 52.3133 48.4337C52.2214 48.4611 52.125 48.4701 52.0296 48.4602C51.9342 48.4502 51.8416 48.4215 51.7573 48.3757C51.6729 48.3298 51.5984 48.2678 51.538 48.193C51.4775 48.1182 51.4323 48.0323 51.405 47.94C51.3776 47.8477 51.3686 47.7509 51.3785 47.6551L52.1226 40.44C52.1409 40.2595 52.2254 40.0922 52.3596 39.9706C52.4939 39.849 52.6683 39.7818 52.8491 39.782H55.9654C56.1452 39.7819 56.3186 39.8484 56.4525 39.9687C56.5864 40.0891 56.6713 40.2548 56.691 40.4341L57.4934 47.6492C57.5148 47.8425 57.4589 48.0363 57.338 48.1883C57.2172 48.3402 57.0412 48.4378 56.8487 48.4597C56.8203 48.4626 56.7917 48.4639 56.763 48.4636V48.4636Z" fill="white"/>
<path d="M63.7457 54.2934C63.5651 54.2933 63.391 54.226 63.2569 54.1045C63.1229 53.9829 63.0385 53.8158 63.0202 53.6354L62.0463 44.0769H60.2379L59.972 46.1955C59.9479 46.3885 59.8483 46.564 59.6953 46.6834C59.5422 46.8027 59.3482 46.8562 59.1559 46.8319C58.9636 46.8077 58.7888 46.7077 58.6699 46.5541C58.551 46.4005 58.4978 46.2057 58.5219 46.0127L58.8686 43.2518C58.8907 43.0745 58.9766 42.9115 59.11 42.7934C59.2434 42.6753 59.4153 42.6102 59.5932 42.6104H62.7096C62.8904 42.6104 63.0649 42.6779 63.1991 42.7996C63.3333 42.9213 63.4177 43.0887 63.4361 43.2694L64.4771 53.4858C64.4967 53.6793 64.439 53.8726 64.3166 54.0233C64.1943 54.174 64.0173 54.2697 63.8246 54.2895C63.7984 54.2924 63.7721 54.2937 63.7457 54.2934Z" fill="white"/>
<path d="M70.0067 57.4629C69.8261 57.4624 69.652 57.3948 69.5181 57.2732C69.3841 57.1515 69.2997 56.9844 69.2812 56.804L68.3073 47.2464H66.4989L66.233 49.365C66.2228 49.462 66.1935 49.556 66.1466 49.6414C66.0998 49.7268 66.0365 49.8021 65.9604 49.8626C65.8843 49.9232 65.7969 49.968 65.7033 49.9942C65.6098 50.0205 65.5119 50.0277 65.4156 50.0156C65.3192 50.0034 65.2262 49.9721 65.142 49.9234C65.0578 49.8747 64.9842 49.8097 64.9254 49.7321C64.8666 49.6545 64.8237 49.5659 64.7994 49.4714C64.7752 49.377 64.7699 49.2787 64.7839 49.1822L65.1296 46.4213C65.1517 46.2441 65.2376 46.0811 65.371 45.963C65.5044 45.8449 65.6763 45.7798 65.8542 45.78H68.9705C69.1514 45.78 69.3259 45.8474 69.4601 45.9691C69.5943 46.0909 69.6787 46.2583 69.697 46.4389L70.7381 56.6554C70.7479 56.7512 70.7389 56.848 70.7114 56.9402C70.6839 57.0325 70.6385 57.1184 70.5779 57.1931C70.5173 57.2677 70.4426 57.3296 70.3582 57.3753C70.2737 57.4209 70.1811 57.4494 70.0856 57.459C70.0594 57.462 70.0331 57.4633 70.0067 57.4629V57.4629Z" fill="white"/>
<path d="M56.4933 39.1476C56.3083 39.1472 56.1302 39.0764 55.9952 38.9494C55.8601 38.8223 55.7782 38.6486 55.7658 38.4632C55.6684 36.9254 56.8157 36.066 57.5061 35.8011C57.6422 35.7486 57.7907 35.7381 57.9327 35.7707C58.4537 35.8929 58.9973 35.8785 59.5112 35.729C60.0251 35.5796 60.4922 35.3 60.8675 34.9172C61.2429 34.5345 61.5139 34.0612 61.6547 33.543C61.7955 33.0248 61.8012 32.479 61.6714 31.9579C61.6245 31.7691 61.6542 31.5694 61.754 31.4027C61.8538 31.2359 62.0155 31.1158 62.2036 31.0687C62.3916 31.0217 62.5906 31.0515 62.7567 31.1517C62.9228 31.2519 63.0424 31.4142 63.0893 31.603C63.2747 32.3459 63.2725 33.1235 63.0829 33.8653C62.8933 34.6071 62.5223 35.2897 62.0036 35.8512C61.4848 36.4128 60.8347 36.8355 60.1121 37.0811C59.3896 37.3267 58.6173 37.3874 57.8655 37.2578C57.6172 37.4054 57.1838 37.7525 57.2237 38.3782C57.2354 38.5717 57.1703 38.7621 57.0426 38.9076C56.9148 39.0531 56.7348 39.1418 56.542 39.1544L56.4933 39.1476Z" fill="white"/>
<path d="M52.6241 39.1994C52.4447 39.1999 52.2714 39.1341 52.1372 39.0146C50.9607 37.9685 51.0221 36.329 51.0435 36.0327C51.0498 35.517 51.1614 35.008 51.3712 34.5372C51.5811 34.0663 51.8849 33.6437 52.2638 33.2953C51.8884 32.6158 51.6926 31.8511 51.695 31.0741C51.6954 30.3468 51.8669 29.63 52.1956 28.9819C52.2372 28.8928 52.2962 28.813 52.3691 28.7472C52.4421 28.6815 52.5275 28.6312 52.6202 28.5993C52.7129 28.5673 52.8111 28.5545 52.9089 28.5615C53.0067 28.5685 53.1021 28.5951 53.1894 28.6399C53.2767 28.6847 53.3541 28.7466 53.417 28.8221C53.48 28.8975 53.5271 28.9849 53.5557 29.079C53.5843 29.1732 53.5937 29.2721 53.5834 29.37C53.5731 29.4678 53.5433 29.5626 53.4957 29.6487C53.2251 30.1825 53.1124 30.783 53.1709 31.3792C53.2294 31.9753 53.4567 32.5422 53.8259 33.0128C53.8902 33.0949 53.9363 33.1899 53.9612 33.2914C53.986 33.3929 53.989 33.4985 53.9699 33.6012C53.9508 33.7039 53.9101 33.8014 53.8505 33.8871C53.7909 33.9727 53.7138 34.0446 53.6243 34.098C53.284 34.3012 53.0019 34.5895 52.8056 34.9348C52.6093 35.28 52.5055 35.6704 52.5043 36.0679C52.5058 36.093 52.5058 36.1181 52.5043 36.1432C52.5043 36.151 52.4069 37.2969 53.1091 37.9206C53.2204 38.0194 53.2991 38.1499 53.3346 38.2947C53.3702 38.4395 53.3609 38.5918 53.308 38.7312C53.255 38.8705 53.1611 38.9904 53.0385 39.0748C52.916 39.1591 52.7707 39.2039 52.6222 39.2033L52.6241 39.1994Z" fill="white"/>
<path d="M53.2562 34.1967C53.0985 34.197 52.945 34.1462 52.8186 34.0517C52.6921 33.9572 52.5995 33.8241 52.5546 33.6724C52.5097 33.5208 52.5148 33.3585 52.5693 33.21C52.6238 33.0615 52.7247 32.9347 52.8569 32.8485C53.3764 32.5041 53.9596 32.268 54.5719 32.1544C54.7617 32.1155 54.9592 32.1539 55.1208 32.2612C55.2824 32.3684 55.395 32.5358 55.4337 32.7263C55.4725 32.9169 55.4342 33.1151 55.3274 33.2774C55.2205 33.4397 55.0539 33.5527 54.864 33.5916C54.4327 33.6707 54.0218 33.837 53.6564 34.0804C53.5372 34.1575 53.398 34.198 53.2562 34.1967Z" fill="white"/>
<path d="M61.7999 32.5054C61.2693 32.5055 60.7424 32.4156 60.2417 32.2394C60.1512 32.2073 60.0679 32.1577 59.9966 32.0933C59.9252 32.0288 59.8672 31.9509 59.8258 31.864C59.7844 31.7771 59.7605 31.6828 59.7554 31.5866C59.7503 31.4904 59.7642 31.3942 59.7962 31.3033C59.8281 31.2125 59.8776 31.1289 59.9418 31.0572C60.0059 30.9856 60.0835 30.9274 60.1701 30.8858C60.2567 30.8443 60.3506 30.8203 60.4464 30.8152C60.5423 30.8101 60.6381 30.824 60.7286 30.8561C61.1501 31.0037 61.5973 31.0629 62.0426 31.0301C62.4878 30.9973 62.9216 30.8732 63.3172 30.6654C63.4887 30.5747 63.689 30.556 63.8742 30.6136C64.0594 30.6712 64.2142 30.8002 64.3046 30.9724C64.395 31.1446 64.4136 31.3457 64.3563 31.5316C64.2989 31.7176 64.1704 31.873 63.9989 31.9637C63.3204 32.3204 62.5657 32.5062 61.7999 32.5054V32.5054Z" fill="white"/>
<path d="M65.2785 30.4562C65.1511 30.4564 65.0259 30.4231 64.9153 30.3595C64.8047 30.296 64.7126 30.2045 64.6482 30.0942C64.5838 29.9838 64.5493 29.8584 64.5481 29.7305C64.547 29.6026 64.5792 29.4767 64.6417 29.3651C64.6983 29.2637 64.7493 29.1593 64.7945 29.0523C64.8707 28.8734 65.0146 28.7322 65.1945 28.6598C65.3744 28.5873 65.5756 28.5896 65.7538 28.6661C65.932 28.7426 66.0727 28.887 66.1448 29.0676C66.2169 29.2482 66.2147 29.4502 66.1385 29.6291C66.0725 29.7835 65.9984 29.9343 65.9164 30.0808C65.8532 30.1948 65.7606 30.2898 65.6485 30.3558C65.5363 30.4218 65.4086 30.4565 65.2785 30.4562V30.4562Z" fill="white"/>
<path d="M71.0847 37.1942C70.2019 37.194 69.3365 36.9469 68.5858 36.4805C68.4213 36.3778 68.3041 36.2138 68.2601 36.0244C68.2161 35.835 68.2488 35.6358 68.3511 35.4706C68.4533 35.3054 68.6168 35.1878 68.8055 35.1436C68.9941 35.0994 69.1925 35.1323 69.3571 35.235C69.7989 35.5102 70.2999 35.6752 70.8183 35.7162C71.3366 35.7572 71.8572 35.673 72.3365 35.4707C72.8158 35.2683 73.2399 34.9537 73.5732 34.5531C73.9066 34.1526 74.1396 33.6777 74.2527 33.1682C74.2724 33.0731 74.3108 32.9829 74.3655 32.9028C74.4203 32.8227 74.4903 32.7543 74.5716 32.7017C74.6529 32.649 74.7439 32.613 74.8391 32.5959C74.9344 32.5788 75.0321 32.5809 75.1265 32.602C75.221 32.6231 75.3103 32.6629 75.3893 32.7189C75.4683 32.775 75.5355 32.8463 75.5868 32.9286C75.6382 33.0109 75.6727 33.1027 75.6884 33.1985C75.7042 33.2944 75.7008 33.3924 75.6784 33.4869C75.4453 34.5364 74.8636 35.4751 74.0288 36.1488C73.194 36.8225 72.1558 37.1911 71.0847 37.1942V37.1942Z" fill="white"/>
<path d="M69.2412 45.0193C69.0553 45.0189 68.8765 44.9474 68.7411 44.8194C68.6058 44.6913 68.5242 44.5164 68.5128 44.3301C68.4154 42.7932 69.5636 41.9338 70.254 41.6679C70.3902 41.6158 70.5387 41.6056 70.6806 41.6386C71.2015 41.7598 71.7447 41.7448 72.2582 41.5951C72.7717 41.4453 73.2384 41.1658 73.6135 40.7832C73.9886 40.4006 74.2597 39.9278 74.4008 39.41C74.5419 38.8922 74.5482 38.3467 74.4193 37.8257C74.3754 37.6382 74.4068 37.4409 74.5067 37.2764C74.6066 37.112 74.7669 36.9936 74.9531 36.9469C75.1392 36.9001 75.3362 36.9288 75.5014 37.0266C75.6667 37.1245 75.787 37.2837 75.8362 37.4699C76.022 38.2127 76.0201 38.9904 75.8308 39.7324C75.6414 40.4744 75.2706 41.1572 74.7519 41.7189C74.2331 42.2806 73.583 42.7034 72.8603 42.9491C72.1376 43.1947 71.3653 43.2554 70.6134 43.1256C70.3641 43.2722 69.9317 43.6203 69.9706 44.246C69.9826 44.4396 69.9176 44.6302 69.7898 44.7757C69.662 44.9212 69.4818 45.0099 69.2889 45.0222L69.2412 45.0193Z" fill="white"/>
<path d="M62.9675 41.8361C62.7823 41.836 62.604 41.7653 62.4688 41.6382C62.3336 41.5111 62.2514 41.3372 62.2391 41.1517C62.1417 39.6139 63.2889 38.7545 63.9794 38.4886C64.1156 38.4369 64.264 38.4267 64.4059 38.4592C64.8642 38.5666 65.3407 38.5687 65.7999 38.4652C66.259 38.3618 66.6889 38.1555 67.0575 37.8618C67.4261 37.5681 67.7238 37.1946 67.9284 36.7692C68.133 36.3438 68.2392 35.8775 68.2391 35.4051C68.2374 35.1475 68.2047 34.8912 68.1417 34.6415C68.116 34.5473 68.1092 34.4488 68.1219 34.3519C68.1346 34.255 68.1665 34.1617 68.2156 34.0773C68.2648 33.993 68.3303 33.9194 68.4082 33.8608C68.4861 33.8022 68.5748 33.7598 68.6693 33.7362C68.7637 33.7125 68.8619 33.708 68.9581 33.723C69.0543 33.738 69.1465 33.7722 69.2294 33.8234C69.3123 33.8747 69.3841 33.9421 69.4406 34.0217C69.4972 34.1012 69.5373 34.1913 69.5587 34.2866C69.7443 35.0294 69.7422 35.807 69.5528 36.5489C69.3633 37.2907 68.9925 37.9733 68.4738 38.5349C67.9551 39.0965 67.305 39.5192 66.5824 39.7648C65.8599 40.0104 65.0877 40.0711 64.3358 39.9414C64.0865 40.089 63.6541 40.4361 63.6931 41.0618C63.7048 41.2554 63.6397 41.4457 63.5119 41.5912C63.3842 41.7367 63.2042 41.8254 63.0114 41.838L62.9675 41.8361Z" fill="white"/>
<path d="M70.8831 72.6224C70.6894 72.6224 70.5036 72.5452 70.3666 72.4076C70.2297 72.2701 70.1527 72.0836 70.1527 71.8892V70.9174C70.1527 70.7229 70.2297 70.5364 70.3666 70.3989C70.5036 70.2614 70.6894 70.1841 70.8831 70.1841C71.0768 70.1841 71.2626 70.2614 71.3996 70.3989C71.5366 70.5364 71.6135 70.7229 71.6135 70.9174V71.8892C71.6135 72.0836 71.5366 72.2701 71.3996 72.4076C71.2626 72.5452 71.0768 72.6224 70.8831 72.6224Z" fill="white"/>
<path d="M67.758 72.6224C67.5643 72.6224 67.3785 72.5452 67.2415 72.4076C67.1045 72.2701 67.0276 72.0836 67.0276 71.8892V70.9174C67.0276 70.7229 67.1045 70.5364 67.2415 70.3989C67.3785 70.2614 67.5643 70.1841 67.758 70.1841C67.9517 70.1841 68.1375 70.2614 68.2744 70.3989C68.4114 70.5364 68.4884 70.7229 68.4884 70.9174V71.8892C68.4884 72.0836 68.4114 72.2701 68.2744 72.4076C68.1375 72.5452 67.9517 72.6224 67.758 72.6224Z" fill="white"/>
<path d="M64.6329 72.6224C64.4392 72.6224 64.2534 72.5452 64.1164 72.4076C63.9794 72.2701 63.9025 72.0836 63.9025 71.8892V70.9174C63.9025 70.7229 63.9794 70.5364 64.1164 70.3989C64.2534 70.2614 64.4392 70.1841 64.6329 70.1841C64.8266 70.1841 65.0124 70.2614 65.1493 70.3989C65.2863 70.5364 65.3633 70.7229 65.3633 70.9174V71.8892C65.3633 72.0836 65.2863 72.2701 65.1493 72.4076C65.0124 72.5452 64.8266 72.6224 64.6329 72.6224Z" fill="white"/>
<path d="M61.9305 60.9766C61.7368 60.9766 61.551 60.8993 61.414 60.7618C61.277 60.6243 61.2001 60.4378 61.2001 60.2434V59.2716C61.2001 59.0771 61.277 58.8906 61.414 58.7531C61.551 58.6156 61.7368 58.5383 61.9305 58.5383C62.1242 58.5383 62.31 58.6156 62.4469 58.7531C62.5839 58.8906 62.6609 59.0771 62.6609 59.2716V60.2434C62.6609 60.4378 62.5839 60.6243 62.4469 60.7618C62.31 60.8993 62.1242 60.9766 61.9305 60.9766V60.9766Z" fill="white"/>
<path d="M59.4295 60.9766C59.2358 60.9766 59.05 60.8993 58.913 60.7618C58.776 60.6243 58.6991 60.4378 58.6991 60.2434V59.2716C58.6991 59.0771 58.776 58.8906 58.913 58.7531C59.05 58.6156 59.2358 58.5383 59.4295 58.5383C59.6232 58.5383 59.809 58.6156 59.946 58.7531C60.0829 58.8906 60.1599 59.0771 60.1599 59.2716V60.2434C60.1599 60.4378 60.0829 60.6243 59.946 60.7618C59.809 60.8993 59.6232 60.9766 59.4295 60.9766V60.9766Z" fill="white"/>
</g>
<defs>
<clipPath id="clip0_1132_4194">
<rect width="49" height="49" fill="white" transform="translate(28 28.5781)"/>
</clipPath>
</defs>
</svg>
