<svg xmlns="http://www.w3.org/2000/svg" width="104.92" height="81.515" viewBox="0 0 104.92 81.515">
  <g id="Outline" transform="translate(0.959 0.765)">
    <path id="Path_9526" data-name="Path 9526" d="M28.783,76.791a3.226,3.226,0,0,0-1.436-2.028L19.93,70.106a3.254,3.254,0,0,0-4.477,1.023L.489,94.957a3.252,3.252,0,0,0,1.023,4.477l7.417,4.658a3.253,3.253,0,0,0,4.477-1.023l1.066-1.7,7.024,4.411a10.153,10.153,0,0,0,.772,5.747,4.832,4.832,0,0,0-.733,5.642,4.627,4.627,0,0,0,3.644,2.241,5.23,5.23,0,0,0-.583,1.231,4.557,4.557,0,0,0,.369,3.724,4.7,4.7,0,0,0,4.125,2.267,5.458,5.458,0,0,0,2.034-.4,4.528,4.528,0,0,0,.439,3.481,4.7,4.7,0,0,0,4.125,2.267,5.481,5.481,0,0,0,2.3-.517,4.523,4.523,0,0,0,.45,3.436,4.7,4.7,0,0,0,4.125,2.267,5.514,5.514,0,0,0,2.775-.76l6.17-3.6,5.6,3.265a5.461,5.461,0,0,0,3.114.985,4.628,4.628,0,0,0,3.868-1.936,4.533,4.533,0,0,0,.724-3.448,5.4,5.4,0,0,0,2.384.557,4.63,4.63,0,0,0,3.868-1.936,4.574,4.574,0,0,0,.7-3.585,5.38,5.38,0,0,0,1.933.36,4.628,4.628,0,0,0,3.868-1.936,4.792,4.792,0,0,0-.022-5.342,4.587,4.587,0,0,0,3.513-1.924,4.9,4.9,0,0,0-.513-6,10.4,10.4,0,0,0,.938-6.091l7.031-4.415,1.066,1.7a3.253,3.253,0,0,0,4.477,1.023l7.418-4.658a3.252,3.252,0,0,0,1.023-4.477L87.537,71.13a3.254,3.254,0,0,0-4.477-1.023l-7.417,4.658a3.254,3.254,0,0,0-1.023,4.477l1.066,1.7-3.04,1.909a43.6,43.6,0,0,0,.984-9.206c0-1.217-.057-2.493-.169-3.793a.805.805,0,0,0-.406-.631L51.89,57.274a.805.805,0,0,0-.791,0L29.936,69.217a.805.805,0,0,0-.406.631c-.112,1.3-.169,2.575-.169,3.793a43.6,43.6,0,0,0,.984,9.206L27.3,80.938l1.066-1.7a3.226,3.226,0,0,0,.413-2.45ZM31.1,70.408l20.4-11.51,20.4,11.51c.085,1.107.129,2.193.129,3.232a42.013,42.013,0,0,1-20.525,36.017A42.013,42.013,0,0,1,30.97,73.641c0-1.04.043-2.126.129-3.232Zm44.676,6.741a1.626,1.626,0,0,1,.723-1.023l7.417-4.658a1.644,1.644,0,0,1,2.259.516l14.963,23.828a1.64,1.64,0,0,1-.516,2.259L93.2,102.729a1.644,1.644,0,0,1-2.258-.516L75.982,78.384a1.626,1.626,0,0,1-.207-1.235Zm11.886,22.86-7.512,4.717a.8.8,0,0,0-.336.936,7.934,7.934,0,0,1-.549,5.132l-15.01-9.6a14.429,14.429,0,0,0,7.018-2.456.8.8,0,0,0-.856-1.363,13.925,13.925,0,0,1-5.328,2.133A42.971,42.971,0,0,0,72.1,85.09l4.442-2.79Zm-52.305-4.33a43.71,43.71,0,0,0,15.736,15.608.806.806,0,0,0,.806,0,43.688,43.688,0,0,0,10.994-9.053L78.624,112.3a4.084,4.084,0,0,1,.408.33h0a3.351,3.351,0,0,1,.709,4.324,3.042,3.042,0,0,1-2.55,1.25,3.86,3.86,0,0,1-2.215-.711l-.005,0-.016-.009-.015-.012-11.65-7.383a.8.8,0,1,0-.861,1.36l11.636,7.374,1.053.737a3.412,3.412,0,0,1,1.131,4.665,3.04,3.04,0,0,1-2.549,1.249,3.865,3.865,0,0,1-2.221-.715L69.55,123.4l-.006,0h0l-10.351-7.155a.8.8,0,1,0-.915,1.324l10.346,7.152h0a3.411,3.411,0,0,1,1.131,4.664,3.042,3.042,0,0,1-2.55,1.25,3.862,3.862,0,0,1-2.22-.714l-2.4-1.681-8.888-6.762a.8.8,0,0,0-.974,1.281l8.9,6.772.015.01.011.009.007,0A3.819,3.819,0,0,1,63.2,131.8a2.971,2.971,0,0,1-.426,2.4,3.041,3.041,0,0,1-2.549,1.249,3.862,3.862,0,0,1-2.22-.714c-.018-.013-.037-.025-.056-.036l-5.013-2.922a4.87,4.87,0,0,0,.982-5.9,4.959,4.959,0,0,0-6.428-1.754,4.523,4.523,0,0,0-.451-3.432,4.929,4.929,0,0,0-6.158-1.87,4.528,4.528,0,0,0-.44-3.48A4.645,4.645,0,0,0,36.8,113.1a4.735,4.735,0,0,0,.209-4.953,4.683,4.683,0,0,0-4.126-2.266,5.517,5.517,0,0,0-2.773.758l-6.49,3.783-.034.021q-.114-.306-.207-.614a7.629,7.629,0,0,1-.208-4.166.8.8,0,0,0-.334-.939l-7.512-4.717L26.448,82.3l4.442,2.79A43.244,43.244,0,0,0,35.355,95.679Zm4.477,38.413a2.968,2.968,0,0,1-.225-2.425,3.809,3.809,0,0,1,1.734-2.121h0l3.611-2.1h0l2.878-1.678a3.193,3.193,0,1,1,3.19,5.473l-6.49,3.783a3.4,3.4,0,0,1-4.7-.927Zm-6.878-5.186a2.967,2.967,0,0,1-.225-2.425,3.809,3.809,0,0,1,1.734-2.121l3.892-2.268h0l2.6-1.514a3.4,3.4,0,0,1,4.7.927,2.968,2.968,0,0,1,.225,2.425,3.81,3.81,0,0,1-1.733,2.12h0l-6.489,3.783A3.4,3.4,0,0,1,32.954,128.906Zm-6.6-5.349a2.968,2.968,0,0,1-.225-2.425,3.809,3.809,0,0,1,1.734-2.121.8.8,0,0,0,.146-.112c.144-.068.286-.14.424-.221l5.924-3.453a3.4,3.4,0,0,1,4.694.93,2.967,2.967,0,0,1,.225,2.425,3.809,3.809,0,0,1-1.734,2.121l-6.49,3.783A3.4,3.4,0,0,1,26.356,123.557Zm-3.43-7.2a3.4,3.4,0,0,1,1.509-4.546l6.49-3.783a3.906,3.906,0,0,1,1.963-.54,3.093,3.093,0,0,1,2.736,1.467,3.4,3.4,0,0,1-1.509,4.546l-.566.33,0,0h0l-5.919,3.45a3.906,3.906,0,0,1-1.963.539,3.093,3.093,0,0,1-2.736-1.467ZM12.044,102.213a1.644,1.644,0,0,1-2.258.516L2.368,98.072a1.64,1.64,0,0,1-.516-2.259L16.815,71.985a1.644,1.644,0,0,1,2.259-.516l7.417,4.657a1.645,1.645,0,0,1,.516,2.259Z" transform="translate(0.007 -57.17)" fill="#162c5f" stroke="#162c5f" stroke-width="1.5"/>
    <path id="Path_9527" data-name="Path 9527" d="M82.67,148.725a4.013,4.013,0,1,0-2.137,7.411h0a4.013,4.013,0,0,0,2.136-7.411Zm-2.137,5.755a2.357,2.357,0,1,1,2-1.1A2.352,2.352,0,0,1,80.533,154.479Z" transform="translate(-60.681 -129.873)" fill="#162c5f" stroke="#162c5f" stroke-width="1.5"/>
    <path id="Path_9528" data-name="Path 9528" d="M397.337,154.256a4.013,4.013,0,1,0,1.264-5.532A3.992,3.992,0,0,0,397.337,154.256Zm2.145-4.129a2.357,2.357,0,1,1-.742,3.249A2.348,2.348,0,0,1,399.481,150.127Z" transform="translate(-317.586 -129.872)" fill="#162c5f" stroke="#162c5f" stroke-width="1.5"/>
    <path id="Path_9529" data-name="Path 9529" d="M196.549,144.153l7.271,7.271a2.976,2.976,0,0,0,2.118.877c.084,0,.169,0,.247-.01a2.993,2.993,0,0,0,2.191-1.244l11.715-16.406a3,3,0,1,0-4.876-3.481l-9.66,13.528-4.771-4.771a3,3,0,1,0-4.236,4.237Zm3.065-3.066,5.462,5.462a.828.828,0,0,0,1.259-.1l10.228-14.323a1.343,1.343,0,0,1,1.091-.561,1.328,1.328,0,0,1,.776.25,1.341,1.341,0,0,1,.312,1.868l-11.714,16.406a1.342,1.342,0,0,1-.986.557,1.313,1.313,0,0,1-1.051-.388l-7.272-7.271a1.34,1.34,0,1,1,1.895-1.894Z" transform="translate(-156.659 -115.431)" fill="#162c5f" stroke="#162c5f" stroke-width="1.5"/>
  </g>
</svg>
