<svg xmlns="http://www.w3.org/2000/svg" width="73.211" height="68.756" viewBox="0 0 73.211 68.756">
  <path id="outsourcing" d="M46.756,93.156A35.8,35.8,0,0,1,11,57.4a.588.588,0,0,1,.586-.586h4.425l-.029-.615c-.1-2.858.088-8.25.1-8.851V47.29c-.205-4.616,5.1-6.316,6.155-6.609a21.683,21.683,0,0,1,3.165-.6L26.9,39.9l-1.216-.879c-1.876-1.363-2.945-3.927-2.945-7.049,0-2.271.586-3.839,1.788-4.792A6.405,6.405,0,0,1,28.6,26.1a5.924,5.924,0,0,1,3.971,1.1c1.128.938,1.671,2.506,1.671,4.792,0,3.092-1.055,5.656-2.9,7.019l-1.2.894,1.495.161a17.2,17.2,0,0,1,3.136.63,10.777,10.777,0,0,1,3.942,2.139l.278.249.337-.132a13,13,0,0,1,1.275-.425,21.684,21.684,0,0,1,3.165-.6l1.495-.176-1.216-.879c-1.876-1.363-2.945-3.927-2.945-7.049,0-2.271.586-3.839,1.788-4.792a6.405,6.405,0,0,1,4.074-1.084,5.924,5.924,0,0,1,3.971,1.1c1.128.938,1.671,2.506,1.671,4.792,0,3.092-1.055,5.656-2.9,7.019l-1.2.894,1.495.161a17.2,17.2,0,0,1,3.136.63c.278.088.542.176.806.278l.322.132.264-.22a10.98,10.98,0,0,1,4.015-2.022,21.684,21.684,0,0,1,3.165-.6l1.495-.176-1.216-.879c-1.876-1.363-2.945-3.927-2.945-7.049,0-2.271.586-3.839,1.788-4.792A6.405,6.405,0,0,1,64.9,26.129a5.924,5.924,0,0,1,3.971,1.1c1.128.938,1.671,2.506,1.671,4.792,0,3.092-1.055,5.656-2.9,7.019l-1.2.894,1.495.161a17.2,17.2,0,0,1,3.136.63c1.407.44,6.023,2.227,6.037,6.609.015.615.117,5.979.059,8.91l-.015.6h4.777a.588.588,0,0,1,.586.586A35.788,35.788,0,0,1,46.756,93.156Zm.586-1.084.909-.586A40.332,40.332,0,0,0,60.882,78.5l.41-.674-.762-.19a55.625,55.625,0,0,0-12.588-1.656l-.6-.015Zm-1.773-16.1a55.626,55.626,0,0,0-12.588,1.656l-.762.19.41.674A40.483,40.483,0,0,0,45.261,91.471l.909.586v-16.1ZM30.622,78.283a38.052,38.052,0,0,0-7.591,3.239l-.689.4.572.542A34.243,34.243,0,0,0,41.48,91.588l3.224.469-1.231-.674a19.919,19.919,0,0,1-3.385-2.345A41.752,41.752,0,0,1,31.31,78.532l-.234-.4Zm31.594.264A41.382,41.382,0,0,1,53.995,88.57a23.944,23.944,0,0,1-4.25,3l-1.158.645L52.06,91.6a34.271,34.271,0,0,0,18.552-9.144l.571-.542-.689-.4A38.923,38.923,0,0,0,62.9,78.283l-.44-.132ZM12.187,58.6a34.587,34.587,0,0,0,9,22.1l.322.352.41-.249A37.949,37.949,0,0,1,29.83,77.33l.659-.205-.322-.615a41.624,41.624,0,0,1-4.587-17.936L25.566,58H12.172Zm55.758-.044a41.434,41.434,0,0,1-4.6,17.936l-.322.615.659.205a37.816,37.816,0,0,1,7.9,3.473l.41.249.322-.352a34.587,34.587,0,0,0,9-22.1l.015-.6H67.945Zm-20.6,16.266.571.015a56.6,56.6,0,0,1,13.5,1.832l.454.117.22-.41A40.921,40.921,0,0,0,66.758,58.6l.015-.6H47.342ZM26.753,58.6a40.921,40.921,0,0,0,4.675,17.775l.22.41.454-.117a57.357,57.357,0,0,1,13.5-1.832l.572-.015V57.987H26.738Zm45-10.58a.588.588,0,0,1,.586.586v8.206h3.62l.015-.571c.059-3.019-.059-8.851-.059-8.91,0-2.506-1.846-4.469-5.217-5.51a19.118,19.118,0,0,0-5.759-.733,23.324,23.324,0,0,0-6.1.733,10.774,10.774,0,0,0-2.7,1.143l-.762.469.747.513a6.269,6.269,0,0,1,3.019,5.187v.044c.015.967.073,4.323.073,7.049v.586H71.184V48.608A.566.566,0,0,1,71.755,48.022ZM53.819,49.854a.588.588,0,0,1,.586.586v6.389h3.634v-.586c0-3.077-.073-7.034-.073-7.063,0-2.506-1.846-4.469-5.217-5.51a19.118,19.118,0,0,0-5.759-.733,23.324,23.324,0,0,0-6.1.733,9.523,9.523,0,0,0-3.649,1.846,4.328,4.328,0,0,0-1.656,3.62v.059c0,.044-.161,4.044-.147,7.063v.586h3.81V50.455a.586.586,0,1,1,1.172,0v6.389H53.218V50.455A.613.613,0,0,1,53.819,49.854Zm-32.3-1.832a.588.588,0,0,1,.586.586v8.206H34.285v-.586c-.015-2.916.132-6.638.147-7.049v-.059a5.806,5.806,0,0,1,2.755-5.041l.689-.484-.689-.484a9.885,9.885,0,0,0-2.77-1.3,19.118,19.118,0,0,0-5.759-.733,23.324,23.324,0,0,0-6.1.733,10.139,10.139,0,0,0-3.649,1.861,4.328,4.328,0,0,0-1.656,3.62v.059c-.015.249-.249,6.14-.117,8.91l.029.557h3.766V48.608A.588.588,0,0,1,21.522,48.022Zm25.425-18.9a5.247,5.247,0,0,0-3.341.835c-.923.718-1.348,1.949-1.348,3.869,0,4,1.89,6.8,4.587,6.8s4.587-2.8,4.587-6.8c0-1.964-.381-3.165-1.246-3.883A4.884,4.884,0,0,0,46.946,29.119ZM64.882,27.3a5.247,5.247,0,0,0-3.341.835c-.923.718-1.348,1.949-1.348,3.869,0,4,1.89,6.8,4.587,6.8s4.587-2.8,4.587-6.8c0-1.964-.381-3.165-1.246-3.883A4.884,4.884,0,0,0,64.882,27.3Zm-36.268,0a5.247,5.247,0,0,0-3.341.835c-.923.718-1.348,1.964-1.348,3.869,0,4,1.89,6.8,4.587,6.8s4.587-2.8,4.587-6.8c0-1.964-.381-3.165-1.246-3.883A4.926,4.926,0,0,0,28.614,27.3Z" transform="translate(-10.15 -25.25)" fill="#162c5f" stroke="#162c5f" stroke-width="1.7" fill-rule="evenodd"/>
</svg>
