<svg width="118" height="118" viewBox="0 0 118 118" fill="none" xmlns="http://www.w3.org/2000/svg">
<path d="M85.095 20.4908L84.1034 21.0372V21.0381C83.7157 21.2425 83.4285 21.5981 83.3103 22.0204C83.192 22.4427 83.252 22.8955 83.4775 23.2722L86.2211 27.813C86.7177 28.6011 87.744 28.8638 88.5574 28.411L89.56 27.8586H89.5609C90.1851 27.5275 90.9444 27.59 91.5078 28.0174C92.4952 28.7421 93.5713 29.3393 94.7091 29.7937C95.3594 30.0277 95.802 30.635 95.8231 31.3267V32.4222C95.8451 33.3421 96.6053 34.0727 97.526 34.0566H103.013C103.933 34.0727 104.694 33.3421 104.716 32.4222V31.3267C104.738 30.635 105.179 30.0277 105.83 29.7937C106.967 29.3393 108.043 28.7421 109.031 28.0174C109.594 27.59 110.354 27.5275 110.978 27.8586L111.98 28.411H111.981C112.795 28.8638 113.821 28.6011 114.318 27.813L117.061 23.2722C117.287 22.8955 117.347 22.4428 117.228 22.0204C117.11 21.5981 116.823 21.2425 116.435 21.0381L115.444 20.4916V20.4908C114.859 20.1875 114.524 19.5541 114.602 18.8994C114.781 17.6587 114.781 16.3985 114.602 15.1576C114.524 14.503 114.859 13.8695 115.444 13.5663L116.435 13.0198V13.0189C116.826 12.8171 117.116 12.4632 117.237 12.04C117.359 11.6177 117.3 11.1633 117.076 10.7849L114.333 6.24402C113.837 5.45513 112.81 5.19243 111.997 5.64602L110.994 6.19842H110.993C110.369 6.52951 109.61 6.46702 109.046 6.03963C108.059 5.31491 106.983 4.71775 105.845 4.26334C105.194 4.02938 104.752 3.42208 104.731 2.73031V1.63481C104.709 0.711613 103.944 -0.0198498 103.02 0.000410938H97.5335C96.6129 -0.0156374 95.8527 0.714986 95.8307 1.63481V2.73031C95.8096 3.42208 95.367 4.02938 94.7166 4.26334C93.5789 4.71777 92.5029 5.31493 91.5154 6.03963C90.952 6.46703 90.1926 6.52952 89.5684 6.19842L88.5658 5.64602H88.565C87.7516 5.19243 86.7245 5.45513 86.2286 6.24402L83.4851 10.7849C83.2596 11.1616 83.1996 11.6143 83.3179 12.0366C83.4361 12.4589 83.7233 12.8146 84.111 13.019L85.1026 13.5654V13.5663C85.6871 13.8695 86.0224 14.503 85.9447 15.1576C85.7657 16.3984 85.7657 17.6585 85.9447 18.8995C86.0216 19.5558 85.6829 20.1901 85.095 20.4908ZM100.277 10.3381C102.051 10.3381 103.752 11.0434 105.008 12.2977C106.262 13.5529 106.967 15.254 106.967 17.0286C106.967 18.8032 106.262 20.5043 105.008 21.7595C103.753 23.0138 102.051 23.7191 100.277 23.7191C98.5022 23.7191 96.8011 23.0138 95.5459 21.7595C94.2916 20.5043 93.5863 18.8032 93.5863 17.0286C93.5863 15.254 94.2916 13.5529 95.5459 12.2977C96.801 11.0434 98.5022 10.3381 100.277 10.3381Z" fill="#9B9B9B"/>
<path d="M58.6527 30.2731C58.6527 34.4524 55.2639 37.8412 51.0846 37.8412C46.9054 37.8412 43.5166 34.4524 43.5166 30.2731C43.5166 26.0938 46.9054 22.7051 51.0846 22.7051C55.2639 22.7051 58.6527 26.0938 58.6527 30.2731Z" fill="#9B9B9B"/>
<path d="M26.4883 70.0051C26.4883 73.1396 23.9467 75.6812 20.8123 75.6812C17.6778 75.6812 15.1362 73.1396 15.1362 70.0051C15.1362 66.8707 17.6778 64.3291 20.8123 64.3291C23.9467 64.3291 26.4883 66.8707 26.4883 70.0051Z" fill="#4A4A4A"/>
<path d="M56.7603 70.0051C56.7603 73.1396 54.2187 75.6812 51.0842 75.6812C47.9498 75.6812 45.4082 73.1396 45.4082 70.0051C45.4082 66.8707 47.9498 64.3291 51.0842 64.3291C54.2187 64.3291 56.7603 66.8707 56.7603 70.0051Z" fill="#9B9B9B"/>
<path d="M87.0322 70.0051C87.0322 73.1396 84.4907 75.6812 81.3562 75.6812C78.2217 75.6812 75.6802 73.1396 75.6802 70.0051C75.6802 66.8707 78.2217 64.3291 81.3562 64.3291C84.4907 64.3291 87.0322 66.8707 87.0322 70.0051Z" fill="#4A4A4A"/>
<path d="M81.3563 49.1926H52.9761V43.5166H49.1921V49.1926H20.8119C19.7671 49.1926 18.9199 50.0398 18.9199 51.0846V58.6527H22.7039V52.9767H49.1921V58.6527H52.9761V52.9767H79.4643V58.6527H83.2483V51.0846C83.2483 50.5829 83.049 50.1015 82.6942 49.7467C82.3395 49.392 81.858 49.1926 81.3563 49.1926Z" fill="#9B9B9B"/>
<path d="M3.78402 94.6011H45.4083V104.061C45.4083 105.065 45.0096 106.027 44.3001 106.737C43.5906 107.446 42.6277 107.845 41.6243 107.845H22.7041C21.7007 107.845 20.7378 108.244 20.0283 108.953C19.3188 109.663 18.9201 110.626 18.9201 111.629V113.521C18.9201 114.525 19.3188 115.488 20.0283 116.197C20.7378 116.907 21.7007 117.305 22.7041 117.305H79.4645C80.4679 117.305 81.4309 116.907 82.1404 116.197C82.8498 115.488 83.2485 114.525 83.2485 113.521V111.629C83.2485 110.626 82.8498 109.663 82.1404 108.953C81.4309 108.244 80.4679 107.845 79.4645 107.845H60.5444C59.5409 107.845 58.578 107.446 57.8685 106.737C57.159 106.027 56.7604 105.065 56.7604 104.061V94.6011H98.3846C99.3881 94.6011 100.351 94.2024 101.06 93.4929C101.77 92.7834 102.169 91.8205 102.169 90.817V39.7327H98.3846V83.249H3.78402V15.1366H77.5725V11.3525H3.78402C2.78059 11.3525 1.81767 11.7512 1.10818 12.4607C0.398685 13.1702 0 14.1331 0 15.1366V90.817C0 91.8205 0.398685 92.7834 1.10818 93.4929C1.81767 94.2024 2.78059 94.6011 3.78402 94.6011ZM85.1405 87.033H94.6006V90.817H85.1405V87.033ZM15.1361 87.033H18.9201V90.817H15.1361V87.033ZM7.56805 87.033H11.3521V90.817H7.56805V87.033Z" fill="#4A4A4A"/>
</svg>
