<svg width="82" height="82" viewBox="0 0 82 82" fill="none" xmlns="http://www.w3.org/2000/svg">
<circle cx="41" cy="41" r="41" fill="#D20521"/>
<g clip-path="url(#clip0_1075_1527)">
<path d="M39.2939 47.1396C39.1936 47.1312 39.0927 47.1427 38.9968 47.1736C38.901 47.2044 38.8122 47.2539 38.7355 47.3192C38.6587 47.3846 38.5956 47.4645 38.5497 47.5543C38.5037 47.6442 38.476 47.7423 38.4679 47.8429C38.4211 48.4136 38.2135 48.9591 37.8696 49.4159C37.5256 49.8726 37.0594 50.2218 36.5252 50.4227C35.991 50.6237 35.4109 50.668 34.8525 50.5505C34.2942 50.4331 33.7806 50.1588 33.3717 49.7595C33.3 49.6876 33.2147 49.6306 33.1209 49.592C33.0271 49.5534 32.9265 49.5338 32.8251 49.5345C32.7237 49.5351 32.6234 49.556 32.5301 49.5959C32.4368 49.6358 32.3523 49.6938 32.2816 49.7667C32.2108 49.8396 32.1551 49.9259 32.1178 50.0206C32.0806 50.1152 32.0624 50.2164 32.0643 50.3181C32.0663 50.4199 32.0884 50.5203 32.1293 50.6134C32.1702 50.7065 32.2291 50.7906 32.3027 50.8607C33.0587 51.5987 34.0469 52.0499 35.098 52.1371C35.2239 52.1473 35.349 52.1524 35.4732 52.1524C36.096 52.1514 36.7118 52.0217 37.2825 51.7714C37.8531 51.5211 38.3663 51.1556 38.79 50.6975C39.1242 50.8159 39.4237 51.0161 39.6614 51.28C39.899 51.5439 40.0671 51.8632 40.1507 52.2089C40.1725 52.3074 40.2136 52.4007 40.2713 52.4833C40.3291 52.566 40.4025 52.6364 40.4874 52.6906C40.5723 52.7447 40.667 52.7816 40.7661 52.799C40.8651 52.8165 40.9667 52.8142 41.0649 52.7922C41.163 52.7703 41.256 52.7292 41.3383 52.6712C41.4207 52.6132 41.4908 52.5395 41.5448 52.4543C41.5988 52.3692 41.6355 52.2741 41.6529 52.1747C41.6703 52.0752 41.668 51.9733 41.6461 51.8748C41.5239 51.3339 41.2791 50.8285 40.9307 50.398C40.5822 49.9674 40.1396 49.6233 39.6372 49.3924C39.8328 48.9405 39.9535 48.4596 39.9947 47.9686C40.0113 47.7654 39.9467 47.5639 39.8153 47.4085C39.6839 47.253 39.4964 47.1563 39.2939 47.1396Z" fill="white"/>
<path d="M31.3712 37.3803C30.8008 37.7851 30.108 37.9782 29.4113 37.9266C29.2086 37.9113 29.0083 37.9775 28.8543 38.1105C28.7002 38.2435 28.6052 38.4324 28.59 38.6358C28.5748 38.8391 28.6407 39.0402 28.7732 39.1948C28.9057 39.3493 29.094 39.4448 29.2966 39.46C29.4087 39.4684 29.5207 39.4727 29.6326 39.4727C30.4858 39.4729 31.3218 39.2318 32.0447 38.7769C32.7676 38.322 33.3481 37.6717 33.7196 36.9008C34.313 37.2564 34.9793 37.4715 35.6679 37.5298C35.7929 37.54 35.9177 37.5451 36.0422 37.5451C36.0621 37.5451 36.0815 37.5427 36.1016 37.5422C37.5066 39.2312 36.5948 40.8502 36.5485 40.9302C36.4471 41.1045 36.4181 41.3117 36.4676 41.5073C36.5171 41.7029 36.6413 41.871 36.8132 41.9756C36.9852 42.0801 37.1912 42.1125 37.3869 42.0659C37.5825 42.0193 37.752 41.8974 37.8588 41.7265C38.1513 41.2031 38.3327 40.6246 38.3917 40.0275C38.4952 39.0425 38.2681 38.0509 37.7462 37.2103C38.3124 36.9803 38.8265 36.6379 39.2578 36.2037C39.3988 36.0588 39.4771 35.864 39.4757 35.6614C39.4743 35.4589 39.3933 35.2651 39.2504 35.1222C39.1075 34.9792 38.9141 34.8986 38.7123 34.8979C38.5106 34.8972 38.3167 34.9764 38.1728 35.1184C37.6481 35.6474 36.9467 35.9626 36.204 36.003C35.4614 36.0434 34.7301 35.8062 34.1515 35.3372C34.2557 34.2547 33.9678 33.1707 33.3405 32.284C33.2225 32.1193 33.0444 32.0081 32.845 31.9746C32.6456 31.9411 32.4411 31.9881 32.2761 32.1053C32.1111 32.2225 31.9989 32.4004 31.9641 32.6002C31.9292 32.8001 31.9745 33.0056 32.09 33.1721C32.5507 33.8258 32.7339 34.6364 32.5992 35.4255C32.4646 36.2147 32.0232 36.9179 31.372 37.3805L31.3712 37.3803Z" fill="white"/>
<path d="M60.0848 46.9351C59.8828 46.9142 59.6807 46.9748 59.5231 47.1034C59.3655 47.232 59.2653 47.4182 59.2445 47.621C59.1356 48.6874 58.7029 49.6944 58.005 50.5059C57.307 51.3174 56.3775 51.894 55.3423 52.1579C54.307 52.4217 53.2161 52.36 52.217 51.9811C51.2178 51.6021 50.3588 50.9242 49.7562 50.0391C49.6407 49.8729 49.4645 49.7592 49.2659 49.7226C49.0673 49.6861 48.8623 49.7298 48.6956 49.8441C48.5289 49.9585 48.414 50.1342 48.3757 50.3332C48.3375 50.5322 48.3791 50.7383 48.4914 50.9066C49.3019 52.0932 50.4673 52.9903 51.8191 53.4685C53.171 53.9468 54.6393 53.9812 56.0119 53.567C55.5191 54.523 54.7887 55.3351 53.8912 55.9245C52.9938 56.5138 51.9598 56.8606 50.8896 56.931C50.6923 56.9468 50.5088 57.0386 50.3775 57.1872C50.2461 57.3358 50.1772 57.5297 50.1851 57.7282C50.1931 57.9267 50.2773 58.1144 50.4201 58.252C50.5629 58.3895 50.7533 58.4663 50.9512 58.4661C50.972 58.4661 50.9931 58.4661 51.0144 58.4634C51.4289 58.4291 51.8404 58.3649 52.2458 58.2713C52.2608 58.2847 52.2734 58.2998 52.2898 58.3122C52.3211 58.3365 55.3988 60.7 55.3218 64.7267C55.318 64.9306 55.3949 65.1276 55.5357 65.2745C55.6765 65.4214 55.8697 65.5063 56.0727 65.5104H56.0878C56.2882 65.5103 56.4807 65.4313 56.6238 65.2904C56.7669 65.1495 56.8494 64.9578 56.8533 64.7566C56.9214 61.196 54.9725 58.7635 53.8957 57.6944C55.0789 57.1112 56.0933 56.2331 56.8419 55.1442C57.4013 54.3374 57.8275 53.4453 58.104 52.5023C58.8494 51.9427 59.4711 51.2339 59.9297 50.4209C60.3884 49.6079 60.674 48.7082 60.7687 47.7788C60.779 47.6783 60.7694 47.5768 60.7406 47.48C60.7118 47.3832 60.6643 47.2931 60.6008 47.2148C60.5373 47.1364 60.4591 47.0714 60.3705 47.0234C60.282 46.9754 60.1849 46.9454 60.0848 46.9351Z" fill="white"/>
<path d="M46.6097 58.585C44.9103 58.1384 44.0589 57.345 43.6366 56.7236H43.6495C44.9394 56.7235 46.2243 56.5606 47.4738 56.239C47.6706 56.1884 47.8394 56.0614 47.9429 55.8859C48.0464 55.7104 48.0762 55.5009 48.0257 55.3033C47.9753 55.1058 47.8487 54.9364 47.6739 54.8325C47.4991 54.7287 47.2903 54.6987 47.0935 54.7494C44.5411 55.4239 41.8468 55.3238 39.3511 54.4617C39.1918 54.3948 39.0147 54.3838 38.8485 54.4307C38.6823 54.4776 38.5368 54.5795 38.4356 54.7199C38.4133 54.736 38.3917 54.7532 38.3711 54.7715C37.1928 55.8886 35.6282 56.5029 34.0074 56.4848C30.794 56.4848 28.1796 54.2091 28.1796 51.4119C28.1862 50.7693 28.3244 50.135 28.5854 49.5483C28.8465 48.9616 29.225 48.435 29.6973 48.0012C30.5504 47.8772 31.3508 47.5127 32.0057 46.9501C32.6605 46.3876 33.1429 45.65 33.3967 44.8233C34.4722 45.229 35.5961 45.4915 36.7397 45.604C38.5874 45.7919 40.4531 45.5324 42.1802 44.8473C42.56 45.2656 42.8363 45.7677 42.987 46.313C43.1377 46.8583 43.1585 47.4315 43.0477 47.9864C43.0254 48.0856 43.0228 48.1882 43.0402 48.2884C43.0577 48.3886 43.0947 48.4843 43.1492 48.57C43.2038 48.6557 43.2748 48.7297 43.358 48.7877C43.4412 48.8457 43.5351 48.8865 43.6342 48.9079C43.7333 48.9292 43.8356 48.9306 43.9352 48.9119C44.0348 48.8933 44.1297 48.855 44.2144 48.7993C44.2992 48.7436 44.3721 48.6715 44.4289 48.5873C44.4858 48.5031 44.5254 48.4085 44.5455 48.3088C44.6962 47.5903 44.6895 46.8474 44.5258 46.1318C44.362 45.4161 44.0452 44.7447 43.5974 44.1641C44.3475 43.7351 45.0519 43.23 45.6993 42.6567C45.852 42.5222 45.9453 42.3324 45.9585 42.1289C45.9718 41.9254 45.9039 41.725 45.7699 41.5718C45.6359 41.4185 45.4468 41.3249 45.244 41.3116C45.0413 41.2983 44.8417 41.3664 44.6889 41.5009C42.4436 43.4785 39.8382 44.3455 36.9455 44.0781C35.6406 43.9634 34.3664 43.6169 33.1823 43.0547C33.0692 42.9941 32.9428 42.963 32.8146 42.9642C32.6864 42.9653 32.5605 42.9987 32.4485 43.0613C32.3366 43.1239 32.242 43.2137 32.1736 43.3225C32.1051 43.4313 32.065 43.5556 32.0568 43.684C32.0345 44.0817 31.934 44.4711 31.7611 44.8297C31.5882 45.1883 31.3462 45.509 31.0492 45.7733C30.7523 46.0376 30.4061 46.2403 30.0307 46.3697C29.6553 46.4992 29.2581 46.5528 28.8619 46.5274C28.4658 46.5021 28.0786 46.3983 27.7226 46.2221C27.3666 46.0458 27.0489 45.8006 26.7878 45.5006C26.5266 45.2006 26.3273 44.8517 26.2011 44.4739C26.075 44.0962 26.0245 43.6972 26.0528 43.2998C26.0634 43.0976 25.9942 42.8993 25.86 42.748C25.7259 42.5967 25.5376 42.5046 25.3362 42.4918C25.1349 42.479 24.9366 42.5465 24.7845 42.6796C24.6324 42.8126 24.5388 43.0006 24.5239 43.2025C24.4718 44.0299 24.6473 44.8558 25.0312 45.5899C24.5226 45.7674 23.9752 45.8012 23.4488 45.6876C22.9225 45.5739 22.4373 45.3172 22.0465 44.9456C21.9075 44.7989 21.7165 44.7132 21.515 44.707C21.3134 44.7008 21.1176 44.7746 20.9699 44.9124C20.8222 45.0502 20.7347 45.2409 20.7262 45.4431C20.7177 45.6453 20.789 45.8427 20.9246 45.9925C21.3462 46.4179 21.851 46.751 22.4072 46.9711C22.929 47.1833 23.4868 47.2924 24.0498 47.2925C24.7241 47.2867 25.3896 47.1397 26.004 46.8609C26.5158 47.3294 27.1279 47.6736 27.7932 47.867C27.0511 48.8988 26.6507 50.1386 26.6487 51.4112C26.6489 51.7288 26.6745 52.0458 26.7252 52.3594C22.7545 52.735 19.9045 51.5033 18.4758 48.7749C17.1398 46.2235 17.4065 43.0095 18.2018 41.3246C18.2369 41.3618 18.2686 41.4014 18.305 41.4377C18.4501 41.5773 18.644 41.6541 18.8451 41.6515C19.0461 41.6489 19.238 41.5671 19.3795 41.4238C19.521 41.2805 19.6007 41.0871 19.6014 40.8853C19.6022 40.6836 19.5239 40.4896 19.3835 40.3453C18.8168 39.7817 18.4963 39.0153 18.4927 38.2146C18.489 37.4139 18.8024 36.6445 19.364 36.0757C19.9255 35.507 20.6891 35.1854 21.4869 35.1817C22.2846 35.178 23.0512 35.4926 23.6179 36.0562C23.6891 36.1283 23.7739 36.1856 23.8673 36.2247C23.9607 36.2638 24.0608 36.284 24.162 36.284C24.2632 36.284 24.3635 36.2639 24.4569 36.2248C24.5503 36.1857 24.635 36.1284 24.7063 36.0563C24.7775 35.9842 24.8337 35.8985 24.8718 35.8044C24.9099 35.7103 24.929 35.6096 24.9281 35.508C24.9272 35.4065 24.9062 35.3061 24.8664 35.2128C24.8266 35.1194 24.7687 35.0348 24.6962 34.964C23.9254 34.1974 22.9055 33.7349 21.8229 33.6611C22.035 32.6107 22.5752 31.6555 23.365 30.9341C24.2288 30.1877 25.3958 29.7992 26.8425 29.771C26.7645 29.9088 26.724 29.9952 26.7182 30.0083C26.6763 30.1001 26.6528 30.1993 26.6491 30.3001C26.6454 30.401 26.6615 30.5017 26.6966 30.5963C26.7316 30.691 26.7849 30.7778 26.8534 30.8517C26.9218 30.9257 27.0041 30.9854 27.0956 31.0275C27.1871 31.0695 27.2859 31.0931 27.3864 31.0968C27.4869 31.1005 27.5872 31.0843 27.6815 31.0492C27.7758 31.014 27.8623 30.9605 27.936 30.8918C28.0097 30.8231 28.0692 30.7405 28.1111 30.6487C28.5168 29.9049 29.0796 29.2592 29.7601 28.7566C29.9217 28.6331 30.0279 28.4503 30.0552 28.2482C30.0826 28.0462 30.0288 27.8415 29.9057 27.6792C29.7827 27.5169 29.6005 27.4104 29.3992 27.3829C29.1979 27.3555 28.9939 27.4095 28.8322 27.533C28.5352 27.7601 28.2544 28.0079 27.9919 28.2745C25.6307 28.0727 23.733 28.5782 22.3493 29.7819C20.8217 31.1116 20.3675 32.921 20.2328 33.8276C19.6261 34.0039 19.0628 34.3055 18.579 34.7131C18.0953 35.1206 17.7017 35.6252 17.4236 36.1943C17.1455 36.7635 16.9889 37.3847 16.964 38.0181C16.9391 38.6515 17.0463 39.2832 17.2789 39.8726C16.5986 40.8245 16.1369 42.3039 16.0269 43.9302C15.8799 45.8486 16.2577 47.7708 17.1196 49.4894C17.908 51.029 19.179 52.2656 20.7367 53.0088C22.1888 53.6741 23.7719 54.0018 25.3679 53.9674C25.9717 53.9657 26.5749 53.9302 27.1748 53.8612C28.2608 56.2966 30.9136 58.0219 34.0083 58.0219C35.9354 58.0351 37.7998 57.335 39.245 56.0554C40.1008 56.3291 40.9814 56.5174 41.874 56.6178C42.2066 57.5232 43.2236 59.2835 46.2224 60.0717C49.8263 61.02 52.4292 63.0992 52.8536 65.372C52.871 65.4723 52.908 65.5682 52.9626 65.654C53.0172 65.7399 53.0882 65.8139 53.1716 65.872C53.2549 65.93 53.3489 65.9709 53.4481 65.9922C53.5473 66.0135 53.6498 66.0148 53.7495 65.996C53.8492 65.9772 53.9442 65.9388 54.029 65.8828C54.1138 65.8269 54.1866 65.7546 54.2433 65.6702C54.3 65.5858 54.3395 65.4909 54.3594 65.391C54.3792 65.2912 54.3792 65.1883 54.3591 65.0885C53.8252 62.2359 50.7841 59.683 46.6097 58.585Z" fill="white"/>
<path d="M65.8896 29.7938C65.6561 28.8632 65.0638 28.0638 64.2431 27.5714C63.4224 27.079 62.4404 26.9339 61.5131 27.168L60.0851 27.5286C59.6874 27.6291 59.269 27.6089 58.8827 27.4707C58.4964 27.3325 58.1596 27.0825 57.9149 26.7522C57.6703 26.4219 57.5287 26.0262 57.5081 25.6151C57.4875 25.204 57.5888 24.796 57.7993 24.4428L58.5549 23.1743C58.7993 22.7664 58.9611 22.3141 59.031 21.8433C59.101 21.3725 59.0777 20.8925 58.9625 20.4308C58.8474 19.969 58.6425 19.5346 58.3598 19.1524C58.0771 18.7702 57.7221 18.4478 57.315 18.2035C56.9079 17.9593 56.4569 17.798 55.9876 17.729C55.5184 17.66 55.0402 17.6846 54.5804 17.8013C54.1206 17.9181 53.6883 18.1248 53.3083 18.4095C52.9282 18.6942 52.6078 19.0513 52.3655 19.4605L51.6099 20.7289C51.3995 21.0822 51.0894 21.3649 50.719 21.5414C50.3485 21.7178 49.9342 21.7801 49.5285 21.7202C49.1228 21.6604 48.7438 21.4811 48.4396 21.2051C48.1353 20.9291 47.9194 20.5688 47.8192 20.1697L47.46 18.7367C47.3444 18.2758 47.1395 17.8423 46.857 17.4609C46.5745 17.0796 46.22 16.7578 45.8135 16.5139C45.4071 16.2701 44.9569 16.1089 44.4884 16.0397C44.02 15.9705 43.5425 15.9946 43.0834 16.1106C42.6242 16.2266 42.1923 16.4323 41.8123 16.7158C41.4323 16.9993 41.1116 17.3552 40.8687 17.7631C40.6257 18.171 40.4652 18.6229 40.3962 19.0931C40.3273 19.5633 40.3513 20.0424 40.4669 20.5033L40.8263 21.9363C40.9265 22.3355 40.9065 22.7555 40.7688 23.1433C40.6311 23.531 40.3819 23.869 40.0528 24.1146C39.7236 24.3602 39.3293 24.5023 38.9197 24.5229C38.51 24.5435 38.1035 24.4418 37.7515 24.2305L36.4877 23.4722C36.0813 23.2283 35.631 23.0672 35.1625 22.998C34.6941 22.9289 34.2167 22.953 33.7575 23.069C33.2983 23.185 32.8664 23.3906 32.4864 23.6742C32.1064 23.9577 31.7858 24.3136 31.5429 24.7215C31.2999 25.1294 31.1394 25.5813 31.0705 26.0515C31.0016 26.5217 31.0256 27.0009 31.1412 27.4617C31.2568 27.9226 31.4616 28.356 31.7441 28.7374C32.0266 29.1188 32.3813 29.4406 32.7877 29.6844L34.0512 30.4425C34.2256 30.5471 34.4342 30.5779 34.6312 30.5282C34.7288 30.5035 34.8205 30.4599 34.9012 30.3996C34.982 30.3394 35.0501 30.2638 35.1017 30.1771C35.1534 30.0905 35.1875 29.9945 35.2021 29.8946C35.2167 29.7947 35.2116 29.6929 35.1871 29.595C35.1625 29.4971 35.119 29.405 35.059 29.324C34.999 29.2429 34.9237 29.1746 34.8373 29.1228L33.5735 28.3647C33.1038 28.0803 32.7655 27.6208 32.6327 27.0866C32.4998 26.5524 32.5833 25.9872 32.8648 25.5146C33.1463 25.0421 33.6028 24.7008 34.1345 24.5654C34.6662 24.4299 35.2297 24.5115 35.7016 24.7921L36.9654 25.5502C37.5775 25.9174 38.2843 26.0943 38.9965 26.0583C39.7087 26.0224 40.3943 25.7753 40.9666 25.3483C41.5389 24.9213 41.9722 24.3336 42.2117 23.6594C42.4512 22.9853 42.4861 22.255 42.312 21.5609L41.9526 20.1279C41.881 19.8612 41.8631 19.5829 41.8998 19.3092C41.9365 19.0355 42.0272 18.7718 42.1664 18.5336C42.3057 18.2954 42.4908 18.0874 42.7109 17.9218C42.9311 17.7561 43.1819 17.6361 43.4487 17.5686C43.7156 17.5012 43.9932 17.4878 44.2653 17.5291C44.5373 17.5705 44.7984 17.6658 45.0335 17.8094C45.2685 17.9531 45.4727 18.1422 45.6341 18.3659C45.7955 18.5895 45.911 18.8432 45.9738 19.1121L46.3333 20.5451C46.5075 21.2391 46.8828 21.8657 47.4117 22.3457C47.9407 22.8256 48.5996 23.1374 49.3051 23.2415C50.0106 23.3456 50.731 23.2374 51.3753 22.9305C52.0195 22.6237 52.5586 22.132 52.9244 21.5176L53.6799 20.2492C53.9632 19.7778 54.4211 19.4383 54.9533 19.3049C55.4856 19.1716 56.0487 19.2554 56.5195 19.5379C56.9904 19.8204 57.3305 20.2786 57.4654 20.8123C57.6003 21.3459 57.5191 21.9115 57.2395 22.3851L56.4839 23.6533C56.1179 24.2676 55.9416 24.9771 55.9773 25.6919C56.0131 26.4068 56.2593 27.095 56.6847 27.6694C57.1102 28.2438 57.6959 28.6787 58.3677 28.919C59.0394 29.1593 59.7671 29.1943 60.4586 29.0195L61.8864 28.6589C62.4164 28.5337 62.9741 28.6227 63.4392 28.9067C63.9043 29.1907 64.2395 29.6468 64.3724 30.1767C64.5053 30.7065 64.4252 31.2676 64.1495 31.7387C63.8738 32.2099 63.4246 32.5533 62.8988 32.6949L61.4707 33.0554C60.7793 33.2303 60.155 33.607 59.6768 34.1379C59.1986 34.6688 58.888 35.3301 58.7843 36.0382C58.6806 36.7463 58.7884 37.4694 59.0941 38.116C59.3998 38.7626 59.8897 39.3036 60.5018 39.6708L61.7656 40.4289C62.0018 40.5679 62.2083 40.7524 62.3731 40.9719C62.5379 41.1914 62.6578 41.4414 62.7258 41.7076C62.7938 41.9739 62.8085 42.251 62.7693 42.523C62.73 42.7949 62.6374 43.0564 62.4969 43.2923C62.3564 43.5282 62.1708 43.7338 61.9507 43.8973C61.7306 44.0608 61.4804 44.179 61.2145 44.2449C60.9487 44.3108 60.6725 44.3233 60.4019 44.2815C60.1312 44.2397 59.8715 44.1445 59.6377 44.0015L58.3739 43.2434C57.0248 42.4338 55.5881 42.5699 53.9818 43.6601C53.8983 43.7166 53.8267 43.789 53.7711 43.8733C53.7155 43.9576 53.677 44.052 53.6578 44.1512C53.6387 44.2504 53.6392 44.3524 53.6593 44.4515C53.6795 44.5505 53.7188 44.6445 53.7752 44.7282C53.8316 44.812 53.9039 44.8837 53.988 44.9393C54.072 44.995 54.1662 45.0335 54.2651 45.0526C54.3639 45.0717 54.4656 45.071 54.5642 45.0506C54.6628 45.0303 54.7565 44.9906 54.8398 44.9339C56.2397 43.9837 57.0442 44.2366 57.5878 44.5631L58.8513 45.3214C59.2578 45.5653 59.7081 45.7264 60.1765 45.7956C60.645 45.8648 61.1224 45.8407 61.5816 45.7247C62.0408 45.6087 62.4727 45.4031 62.8527 45.1195C63.2327 44.836 63.5534 44.4801 63.7963 44.0722C64.0393 43.6643 64.1998 43.2124 64.2687 42.7422C64.3377 42.272 64.3137 41.7928 64.1981 41.332C64.0826 40.8711 63.8777 40.4376 63.5952 40.0562C63.3127 39.6748 62.9581 39.353 62.5517 39.1092L61.2879 38.3511C60.9359 38.1399 60.6541 37.8288 60.4783 37.4569C60.3025 37.0851 60.2406 36.6692 60.3002 36.262C60.3598 35.8548 60.5384 35.4745 60.8134 35.1692C61.0884 34.8638 61.4474 34.6472 61.8451 34.5466L63.2729 34.1858C64.2001 33.9515 64.9966 33.3571 65.4873 32.5333C65.9779 31.7096 66.1224 30.724 65.8891 29.7933L65.8896 29.7938Z" fill="white"/>
<path d="M54.6617 34.4746C54.6615 33.0279 54.1774 31.6231 53.287 30.4854C52.3965 29.3477 51.1513 28.543 49.7509 28.2002C48.3505 27.8574 46.876 27.9964 45.5637 28.5949C44.2513 29.1934 43.1772 30.2167 42.5134 31.5009C41.5919 31.1327 40.5843 31.0379 39.6107 31.2278C39.5111 31.2476 39.4164 31.2871 39.3322 31.3439C39.2479 31.4008 39.1758 31.4739 39.1199 31.559C39.064 31.6441 39.0256 31.7395 39.0068 31.8397C38.988 31.9399 38.9893 32.0428 39.0105 32.1424C39.0317 32.2421 39.0724 32.3365 39.1303 32.4203C39.1882 32.504 39.2621 32.5753 39.3477 32.6301C39.4333 32.6849 39.5289 32.7221 39.629 32.7395C39.7291 32.7568 39.8315 32.7541 39.9305 32.7313C40.0453 32.707 42.7471 32.1617 43.6853 34.8903C43.7401 35.0489 43.845 35.1852 43.984 35.2785C44.1231 35.3718 44.2887 35.4169 44.4556 35.407C44.4891 35.4048 47.8558 35.2322 49.9062 37.241C51.0467 38.3594 51.5888 39.975 51.5176 42.0455C51.5141 42.1464 51.5305 42.247 51.5658 42.3415C51.6011 42.4361 51.6546 42.5227 51.7232 42.5966C51.7919 42.6704 51.8744 42.7299 51.966 42.7717C52.0575 42.8135 52.1564 42.8368 52.2569 42.8402C52.2657 42.8402 52.2747 42.8402 52.2836 42.8402C52.4821 42.8401 52.6728 42.7627 52.8155 42.6242C52.9583 42.4858 53.042 42.2971 53.0489 42.098C53.0962 41.0879 52.9841 40.0766 52.7167 39.1016C53.3322 38.4997 53.8214 37.7802 54.1554 36.9855C54.4894 36.1908 54.6616 35.3371 54.6617 34.4746ZM50.9663 36.1323C48.9646 34.178 46.1248 33.8935 44.9254 33.8663C44.6659 33.2808 44.2893 32.7551 43.819 32.3217C44.1205 31.6995 44.5494 31.148 45.0776 30.7035C45.6058 30.2589 46.2214 29.9311 46.8844 29.7416C47.5474 29.5521 48.2428 29.505 48.9251 29.6035C49.6075 29.702 50.2614 29.9438 50.8443 30.3132C51.4272 30.6826 51.9259 31.1712 52.3079 31.7471C52.6898 32.3231 52.9464 32.9734 53.061 33.6557C53.1755 34.3379 53.1454 35.0368 52.9726 35.7065C52.7998 36.3763 52.4881 37.002 52.058 37.5427C51.7608 37.0242 51.3934 36.5495 50.9663 36.1323Z" fill="white"/>
</g>
<defs>
<clipPath id="clip0_1075_1527">
<rect width="50" height="50" fill="white" transform="translate(16 16)"/>
</clipPath>
</defs>
</svg>
