<svg width="104" height="105" viewBox="0 0 104 105" fill="none" xmlns="http://www.w3.org/2000/svg">
<circle cx="52" cy="52.3594" r="49" fill="#364B5D" stroke="#F7F8F9" stroke-width="6"/>
<g clip-path="url(#clip0_1_597)">
<path d="M51.9999 43.8187C52.5509 43.8187 53.0895 43.6548 53.5476 43.3476C54.0057 43.0405 54.3628 42.6039 54.5736 42.0931C54.7844 41.5823 54.8396 41.0203 54.7321 40.478C54.6246 39.9358 54.3593 39.4377 53.9697 39.0468C53.5801 38.6558 53.0838 38.3896 52.5434 38.2817C52.003 38.1739 51.4429 38.2292 50.9339 38.4408C50.4249 38.6524 49.9898 39.0107 49.6837 39.4704C49.3776 39.9301 49.2142 40.4705 49.2142 41.0234C49.215 41.7645 49.5087 42.4751 50.031 42.9991C50.5533 43.5232 51.2614 43.818 51.9999 43.8187V43.8187ZM51.9999 40.0916C52.1836 40.0916 52.3631 40.1462 52.5158 40.2486C52.6685 40.351 52.7875 40.4965 52.8578 40.6668C52.9281 40.8371 52.9465 41.0244 52.9107 41.2052C52.8748 41.3859 52.7864 41.5519 52.6565 41.6823C52.5267 41.8126 52.3612 41.9013 52.1811 41.9373C52.001 41.9732 51.8143 41.9548 51.6446 41.8842C51.4749 41.8137 51.3299 41.6943 51.2279 41.5411C51.1258 41.3878 51.0714 41.2077 51.0714 41.0234C51.0712 40.9009 51.095 40.7796 51.1416 40.6663C51.1882 40.5531 51.2566 40.4502 51.3428 40.3636C51.4291 40.2769 51.5315 40.2081 51.6443 40.1612C51.757 40.1143 51.8779 40.0901 51.9999 40.0901V40.0916Z" fill="white"/>
<path d="M44.1101 50.3412C44.3026 50.3414 44.4904 50.2815 44.6475 50.1699C44.8045 50.0583 44.9232 49.9004 44.987 49.7182C45.0507 49.5359 45.0565 49.3383 45.0035 49.1526C44.9504 48.9669 44.8411 48.8024 44.6908 48.6818C43.4983 47.7569 42.5328 46.5702 41.8685 45.2126C41.2043 43.855 40.8589 42.3627 40.8589 40.8503C40.8589 39.3379 41.2043 37.8457 41.8685 36.4881C42.5328 35.1305 43.4983 33.9437 44.6908 33.0189C44.788 32.9431 44.8693 32.8486 44.9298 32.741C44.9903 32.6334 45.0289 32.5148 45.0433 32.3921C45.0577 32.2694 45.0477 32.1451 45.0137 32.0263C44.9798 31.9075 44.9226 31.7967 44.8456 31.7003C44.7686 31.6039 44.6733 31.5238 44.5651 31.4647C44.457 31.4057 44.3382 31.3688 44.2157 31.3562C44.0932 31.3436 43.9695 31.3556 43.8516 31.3914C43.7338 31.4273 43.6243 31.4863 43.5294 31.565C42.1583 32.6615 41.0429 34.0458 40.2614 35.6207C39.48 37.1956 39.0515 38.923 39.0059 40.6817V41.0263C39.052 42.7843 39.4808 44.5109 40.2622 46.085C41.0436 47.6591 42.1587 49.0427 43.5294 50.1386C43.6944 50.2704 43.8992 50.3418 44.1101 50.3412Z" fill="white"/>
<path d="M59.8944 50.3381C60.1052 50.3379 60.3096 50.2653 60.4736 50.1325C61.8437 49.0369 62.9584 47.6538 63.7396 46.0802C64.5208 44.5066 64.9494 42.7806 64.9956 41.0232V41.0232V40.6786C64.9495 38.921 64.5208 37.1947 63.7396 35.6209C62.9585 34.0471 61.8438 32.6637 60.4736 31.5678C60.2811 31.4177 60.0374 31.3496 59.7953 31.3782C59.5531 31.4069 59.3319 31.5299 59.1794 31.7208C59.0269 31.9117 58.9553 32.1551 58.9802 32.3985C59.005 32.6419 59.1243 32.8658 59.3122 33.0217C60.5044 33.9461 61.4696 35.1324 62.1337 36.4895C62.7978 37.8465 63.1431 39.3383 63.1431 40.8502C63.1431 42.362 62.7978 43.8538 62.1337 45.2109C61.4696 46.5679 60.5044 47.7542 59.3122 48.6786C59.1612 48.7997 59.0517 48.9651 58.9989 49.1516C58.9461 49.3382 58.9525 49.5366 59.0174 49.7193C59.0823 49.9019 59.2024 50.0597 59.3609 50.1706C59.5194 50.2816 59.7085 50.3401 59.9017 50.3381H59.8944Z" fill="white"/>
<path d="M46.4301 47.4304C46.6225 47.4305 46.8103 47.3706 46.9674 47.259C47.1245 47.1474 47.2431 46.9896 47.3069 46.8073C47.3707 46.6251 47.3765 46.4274 47.3234 46.2418C47.2703 46.0561 47.1611 45.8915 47.0108 45.7709C46.2538 45.195 45.6399 44.4511 45.2173 43.5974C44.7947 42.7437 44.5747 41.8034 44.5747 40.8502C44.5747 39.897 44.7947 38.9567 45.2173 38.103C45.6399 37.2493 46.2538 36.5054 47.0108 35.9295C47.106 35.8531 47.1853 35.7586 47.2441 35.6514C47.303 35.5442 47.3402 35.4264 47.3537 35.3048C47.3672 35.1832 47.3566 35.0601 47.3227 34.9426C47.2888 34.825 47.2321 34.7154 47.156 34.6198C47.0798 34.5243 46.9856 34.4447 46.8788 34.3856C46.772 34.3266 46.6546 34.2893 46.5335 34.2757C46.4123 34.2622 46.2896 34.2728 46.1725 34.3068C46.0553 34.3408 45.946 34.3977 45.8508 34.4741C44.9159 35.2226 44.1528 36.1646 43.6136 37.2358C43.0743 38.307 42.7716 39.4823 42.7261 40.6816V41.0262C42.7726 42.2251 43.0762 43.3998 43.6162 44.4703C44.1562 45.5408 44.9199 46.4818 45.8552 47.2292C46.0186 47.3596 46.2213 47.4305 46.4301 47.4304V47.4304Z" fill="white"/>
<path d="M57.5684 47.4318C57.7795 47.4321 57.9844 47.3601 58.1492 47.2277C59.0856 46.4793 59.8501 45.5368 60.3904 44.4648C60.9307 43.3927 61.2341 42.2163 61.2798 41.0158V41.0158V40.6712C61.234 39.4708 60.9306 38.2944 60.3903 37.2223C59.85 36.1503 59.0856 35.2078 58.1492 34.4593C58.0543 34.3806 57.9447 34.3216 57.8269 34.2857C57.7091 34.2498 57.5853 34.2379 57.4628 34.2505C57.3403 34.263 57.2216 34.3 57.1134 34.359C57.0053 34.4181 56.9099 34.4982 56.8329 34.5946C56.7559 34.691 56.6988 34.8018 56.6648 34.9206C56.6309 35.0393 56.6208 35.1637 56.6352 35.2864C56.6496 35.4091 56.6882 35.5277 56.7487 35.6353C56.8092 35.7429 56.8905 35.8374 56.9877 35.9132C57.7456 36.4891 58.3602 37.2334 58.7833 38.0877C59.2065 38.9419 59.4267 39.8829 59.4267 40.8369C59.4267 41.7908 59.2065 42.7318 58.7833 43.5861C58.3602 44.4403 57.7456 45.1846 56.9877 45.7605C56.838 45.8813 56.7293 46.0458 56.6766 46.2312C56.6239 46.4166 56.6298 46.6138 56.6935 46.7957C56.7572 46.9776 56.8756 47.1352 57.0323 47.2467C57.189 47.3583 57.3763 47.4183 57.5684 47.4185V47.4318Z" fill="white"/>
<path d="M39.9256 71.7722C40.1068 71.7723 40.2841 71.7192 40.4355 71.6193C40.5869 71.5194 40.7058 71.3772 40.7776 71.2102L51.9971 45.2297L63.2136 71.2102C63.2597 71.3259 63.3284 71.4311 63.4156 71.5197C63.5029 71.6083 63.607 71.6784 63.7218 71.7259C63.8366 71.7734 63.9597 71.7974 64.0838 71.7963C64.2079 71.7953 64.3306 71.7692 64.4446 71.7198C64.5585 71.6703 64.6614 71.5985 64.7472 71.5084C64.833 71.4183 64.8999 71.3119 64.944 71.1955C64.9881 71.079 65.0084 70.9549 65.0039 70.8304C64.9993 70.7059 64.97 70.5836 64.9175 70.4707L52.846 42.5171C52.774 42.3505 52.655 42.2085 52.5036 42.1089C52.3523 42.0092 52.1752 41.9561 51.9941 41.9561C51.8131 41.9561 51.636 42.0092 51.4846 42.1089C51.3332 42.2085 51.2142 42.3505 51.1422 42.5171L39.0707 70.4707C39.0098 70.6125 38.9848 70.7673 38.9981 70.9212C39.0114 71.0751 39.0626 71.2232 39.1471 71.3524C39.2315 71.4815 39.3466 71.5876 39.4819 71.6612C39.6173 71.7347 39.7687 71.7734 39.9227 71.7737L39.9256 71.7722Z" fill="white"/>
<path d="M42.7142 66.1815C42.8046 66.1813 42.8945 66.1678 42.981 66.1416L51.9999 63.4261L61.0203 66.1416C61.2549 66.2077 61.5059 66.1788 61.7194 66.0609C61.9328 65.9431 62.0916 65.7458 62.1614 65.5116C62.2312 65.2774 62.2065 65.025 62.0926 64.8089C61.9786 64.5928 61.7847 64.4303 61.5524 64.3564L52.2667 61.561C52.0931 61.5093 51.9082 61.5093 51.7346 61.561L42.4489 64.3564C42.2349 64.4201 42.0508 64.559 41.9306 64.7478C41.8103 64.9366 41.7618 65.1625 41.7941 65.3842C41.8263 65.6059 41.9371 65.8085 42.1061 65.955C42.275 66.1014 42.491 66.1818 42.7142 66.1815V66.1815Z" fill="white"/>
<path d="M46.4286 57.7955H57.5714C57.8177 57.7955 58.0539 57.6973 58.228 57.5225C58.4022 57.3478 58.5 57.1108 58.5 56.8637C58.5 56.6165 58.4022 56.3795 58.228 56.2048C58.0539 56.0301 57.8177 55.9319 57.5714 55.9319H46.4286C46.1823 55.9319 45.9461 56.0301 45.772 56.2048C45.5978 56.3795 45.5 56.6165 45.5 56.8637C45.5 57.1108 45.5978 57.3478 45.772 57.5225C45.9461 57.6973 46.1823 57.7955 46.4286 57.7955V57.7955Z" fill="white"/>
<path d="M52 72.3594C52.2463 72.3594 52.4825 72.2612 52.6566 72.0865C52.8308 71.9117 52.9286 71.6747 52.9286 71.4276V42.8825C52.9286 42.6353 52.8308 42.3983 52.6566 42.2236C52.4825 42.0489 52.2463 41.9507 52 41.9507C51.7538 41.9507 51.5176 42.0489 51.3434 42.2236C51.1693 42.3983 51.0714 42.6353 51.0714 42.8825V71.4276C51.0718 71.6746 51.1698 71.9114 51.3439 72.0861C51.5179 72.2607 51.7539 72.359 52 72.3594V72.3594Z" fill="white"/>
</g>
<defs>
<clipPath id="clip0_1_597">
<rect width="26" height="41" fill="white" transform="matrix(-1 0 0 1 65 31.3594)"/>
</clipPath>
</defs>
</svg>
