<svg width="104" height="105" viewBox="0 0 104 105" fill="none" xmlns="http://www.w3.org/2000/svg">
<circle cx="52" cy="52.5781" r="49" fill="#D80621" stroke="#F7F8F9" stroke-width="6"/>
<g clip-path="url(#clip0_1132_4274)">
<path d="M51.9999 44.0374C52.5509 44.0374 53.0895 43.8735 53.5476 43.5663C54.0057 43.2592 54.3628 42.8226 54.5736 42.3118C54.7844 41.801 54.8396 41.239 54.7321 40.6967C54.6246 40.1545 54.3593 39.6564 53.9697 39.2655C53.5801 38.8745 53.0838 38.6083 52.5434 38.5004C52.003 38.3926 51.4429 38.4479 50.9339 38.6595C50.4249 38.8711 49.9898 39.2294 49.6837 39.6891C49.3776 40.1487 49.2142 40.6892 49.2142 41.2421C49.215 41.9832 49.5087 42.6938 50.031 43.2178C50.5533 43.7419 51.2614 44.0366 51.9999 44.0374V44.0374ZM51.9999 40.3103C52.1836 40.3103 52.3631 40.3649 52.5158 40.4673C52.6685 40.5697 52.7875 40.7152 52.8578 40.8855C52.9281 41.0558 52.9465 41.2431 52.9107 41.4239C52.8748 41.6046 52.7864 41.7706 52.6565 41.9009C52.5267 42.0313 52.3612 42.12 52.1811 42.156C52.001 42.1919 51.8143 42.1735 51.6446 42.1029C51.4749 42.0324 51.3299 41.913 51.2279 41.7597C51.1258 41.6065 51.0714 41.4264 51.0714 41.2421C51.0712 41.1196 51.095 40.9983 51.1416 40.885C51.1882 40.7718 51.2566 40.6689 51.3428 40.5822C51.4291 40.4956 51.5315 40.4268 51.6443 40.3799C51.757 40.333 51.8779 40.3088 51.9999 40.3088V40.3103Z" fill="white"/>
<path d="M44.1101 50.5599C44.3026 50.5601 44.4904 50.5002 44.6475 50.3886C44.8045 50.277 44.9232 50.1191 44.987 49.9369C45.0507 49.7546 45.0565 49.557 45.0035 49.3713C44.9504 49.1856 44.8411 49.0211 44.6908 48.9005C43.4983 47.9756 42.5328 46.7889 41.8685 45.4313C41.2043 44.0737 40.8589 42.5814 40.8589 41.069C40.8589 39.5566 41.2043 38.0643 41.8685 36.7068C42.5328 35.3492 43.4983 34.1624 44.6908 33.2376C44.788 33.1618 44.8693 33.0673 44.9298 32.9597C44.9903 32.8521 45.0289 32.7335 45.0433 32.6108C45.0577 32.4881 45.0477 32.3637 45.0137 32.245C44.9798 32.1262 44.9226 32.0154 44.8456 31.919C44.7686 31.8226 44.6733 31.7425 44.5651 31.6834C44.457 31.6244 44.3382 31.5874 44.2157 31.5749C44.0932 31.5623 43.9695 31.5743 43.8516 31.6101C43.7338 31.646 43.6243 31.705 43.5294 31.7837C42.1583 32.8802 41.0429 34.2644 40.2614 35.8394C39.48 37.4143 39.0515 39.1417 39.0059 40.9004V41.245C39.052 43.003 39.4808 44.7296 40.2622 46.3037C41.0436 47.8778 42.1587 49.2614 43.5294 50.3573C43.6944 50.489 43.8992 50.5605 44.1101 50.5599Z" fill="white"/>
<path d="M59.8944 50.557C60.1052 50.5567 60.3096 50.4842 60.4736 50.3514C61.8437 49.2558 62.9584 47.8727 63.7396 46.2991C64.5208 44.7255 64.9494 42.9995 64.9956 41.2421V41.2421V40.8975C64.9495 39.1398 64.5208 37.4136 63.7396 35.8398C62.9585 34.266 61.8438 32.8826 60.4736 31.7867C60.2811 31.6366 60.0374 31.5685 59.7953 31.5971C59.5531 31.6257 59.3319 31.7488 59.1794 31.9397C59.0269 32.1306 58.9553 32.374 58.9802 32.6174C59.005 32.8608 59.1243 33.0846 59.3122 33.2406C60.5044 34.165 61.4696 35.3513 62.1337 36.7083C62.7978 38.0654 63.1431 39.5572 63.1431 41.069C63.1431 42.5809 62.7978 44.0727 62.1337 45.4297C61.4696 46.7868 60.5044 47.9731 59.3122 48.8975C59.1612 49.0186 59.0517 49.184 58.9989 49.3705C58.9461 49.557 58.9525 49.7555 59.0174 49.9381C59.0823 50.1208 59.2024 50.2786 59.3609 50.3895C59.5194 50.5004 59.7085 50.559 59.9017 50.557H59.8944Z" fill="white"/>
<path d="M46.4301 47.6492C46.6225 47.6493 46.8103 47.5895 46.9674 47.4778C47.1245 47.3662 47.2431 47.2084 47.3069 47.0261C47.3707 46.8439 47.3765 46.6462 47.3234 46.4606C47.2703 46.2749 47.1611 46.1104 47.0108 45.9897C46.2538 45.4138 45.6399 44.6699 45.2173 43.8162C44.7947 42.9625 44.5747 42.0222 44.5747 41.069C44.5747 40.1158 44.7947 39.1755 45.2173 38.3218C45.6399 37.4681 46.2538 36.7242 47.0108 36.1483C47.106 36.0719 47.1853 35.9774 47.2441 35.8702C47.303 35.763 47.3402 35.6452 47.3537 35.5236C47.3672 35.402 47.3566 35.2789 47.3227 35.1614C47.2888 35.0439 47.2321 34.9342 47.156 34.8386C47.0798 34.7431 46.9856 34.6635 46.8788 34.6044C46.772 34.5454 46.6546 34.5081 46.5335 34.4945C46.4123 34.481 46.2896 34.4916 46.1725 34.5256C46.0553 34.5597 45.946 34.6165 45.8508 34.6929C44.9159 35.4414 44.1528 36.3834 43.6136 37.4546C43.0743 38.5258 42.7716 39.7011 42.7261 40.9004V41.245C42.7726 42.4439 43.0762 43.6186 43.6162 44.6891C44.1562 45.7596 44.9199 46.7006 45.8552 47.448C46.0186 47.5784 46.2213 47.6493 46.4301 47.6492V47.6492Z" fill="white"/>
<path d="M57.5684 47.6507C57.7795 47.651 57.9844 47.579 58.1492 47.4466C59.0856 46.6981 59.8501 45.7557 60.3904 44.6836C60.9307 43.6116 61.2341 42.4352 61.2798 41.2347V41.2347V40.8901C61.234 39.6896 60.9306 38.5132 60.3903 37.4412C59.85 36.3691 59.0856 35.4267 58.1492 34.6782C58.0543 34.5994 57.9447 34.5404 57.8269 34.5046C57.7091 34.4687 57.5853 34.4567 57.4628 34.4693C57.3403 34.4819 57.2216 34.5188 57.1134 34.5779C57.0053 34.637 56.9099 34.717 56.8329 34.8135C56.7559 34.9099 56.6988 35.0207 56.6648 35.1394C56.6309 35.2582 56.6208 35.3826 56.6352 35.5053C56.6496 35.628 56.6882 35.7466 56.7487 35.8542C56.8092 35.9618 56.8905 36.0563 56.9877 36.1321C57.7456 36.708 58.3602 37.4523 58.7833 38.3065C59.2065 39.1608 59.4267 40.1018 59.4267 41.0557C59.4267 42.0097 59.2065 42.9507 58.7833 43.8049C58.3602 44.6592 57.7456 45.4034 56.9877 45.9794C56.838 46.1002 56.7293 46.2646 56.6766 46.45C56.6239 46.6354 56.6298 46.8327 56.6935 47.0146C56.7572 47.1965 56.8756 47.354 57.0323 47.4656C57.189 47.5771 57.3763 47.6372 57.5684 47.6374V47.6507Z" fill="white"/>
<path d="M39.9256 71.991C40.1068 71.9911 40.2841 71.9379 40.4355 71.838C40.5869 71.7381 40.7058 71.5959 40.7776 71.4289L51.9971 45.4484L63.2136 71.4289C63.2597 71.5446 63.3284 71.6499 63.4156 71.7385C63.5029 71.8271 63.607 71.8972 63.7218 71.9447C63.8366 71.9922 63.9597 72.0161 64.0838 72.0151C64.2079 72.014 64.3306 71.988 64.4446 71.9385C64.5585 71.8891 64.6614 71.8172 64.7472 71.7271C64.833 71.6371 64.8999 71.5307 64.944 71.4142C64.9881 71.2978 65.0084 71.1736 65.0039 71.0491C64.9993 70.9246 64.97 70.8023 64.9175 70.6894L52.846 42.7359C52.774 42.5692 52.655 42.4273 52.5036 42.3276C52.3523 42.2279 52.1752 42.1748 51.9941 42.1748C51.8131 42.1748 51.636 42.2279 51.4846 42.3276C51.3332 42.4273 51.2142 42.5692 51.1422 42.7359L39.0707 70.6894C39.0098 70.8313 38.9848 70.9861 38.9981 71.1399C39.0114 71.2938 39.0626 71.442 39.1471 71.5711C39.2315 71.7003 39.3466 71.8064 39.4819 71.8799C39.6173 71.9535 39.7687 71.9921 39.9227 71.9925L39.9256 71.991Z" fill="white"/>
<path d="M42.7142 66.4002C42.8046 66.4 42.8945 66.3866 42.981 66.3603L51.9999 63.6448L61.0203 66.3603C61.2549 66.4265 61.5059 66.3975 61.7194 66.2797C61.9328 66.1618 62.0916 65.9645 62.1614 65.7303C62.2312 65.4961 62.2065 65.2437 62.0926 65.0276C61.9786 64.8115 61.7847 64.649 61.5524 64.5751L52.2667 61.7798C52.0931 61.728 51.9082 61.728 51.7346 61.7798L42.4489 64.5751C42.2349 64.6388 42.0508 64.7778 41.9306 64.9666C41.8103 65.1553 41.7618 65.3813 41.7941 65.603C41.8263 65.8247 41.9371 66.0273 42.1061 66.1737C42.275 66.3201 42.491 66.4006 42.7142 66.4002V66.4002Z" fill="white"/>
<path d="M46.4286 58.0142H57.5714C57.8177 58.0142 58.0539 57.916 58.228 57.7413C58.4022 57.5665 58.5 57.3295 58.5 57.0824C58.5 56.8353 58.4022 56.5983 58.228 56.4235C58.0539 56.2488 57.8177 56.1506 57.5714 56.1506H46.4286C46.1823 56.1506 45.9461 56.2488 45.772 56.4235C45.5978 56.5983 45.5 56.8353 45.5 57.0824C45.5 57.3295 45.5978 57.5665 45.772 57.7413C45.9461 57.916 46.1823 58.0142 46.4286 58.0142V58.0142Z" fill="white"/>
<path d="M52 72.5781C52.2463 72.5781 52.4825 72.48 52.6566 72.3052C52.8308 72.1305 52.9286 71.8935 52.9286 71.6464V43.1012C52.9286 42.8541 52.8308 42.6171 52.6566 42.4423C52.4825 42.2676 52.2463 42.1694 52 42.1694C51.7538 42.1694 51.5176 42.2676 51.3434 42.4423C51.1693 42.6171 51.0714 42.8541 51.0714 43.1012V71.6464C51.0718 71.8934 51.1698 72.1301 51.3439 72.3048C51.5179 72.4795 51.7539 72.5778 52 72.5781V72.5781Z" fill="white"/>
</g>
<defs>
<clipPath id="clip0_1132_4274">
<rect width="26" height="41" fill="white" transform="matrix(-1 0 0 1 65 31.5781)"/>
</clipPath>
</defs>
</svg>
