<svg xmlns="http://www.w3.org/2000/svg" width="50" height="50" viewBox="0 0 50 50">
  <g id="Page-1" transform="translate(0 0)">
    <g id="_031---University" data-name="031---University" transform="translate(0 0.001)">
      <path id="Shape" d="M49.167,44.4V25a.815.815,0,0,0-.1-.369h.008l-2.04-4.079A2.486,2.486,0,0,0,44.8,19.167H39.167v-.833a.833.833,0,0,0-.244-.589l-4.512-4.512a2.467,2.467,0,0,0-1.077-.624V6.988L35,6.54V8.564a2.554,2.554,0,0,0,1.139,2.129.833.833,0,0,0,.925-1.387.89.89,0,0,1-.4-.742V6.019a1.667,1.667,0,0,0-.4-3.052L25.428.057a1.659,1.659,0,0,0-.857,0L13.733,2.967a1.676,1.676,0,0,0,0,3.233l2.933.788V12.5h-.052a2.493,2.493,0,0,0-1.917.9l-3.667,4.4a.833.833,0,0,0-.2.533v.833H5.2a2.486,2.486,0,0,0-2.236,1.382L.921,24.628H.929a.815.815,0,0,0-.1.373V44.4A1.661,1.661,0,0,0,0,45.833V47.5a1.667,1.667,0,0,0,1.667,1.667H12.732A1.661,1.661,0,0,0,14.167,50H35.833a1.661,1.661,0,0,0,1.435-.833H48.333A1.667,1.667,0,0,0,50,47.5V45.833A1.661,1.661,0,0,0,49.167,44.4Zm-12.5-.232h-.833V25.833H47.5V44.167Zm-9.167,0h-5V35h5Zm.833-10.833H21.667a.833.833,0,0,0-.833.833v10h-5V25.833H34.167V44.167h-5v-10A.833.833,0,0,0,28.333,33.333ZM37.5,19.167v1.667h-25V19.167ZM35.833,22.5v1.667H14.167V22.5Zm8.97-1.667a.828.828,0,0,1,.745.461l1.437,2.872H37.5V22.5a1.667,1.667,0,0,0,1.667-1.667ZM25,1.667,35.845,4.583h-.011L25,7.5,14.167,4.577ZM18.333,7.435,24.572,9.11a1.647,1.647,0,0,0,.857,0l6.238-1.675V12.5H18.333Zm-2.359,7.032a.833.833,0,0,1,.64-.3H32.642a.833.833,0,0,1,.59.244L36.322,17.5H13.446ZM4.452,21.294a.828.828,0,0,1,.745-.461h5.637A1.667,1.667,0,0,0,12.5,22.5v1.667H3.015ZM1.667,45.833H12.5V47.5H1.667Zm11.667-1.667H2.5V25.833H14.167V44.167Zm.833,4.167v-2.5H35.833v2.5ZM48.333,47.5H37.5V45.833H48.333Z" transform="translate(0 -0.001)" fill="#fff"/>
      <path id="Shape-2" data-name="Shape" d="M27,33a1,1,0,0,0-1,1v2a1,1,0,0,0,2,0V34A1,1,0,0,0,27,33Z" transform="translate(-4.483 -5.893)" fill="#fff"/>
      <path id="Shape-3" data-name="Shape" d="M13,34a1,1,0,0,0-1,1v2a1,1,0,0,0,2,0V35A1,1,0,0,0,13,34Z" transform="translate(-2.069 -6.072)" fill="#fff"/>
      <path id="Shape-4" data-name="Shape" d="M7,34a1,1,0,0,0-1,1v2a1,1,0,0,0,2,0V35A1,1,0,0,0,7,34Z" transform="translate(0 -6.072)" fill="#fff"/>
      <path id="Shape-5" data-name="Shape" d="M13,40a1,1,0,0,0-1,1v2a1,1,0,0,0,2,0V41A1,1,0,0,0,13,40Z" transform="translate(-2.069 -7.143)" fill="#fff"/>
      <path id="Shape-6" data-name="Shape" d="M7,40a1,1,0,0,0-1,1v2a1,1,0,0,0,2,0V41A1,1,0,0,0,7,40Z" transform="translate(0 -7.143)" fill="#fff"/>
      <path id="Shape-7" data-name="Shape" d="M13,46a1,1,0,0,0-1,1v2a1,1,0,0,0,2,0V47A1,1,0,0,0,13,46Z" transform="translate(-2.069 -8.215)" fill="#fff"/>
      <path id="Shape-8" data-name="Shape" d="M7,46a1,1,0,0,0-1,1v2a1,1,0,0,0,2,0V47A1,1,0,0,0,7,46Z" transform="translate(0 -8.215)" fill="#fff"/>
      <path id="Shape-9" data-name="Shape" d="M53,34a1,1,0,0,0-1,1v2a1,1,0,0,0,2,0V35A1,1,0,0,0,53,34Z" transform="translate(-10 -6.072)" fill="#fff"/>
      <path id="Shape-10" data-name="Shape" d="M47,34a1,1,0,0,0-1,1v2a1,1,0,0,0,2,0V35A1,1,0,0,0,47,34Z" transform="translate(-7.931 -6.072)" fill="#fff"/>
      <path id="Shape-11" data-name="Shape" d="M53,40a1,1,0,0,0-1,1v2a1,1,0,0,0,2,0V41A1,1,0,0,0,53,40Z" transform="translate(-10 -7.143)" fill="#fff"/>
      <path id="Shape-12" data-name="Shape" d="M47,40a1,1,0,0,0-1,1v2a1,1,0,0,0,2,0V41A1,1,0,0,0,47,40Z" transform="translate(-7.931 -7.143)" fill="#fff"/>
      <path id="Shape-13" data-name="Shape" d="M53,46a1,1,0,0,0-1,1v2a1,1,0,0,0,2,0V47A1,1,0,0,0,53,46Z" transform="translate(-10 -8.215)" fill="#fff"/>
      <path id="Shape-14" data-name="Shape" d="M47,46a1,1,0,0,0-1,1v2a1,1,0,0,0,2,0V47A1,1,0,0,0,47,46Z" transform="translate(-7.931 -8.215)" fill="#fff"/>
      <path id="Shape-15" data-name="Shape" d="M33,33a1,1,0,0,0-1,1v2a1,1,0,0,0,2,0V34A1,1,0,0,0,33,33Z" transform="translate(-5.517 -5.893)" fill="#fff"/>
    </g>
  </g>
</svg>
